<svg width="588" height="384" viewBox="0 0 588 384" fill="none" xmlns="http://www.w3.org/2000/svg">
<g clip-path="url(#clip0)">
<path d="M294.4 382.8C285.9 382.8 277.8 380.9 271.7 377.3L155 310C148.6 306.2 145 301.1 145 295.6V290.4C145 285 148.5 279.9 154.9 276.2L270.8 208.8C276.9 205.3 284.9 203.3 293.4 203.3C301.9 203.3 310 205.2 316.1 208.8L432.8 276.2C439.2 279.9 442.8 285.1 442.8 290.6V295.8C442.8 301.2 439.3 306.3 432.9 310L317 377.4C311 380.9 302.9 382.8 294.4 382.8Z" fill="#43435C"/>
<path d="M440.8 291C441 286.3 438 281.6 431.8 278L315.1 210.6C303.1 203.7 283.7 203.7 271.8 210.6L155.9 278C150 281.5 147 286 147 290.5V295.7C147 300.3 150 304.8 156 308.3L272.7 375.7C284.7 382.6 304.1 382.6 316 375.7L431.9 308.3C437.8 304.9 440.8 300.4 440.8 295.8V290.6C440.9 290.7 440.9 290.9 440.8 291Z" fill="#43435C"/>
<path d="M431.8 278C443.8 284.9 443.9 296.2 431.9 303.1L316 370.4C304.1 377.3 284.7 377.3 272.7 370.4L156.1 303.1C144.1 296.2 144 284.9 156 278L271.9 210.6C283.8 203.7 303.2 203.7 315.2 210.6L431.8 278Z" fill="white"/>
<path d="M294.4 376.1C286.5 376.1 278.5 374.4 272.5 370.9L155.8 303.5C149.8 300 146.5 295.4 146.5 290.5C146.5 285.6 149.7 281 155.7 277.6L271.6 210.2C283.6 203.2 303.3 203.2 315.4 210.2L432.1 277.6C438.1 281.1 441.4 285.7 441.4 290.6C441.4 295.5 438.2 300.1 432.2 303.5L316.3 370.9C310.3 374.4 302.4 376.1 294.4 376.1ZM293.5 205.9C285.7 205.9 278 207.6 272.1 211L156.2 278.4C150.6 281.6 147.5 285.9 147.5 290.5C147.5 295.1 150.6 299.4 156.3 302.7L273 370C284.8 376.8 304.1 376.8 315.8 370L431.7 302.6C437.3 299.4 440.4 295.1 440.4 290.5C440.4 285.9 437.3 281.6 431.6 278.3L314.9 210.9C309 207.6 301.2 205.9 293.5 205.9Z" fill="#43435C"/>
<path d="M432 303.1L316 370.4C304.1 377.3 284.7 377.3 272.7 370.4L156.1 303.1C150.1 299.6 147 295 147.1 290.5V295.7C147.1 300.3 150.1 304.8 156.1 308.3L272.8 375.7C284.8 382.6 304.2 382.6 316.1 375.7L432 308.3C437.9 304.9 440.9 300.4 440.9 295.8V290.6C440.9 295.1 437.9 299.6 432 303.1Z" fill="#D0D0D6"/>
<path d="M293.9 344.1C290.9 344.1 288.1 343.4 286 342.2L208.5 297.5C206 296.1 204.6 294 204.6 291.7L204.8 222C204.8 219.8 206.1 217.8 208.5 216.4L208.2 216.2C205.7 214.8 204.3 212.7 204.3 210.4L204.5 140.7C204.5 138.5 205.9 136.4 208.3 135L208.1 134.9C205.6 133.5 204.2 131.4 204.2 129.1L204.4 59.3999C204.4 57.1999 205.8 55.0999 208.2 53.6999L285.2 8.99985C287.3 7.79985 290.2 7.09985 293.1 7.09985C296.1 7.09985 298.9 7.79985 301 8.99985L378.5 53.6999C381.1 55.1999 382.5 57.2999 382.4 59.6999L382.2 129.3C382.2 131.5 380.8 133.6 378.4 135L378.6 135.1C381.1 136.5 382.5 138.7 382.5 140.9L382.3 210.6C382.3 212.8 381 214.8 378.6 216.2L378.9 216.4C381.4 217.9 382.8 220 382.8 222.3L382.6 292C382.6 294.2 381.2 296.3 378.8 297.7L301.8 342.4C299.6 343.4 296.8 344.1 293.9 344.1Z" fill="#43435C"/>
<path d="M380.8 222C380.8 220.5 379.9 219 377.9 217.9L374.6 216L377.5 214.3C379.4 213.2 380.3 211.8 380.3 210.3L380.5 140.6C380.5 139.1 379.6 137.6 377.6 136.5L374.4 134.7L377.4 133C379.3 131.9 380.2 130.5 380.2 129L380.4 59.3999C380.5 57.8999 379.5 56.3998 377.5 55.2999L300.1 10.4999C296.3 8.29985 290.1 8.29985 286.3 10.4999L209.3 55.1999C207.4 56.2999 206.5 57.6999 206.5 59.1999L206.3 128.9C206.3 130.4 207.3 131.8 209.2 132.9L212.4 134.7L209.4 136.4C207.5 137.5 206.6 138.9 206.6 140.4L206.4 210.1C206.4 211.6 207.4 213 209.3 214.1L212.6 216L209.7 217.7C207.8 218.8 206.9 220.2 206.9 221.7L206.7 291.4C206.7 292.9 207.7 294.3 209.6 295.4L287.1 340.1C290.9 342.3 297.1 342.3 300.9 340.1L377.9 295.4C379.8 294.3 380.7 292.9 380.7 291.4L380.8 222Z" fill="white"/>
<path d="M293.9 342.6C291.3 342.6 288.7 342 286.7 340.9L209.2 296.2C207.2 295 206.1 293.4 206.1 291.7L206.3 222C206.3 220.3 207.4 218.7 209.4 217.6L211.5 216.4L208.9 214.9C206.9 213.7 205.8 212.1 205.8 210.4L206 140.7C206 139 207.1 137.4 209.1 136.3L211.4 135L209 133.6C207 132.4 205.9 130.8 205.9 129.1L206 59.2999C206 57.5998 207.1 55.9999 209.1 54.8999L286.1 10.1999C290 7.89985 296.5 7.89985 300.4 10.1999L377.9 54.8999C380 56.0999 381.1 57.7999 381 59.4999L380.8 129.1C380.8 130.8 379.7 132.4 377.7 133.5L375.4 134.8L377.8 136.2C379.9 137.4 381 139 380.9 140.7L380.7 210.4C380.7 212.1 379.6 213.7 377.6 214.8L375.5 216L378.1 217.5C380.2 218.7 381.3 220.3 381.2 222L381 291.7C381 293.4 379.9 295 377.9 296.1L300.9 340.8C299.1 342 296.5 342.6 293.9 342.6ZM207.3 221.9L207.1 291.6C207.1 292.9 208 294.2 209.7 295.2L287.2 339.9C290.9 342 296.9 342 300.5 339.9L377.5 295.2C379.2 294.2 380.1 293 380.1 291.7L380.3 222C380.3 220.6 379.4 219.4 377.7 218.4L373.6 216.1L377.2 214C378.9 213 379.8 211.8 379.8 210.5L380 140.8C380 139.4 379.1 138.1 377.4 137.2L373.5 134.9L377.3 132.7C379 131.7 379.9 130.5 379.9 129.2L380.1 59.5999C380.2 58.1999 379.2 56.8999 377.5 55.8999L299.9 10.9999C296.2 8.89985 290.2 8.89985 286.6 10.9999L209.6 55.6999C207.9 56.6999 207 57.8998 207 59.2999L206.8 129C206.8 130.3 207.7 131.6 209.4 132.6L213.3 134.9L209.5 137.1C207.8 138.1 206.9 139.3 206.9 140.7L206.7 210.4C206.7 211.7 207.6 213 209.3 214L213.4 216.3L209.8 218.4C208.2 219.3 207.3 220.6 207.3 221.9Z" fill="#43435C"/>
<path d="M378.2 217.9C382 220.1 382.1 223.7 378.2 225.9L301.2 270.6C297.4 272.8 291.2 272.8 287.4 270.6L209.9 225.9C206.1 223.7 206 220.1 209.9 217.9L286.9 173.2C290.7 171 296.9 171 300.7 173.2L378.2 217.9Z" fill="#E8E8EB"/>
<path d="M378.2 225.9L301.2 270.6C297.4 272.8 291.2 272.8 287.4 270.6L209.9 225.9C208 224.8 207 223.3 207 221.9L206.8 291.6C206.8 293.1 207.8 294.5 209.7 295.6L287.2 340.3C291 342.5 297.2 342.5 301 340.3L378 295.6C379.9 294.5 380.8 293.1 380.8 291.6L381 221.9C381.1 223.4 380.1 224.8 378.2 225.9Z" fill="white"/>
<path d="M294.1 342.6C291.5 342.6 288.9 342 286.9 340.9L209.4 296.2C207.4 295 206.3 293.4 206.3 291.7L206.5 222H207.5C207.5 223.3 208.4 224.6 210.1 225.6L287.6 270.3C291.3 272.4 297.3 272.4 300.9 270.3L377.9 225.6C379.6 224.6 380.5 223.4 380.5 222.1H381.5L381.3 291.8C381.3 293.5 380.2 295.1 378.2 296.2L301.2 340.9C299.3 342 296.7 342.6 294.1 342.6ZM207.5 224.6L207.3 291.7C207.3 293 208.2 294.3 209.9 295.3L287.4 340C291.1 342.1 297.1 342.1 300.7 340L377.7 295.3C379.4 294.3 380.3 293.1 380.3 291.8L380.5 224.7C380 225.3 379.3 225.9 378.4 226.4L301.4 271.1C297.5 273.4 291 273.4 287.1 271.1L209.6 226.4C208.7 225.9 208 225.3 207.5 224.6Z" fill="#43435C"/>
<path d="M378.2 136.6C382 138.8 382.1 142.4 378.2 144.6L301.2 189.3C297.4 191.5 291.2 191.5 287.4 189.3L209.9 144.6C206.1 142.4 206 138.8 209.9 136.6L286.9 91.9C290.7 89.7 296.9 89.7 300.7 91.9L378.2 136.6Z" fill="#E8E8EB"/>
<path d="M378.2 144.6L301.2 189.3C297.4 191.5 291.2 191.5 287.4 189.3L209.9 144.6C208 143.5 207 142 207 140.6L206.8 210.3C206.8 211.8 207.8 213.2 209.7 214.3L287.2 259C291 261.2 297.2 261.2 301 259L378 214.3C379.9 213.2 380.8 211.8 380.8 210.3L381 140.6C381.1 142.1 380.1 143.5 378.2 144.6Z" fill="white"/>
<path d="M294.1 261.3C291.5 261.3 288.9 260.7 286.9 259.6L209.4 214.9C207.4 213.7 206.3 212.1 206.3 210.4L206.5 140.7H207.5C207.5 142 208.4 143.3 210.1 144.3L287.6 189C291.3 191.1 297.3 191.1 300.9 189L377.9 144.3C379.6 143.3 380.5 142.1 380.5 140.8H381.5L381.3 210.5C381.3 212.2 380.2 213.8 378.2 214.9L301.2 259.6C299.3 260.7 296.7 261.3 294.1 261.3ZM207.5 143.3L207.3 210.4C207.3 211.7 208.2 213 209.9 214L287.4 258.7C291.1 260.8 297.1 260.8 300.7 258.7L377.7 214C379.4 213 380.3 211.8 380.3 210.5L380.5 143.4C380 144 379.3 144.6 378.4 145.1L301.4 189.8C297.5 192.1 291 192.1 287.1 189.8L209.6 145.1C208.7 144.5 208 143.9 207.5 143.3Z" fill="#43435C"/>
<path d="M378.2 55.2999C382 57.5 382.1 61.0999 378.2 63.2999L301.2 108C297.4 110.2 291.2 110.2 287.4 108L209.9 63.2999C206.1 61.0999 206 57.5 209.9 55.2999L286.9 10.6C290.7 8.39995 296.9 8.39995 300.7 10.6L378.2 55.2999Z" fill="#E8E8EB"/>
<path d="M378.2 63.3L301.2 108C297.4 110.2 291.2 110.2 287.4 108L209.9 63.3C208 62.2 207 60.7 207 59.3L206.8 129C206.8 130.5 207.8 131.9 209.7 133L287.2 177.7C291 179.9 297.2 179.9 301 177.7L378 133C379.9 131.9 380.8 130.5 380.8 129L381 59.3C381.1 60.8 380.1 62.2 378.2 63.3Z" fill="white"/>
<path d="M294.1 179.9C291.5 179.9 288.9 179.3 286.9 178.2L209.4 133.5C207.4 132.3 206.3 130.7 206.3 129L206.5 59.3H207.5C207.5 60.6 208.4 61.9001 210.1 62.9001L287.6 107.6C291.3 109.7 297.3 109.7 300.9 107.6L377.9 62.9001C379.6 61.9001 380.5 60.7001 380.5 59.4001H381.5L381.3 129.1C381.3 130.8 380.2 132.4 378.2 133.5L301.2 178.2C299.3 179.4 296.7 179.9 294.1 179.9ZM207.5 61.9001L207.3 129C207.3 130.3 208.2 131.6 209.9 132.6L287.4 177.3C291.1 179.4 297.1 179.4 300.7 177.3L377.7 132.6C379.4 131.6 380.3 130.4 380.3 129.1L380.5 62C380 62.6 379.3 63.2001 378.4 63.7001L301.4 108.4C297.5 110.7 291 110.7 287.1 108.4L209.6 63.7001C208.7 63.2001 208 62.6001 207.5 61.9001Z" fill="#43435C"/>
<path d="M294.1 97.2999C291.8 97.2999 289.5 96.7999 287.8 95.7999L229 61.7999C227 60.5999 225.8 58.9 225.8 57L226 41.4C226 39.6 227.2 37.7999 229.2 36.7L287.7 2.69995C289.4 1.69995 291.6 1.19995 293.9 1.19995C296.2 1.19995 298.5 1.69995 300.2 2.69995L359 36.7C361.1 37.9 362.2 39.5999 362.2 41.5L362 57.1C362 58.9 360.8 60.7 358.8 61.7999L300.3 95.7999C298.6 96.7999 296.4 97.2999 294.1 97.2999Z" fill="#43435C"/>
<path d="M357.9 44.5001L299.4 78.5001C296.5 80.2001 291.8 80.2001 288.9 78.5001L230.1 44.5001C228.6 43.7001 227.9 42.5001 227.9 41.4001L227.7 57.0001C227.7 58.1001 228.4 59.2001 229.9 60.1001L288.7 94.1001C291.6 95.8001 296.3 95.8001 299.2 94.1001L357.7 60.1001C359.1 59.3001 359.9 58.2001 359.9 57.1001L360.1 41.5001C360.1 42.6001 359.4 43.7001 357.9 44.5001Z" fill="#E8E8EB"/>
<path d="M357.9 38.4C360.8 40.1 360.8 42.8 357.9 44.5L299.4 78.5C296.5 80.2 291.8 80.2 288.9 78.5L230.1 44.5C227.2 42.8 227.2 40.1 230.1 38.4L288.6 4.4C291.5 2.7 296.2 2.7 299.1 4.4L357.9 38.4Z" fill="white"/>
<path d="M294.2 80.2001C292.2 80.2001 290.2 79.8 288.7 78.9L229.9 44.9001C228.3 44 227.5 42.8001 227.5 41.4001C227.5 40.1001 228.4 38.8001 229.9 37.9001L288.4 3.90005C291.4 2.10005 296.4 2.10005 299.4 3.90005L358.2 37.9001C359.8 38.8001 360.6 40 360.6 41.4001C360.6 42.7001 359.7 44 358.2 44.9001L299.7 78.9C298.2 79.8 296.2 80.2001 294.2 80.2001ZM293.8 3.70005C292 3.70005 290.2 4.10005 288.8 4.90005L230.3 38.9001C229.1 39.6001 228.4 40.5 228.4 41.5C228.4 42.5 229.1 43.4001 230.3 44.1001L289.1 78.1001C291.9 79.7001 296.3 79.7001 299.1 78.1001L357.6 44.1001C358.8 43.4001 359.5 42.5 359.5 41.5C359.5 40.5 358.8 39.6001 357.6 38.9001L298.8 4.90005C297.4 4.10005 295.6 3.70005 293.8 3.70005Z" fill="#43435C"/>
<path d="M259.1 206.2C259.7 206.5 260.2 207.1 260.7 207.7C261 208.2 261.2 208.8 261.1 209.3L260.5 209C260.5 208.5 260.2 207.9 259.9 207.4C259.6 207 259.2 206.7 258.8 206.5C258.5 206.3 258.1 206.2 257.8 206.1C257.7 206.1 257.7 206.1 257.6 206.1C257.2 206.2 257.1 206.9 257.4 207.6C257.7 208 258.1 208.4 258.4 208.7C259.2 209.2 259.9 209.9 260.6 210.7C261.3 211.6 261.3 213.1 260.6 213.3C260.1 213.4 259.6 213.3 259 212.9C258.9 212.9 258.9 212.8 258.8 212.8C258.7 212.8 258.7 212.7 258.6 212.7C258 212.3 257.3 211.7 256.8 211C256.5 210.4 256.3 209.7 256.3 209.2C256.5 209.3 256.7 209.4 256.9 209.5C256.9 210.1 257.2 210.8 257.6 211.4C258 211.8 258.4 212.1 258.8 212.4C259.2 212.6 259.5 212.7 259.8 212.8C260.3 212.8 260.5 212.2 260.3 211.4C260.2 211.1 260 210.8 259.7 210.6C258.8 209.8 257.8 209.2 257 208.3C256.2 207.4 256.2 205.7 256.9 205.6C257.3 205.6 257.8 205.7 258.4 206C258.5 206 258.5 206.1 258.6 206.1C258.9 206.1 259 206.2 259.1 206.2Z" fill="#316192"/>
<path d="M267.3 215.4C267.2 215.9 266.9 216.2 266.5 216.4C266.8 216.8 267.1 217.2 267.3 217.6C267.2 217.7 267.1 217.8 266.9 217.8C266.6 217.4 266.3 216.9 266.1 216.5C265.9 216.4 265.7 216.4 265.4 216.3C265.1 216.2 264.8 216.1 264.4 215.9C264.1 215.7 263.8 215.5 263.4 215.2C262.7 214.6 262 213.7 261.7 212.7C261.3 211.7 261.3 210.6 261.5 209.9C261.7 209.2 262.1 208.8 262.7 208.7C263.2 208.7 263.8 208.8 264.4 209.2C264.6 209.3 264.7 209.4 264.9 209.5C265.6 210 266.3 210.8 266.8 211.8C267.4 213.1 267.6 214.4 267.3 215.4ZM264.5 215.5C265.2 215.9 265.9 216 266.4 215.6C267.1 214.8 267 212.9 266.1 211.4C265.6 210.7 265 210.1 264.4 209.7C264.1 209.6 263.9 209.4 263.6 209.4C262.9 209.2 262.3 209.5 262.1 210.2C261.8 211 262 212.1 262.5 213.3C262.6 213.5 262.7 213.6 262.8 213.8C263.3 214.6 263.9 215.1 264.5 215.5Z" fill="#316192"/>
<path d="M268.4 211.7C268.4 213.7 268.4 215.6 268.4 217.6C269 217.9 269.5 218.3 270.1 218.6C270.4 218.7 270.6 218.9 270.9 219C271.3 219.2 271.6 219.4 272 219.6C272 219.8 272 219.9 272 220.1C270.6 219.3 269.2 218.5 267.9 217.7V211.3L268.4 211.7Z" fill="#316192"/>
<path d="M241.5 199.7C241.6 200 241.6 200.2 241.7 200.5C241.7 200.6 241.7 200.6 241.7 200.7C241.7 201.1 241.6 201.5 241.4 201.7C241.3 201.7 241.3 201.8 241.2 201.8C241.1 201.8 241.1 201.8 241 201.8C240.7 201.8 240.3 201.7 239.9 201.5C239.8 201.4 239.7 201.4 239.6 201.3L239.4 201.2C239.3 201.1 239.3 201.1 239.2 201C239.1 200.9 239.1 200.9 239 200.8C238.9 200.7 238.9 200.7 238.8 200.6L238.7 200.5C238.6 200.4 238.5 200.3 238.5 200.1L238.4 200C238.3 199.9 238.3 199.8 238.3 199.7C238.3 199.7 238.3 199.7 238.3 199.6C238.2 199.4 238.2 199.3 238.2 199.1C238.2 199 238.2 198.9 238.2 198.9V198.8V198.7C238.2 198.6 238.2 198.6 238.2 198.5C238.2 198.3 238.3 198.1 238.3 197.9C238.3 197.8 238.4 197.8 238.4 197.7L238.5 197.6C238.7 197.5 239 197.4 239.3 197.6C239.5 197.7 239.6 197.7 239.8 197.8C240.2 198 240.6 198.4 240.9 198.8C241 198.9 241.1 199.1 241.2 199.3L241.3 199.5L241.5 199.7ZM241 201.3C241.2 201.1 241.3 200.7 241.3 200.2C241.3 199.8 241.1 199.4 240.9 199C240.6 198.7 240.3 198.4 240 198.2C239.9 198.1 239.8 198.1 239.7 198.1C239.3 197.9 238.9 198.1 238.8 198.5C238.6 199 238.7 199.7 239 200.3C239.2 200.7 239.6 201 239.9 201.2C240 201.2 240 201.3 240.1 201.3C240.4 201.4 240.7 201.5 241 201.3Z" fill="#1A1A1A"/>
<path d="M239.3 201.1L239.4 201.2L239.3 201.1Z" fill="#1A1A1A"/>
<path d="M238 195.4C238.4 196.1 238.5 196.8 238.3 197.3C238.1 197.8 237.6 197.8 237.1 197.5C236.4 197.1 235.8 196.7 235.1 196.4C235.1 197.2 235.1 197.9 235.1 198.7L234.7 198.5V193.2C235.5 193.6 236.2 194.1 237 194.5C237 194.5 237.1 194.5 237.1 194.6C237.4 194.6 237.7 195 238 195.4ZM237.8 196.9C237.9 196.6 237.9 196.1 237.7 195.6C237.5 195.3 237.2 195 237 194.8H236.9L235.1 193.8C235.1 194.5 235.1 195.3 235.1 196C235.7 196.4 236.3 196.7 236.9 197.1C237.3 197.2 237.6 197.2 237.8 196.9Z" fill="#1A1A1A"/>
<path d="M243.5 199.8C243.9 200 244.3 200.4 244.6 200.8C244.8 201.1 244.9 201.5 244.9 201.8L244.5 201.5C244.5 201.2 244.4 200.9 244.2 200.7C244 200.4 243.7 200.2 243.5 200.1C243.4 200 243.2 200 243.1 199.9C242.8 199.7 242.6 199.8 242.5 200.2C242.5 200.4 242.6 200.7 242.8 200.9C243.3 201.4 243.8 201.6 244.4 202.1C244.7 202.3 244.9 202.6 245 202.9C245.2 203.4 245.1 203.9 244.8 204C244.5 204 244.1 203.9 243.8 203.7C243.7 203.7 243.7 203.6 243.6 203.6L243.5 203.5C243.1 203.3 242.8 203 242.4 202.5C242.2 202.2 242.1 201.8 242.1 201.4L242.6 201.7C242.6 202.1 242.9 202.6 243.2 202.8C243.4 202.9 243.5 203.1 243.7 203.2C244 203.4 244.3 203.5 244.6 203.5C244.7 203.5 244.7 203.5 244.7 203.4C244.8 203.2 244.8 202.8 244.5 202.5C243.9 201.9 243.2 201.6 242.6 200.9C242.5 200.8 242.5 200.7 242.4 200.6C242.1 200 242.1 199.5 242.5 199.4C242.8 199.4 243.1 199.5 243.4 199.6C243.3 199.7 243.4 199.8 243.5 199.8Z" fill="#1A1A1A"/>
<path d="M246.1 200.3V201.4L246.8 201.8C246.8 201.9 246.8 202 246.8 202.2L246.1 201.8C246.1 202.6 246.1 203.3 246.1 204C246.1 204.2 246.1 204.4 246.2 204.6C246.3 204.7 246.5 204.8 246.6 204.9C246.7 204.9 246.7 205 246.8 205V205.4C246.7 205.4 246.6 205.3 246.5 205.3C246.3 205.2 246.1 205 245.9 204.8C245.7 204.6 245.6 204.3 245.7 204C245.7 203.2 245.7 202.4 245.7 201.6L245.1 201.3V200.9C245.3 201 245.5 201.1 245.7 201.2C245.7 200.8 245.7 200.4 245.7 200.1L246.1 200.3Z" fill="#1A1A1A"/>
<path d="M250.4 207.2C250.4 207.7 250.3 208.1 250.1 208.3C249.8 208.4 249.4 208.4 248.9 208.1L248.8 208L248.7 207.9C248.3 207.7 248 207.4 247.7 207C247.4 206.6 247.3 206.2 247.3 205.9L247.7 206.1C247.8 206.4 247.9 206.7 248 206.9C248.2 207.2 248.5 207.4 248.8 207.5L248.9 207.6C248.9 207.6 248.9 207.6 249 207.6C249.4 207.8 249.7 207.8 249.9 207.6C250.1 207.3 250.1 206.9 250.1 206.4C249.7 206.6 249.3 206.6 248.8 206.3C248.7 206.2 248.5 206.1 248.4 206C248 205.7 247.6 205.3 247.4 204.8C247.1 204.1 247 203.5 247.2 203C247.3 202.5 247.7 202.3 248.2 202.5C248.4 202.6 248.6 202.6 248.9 202.8C249.1 202.9 249.3 203.1 249.6 203.3C249.8 203.6 250 203.9 250.2 204.2V203.6L250.6 203.8C250.5 205.1 250.4 206.1 250.4 207.2ZM249.8 206.2C250.2 205.8 250.1 204.9 249.6 204.1C249.3 203.8 249 203.5 248.7 203.3C248.6 203.2 248.5 203.2 248.4 203.2C248.1 203.1 247.8 203.1 247.6 203.3C247.4 203.6 247.4 204.1 247.5 204.7C247.6 205.2 248 205.7 248.4 206C248.5 206.1 248.6 206.2 248.7 206.2C249.1 206.3 249.5 206.4 249.8 206.2Z" fill="#1A1A1A"/>
<path d="M252.5 205C252.6 205 252.7 205.1 252.7 205.1V205.5C252.6 205.4 252.5 205.4 252.4 205.3C252.1 205.1 251.9 205.1 251.7 205.1C251.4 205.2 251.3 205.6 251.3 206C251.3 206.6 251.3 207.2 251.3 207.8L250.9 207.6C250.9 206.4 250.9 205.3 250.9 204.1L251.3 204.4C251.3 204.6 251.3 204.8 251.3 205C251.4 204.8 251.5 204.7 251.7 204.7C252 204.8 252.2 204.9 252.5 205Z" fill="#1A1A1A"/>
<path d="M254.9 209.7C255.2 209.8 255.5 209.6 255.6 209.3L256.1 209.6C256 210.1 255.6 210.3 255.1 210.2C254.9 210.2 254.7 210.1 254.5 209.9C254.1 209.7 253.6 209.3 253.3 208.8C252.7 207.8 252.6 206.8 253 206.2C253.3 205.8 253.8 205.8 254.3 206.1C254.4 206.1 254.5 206.2 254.6 206.2C255.1 206.5 255.5 206.9 255.8 207.5C256.1 208 256.2 208.6 256.2 209.1C255.7 208.8 255.3 208.6 254.8 208.3C254.5 208.1 254.3 208 254 207.8C253.7 207.6 253.5 207.5 253.2 207.3C253.2 207.7 253.3 208.1 253.5 208.4C253.8 208.9 254.1 209.2 254.5 209.4C254.5 209.6 254.7 209.7 254.9 209.7ZM253.6 206.3C253.3 206.4 253.1 206.6 253 207C253.4 207.2 253.7 207.4 254.1 207.6C254.6 207.9 255.1 208.2 255.6 208.5C255.6 208.2 255.5 207.9 255.4 207.7C255.1 207.2 254.7 206.7 254.3 206.5C254.1 206.3 253.9 206.3 253.6 206.3Z" fill="#1A1A1A"/>
<path d="M218.6 191.8C218 191.3 217.6 190.7 217.4 190.1C216.9 188.8 216.5 187.5 216.2 186.3C216.5 187.6 216.9 188.8 217.4 190.1C217.7 190.7 218.1 191.3 218.6 191.8C218.8 191.9 219 192 219.2 192C219.1 192 218.9 191.9 218.6 191.8Z" fill="white"/>
<path d="M223.5 199.1C223.6 199.8 224 200.5 224.4 201.1C224 200.5 223.6 199.8 223.5 199.1C223.2 197.7 223 196.4 223.1 195.1C222.7 195 222.2 194.9 221.8 194.6C221.4 194.4 221 194.1 220.6 193.7C220.3 193.4 220.1 193.1 219.9 192.7C219.6 192.8 219.2 192.8 218.8 192.5C218.7 192.4 218.5 192.3 218.4 192.2C218.5 192.3 218.6 192.4 218.8 192.5C219.2 192.7 219.6 192.8 220 192.6C220.2 193 220.5 193.3 220.8 193.6C221.2 194 221.6 194.3 222 194.5C222.4 194.8 222.9 194.9 223.3 195C223.1 196.3 223.2 197.7 223.5 199.1Z" fill="white"/>
<path d="M223 192.2C223.3 192.4 223.5 192.7 223.5 193.1C223.5 193.2 223.5 193.3 223.4 193.4C223 193.7 222.3 193.7 221.7 193.3C221.4 193.1 221 192.8 220.7 192.5C221.2 192.6 221.6 192.7 222 192.7C222.2 192.7 222.4 192.5 222.6 192.4C222.8 192.3 222.9 192.2 223 192.2Z" fill="#316192"/>
<path d="M222.7 185.7H222.6C222.6 185.8 222.6 185.8 222.7 185.7Z" fill="white"/>
<path d="M232.6 197.3C232.7 197.5 232.7 197.7 232.6 197.9C232.6 197.7 232.7 197.5 232.6 197.3C232.5 197.1 232.3 197 232.2 196.9C232.1 196.8 231.9 196.8 231.8 196.7C231.5 196.6 231.2 196.5 230.9 196.3C230.6 196.1 230.3 195.9 230 195.6C230.3 195.9 230.6 196.1 230.9 196.3C231.2 196.5 231.5 196.6 231.8 196.7C231.9 196.7 232.1 196.8 232.2 196.9C232.3 196.9 232.5 197.1 232.6 197.3Z" fill="white"/>
<path d="M227.6 188.7C227.6 188.8 227.6 189 227.7 189.1C227.9 190.6 228.6 192.2 229.2 193.8C229.4 193.5 229.4 193.1 229.4 192.7C229.4 193.1 229.3 193.6 229.2 193.9C228.7 192.3 227.9 190.7 227.7 189.2C227.6 189 227.6 188.8 227.6 188.7Z" fill="white"/>
<path d="M220.8 190.1C220.2 189.1 219.9 188 219.9 187.1C219.9 188 220.2 189.1 220.8 190.1Z" fill="white"/>
<path d="M220.5 183.4C221 183.3 221.6 183.5 222.2 183.8C221.6 183.5 221 183.4 220.5 183.4Z" fill="white"/>
<path d="M217.9 177.1C218.3 177.2 218.6 177.4 219 177.6C219.8 178.1 220.7 178.7 221.5 179.5C220.7 178.7 219.9 178.1 219 177.6C218.6 177.5 218.3 177.3 217.9 177.1Z" fill="white"/>
<path d="M228.4 196.5C228.3 197.7 228.1 199 227.9 200.2C227.9 200.8 227.5 201.2 227.1 201.3C226.7 201.3 226.2 201.2 225.7 200.9C226.2 201.2 226.7 201.3 227.1 201.3C227.6 201.2 227.9 200.8 227.9 200.2C228.1 199 228.2 197.8 228.4 196.5C228.4 196 228.4 195.6 228.6 195.2C228.8 195 229 195 229.2 195C229 194.6 228.8 194.2 228.7 193.8C228.1 192.1 227.4 190.4 227.1 188.8C227 188.1 227.1 187.5 227.5 187.2C227.9 187.1 228.4 187.2 228.9 187.5C228.4 187.2 227.9 187.1 227.5 187.2C227.1 187.4 226.9 188 227.1 188.8C227.3 190.4 228.1 192.2 228.7 193.8C228.9 194.2 229 194.6 229.2 195C229 195 228.7 195 228.6 195.2C228.4 195.6 228.4 196.1 228.4 196.5Z" fill="white"/>
<path d="M228 182.5C228.7 182.9 229.3 183.4 230 184C230.7 184.7 231.3 185.7 231.8 186.6C232 187.1 232.1 187.5 232.1 187.9C232.1 188.9 232 189.7 231.7 190.5C231.3 192 230.7 193.3 229.9 194.4C229.8 194.5 229.7 194.6 229.6 194.7V194.5C229.7 194.3 229.8 194 229.9 193.8C230 193 230 192.1 229.9 191.1C229.8 190.2 230.1 189.5 230.1 188.7C230.1 188.4 230 188 229.9 187.7C229.9 187.6 229.8 187.5 229.8 187.4C229.3 185.8 228.5 184.2 227.5 182.9C227.3 182.6 227 182.3 226.7 181.9C227.1 182.1 227.5 182.3 228 182.5Z" fill="#316192"/>
<path d="M231.6 190.7C231.2 192.2 230.5 193.5 229.7 194.6C229.6 194.7 229.5 194.8 229.4 194.9C229.5 194.8 229.6 194.7 229.6 194.6C230.6 193.4 231.2 192.1 231.6 190.7C231.8 189.9 232 189 232 188C232 187.6 231.9 187.1 231.7 186.7C231.9 187.2 232 187.6 232 188.1C232 189 231.9 189.9 231.6 190.7Z" fill="white"/>
<path d="M228.5 188.3C228.6 188.4 228.8 188.5 228.9 188.6V188.7C228.8 188.9 228.7 188.9 228.5 188.8C228.4 188.8 228.4 188.7 228.3 188.7C228.2 188.6 228 188.3 228.2 188.2C228.2 188.2 228.3 188.2 228.5 188.3Z" fill="white"/>
<path d="M228.5 188.9C228.7 189 228.8 189 228.9 188.8C228.8 188.9 228.6 189 228.5 188.9Z" fill="white"/>
<path d="M229.3 192C229.3 191.6 229.2 191.2 229.2 190.8C229.2 190 229.3 189.2 229.4 188.5L229.3 188.4C229.2 188.3 229.1 188.2 228.9 188.2C228.5 188 228.2 187.9 227.9 187.9C227.7 188 227.6 188.3 227.6 188.6C227.6 188.7 227.6 188.9 227.7 189C227.9 190.5 228.6 192.1 229.2 193.7C229.4 193.4 229.4 193 229.4 192.6C229.4 192.5 229.4 192.5 229.4 192.4C229.3 192.3 229.3 192.2 229.3 192ZM228.9 188.7C228.9 188.8 228.9 188.8 228.9 188.7C228.9 188.8 228.9 188.8 228.9 188.8C228.8 188.9 228.7 189 228.5 188.9C228.5 188.9 228.4 188.9 228.4 188.8C228.4 188.8 228.3 188.8 228.3 188.7C228.2 188.6 228 188.3 228.2 188.2H228.3H228.4C228.5 188.2 228.5 188.2 228.6 188.3C228.6 188.3 228.6 188.3 228.7 188.3C228.7 188.4 228.8 188.5 228.9 188.7C228.9 188.6 228.9 188.7 228.9 188.7Z" fill="#316192"/>
<path d="M228.1 188.6C228.1 188.6 228.1 188.5 228.1 188.6C228 188.5 228 188.4 228 188.4V188.3C227.9 188.4 228 188.6 228.1 188.8C228.2 188.7 228.1 188.7 228.1 188.6Z" fill="white"/>
<path d="M233 187.4C232.8 186.8 232.6 186.1 232.2 185.5C232.5 186.2 232.8 186.8 233 187.4C233.2 188.5 233.2 189.5 233 190.4C232.6 192.5 231.8 194.3 230.8 195.7C231.8 194.3 232.6 192.5 233 190.4C233.2 189.5 233.2 188.5 233 187.4Z" fill="white"/>
<path d="M233.1 197.6C233 197 232.6 196.5 232.2 196.3H232.1C231.6 196.1 231.2 196 230.7 195.7C231.8 194.3 232.5 192.5 232.9 190.4C233.1 189.5 233.1 188.5 232.9 187.5C232.7 186.9 232.5 186.2 232.1 185.6C231.3 184.3 230.3 183.1 229.2 182.2C229.1 182.2 229.1 182.1 229 182.1C228.8 181.9 228.6 181.8 228.3 181.6C228.2 181.5 228.1 181.5 228 181.4C227.9 181.4 227.9 181.3 227.8 181.3C227 180.9 226.3 180.5 225.5 180.4C225.1 180.1 224.6 179.8 224.2 179.5C223.8 179.3 223.4 179.1 223 178.9C222.7 178.8 222.5 178.8 222.2 178.7C222 178.7 221.8 178.7 221.6 178.7C220.7 177.8 219.7 177 218.7 176.4C218.3 176.2 217.8 175.9 217.4 175.8C216.4 175.4 215.5 175.6 214.9 176.3C214.4 177 214.2 178 214.2 179.1C214.2 179.4 214.2 179.7 214.2 180.1C214.4 181.8 214.7 183.5 215.1 185.3C215.4 186.8 215.9 188.4 216.5 189.9C216.8 190.8 217.4 191.7 218 192.3C218.1 192.4 218.2 192.5 218.4 192.6C218.8 192.8 219.2 192.9 219.6 192.7C219.8 193.1 220.1 193.4 220.4 193.7C220.8 194.1 221.2 194.4 221.6 194.6C222 194.9 222.5 195 222.9 195.1C222.8 196.4 223 197.7 223.3 199.1C223.4 199.8 223.8 200.5 224.2 201.1C224.6 201.6 225 202 225.4 202.2C225.6 202.3 225.7 202.4 225.9 202.4C226.4 202.6 226.9 202.7 227.4 202.7C227.9 202.6 228.3 202.3 228.5 201.8C228.9 200.8 229.1 199.5 229.1 198.2C229.1 198.2 229.1 198.1 229.1 198C229.3 198.1 229.4 198.2 229.5 198.3C230.5 198.9 231.6 199.1 232.4 198.8C233 198.7 233.2 198.2 233.1 197.6ZM232.6 197.8C232.5 197.9 232.5 197.9 232.4 198C231.7 198.3 230.7 198.2 229.8 197.6C229.5 197.4 229.2 197.2 229 197.1C228.9 198.3 228.7 199.4 228.6 200.5C228.6 200.7 228.5 201 228.4 201.2C228.3 201.5 228.1 201.8 227.8 202C227.3 202.1 226.8 202.1 226.2 201.8C226.1 201.8 225.9 201.7 225.8 201.6H225.7C225.6 201.5 225.5 201.5 225.5 201.4L225.4 201.3C225.2 201.1 225 200.9 224.8 200.7C224.7 200.6 224.7 200.5 224.6 200.5C224.1 199.7 223.8 198.9 223.8 198.1C223.7 197 223.7 196 223.7 195C223.7 194.8 223.7 194.5 223.7 194.3C223.2 194.5 222.6 194.4 222 194C221.9 194 221.9 193.9 221.8 193.9C221.3 193.6 220.8 193.2 220.5 192.6V192.5C220.3 192.2 220.4 191.9 220.6 191.8C221 191.8 221.5 191.9 221.9 192.1C221.9 192.1 221.9 192.1 222 192.1C222.3 192.1 222.4 191.9 222.6 191.7C222.2 191.5 221.8 191.1 221.5 190.7C221.4 190.8 221.2 190.9 221.1 191C220.8 191.2 220.5 191.5 220.2 191.7C220.1 191.7 220.1 191.8 220 191.8C219.9 191.9 219.7 192 219.5 192C219.3 192 219.1 191.9 218.9 191.8C218.9 191.8 218.9 191.8 218.8 191.8C218.3 191.4 217.9 190.8 217.6 190.1C217.1 188.8 216.7 187.5 216.4 186.3C215.9 184.3 215.5 182.3 215.3 180.4C215.3 180.1 215.2 179.8 215.2 179.5C215.2 178.4 215.5 177.5 215.9 176.8C216.5 176.3 217.4 176.2 218.3 176.7C218.5 176.8 218.7 176.9 219 177C220.1 177.6 221.1 178.4 222.1 179.5C222.8 179.4 223.6 179.6 224.5 180.1C224.8 180.3 225.2 180.5 225.5 180.8C225.6 180.9 225.7 181 225.8 181C226.5 181.1 227.3 181.4 228.1 181.9C228.7 182.2 229.2 182.6 229.7 183.1C230.7 184 231.7 185.3 232.3 186.6C232.5 187.2 232.6 187.7 232.6 188.2C232.6 189.1 232.5 189.9 232.3 190.6C232.2 191.1 232 191.6 231.9 192C231.4 193.4 230.8 194.5 229.9 195.5C230.2 195.8 230.5 196 230.8 196.2C231.1 196.4 231.4 196.5 231.7 196.6C231.8 196.6 232 196.7 232.1 196.8C232.2 196.9 232.4 197 232.5 197.2C232.7 197.5 232.6 197.7 232.6 197.8Z" fill="black"/>
<path d="M219.9 191.7C220.2 191.5 220.5 191.2 220.8 191C220.5 191.2 220.2 191.4 219.9 191.7Z" fill="white"/>
<path d="M220.8 192.5C220.7 192.4 220.7 192.4 220.8 192.5C221.2 192.6 221.7 192.7 222.1 192.7C221.6 192.7 221.2 192.6 220.8 192.5Z" fill="white"/>
<path d="M217.7 189.8C217.2 188.4 216.7 186.9 216.4 185.5C216.1 184 215.8 182.6 215.6 181.2C215.8 182.6 216 184 216.4 185.5C216.8 186.9 217.2 188.3 217.7 189.8C217.8 190.1 218 190.5 218.3 190.8C218.1 190.5 217.9 190.1 217.7 189.8Z" fill="white"/>
<path d="M220.3 192.5C220.1 192.1 220.1 191.8 220.3 191.7C220.1 191.9 220.1 192.2 220.3 192.5C220.7 193.1 221.2 193.5 221.7 193.8C221.8 193.8 221.8 193.9 221.9 193.9C222.5 194.3 223.1 194.3 223.6 194.2C223.1 194.4 222.5 194.3 221.9 193.9C221.8 193.9 221.8 193.8 221.7 193.8C221.1 193.6 220.7 193.1 220.3 192.5Z" fill="white"/>
<path d="M221.3 190.7C221.6 191.1 222 191.4 222.4 191.7C222.2 191.9 222 192.1 221.8 192.1C222.1 192.1 222.2 191.9 222.4 191.7C222 191.4 221.6 191.1 221.3 190.7Z" fill="white"/>
<path d="M223 192.2C223.3 192.4 223.5 192.7 223.5 193.1C223.5 192.9 223.4 192.7 223.3 192.6C223.3 192.3 223.1 192.2 223 192.2C222.9 192.2 222.7 192.3 222.6 192.4C222.8 192.3 222.9 192.2 223 192.2Z" fill="white"/>
<path d="M223.1 185.7C223.5 187.3 223.4 188.8 222.9 189.8C222.7 190.2 222.5 190.6 222.4 191.1C222.2 191 222.1 190.9 221.9 190.8C221.1 190.1 220.6 189.1 220.4 188.1C220.4 187.5 220.4 186.9 220.5 186.3C220.5 185.6 220.5 184.9 220.5 184.2C221 184.1 221.7 184.2 222.4 184.6C222.7 184.8 223 185.2 223.1 185.7ZM222.7 185.7C222.8 185.7 223 185.5 222.8 185.3C222.6 185.1 222.5 184.9 222.3 184.8C222.3 184.8 222.3 184.8 222.2 184.8C222.1 184.8 222.1 184.7 222 184.7C221.9 184.7 221.8 184.7 221.8 184.8C221.8 185 222 185.2 222.1 185.4C222.1 185.4 222.1 185.4 222.2 185.5C222.2 185.5 222.3 185.5 222.3 185.6C222.6 185.8 222.6 185.8 222.7 185.7Z" fill="#316192"/>
<path d="M220.4 188C220.4 187.4 220.4 186.8 220.5 186.2C220.6 185.6 220.5 184.8 220.5 184.2C220.5 184.9 220.6 185.6 220.5 186.3C220.4 186.8 220.4 187.4 220.4 188C220.6 189 221.1 190.1 221.9 190.8C221.2 190.1 220.6 189 220.4 188Z" fill="white"/>
<path d="M227.6 202.7C228.1 202.6 228.5 202.3 228.7 201.8C229.1 200.8 229.3 199.5 229.3 198.2C229.3 199.6 229.1 200.8 228.7 201.9C228.4 202.3 228.1 202.6 227.6 202.7Z" fill="white"/>
<path d="M228.3 201.2C228.4 201 228.4 200.8 228.4 200.6C228.6 199.5 228.7 198.3 228.8 197.1C228.7 198.3 228.5 199.4 228.4 200.5C228.5 200.7 228.4 201 228.3 201.2Z" fill="white"/>
<path d="M222 185.3C221.9 185.2 221.9 185 221.8 184.9C221.8 185 221.8 185 221.9 185.1C222 185.2 222 185.2 222 185.3Z" fill="white"/>
<path d="M221.9 184.9C221.9 184.8 222 184.7 222.1 184.8C221.9 184.7 221.9 184.8 221.9 184.9Z" fill="white"/>
<path d="M222.7 185.7C222.8 185.7 223 185.5 222.8 185.3C223 185.6 222.8 185.7 222.7 185.7Z" fill="white"/>
<path d="M222.3 184.9C222.5 185 222.7 185.2 222.8 185.4C222.9 185.6 222.8 185.8 222.7 185.8H222.6C222.6 185.8 222.5 185.8 222.5 185.7C222.5 185.7 222.5 185.7 222.4 185.6C222.3 185.5 222.2 185.4 222.2 185.2C222.2 185.1 222.1 185.1 222.1 185C222.1 184.9 222.2 184.9 222.3 184.9C222.1 184.8 222.1 184.8 222.3 184.9C222.2 184.8 222.3 184.8 222.3 184.9Z" fill="white"/>
<path d="M219 177.7C219.8 178.2 220.7 178.8 221.5 179.6C221 180 220.6 180.5 220.4 181.2C220.1 182.1 219.9 183.2 220 184.4C220 184.7 220 184.9 220 185.2C220 185.8 220 186.3 219.9 186.8C219.9 186.9 219.9 187.1 219.9 187.2C219.9 188.1 220.2 189.2 220.8 190.2C220.3 190.6 219.8 190.9 219.4 191.2C219.2 191.3 219 191.5 218.7 191.3C218.7 191.3 218.6 191.3 218.6 191.2C218.5 191.1 218.4 191 218.3 190.9C218.1 190.6 217.9 190.2 217.7 189.8C217.2 188.4 216.7 186.9 216.4 185.5C216.1 184.1 215.8 182.6 215.6 181.2C215.6 181 215.5 180.8 215.5 180.6C215.4 179.4 215.5 178.3 216 177.5C216.4 177 217.1 176.9 217.8 177.2C218.3 177.3 218.6 177.5 219 177.7Z" fill="#316192"/>
<path d="M229.5 195.8C229.6 195.9 229.6 195.9 229.6 195.9C229.7 196 229.8 196.2 229.9 196.3C230.1 196.4 230.2 196.6 230.4 196.7L230.5 196.8C230.5 196.8 230.5 196.8 230.6 196.8C231 197 231.4 197.2 231.8 197.4C231.3 197.6 230.7 197.6 230.1 197.2C229.9 197.1 229.8 197.1 229.6 197C229.4 196.9 229.1 196.7 228.9 196.5C228.9 196.2 228.9 195.9 229.1 195.8C229.2 195.8 229.3 195.8 229.5 195.8Z" fill="#316192"/>
<path d="M233.1 197.6C233.2 198.2 233 198.7 232.6 198.8C231.8 199.1 230.8 198.9 229.7 198.3C229.6 198.2 229.4 198.1 229.3 198C229.3 198 229.3 198 229.3 197.9C229.5 198 229.6 198.1 229.7 198.2C230.7 198.8 231.8 199 232.6 198.7C233 198.7 233.2 198.2 233.1 197.6Z" fill="white"/>
<path d="M219 176.5C218.6 176.3 218.1 176 217.7 175.9C216.7 175.5 215.8 175.7 215.2 176.4C214.7 177.1 214.5 178.1 214.5 179.2C214.5 178.1 214.8 177.1 215.2 176.4C215.8 175.7 216.6 175.5 217.7 175.9C218.1 176 218.5 176.2 219 176.5C220 177 221 177.8 221.9 178.7C222.1 178.7 222.3 178.7 222.5 178.7C222.3 178.7 222.1 178.7 221.9 178.7C221 177.8 220 177.1 219 176.5Z" fill="white"/>
<path d="M229.2 190.9C229.2 190.1 229.3 189.3 229.4 188.6C229.3 189.3 229.2 190.1 229.2 190.9Z" fill="white"/>
<path d="M224.3 180.6C225.4 181.3 226.5 182.3 227.4 183.6C228.3 184.9 229 186.4 229.3 187.8C229.2 187.7 229 187.6 228.9 187.5C228.4 187.2 227.9 187.1 227.5 187.2C227.1 187.4 226.9 188 227.1 188.8C227.3 190.4 228.1 192.2 228.7 193.8C228.9 194.2 229 194.6 229.2 195C229 195 228.7 195 228.6 195.2C228.4 195.6 228.4 196 228.4 196.5C228.3 197.7 228.1 199 227.9 200.2C227.9 200.8 227.5 201.2 227.1 201.3C226.7 201.3 226.2 201.2 225.7 200.9C225.6 200.8 225.5 200.8 225.4 200.7C224.9 200.2 224.4 199.5 224.3 198.8C224.2 198.2 224.2 197.7 224.1 197.2C224 195.9 224 194.7 224.1 193.5C224.1 193 223.9 192.4 223.6 192C223.4 191.8 223.2 191.6 223 191.5C223.2 190.7 223.6 190.2 223.8 189.4C224 188.4 223.9 187.2 223.7 186C223.6 185.4 223.2 184.7 222.7 184.3C222.5 184.2 222.4 184.1 222.2 184C221.6 183.7 221 183.5 220.5 183.6C220.5 182.4 220.9 181.4 221.5 180.7C222 180.2 222.7 180.2 223.6 180.5C223.8 180.4 224 180.5 224.3 180.6Z" fill="#316192"/>
<path d="M229.3 187.9C228.9 186.5 228.2 185 227.4 183.7C226.5 182.4 225.4 181.3 224.3 180.7C225.4 181.4 226.5 182.4 227.4 183.7C228.3 185 229 186.4 229.3 187.9Z" fill="white"/>
<path d="M229.8 187.7C229.8 187.6 229.7 187.5 229.7 187.4C229.2 185.8 228.4 184.2 227.4 182.9C227.2 182.6 226.9 182.3 226.7 182.1C226.9 182.4 227.2 182.7 227.4 182.9C228.4 184.3 229.2 185.9 229.7 187.4C229.7 187.5 229.8 187.6 229.8 187.7Z" fill="white"/>
<path d="M229.1 182.1C228.9 181.9 228.7 181.8 228.4 181.6C228.7 181.8 228.9 181.9 229.1 182.1Z" fill="white"/>
<path d="M229.6 183.1C229 182.6 228.5 182.2 227.9 181.9C227.1 181.5 226.4 181.2 225.7 181C226.4 181.1 227.2 181.4 228 181.9C228.5 182.2 229.1 182.6 229.6 183.1C230.7 184 231.6 185.2 232.2 186.6C232.4 187.2 232.5 187.7 232.5 188.2C232.5 189.1 232.4 189.9 232.2 190.6C232.1 191.1 231.9 191.6 231.8 192C232 191.6 232.1 191.1 232.2 190.6C232.4 189.9 232.5 189.1 232.5 188.2C232.5 187.7 232.4 187.1 232.2 186.6C231.6 185.3 230.7 184 229.6 183.1Z" fill="white"/>
<path d="M326.7 208.2C327 208 327.4 207.9 327.8 207.8C328.4 207.7 328.7 207.9 328.7 208.7V217.4L326.8 218.5V209.8L323.8 219.1C323.4 220.2 323 220.8 322 221.4C321.1 221.9 320.6 221.9 320.2 221.2L317.2 215.3V224L315.3 225.1V216.4C315.3 215.6 315.6 215 316.2 214.4C316.6 214 317 213.7 317.3 213.5C318.2 213 318.8 213.1 319.1 213.8L322 219.7L324.9 210.5C325.2 209.5 325.8 208.7 326.7 208.2Z" fill="#00678F"/>
<path d="M339.5 204.1V212C339.5 213.9 337.4 215.6 336.4 216.1L330.3 219.6V218.1L336.4 214.6C337.6 213.7 337.5 213.1 337.5 212.9V212.3L333.4 214.7C331.5 215.8 330.3 215.5 330.2 214.4C330.2 214.3 330.2 209.5 330.2 209.4L332.1 208.3V213.1C332.1 213.4 332.2 213.9 333.2 213.4C333.4 213.3 333.9 213 334.5 212.6C335.7 211.9 337.3 210.9 337.4 210.9V205.2L339.5 204.1Z" fill="#00678F"/>
<path d="M356.7 173.9C356.8 174 357 173.9 357.1 174.1C357.2 174.2 357.2 174.3 357.3 174.4C357.3 174.8 357.2 175.1 357 175.4C356.9 175.2 356.8 175 356.7 174.8C356.6 174.6 356.3 174.6 356.2 174.4C356.3 174.2 356.4 174 356.7 173.9Z" fill="#00678F"/>
<path d="M359.2 199.4L361.1 200.3L358.9 201.6L357.4 200.9L355.8 201.9L353.7 203.1C353.4 203.3 353 203.5 352.6 203.6C351.4 203.9 350.8 203.5 350.8 202.3V197C350.8 195.7 351.6 194.4 353.2 193.2C353.4 193.1 353.6 193 353.7 192.9L357.4 190.8C357.6 190.7 357.8 190.6 357.9 190.5C359.5 189.8 360.3 190.2 360.3 191.5V196.8C360.4 197.8 360 198.6 359.2 199.4ZM358.5 197.7V192.7V192.5C358.4 192 357.9 192 357.1 192.4L354.2 194.1C353.3 194.6 352.8 195.3 352.8 196V201C352.8 201.1 352.8 201.1 352.8 201.2C352.9 201.8 353.4 201.8 354.2 201.4L355.9 200.4L354.3 199.7L356.5 198.4L357.9 199.1C358.2 198.8 358.3 198.4 358.4 198.1L358.5 197.7Z" fill="#E38D1A"/>
<path d="M373 190.4L373.4 190.2V191.7L373.1 191.8V190.7L372.8 192L372.6 192.2L372.2 191.2V192.4L371.9 192.5V191L372.3 190.8L372.7 191.6L373 190.4Z" fill="#E38D1A"/>
<path d="M370.6 192.1V191.8L371.6 191.2V191.5L371.3 191.7V192.9L371 193.1V191.8L370.6 192.1Z" fill="#E38D1A"/>
<path d="M353 171.8C353.9 171.3 354.9 171.4 355.5 171.4C355.7 171.4 355.9 171.6 356.2 171.6C356.6 171.4 356.9 171.2 357.3 171C358 170.8 358.6 170.6 359.2 170.6C361.7 170.8 363.4 171.6 364.9 173.6C365.2 174 365.4 174.6 365.7 175.1C366.1 175.9 366.5 176.7 366.9 177.4C367.1 177.7 367.2 178.1 367.5 178.4C367.6 178.5 367.9 178.4 368.1 178.4C368.6 178.4 369.2 178.3 369.6 178.4C370.5 178.5 371.3 178.8 372 179.1C372.3 179.2 372.5 179.5 372.7 179.7V179.9C372.5 180.1 372.2 180.3 372 180.5C371.5 181 371 181.2 370.5 181.6C370.2 181.9 369.8 182.2 369.5 182.5C369.7 183 370.8 182.9 371.2 183C371.8 183.1 372.3 183.4 372.7 183.8C372.8 183.9 373 184 373.1 184C373.2 184.1 373.2 184.3 373.3 184.4C373.1 184.5 373 184.3 372.8 184.3C372.5 184.2 372.2 184.1 371.8 184.1C371.2 184 370.6 184.2 370 184.1C369.7 184.1 369.4 184 369.1 183.9C368.8 183.8 368.5 183.5 368.3 183.3C368.2 183.2 368.2 183 368.1 182.9C368.1 182.6 368.5 182.4 368.7 182.1C369.4 181.4 370.2 180.8 371.2 180.2C371.3 180.1 371.4 180.1 371.6 180C371.6 179.7 370.8 179.7 370.6 179.6C370.1 179.5 369.6 179.4 369.1 179.3C368.8 179.3 368.4 179.4 368.1 179.4C367.7 179.4 366.8 179.8 366.6 179.5C366.2 179.1 365.9 178.5 365.5 177.8C365.2 177.2 364.8 176.5 364.5 175.9C364.3 175.6 364.3 175.3 364.1 175C363 173.2 361.4 172.2 359.5 171.9C358.9 171.8 358.2 171.8 357.4 172C357 172.1 356.4 172.5 356 172.6C355.9 172.7 355.8 172.7 355.7 172.8C355.4 172.9 355.2 172.7 355 172.6C354.5 172.5 354.1 172.5 353.5 172.6C353.4 172.6 353 172.7 352.8 172.8C352.7 172.9 352.6 172.9 352.6 173C352.5 173.1 352.4 173.2 352.4 173.3C352.3 173.6 352.4 173.8 352.5 174C352.7 174.4 353 174.6 353.3 174.9C353.6 175.2 353.9 175.4 354 175.8C354.4 176.5 354.6 177.5 354.9 178.2C355 178.5 355.2 178.8 355.4 179C355.6 179.2 355.9 179.2 356 179.4C356.2 179.6 355.7 181 355.6 181.4C355.2 183 355.3 184.9 355.7 185.8C355.9 186.2 356 186.6 356.5 186.5C356.7 185.4 356.7 184.5 357 183.6C357.2 183.1 357.5 182.5 357.7 182C357.8 182 357.8 182.3 357.9 182.5C358.1 182.9 358.3 183.4 358.5 183.8C359 184.6 359.5 185.3 360.2 185.9C360.4 186.1 360.7 186.3 361 186.5C361.1 186.6 361.3 186.5 361.3 186.6C360.9 186.7 360.6 186.3 360.2 186.2C359.5 186 358.7 185.6 358.3 185C358.1 184.6 357.9 184.3 357.7 183.9C357.6 184.1 357.6 184.2 357.6 184.4C357.4 185.4 357.6 186.2 356.9 186.9C356.8 187 356.7 187.1 356.6 187.2C356 187.5 355.6 187.1 355.4 186.8C354.6 185.8 354.4 183.6 355 181.4C355.1 180.9 355.1 180.4 355.3 179.9C355.3 179.6 355 179.7 354.9 179.5C354.7 179.3 354.5 179 354.3 178.8C354 178.3 353.8 177.6 353.5 177C353.4 176.8 353.4 176.5 353.3 176.2C353.1 175.9 352.8 175.6 352.5 175.4C352.2 175 351.2 174.5 351.6 173.2C352.1 172.6 352.5 172.1 353 171.8Z" fill="#00678F"/>
<path d="M349.6 195.2V196.7L344.1 199.9L343.9 200C343.2 200.5 343 200.7 342.9 201.2V201.4V202.4V202.6C343 203.1 343.4 203.2 344.2 202.7L346.5 201.4C347.1 201.1 347.7 200.8 348.1 200.8C349 200.7 349.5 201 349.5 201.6V203.2C349.5 204 349.1 204.8 348.3 205.7C347.8 206.3 347.2 206.8 346.5 207.1L340.9 210.3V208.8L346.2 205.7C346.3 205.7 346.3 205.6 346.4 205.6C346.8 205.4 347.1 205.1 347.2 204.8C347.4 204.5 347.5 204.3 347.5 204.1V202.8C347.5 202.6 347.5 202.5 347.4 202.5C347.2 202.3 347 202.4 346.3 202.7C346.2 202.7 346.2 202.8 346.1 202.8L344.1 204C343.9 204.1 343.7 204.2 343.5 204.3C341.8 205 340.9 204.8 340.9 203.8V202.5C340.9 201.4 341.4 200.4 342.5 199.4C342.9 199.1 343.3 198.8 344.1 198.3L349.6 195.2Z" fill="#E38D1A"/>
<path d="M363.5 187.2V194.8C363.5 195.6 363.9 195.7 365.1 195L370.2 192.1V193.6L365.2 196.5C365 196.6 364.8 196.7 364.6 196.8C362.6 197.8 361.6 197.5 361.6 196V188.3L363.5 187.2Z" fill="#E38D1A"/>
<path d="M293.5 221.3C293.5 222.1 293.4 222.8 293.1 223.4C292.8 224 292.4 224.5 291.9 224.8C291.4 225.1 290.8 225.3 290.1 225.3C289.4 225.3 288.8 225.1 288.3 224.8C287.8 224.5 287.4 224 287.1 223.4C286.8 222.8 286.7 222.1 286.7 221.3V220.9C286.7 220.1 286.8 219.4 287.1 218.8C287.4 218.2 287.8 217.7 288.3 217.4C288.8 217.1 289.4 216.9 290.1 216.9C290.8 216.9 291.4 217.1 291.9 217.4C292.4 217.7 292.8 218.2 293.1 218.8C293.4 219.4 293.5 220.1 293.5 220.9V221.3ZM291.8 221C291.8 220.2 291.6 219.5 291.3 219.1C291 218.7 290.6 218.4 290 218.4C289.4 218.4 289 218.6 288.7 219C288.4 219.4 288.2 220.1 288.2 220.9V221.3C288.2 222.1 288.4 222.8 288.7 223.2C289 223.7 289.4 223.9 290 223.9C290.6 223.9 291 223.7 291.3 223.2C291.6 222.8 291.7 222.1 291.8 221.3V221Z" fill="#43435C"/>
<path d="M297.6 222.2H296.3V225.1H294.6V217.1H297.6C298.5 217.1 299.3 217.3 299.8 217.7C300.3 218.1 300.6 218.7 300.6 219.5C300.6 220 300.5 220.5 300.2 220.9C300 221.3 299.6 221.6 299.1 221.8L300.8 225.1V225.2H299L297.6 222.2ZM296.3 220.9H297.6C298 220.9 298.3 220.8 298.6 220.6C298.8 220.4 298.9 220.1 298.9 219.7C298.9 219.3 298.8 219 298.6 218.8C298.4 218.6 298.1 218.5 297.6 218.5H296.3V220.9Z" fill="#43435C"/>
<path d="M221.2 114.2C221.2 115.6 221.2 117 221.2 118.3C221.2 119.7 221.2 121 221.2 122.4C221.2 123.2 221.2 124 220.8 124.5C220.5 125 219.9 125.2 219.1 125.1C219 124.9 218.9 124.7 218.8 124.5C218.7 124.3 218.6 124.1 218.5 123.9V123.8C219.2 123.7 219.6 123.4 219.7 122.9C219.8 122.4 219.8 121.8 219.8 121.3C219.8 121.1 219.8 120.9 219.8 120.8C219.8 119.8 219.8 118.7 219.8 117.7C219.8 116.3 219.8 114.9 219.8 113.5C220.3 113.7 220.8 114 221.2 114.2ZM221.1 118.3C221.1 116.9 221.1 115.6 221.1 114.3C220.7 114 220.3 113.8 219.9 113.6C219.9 115 219.9 116.4 219.9 117.7C219.9 118.7 219.9 119.8 219.9 120.8C219.9 121 219.9 121.2 219.9 121.3C219.9 121.9 219.9 122.4 219.8 122.9C219.7 123.5 219.3 123.8 218.6 123.8C218.7 124 218.8 124.2 218.9 124.3C219 124.5 219.1 124.7 219.2 124.9C219.9 125 220.5 124.8 220.8 124.3C221.1 123.8 221.1 123 221.1 122.3C221.1 121.1 221.1 119.7 221.1 118.3Z" fill="#E92D2F"/>
<path d="M219.9 113.6C220.3 113.9 220.7 114.1 221.1 114.3C221.1 115.6 221.1 117 221.1 118.3C221.1 119.7 221.1 121 221.1 122.4C221.1 123.2 221.1 123.9 220.8 124.4C220.5 124.9 219.9 125.1 219.2 125C219.1 124.8 219 124.6 218.9 124.4C218.8 124.2 218.7 124 218.6 123.9C219.3 123.8 219.7 123.5 219.8 123C219.9 122.5 219.9 121.9 219.9 121.4C219.9 121.2 219.9 121 219.9 120.9C219.9 119.9 219.9 118.8 219.9 117.8C219.9 116.3 219.9 114.9 219.9 113.6Z" fill="#E92D2F"/>
<path d="M225.4 122.8C225.5 122.8 225.5 122.9 225.6 122.9C225.6 123.3 225.6 123.6 225.6 124C225.6 124.2 225.6 124.4 225.6 124.6C225.3 124.7 224.9 124.8 224.4 124.6L224.2 124.5C223.9 124.3 223.6 124 223.4 123.7C223.2 123.3 223.1 122.8 223.2 122.4C223.3 122.1 223.5 122 223.9 122.1C224.3 122.2 224.7 122.4 225.1 122.6C225.2 122.7 225.3 122.8 225.4 122.8ZM225.6 124.1C225.6 123.8 225.6 123.4 225.6 123C225.5 122.9 225.3 122.9 225.2 122.8C224.8 122.6 224.4 122.4 224 122.3C223.7 122.2 223.5 122.4 223.4 122.6C223.3 122.9 223.4 123.4 223.5 123.8C223.6 124.1 223.9 124.4 224.2 124.5C224.3 124.5 224.3 124.6 224.4 124.6C224.9 124.8 225.2 124.7 225.6 124.6C225.6 124.4 225.6 124.3 225.6 124.1Z" fill="#E92D2F"/>
<path d="M226.5 120.4C226.8 121 226.9 121.6 226.9 122V127L225.9 126.4C225.9 126.2 225.8 125.9 225.8 125.7C225.4 125.8 225.1 125.9 224.6 125.8C224.4 125.7 224.1 125.6 223.9 125.5C223.6 125.3 223.3 125.1 223 124.8C222.6 124.4 222.3 123.8 222.2 123.2C222 122.3 222.2 121.6 222.6 121.3C222.9 121 223.5 121 224.1 121.3C224.6 121.5 225.1 121.8 225.7 122.1C225.7 122 225.7 121.9 225.7 121.8C225.7 121.4 225.7 121.1 225.5 120.7C225.3 120.2 224.9 119.9 224.7 119.8C224.6 119.7 224.5 119.7 224.4 119.6C223.8 119.2 223.1 119.1 222.7 119C222.6 118.7 222.6 118.3 222.5 118C223.3 118.1 224 118.3 224.8 118.7C225 118.8 225.1 118.9 225.3 119C225.6 119.2 226.2 119.7 226.5 120.4ZM226.8 126.9V122C226.8 121.6 226.8 121.1 226.5 120.5C226.2 119.8 225.6 119.3 225.2 119C225 118.9 224.9 118.8 224.7 118.7C224 118.3 223.2 118 222.5 118C222.5 118.3 222.6 118.6 222.7 118.9C223.2 119 223.8 119.1 224.4 119.5C224.5 119.6 224.6 119.6 224.7 119.7C224.9 119.8 225.3 120.2 225.6 120.7C225.8 121.1 225.8 121.5 225.8 121.9C225.8 122 225.8 122.1 225.8 122.2C225.3 121.9 224.7 121.6 224.2 121.4C223.5 121.2 223 121.2 222.7 121.4C222.3 121.7 222.2 122.4 222.3 123.2C222.4 123.7 222.7 124.3 223.1 124.7C223.4 125 223.7 125.2 224 125.4C224.2 125.5 224.5 125.6 224.7 125.7C225.2 125.8 225.5 125.7 225.9 125.6V125.7C225.9 126 226 126.2 226 126.5L226.8 126.9Z" fill="#E92D2F"/>
<path d="M226.5 120.5C226.8 121.1 226.9 121.7 226.8 122V126.9L225.9 126.4C225.9 126.2 225.8 125.9 225.8 125.6V125.5C225.4 125.6 225 125.7 224.6 125.6C224.4 125.5 224.1 125.4 223.9 125.3C223.6 125.1 223.3 124.9 223 124.6C222.6 124.2 222.3 123.6 222.2 123.1C222 122.3 222.2 121.6 222.6 121.3C222.9 121.1 223.4 121.1 224.1 121.3C224.6 121.5 225.2 121.8 225.7 122.1C225.7 122 225.7 121.9 225.7 121.8C225.7 121.4 225.7 121 225.5 120.6C225.3 120.1 224.9 119.8 224.6 119.6C224.5 119.5 224.4 119.5 224.3 119.4C223.7 119 223.1 118.9 222.6 118.8C222.5 118.5 222.5 118.2 222.4 117.9C223.1 118 223.9 118.2 224.6 118.6C224.8 118.7 224.9 118.8 225.1 118.9C225.6 119.3 226.1 119.8 226.5 120.5ZM225.6 123C225.5 122.9 225.4 122.9 225.3 122.8C225.2 122.8 225.1 122.7 225.1 122.7C224.7 122.5 224.3 122.3 223.9 122.2C223.6 122.1 223.3 122.3 223.2 122.5C223.1 122.9 223.2 123.4 223.4 123.8C223.6 124.1 223.8 124.4 224.2 124.6L224.4 124.7C224.9 124.9 225.3 124.8 225.6 124.7C225.6 124.5 225.6 124.3 225.6 124.1C225.6 123.8 225.6 123.4 225.6 123Z" fill="#E92D2F"/>
<path d="M232.8 123.5C232.4 125.8 231.8 127.7 230.9 129.3L229.4 128.4C229.1 127.1 228.8 125.8 228.5 124.5C228.2 123.2 227.9 121.8 227.6 120.5L228.9 121.2C229 121.8 229.2 122.3 229.3 122.9C229.4 123.5 229.6 124 229.7 124.6C229.7 124.8 229.8 125 229.8 125.2C229.9 125.7 230 126.2 230.1 126.6V126.8C230.1 127 230.2 127.3 230.2 127.5V127.6V127.5C230.8 125.9 231.2 124.3 231.4 122.7L232.8 123.5Z" fill="#E92D2F"/>
<path d="M231.5 122.7L232.9 123.5V123.6C232.5 125.9 231.8 127.9 231 129.5L229.4 128.6C229.1 127.3 228.8 126 228.5 124.6C228.2 123.2 227.9 121.9 227.6 120.5V120.4L229 121.2C229.1 121.8 229.3 122.3 229.4 122.9C229.5 123.5 229.7 124 229.8 124.6C229.8 124.8 229.9 125 229.9 125.2C230 125.7 230.1 126.2 230.2 126.6V126.8C230.2 127 230.3 127.2 230.3 127.3C230.9 125.9 231.3 124.3 231.5 122.7ZM230.9 129.3C231.7 127.7 232.4 125.8 232.8 123.5L231.6 122.8C231.4 124.4 231 126.1 230.4 127.6V127.7V127.6C230.3 127.4 230.3 127.1 230.3 126.9V126.7C230.2 126.2 230.1 125.7 230 125.3C230 125.1 229.9 124.9 229.9 124.7C229.8 124.1 229.6 123.6 229.5 123C229.4 122.4 229.2 121.9 229.1 121.3L227.8 120.6C228.1 121.9 228.4 123.3 228.7 124.6C229 125.9 229.3 127.2 229.6 128.5L230.9 129.3Z" fill="#E92D2F"/>
<path d="M225.3 107.9C225.2 108 225.1 108 225.2 108.3C225.4 108.6 225.6 108.8 225.8 109L225.9 109.1C226.6 109.6 227.4 110.2 228.3 110.7C228.6 110.9 228.9 111 229.2 111.2C230 111.6 230.8 111.9 231.5 112.2H231.6C232 112.7 232.5 113.2 232.9 113.7C232.2 113.7 231.5 113.5 230.6 113.1C229.8 112.8 229.1 112.4 228.3 112C227.7 111.6 227 111.2 226.4 110.7C225.8 110.2 225.2 109.7 224.6 109C224.4 108.7 224.2 108.5 224.1 108.2C224 108 224.1 107.8 224.3 107.8C224.7 107.8 225 107.8 225.3 107.9Z" fill="#0774BA"/>
<path d="M233.1 113.7C232.4 113.7 231.6 113.6 230.7 113.2C229.9 112.9 229.2 112.5 228.4 112.1C227.8 111.7 227.1 111.3 226.5 110.8C225.9 110.3 225.3 109.8 224.7 109.1C224.5 108.8 224.2 108.5 224.2 108.2C224.1 107.9 224.3 107.7 224.4 107.7C224.7 107.6 225.1 107.7 225.4 107.8H225.5L225.4 107.9C225.3 108 225.2 108 225.2 108.2C225.3 108.5 225.6 108.7 225.8 108.8L225.9 108.9C226.6 109.4 227.4 110 228.3 110.5C228.6 110.7 228.9 110.8 229.2 111C230 111.4 230.8 111.7 231.5 112H231.6C232.1 112.6 232.6 113.1 233.1 113.7ZM230.7 113.1C231.6 113.4 232.4 113.6 233 113.7C232.5 113.2 232.1 112.7 231.7 112.2H231.6C230.8 111.9 230 111.6 229.3 111.2C229 111.1 228.7 110.9 228.4 110.7C227.5 110.2 226.7 109.6 226 109.1L225.9 109C225.7 108.8 225.4 108.6 225.3 108.3C225.2 108.1 225.3 108 225.4 107.9C225.1 107.8 224.8 107.8 224.5 107.9C224.4 107.9 224.3 108.1 224.3 108.3C224.4 108.6 224.6 108.9 224.8 109.1C225.4 109.8 226 110.3 226.6 110.8C227.2 111.3 227.8 111.7 228.5 112.1C229.1 112.5 229.9 112.8 230.7 113.1Z" fill="#0774BA"/>
<path d="M238.6 119.5C238.6 120.1 238.2 120.3 237.6 120.4C236.6 120.4 235.6 120.1 234.6 119.7C232.9 119 231.1 118.2 229 116.9C228.7 116.7 228.4 116.5 228 116.3C226.4 115.3 225 114.4 223.5 113.2L223.3 113C223 112.7 222.7 112.5 222.5 112.2L222.4 112L222.6 112.1C224 113.2 225.4 114.1 226.5 114.8C227 115.1 227.4 115.3 227.9 115.6C229.7 116.6 231.4 117.5 233 118.2C234.2 118.7 235.5 119.2 236.7 119.5C237.5 119.7 238.2 119.8 238.6 119.5ZM237.6 120.3C238.2 120.3 238.5 120.1 238.6 119.7C238.1 120 237.5 119.8 236.9 119.7C235.6 119.4 234.4 118.9 233.2 118.4C231.5 117.7 229.8 116.8 228 115.8C227.6 115.5 227.1 115.3 226.7 115C225.7 114.4 224.3 113.5 223 112.5C223.2 112.7 223.4 112.9 223.6 113.1L223.8 113.3C225.2 114.5 226.6 115.4 228.2 116.3C228.6 116.5 228.9 116.7 229.2 116.9C231.3 118.1 233 119 234.7 119.6C235.6 119.9 236.7 120.3 237.6 120.3Z" fill="#0774BA"/>
<path d="M238.6 119.6C238.5 120 238.2 120.2 237.6 120.2C236.7 120.2 235.6 119.8 234.7 119.5C233 118.8 231.3 118 229.2 116.8C228.9 116.6 228.5 116.4 228.2 116.2C226.6 115.2 225.2 114.3 223.8 113.2L223.6 113C223.4 112.8 223.2 112.6 223 112.4C224.4 113.4 225.7 114.3 226.7 114.9C227.1 115.2 227.6 115.4 228 115.7C229.8 116.7 231.5 117.6 233.2 118.3C234.4 118.8 235.7 119.3 236.9 119.6C237.5 119.8 238.1 119.9 238.6 119.6Z" fill="#0774BA"/>
<path d="M222.8 108.5C223 108.6 223.1 108.7 223.3 108.9C222.6 108.6 221.9 108.4 221.3 108.4C221.2 108.4 221 108.4 220.9 108.6C220.9 108.8 221.1 109 221.2 109.2L221.3 109.3C222.2 110.3 223.3 111 224.2 111.6C225.4 112.4 226.7 113.2 227.9 113.9C229.5 114.8 231.2 115.7 232.9 116.5C234 117 235.1 117.5 236.2 117.8H236.3C236.6 117.9 237 117.9 237.2 117.7C237.3 117.6 237.3 117.4 237.2 117.2C237.4 117.4 237.6 117.7 237.5 117.9C237.4 118.2 237.2 118.2 236.9 118.2C236.1 118.2 235.1 117.9 234.3 117.6C232.4 116.9 230.2 115.9 227.8 114.5C227.3 114.2 226.8 113.9 226.3 113.6C224.2 112.3 222.2 110.9 220.3 109.5L220.2 109.4C219.9 109.1 219.5 108.8 219.3 108.4C219.1 108.1 219.3 107.9 219.4 107.8C219.8 107.6 220.3 107.7 220.8 107.8C221.3 107.9 221.9 108.1 222.6 108.4C222.7 108.5 222.7 108.5 222.8 108.5Z" fill="#0774BA"/>
<path d="M224.7 104.2C224.6 104.3 224.5 104.4 224.5 104.6C224.5 104.7 224.6 104.9 224.7 105.1C224.9 105.4 225.2 105.5 225.4 105.7C226.4 106.4 227.2 106.9 228 107.4C228.4 107.6 228.8 107.8 229.1 108C230.3 108.6 231.4 109 232.5 109.4C232.8 109.9 233.2 110.3 233.5 110.7C232.2 110.4 230.9 109.9 229.4 109.2C228.9 108.9 228.3 108.7 227.9 108.4C227 107.9 226.2 107.4 225.5 106.8C225 106.4 224.4 106 224 105.4C223.8 105.2 223.6 104.9 223.5 104.6C223.5 104.3 223.6 104.3 223.7 104.2C224 104.1 224.3 104.1 224.7 104.2Z" fill="#0774BA"/>
<path d="M237.1 117C237.3 117.3 237.6 117.6 237.6 117.9C237.5 118.2 237.2 118.2 237 118.2C236.2 118.2 235.2 117.9 234.4 117.6C232.4 116.9 230.3 115.9 227.9 114.5C227.4 114.2 227 113.9 226.5 113.6C224.4 112.3 222.4 110.9 220.5 109.4L220.4 109.3C220.1 109 219.7 108.7 219.5 108.3C219.3 107.9 219.5 107.7 219.7 107.6C220.1 107.4 220.6 107.5 221.1 107.5C221.6 107.6 222.3 107.8 222.9 108.1C222.9 108.1 223 108.1 223 108.2C223.2 108.3 223.4 108.5 223.6 108.7L223.7 108.8L223.6 108.7C222.8 108.3 222.1 108.1 221.5 108.1C221.4 108.1 221.2 108.1 221.1 108.3C221.1 108.5 221.3 108.6 221.4 108.8L221.5 108.9C222.4 109.9 223.4 110.5 224.4 111.2C225.6 112 226.9 112.8 228.1 113.5C229.7 114.4 231.4 115.3 233.1 116.1C234.2 116.6 235.3 117.1 236.4 117.4H236.5C236.8 117.5 237.2 117.5 237.4 117.3C237.2 117.5 237.1 117.2 237.1 117L236.9 116.7L237.1 117ZM237.5 117.9C237.5 117.7 237.4 117.4 237.2 117.2C237.3 117.4 237.3 117.6 237.2 117.7C237 117.9 236.6 117.8 236.3 117.8H236.2C235.1 117.5 234 117 232.9 116.5C231.1 115.7 229.4 114.8 227.8 113.9C226.5 113.2 225.3 112.4 224.1 111.6C223.2 111 222.1 110.2 221.2 109.3L221.1 109.2C221 109 220.8 108.8 220.8 108.6C220.9 108.4 221 108.4 221.2 108.4C221.8 108.4 222.5 108.6 223.2 108.9C223.1 108.7 222.9 108.6 222.7 108.5C222.7 108.5 222.6 108.5 222.6 108.4C221.9 108 221.3 107.9 220.8 107.8C220.3 107.7 219.8 107.7 219.4 107.8C219.3 107.9 219.1 108.1 219.3 108.4C219.5 108.8 219.9 109.1 220.2 109.4L220.3 109.5C222.2 111 224.2 112.4 226.3 113.6C226.8 113.9 227.3 114.2 227.8 114.5C230.2 115.9 232.3 116.9 234.3 117.6C235.2 117.9 236.1 118.2 236.9 118.2C237.1 118.2 237.4 118.2 237.5 117.9Z" fill="#0774BA"/>
<path d="M233.6 110.7L233.7 110.8L233.6 110.7C232.3 110.5 230.9 109.9 229.4 109.2C228.9 108.9 228.4 108.7 227.9 108.4C227 107.9 226.2 107.4 225.4 106.8C224.9 106.4 224.3 105.9 223.9 105.4C223.7 105.1 223.5 104.9 223.4 104.6C223.4 104.3 223.6 104.2 223.7 104.2C224 104.1 224.4 104.1 224.8 104.2H224.9L224.8 104.3L224.7 104.4C224.6 104.5 224.5 104.5 224.5 104.7C224.5 104.8 224.6 105 224.7 105.1C224.9 105.3 225.1 105.5 225.4 105.7C226.4 106.4 227.2 106.9 228 107.4C228.4 107.6 228.7 107.8 229.1 108C230.2 108.6 231.4 109 232.5 109.4C232.8 109.9 233.3 110.4 233.6 110.7ZM229.4 109.2C230.8 109.9 232.2 110.4 233.5 110.7C233.2 110.4 232.8 109.9 232.5 109.4C231.4 109 230.3 108.6 229.1 108C228.7 107.8 228.4 107.6 228 107.4C227.2 106.9 226.4 106.4 225.4 105.7C225.2 105.5 224.9 105.3 224.7 105.1C224.5 104.9 224.5 104.7 224.5 104.6C224.5 104.4 224.6 104.3 224.7 104.2C224.3 104.1 224 104.1 223.7 104.2C223.6 104.2 223.4 104.3 223.5 104.6C223.6 104.9 223.7 105.1 224 105.4C224.5 105.9 225 106.4 225.5 106.8C226.3 107.4 227.1 107.9 227.9 108.4C228.3 108.6 228.8 108.9 229.4 109.2Z" fill="#0774BA"/>
<path d="M225.6 101.2H225.4C224.8 101 224.2 100.9 223.6 100.9H223.5C223.3 100.9 223.2 100.9 223.1 101C223.1 101.1 223.1 101.3 223.3 101.5C223.7 101.9 224.1 102.2 224.5 102.5L224.7 102.6C225.3 103 225.9 103.4 226.5 103.7C227.6 104.3 228.7 104.9 229.6 105.4C230.9 106.1 232.4 106.7 234.2 107.4C233.9 107.4 233.6 107.4 233.4 107.4C233.3 107.4 233.1 107.4 232.9 107.3H232.8C231.1 106.7 229.2 105.9 226.8 104.5C226.7 104.4 226.5 104.3 226.4 104.3C225.7 103.9 225.1 103.5 224.5 103.1C223.7 102.6 222.8 102 221.9 101.2C221.7 101 221.4 100.8 221.2 100.4L221.1 100.2L221.2 100.1C221.4 100 221.6 100 221.8 100H222C223.4 100.3 224.5 100.6 225.6 101.2Z" fill="#0774BA"/>
<path d="M234.6 107.4L234.9 107.5L234.6 107.4C234.2 107.5 233.9 107.5 233.6 107.5C233.5 107.5 233.3 107.5 233.1 107.4H233C231.3 106.9 229.4 106 227 104.6C226.9 104.5 226.8 104.5 226.6 104.4C225.9 104 225.2 103.6 224.6 103.2C223.8 102.7 222.9 102.1 222 101.3C221.8 101.1 221.5 100.8 221.3 100.5L221.2 100.3C221.2 100.2 221.2 100.1 221.3 100.1C221.5 100 221.7 100 221.9 100H222.1C223.4 100.1 224.6 100.5 225.8 101.2L225.9 101.3L226.1 101.5L225.9 101.4C225.8 101.4 225.6 101.3 225.5 101.3C224.9 101.1 224.3 101 223.7 101H223.6C223.5 101 223.3 101 223.2 101.1C223.2 101.2 223.3 101.3 223.4 101.5C223.8 101.9 224.2 102.2 224.6 102.5L224.8 102.6C225.4 103 226 103.4 226.6 103.7C227.7 104.3 228.8 104.9 229.7 105.4C231.1 106 232.6 106.7 234.6 107.4ZM233.5 107.4C233.8 107.4 234 107.4 234.3 107.4C232.5 106.7 231.1 106.1 229.7 105.4C228.7 104.9 227.7 104.4 226.6 103.7C226 103.4 225.4 103 224.8 102.6L224.6 102.5C224.2 102.2 223.8 101.9 223.4 101.5C223.2 101.3 223.1 101.1 223.2 101C223.3 100.9 223.5 100.9 223.6 100.9H223.7C224.3 100.9 224.9 101.1 225.5 101.2H225.7C224.6 100.6 223.4 100.2 222.2 100.1L222 100.2C221.8 100.2 221.6 100.2 221.4 100.3L221.3 100.4L221.4 100.6C221.6 100.9 221.9 101.1 222.1 101.4C223 102.2 223.9 102.8 224.7 103.3C225.3 103.7 225.9 104.1 226.6 104.5C226.7 104.6 226.9 104.7 227 104.7C229.4 106.1 231.3 106.9 233 107.5H233.1C233.2 107.4 233.4 107.5 233.5 107.4Z" fill="#0774BA"/>
<path d="M236.5 107.2C237.1 107.5 237.7 108.1 238 108.7C238.4 109.4 238.6 110.2 238.6 110.8C238.5 111.6 238 111.9 237.6 112.1C236.8 112.4 235.9 112.3 234.6 112H234.7C235.4 112 236.4 111.9 237 111.3C237.5 110.9 237.7 110.3 237.6 109.7C237.5 108.8 236.8 107.8 236.1 107.3L236 107.2C235.8 107.1 235.6 107 235.4 107H235.2C235.5 106.9 235.8 107 236.2 107.2C236.3 107.1 236.4 107.2 236.5 107.2Z" fill="#0774BA"/>
<path d="M238.1 108.7C238.6 109.4 238.8 110.2 238.7 110.9C238.6 111.5 238.2 112 237.6 112.2C236.8 112.5 235.8 112.4 234.4 112H234.3L234.4 111.9C234.5 111.9 234.5 111.8 234.6 111.8C235.3 111.8 236.3 111.7 236.9 111.1C237.2 110.9 237.6 110.4 237.5 109.5C237.4 108.7 236.7 107.7 236 107.2C236 107.2 235.9 107.2 235.9 107.1C235.7 107 235.5 106.9 235.3 106.9C235.2 106.9 235.1 106.9 235 106.8H234.9L235 106.7C235.3 106.5 235.7 106.6 236.1 106.8C236.2 106.8 236.3 106.9 236.4 107C237.1 107.5 237.7 108.1 238.1 108.7ZM238.6 110.8C238.7 110.2 238.5 109.4 238 108.7C237.6 108 237 107.5 236.5 107.2C236.4 107.1 236.3 107.1 236.2 107C235.9 106.8 235.5 106.7 235.2 106.8H235.4C235.6 106.9 235.8 106.9 236 107V107.2C236.8 107.7 237.4 108.7 237.5 109.6C237.6 110.3 237.4 110.8 236.9 111.2C236.2 111.7 235.3 111.8 234.6 111.9H234.5C235.8 112.2 236.8 112.3 237.5 112C238 111.9 238.5 111.6 238.6 110.8Z" fill="#0774BA"/>
<path d="M234.6 95.9999C234.4 95.9999 234.3 95.9999 234.1 96.0999C233.2 96.1999 232.2 96.3999 231.4 96.7999C231.1 96.9999 230.7 97.1999 230.5 97.6999C230.4 97.9999 230.4 98.4999 230.6 99.0999C230.8 99.6999 231 100.2 231.3 100.7C231.4 101 231.6 101.3 231.7 101.6C232 102.3 232 103 231.8 103.5C231.5 104.1 231 104.4 230.1 104.5C230.5 104.2 230.7 103.7 230.7 103.2C230.7 102.7 230.5 102.1 230.1 101.4C229.3 99.8999 229 98.5999 229.1 97.6999C229.2 96.4999 230.1 96.0999 230.7 95.8999C231.7 95.5999 233 95.5999 234.6 95.9999Z" fill="#E92D2F"/>
<path d="M234.9 95.9999L235.1 96.0999L234.9 95.9999C234.7 96.0999 234.5 96.1999 234.3 96.1999C233.4 96.2999 232.4 96.4999 231.6 96.8999C231.3 97.0999 230.9 97.2999 230.7 97.7999C230.6 98.0999 230.6 98.5999 230.8 99.0999C231 99.5999 231.2 100.2 231.5 100.7C231.6 101 231.8 101.3 231.9 101.6C232.2 102.3 232.2 103.1 232 103.6C231.7 104.2 231.2 104.5 230.3 104.7H230.2C230.1 104.7 230.1 104.7 230 104.7H229.9H230C230.5 104.5 230.8 104 230.8 103.3C230.8 102.8 230.6 102.3 230.2 101.6C229.4 99.9999 229 98.7999 229.1 97.7999C229.2 96.5999 230.1 96.0999 230.8 95.8999C231.7 95.4999 233.1 95.4999 234.9 95.9999ZM234.2 96.0999C234.3 96.0999 234.5 96.0999 234.7 95.9999C233.1 95.5999 231.8 95.5999 230.8 95.8999C230.1 96.0999 229.3 96.5999 229.2 97.6999C229.1 98.5999 229.5 99.8999 230.2 101.4C230.6 102.1 230.8 102.7 230.8 103.2C230.8 103.8 230.6 104.3 230.2 104.5C231.1 104.4 231.6 104 231.9 103.5C232.1 103 232.1 102.3 231.8 101.6C231.7 101.3 231.5 101 231.4 100.7C231.2 100.2 230.9 99.5999 230.7 99.0999C230.5 98.5999 230.5 98.0999 230.6 97.6999C230.8 97.1999 231.2 96.8999 231.5 96.7999C232.2 96.2999 233.2 96.1999 234.2 96.0999Z" fill="#E92D2F"/>
<path d="M231.7 87.8999C232.3 88.9999 232.5 90.2999 232.3 91.2999C232.1 92.1999 231.7 92.9 230.9 93.5C230.4 93.9 229.9 94.0999 229.1 94.3999C228.4 94.5999 227.7 94.9 227.2 95.6C226.8 96.1 226.7 97 227 98C227.2 98.9 227.7 99.9 228.1 100.8C228.4 101.5 228.8 102.3 229 103L229.1 103.2L229 103C228.3 101.9 227.8 101 227.3 100.1C226.8 99.2 226.2 97.9999 225.8 96.8999C225.5 95.9999 225.5 95.2999 225.6 94.7999C225.8 94.1999 226.2 93.9 226.6 93.7C227.2 93.4 227.8 93.2 228.4 93C229.1 92.8 229.7 92.6 230.3 92.2C231 91.8 231.5 91.0999 231.6 90.2999C231.8 89.4999 231.7 88.4999 231.7 87.8999L231.6 87.7L231.7 87.8999ZM232.2 91.2C232.4 90.3 232.2 89.1 231.7 88.1C231.8 88.7 231.9 89.6 231.7 90.2C231.5 91 231.1 91.7 230.3 92.1C229.7 92.5 229 92.6999 228.4 92.8999C227.8 93.0999 227.2 93.3 226.6 93.6C226.2 93.9 225.8 94.2 225.6 94.7C225.4 95.2 225.5 95.9 225.8 96.7999C226.2 97.9 226.8 99.1 227.3 100C227.8 100.8 228.3 101.7 228.9 102.7C228.7 102 228.4 101.4 228.1 100.7C227.7 99.8 227.3 98.7999 227 97.8999C226.7 96.8999 226.8 95.9999 227.2 95.3999C227.7 94.6999 228.4 94.4 229.1 94.1C229.8 93.8 230.4 93.6 230.8 93.2C231.6 92.8 232.1 92.1 232.2 91.2Z" fill="#E92D2F"/>
<path d="M231.7 88.0999C232.2 89.0999 232.4 90.2999 232.2 91.1999C232 92.0999 231.6 92.7998 230.8 93.3998C230.3 93.7998 229.8 93.9999 229.1 94.2999C228.4 94.4999 227.7 94.7999 227.2 95.5999C226.8 96.1999 226.7 97.0999 227 98.0999C227.2 99.0999 227.7 99.9998 228.1 100.9C228.4 101.5 228.7 102.2 228.9 102.9C228.3 101.9 227.8 101 227.3 100.2C226.8 99.2999 226.2 98.0999 225.8 96.9999C225.5 96.1999 225.5 95.3998 225.6 94.8998C225.8 94.2998 226.2 93.9999 226.6 93.7999C227.2 93.4999 227.8 93.2999 228.4 93.0999C229.1 92.8999 229.7 92.6999 230.3 92.2999C231 91.8999 231.5 91.1998 231.7 90.3998C231.9 89.5998 231.8 88.6999 231.7 88.0999Z" fill="#E92D2F"/>
<path d="M236.9 130C236.9 130.4 236.9 130.8 236.9 131.2C236.5 131.4 236.1 131.4 235.7 131.2C235.7 131.2 235.6 131.1 235.5 131.1C235.3 131 234.9 130.7 234.7 130.3C234.5 129.9 234.5 129.4 234.6 129C234.7 128.7 234.9 128.6 235.2 128.7C235.6 128.8 236 129 236.4 129.2C236.5 129.2 236.6 129.3 236.6 129.3L236.8 129.4C236.9 129.7 236.9 129.8 236.9 130ZM235.7 131.1C236.1 131.3 236.5 131.3 236.8 131.1C236.8 130.7 236.8 130.3 236.8 129.9C236.8 129.8 236.8 129.7 236.8 129.5C236.7 129.4 236.5 129.4 236.4 129.3C236 129.1 235.6 128.8 235.2 128.8C234.9 128.7 234.7 128.9 234.6 129.1C234.5 129.5 234.6 129.9 234.7 130.3C234.9 130.7 235.2 130.9 235.4 131.1C235.6 131.1 235.7 131.1 235.7 131.1Z" fill="#E92D2F"/>
<path d="M237.8 126.9C238.1 127.4 238.2 128 238.2 128.6C238.2 129.2 238.2 129.8 238.2 130.4C238.2 131.4 238.2 132.4 238.2 133.4C238.1 133.3 237.9 133.2 237.8 133.1C237.7 133.1 237.7 133 237.6 133C237.5 132.9 237.4 132.9 237.3 132.8V132.5C237.3 132.3 237.3 132.2 237.2 132C236.7 132.2 236.1 132.2 235.6 131.9C235.5 131.9 235.4 131.8 235.3 131.7C234.9 131.4 234.3 131 234 130.4C233.6 129.7 233.4 128.9 233.6 128.2C233.7 127.7 234.1 127.4 234.6 127.4C235.3 127.4 236.1 127.8 236.9 128.3C237 128.3 237 128.4 237.1 128.4C237.1 128.3 237.1 128.2 237.1 128.1C237.1 127.8 237.1 127.4 237 127C236.9 126.7 236.6 126.3 236.2 126.1C236.1 126 236 125.9 235.9 125.9C235.3 125.5 234.6 125.4 234.2 125.3V125.2C234.2 125 234.1 124.9 234.1 124.7C234.1 124.5 234 124.4 234 124.2C234.8 124.3 235.6 124.5 236.3 125C236.5 125.1 236.6 125.2 236.8 125.3C236.9 125.7 237.5 126.2 237.8 126.9ZM238.1 130.4C238.1 129.8 238.1 129.2 238.1 128.6C238.1 128 238 127.4 237.7 127C237.4 126.3 236.8 125.9 236.4 125.6C236.2 125.5 236.1 125.4 235.9 125.3C235.2 124.9 234.4 124.6 233.7 124.6C233.7 124.8 233.8 124.9 233.8 125.1C233.8 125.2 233.9 125.4 233.9 125.5C234.4 125.6 235 125.7 235.6 126.1C235.7 126.2 235.8 126.2 236 126.3C236.4 126.6 236.7 126.9 236.8 127.3C237 127.7 237 128.1 236.9 128.4C236.9 128.5 236.9 128.6 236.9 128.7L236.7 128.6C235.9 128.1 235.1 127.7 234.4 127.7C233.9 127.7 233.5 128 233.4 128.5C233.3 129.2 233.4 130 233.8 130.6C234.2 131.2 234.7 131.6 235.1 131.8C235.2 131.9 235.3 131.9 235.4 132C235.9 132.3 236.5 132.3 237 132.1V132.2C237 132.4 237 132.6 237.1 132.8V133C237.2 133.1 237.3 133.1 237.5 133.2L237.6 133.3C237.7 133.4 237.9 133.5 238 133.5C238.1 132.4 238.1 131.4 238.1 130.4Z" fill="#E92D2F"/>
<path d="M237.7 126.9C238 127.4 238.1 128 238.1 128.5C238.1 129.1 238.1 129.7 238.1 130.3C238.1 131.3 238.1 132.3 238.1 133.3C238 133.2 237.8 133.1 237.7 133.1L237.6 133C237.5 132.9 237.4 132.9 237.2 132.8V132.6C237.2 132.4 237.2 132.2 237.1 132V131.9C236.6 132.1 236 132.1 235.5 131.8C235.4 131.8 235.3 131.7 235.2 131.6C234.8 131.4 234.3 131 233.9 130.4C233.5 129.8 233.4 129 233.5 128.3C233.6 127.8 234 127.5 234.5 127.5C235.2 127.5 236 127.9 236.8 128.4L237 128.5C237 128.4 237 128.3 237 128.2C237 127.8 237 127.5 236.9 127.1C236.8 126.7 236.5 126.4 236.1 126.1C236 126 235.9 125.9 235.7 125.9C235.1 125.5 234.5 125.4 234 125.3C234 125.2 234 125 233.9 124.9C233.9 124.7 233.8 124.6 233.8 124.4C234.6 124.5 235.3 124.7 236 125.1C236.2 125.2 236.3 125.3 236.5 125.4C236.9 125.8 237.4 126.3 237.7 126.9ZM237 131.2C237 130.8 237 130.4 237 130C237 129.9 237 129.7 237 129.6L236.8 129.5C236.7 129.5 236.6 129.4 236.6 129.4C236.2 129.2 235.8 129 235.4 128.9C235.1 128.8 234.9 129 234.8 129.2C234.7 129.6 234.7 130 234.9 130.5C235.1 130.9 235.4 131.2 235.7 131.3C235.8 131.3 235.8 131.4 235.9 131.4C236.1 131.4 236.5 131.4 237 131.2Z" fill="#E92D2F"/>
<path d="M238.7 126.6V126.7V126.8L238.5 126.7V127.2L238.4 127.1V126.6L238.2 126.5V126.3L238.7 126.6Z" fill="#E92D2F"/>
<path d="M239 127.3L238.9 127.4V127.3H239Z" fill="#E92D2F"/>
<path d="M239.2 126.9V127.6L239.1 127.5V127.2L239 127.5L238.9 127.4L238.8 127V127.3L238.7 127.2V126.7V126.6L238.8 126.7L238.9 127.1V127.2V127.1L239 126.8L239.2 126.9Z" fill="#E92D2F"/>
<path d="M231.9 258.3L235 261.2L231.9 260.4L228.8 257.6L231.9 258.3Z" fill="#F68D11"/>
<path d="M223.8 263.6L227.2 266.6V272.4L223.8 269.1V263.6Z" fill="#F68D11"/>
<path d="M227.6 264L230.8 266.9L227.6 266.1L224.5 263.3L227.6 264Z" fill="#F68D11"/>
<path d="M231.5 267.9L231.4 273.5L228.1 272.9V267.1L231.5 267.9Z" fill="#F68D11"/>
<path d="M228.1 257.8L231.5 260.9V266.7L228.1 263.4V257.8Z" fill="#F68D11"/>
<path d="M236.6 262.7L240 265.8L239.9 271.5L236.6 268.3V262.7Z" fill="#F68D11"/>
<path d="M239.1 278.7C239.2 278.9 239.2 279 239.1 279.1C238.8 279.2 238.4 279.4 238.1 279.5C238.1 279.5 238 279.5 237.9 279.5L237.8 279.4C237.4 278.8 237.3 278.5 237.1 278C236.4 278.4 235.9 278.4 235.1 277.9C234.1 277.3 233.3 276.1 233.3 274.6C233.3 273.5 233.8 273 234.6 273C235.3 273 236.2 273.5 236.9 273.9V273.7C236.9 273.4 236.9 273 236.8 272.6C236.7 272.3 236.4 272 236.1 271.8C235.6 271.5 235.2 271.6 235.1 272.1C235.1 272.2 235 272.3 234.9 272.2L233.7 271.4C233.6 271.3 233.5 271.2 233.5 271C233.8 269.5 235.1 269.7 236.3 270.4C236.9 270.7 237.7 271.4 238.2 272.2C238.8 273.2 238.7 274 238.7 275V277.2C238.6 277.8 238.9 278.2 239.1 278.7ZM236.7 276.7C236.9 276.3 236.9 275.9 236.9 275.3V275C236 274.5 235.1 274.2 235.1 275.4C235.1 276 235.4 276.6 235.9 276.9C236.1 277 236.5 277 236.7 276.7Z" fill="#100F0D"/>
<path d="M235.7 262.2V267.8L232.3 267.2V261.4L235.7 262.2Z" fill="#F68D11"/>
<path d="M240.4 263.2L243.5 266.1L240.4 265.3L237.3 262.5L240.4 263.2Z" fill="#F68D11"/>
<path d="M241.7 286.5H241.6L239.1 285C239.1 285.3 239.1 285.6 239.2 286C239.4 286.5 239.7 286.9 240.1 287.2C240.5 287.4 240.8 287.3 241 287C241 286.9 241.1 286.9 241.2 287L241.6 287.3C241.7 287.4 241.7 287.4 241.7 287.5V287.6C241.4 288.3 240.8 288.4 240 287.9C238.9 287.3 238.2 285.9 238.2 284.4C238.2 283.2 238.8 282.3 240 283C241.3 283.7 241.7 285.2 241.7 286.4V286.5ZM239 284.3L240.9 285.4C240.9 284.8 240.6 284 240 283.6C239.4 283.3 239.1 283.8 239 284.3Z" fill="#100F0D"/>
<path d="M245.3 286.8C245.5 287.3 245.7 288 245.7 288.6C245.7 289.9 245.2 290.8 244.1 290.2H244C243.6 290 243.2 289.5 242.9 288.9L242.8 289.2C242.8 289.3 242.7 289.3 242.6 289.3L242.5 289.2C242.4 289.1 242.3 289 242.3 288.9V283C242.3 282.9 242.4 282.9 242.5 282.9L242.9 283.1C243 283.2 243.1 283.3 243.1 283.4V285.3C243.4 285 243.7 285 244.1 285.3H244.2C244.6 285.6 245 286.1 245.3 286.8ZM244 289.4C244.8 289.9 244.9 288.5 244.9 288.2C244.9 287.9 244.9 286.4 244 285.9C243.5 285.6 243.1 286.1 243.1 286.7V287.5C243.1 287.9 243.2 288.2 243.3 288.5C243.4 288.9 243.7 289.2 244 289.4Z" fill="#100F0D"/>
<path d="M246.7 276.5C247.2 276.8 247.8 277.4 248.1 278.1C248.5 278.9 248.4 279.8 248.4 280.6V285.2C248.4 285.3 248.3 285.4 248.2 285.3L247 284.6C246.9 284.5 246.8 284.3 246.8 284.2V280.3C246.8 280 246.8 279.2 246.8 278.9C246.7 278.4 246.4 278.1 246.1 277.8C245.8 277.6 245.5 277.7 245.4 278C245.3 278.3 245.3 278.9 245.3 279.3V283.2C245.3 283.3 245.2 283.4 245.1 283.3L243.9 282.6C243.8 282.5 243.7 282.3 243.7 282.2V278.3C243.7 277.5 243.8 276.4 242.9 275.8C242 275.3 242 276.5 242 277.3V281.2C242 281.3 241.9 281.4 241.8 281.3L240.6 280.6C240.5 280.5 240.4 280.4 240.4 280.2V272.9C240.4 272.8 240.5 272.7 240.6 272.8L241.8 273.5C241.9 273.6 242 273.7 242 273.9V274.9C242.3 274.2 242.9 274.1 243.7 274.5C244.5 274.9 245 275.7 245.3 276.8C245.2 276.1 245.9 276 246.7 276.5Z" fill="#100F0D"/>
<path d="M244.2 267.1V272.7L240.8 272.1V266.3L244.2 267.1Z" fill="#F68D11"/>
<path d="M215.4 258.7L218.7 261.7V267.5L215.4 264.2V258.7Z" fill="#F68D11"/>
<path d="M219.6 269.3L223 272.4L222.9 278.1L219.6 274.9V269.3Z" fill="#F68D11"/>
<path d="M223 263.1L222.9 268.6L219.6 268V262.2L223 263.1Z" fill="#F68D11"/>
<path d="M219.2 259.1L222.3 262L219.2 261.2L216.1 258.4L219.2 259.1Z" fill="#F68D11"/>
<path d="M223.4 269.7L226.5 272.7L223.4 271.8L220.3 269.1L223.4 269.7Z" fill="#F68D11"/>
<path d="M227.2 273.7V279.2L223.8 278.6V272.9L227.2 273.7Z" fill="#F68D11"/>
<path d="M237.8 281.8C237.9 281.8 237.9 281.9 238 282V282.1L236.9 286C236.9 286.1 236.8 286.1 236.7 286.1L236.3 285.9C236.2 285.8 236.1 285.7 236.1 285.6L235.4 282.2L234.7 284.8C234.7 284.9 234.6 284.9 234.5 284.9L234.1 284.7C234 284.6 233.9 284.5 233.9 284.4L232.8 279.3V279.2C232.8 279.2 232.9 279.2 233 279.2L233.4 279.4C233.5 279.5 233.6 279.6 233.6 279.7L234.3 283.1L235 280.5C235 280.4 235.1 280.4 235.2 280.4L235.5 280.6C235.6 280.7 235.7 280.8 235.7 280.9L236.4 284.4L237.2 281.8C237.2 281.7 237.3 281.7 237.4 281.7L237.8 281.8Z" fill="#100F0D"/>
<path d="M248.4 287.8C249.2 288.3 249.7 288.9 249.9 289.8V289.9C249.9 289.9 249.8 290 249.8 289.9L249.5 289.8C249.4 289.8 249.3 289.7 249.3 289.5C249.2 289.1 248.9 288.7 248.5 288.4C248.2 288.2 247.8 288.2 247.8 288.6C247.8 289 248 289.3 248.4 289.6L248.9 290C249.2 290.2 249.5 290.5 249.7 290.8C250 291.2 250.2 291.7 250.2 292.2C250.2 293.3 249.3 293.2 248.6 292.7C247.7 292.2 247.1 291.4 246.9 290.5V290.4C246.9 290.4 247 290.3 247 290.4L247.4 290.5C247.5 290.5 247.6 290.7 247.6 290.8C247.7 291.3 248.2 291.8 248.6 292.1C248.8 292.2 249.4 292.5 249.4 291.9C249.4 291.5 249.1 291.2 248.7 290.9L248.1 290.4C247.3 289.8 247 289.1 247 288.4C246.9 287.3 247.7 287.4 248.4 287.8Z" fill="#100F0D"/>
<path d="M255.3 288.1C255.4 288.3 255.4 288.4 255.3 288.5C255 288.6 254.6 288.8 254.3 288.9C254.3 288.9 254.2 288.9 254.1 288.9L254 288.8C253.6 288.2 253.5 287.9 253.3 287.4C252.6 287.8 252.1 287.8 251.3 287.3C250.3 286.7 249.5 285.5 249.5 284C249.5 282.9 250 282.4 250.8 282.4C251.5 282.4 252.4 282.9 253.1 283.3V283.1C253.1 282.8 253.1 282.4 253 282C252.9 281.7 252.6 281.4 252.3 281.2C251.8 280.9 251.4 281 251.3 281.5C251.3 281.6 251.2 281.7 251.1 281.6L249.9 280.8C249.8 280.7 249.7 280.6 249.7 280.4C250 278.9 251.3 279.1 252.5 279.8C253.1 280.1 253.9 280.8 254.4 281.6C255 282.6 254.9 283.4 254.9 284.4V286.6C254.8 287.2 255.1 287.6 255.3 288.1ZM252.9 286C253.1 285.6 253.1 285.2 253.1 284.6V284.3C252.2 283.8 251.3 283.5 251.3 284.7C251.3 285.3 251.6 285.9 252.1 286.2C252.4 286.4 252.7 286.3 252.9 286Z" fill="#100F0D"/>
<path d="M254.1 293.6H254L251.5 292.1C251.5 292.4 251.5 292.7 251.6 293.1C251.8 293.6 252.1 294 252.5 294.3C252.9 294.5 253.2 294.4 253.4 294.1C253.4 294 253.5 294 253.6 294.1L254 294.4C254.1 294.4 254.1 294.5 254.1 294.6V294.7C253.8 295.4 253.2 295.5 252.4 295C251.3 294.4 250.6 293 250.6 291.5C250.6 290.3 251.2 289.4 252.4 290.1C253.7 290.8 254.1 292.3 254.1 293.5V293.6ZM251.4 291.5L253.3 292.6C253.3 292 253 291.2 252.4 290.8C251.8 290.5 251.5 290.9 251.4 291.5Z" fill="#100F0D"/>
<path d="M256.4 292.5L256.5 292.6C256.6 292.7 256.7 292.8 256.7 292.9V293.3C256.7 293.4 256.6 293.5 256.5 293.4C256.1 293.2 255.8 293.2 255.6 293.6C255.4 293.8 255.4 294.1 255.4 294.5V296.7C255.4 296.8 255.3 296.8 255.2 296.8L254.8 296.6C254.7 296.5 254.6 296.4 254.6 296.3V292C254.6 291.9 254.7 291.8 254.8 291.9L255.1 292.1C255.2 292.2 255.3 292.3 255.3 292.4V292.8C255.6 292.3 255.9 292.2 256.4 292.5Z" fill="#100F0D"/>
<path d="M260.4 294.7C260.5 294.7 260.5 294.8 260.6 294.9V295L259.3 298.8C259.3 298.9 259.2 298.9 259.1 298.9L258.6 298.6C258.5 298.5 258.4 298.4 258.4 298.3L257.1 293V292.9C257.1 292.9 257.2 292.9 257.3 292.9L257.7 293.1C257.8 293.2 257.9 293.3 257.9 293.4L258.9 297.4L259.9 294.5C259.9 294.4 260 294.4 260.1 294.4L260.4 294.7Z" fill="#100F0D"/>
<path d="M261.4 293.5C261.7 293.7 261.9 294 261.9 294.3C261.9 294.6 261.7 294.7 261.4 294.6C261.1 294.4 260.9 294.1 260.9 293.8C260.9 293.5 261.1 293.4 261.4 293.5Z" fill="#100F0D"/>
<path d="M261.6 295.4C261.7 295.5 261.8 295.6 261.8 295.7V300.3C261.8 300.4 261.7 300.5 261.6 300.4L261.2 300.2L261.1 300.1L261 299.9V295.3C261 295.2 261.1 295.1 261.2 295.2L261.6 295.4Z" fill="#100F0D"/>
<path d="M264 296.8C264.8 297.3 265.4 298.2 265.5 299.3C265.5 299.4 265.4 299.5 265.3 299.4L265 299.2C264.9 299.1 264.8 299 264.8 298.9C264.7 298.3 264.4 297.8 264 297.5C263.3 297.1 263.1 297.9 263.1 298.7C263.1 299.1 263.2 300.4 264 300.9C264.4 301.1 264.7 301 264.8 300.4C264.8 300.3 264.9 300.3 265 300.3L265.3 300.5C265.4 300.5 265.4 300.6 265.5 300.7V300.9C265.3 301.8 264.7 302.1 264 301.6H263.9C262.7 300.9 262.2 299.3 262.2 298.2C262.3 297.1 262.8 296.1 264 296.8Z" fill="#100F0D"/>
<path d="M269.4 302.5H269.3L266.8 301C266.8 301.3 266.8 301.6 266.9 302C267.1 302.5 267.4 302.9 267.8 303.2C268.2 303.4 268.5 303.3 268.7 303C268.7 302.9 268.8 302.9 268.9 303L269.3 303.3C269.4 303.4 269.4 303.4 269.4 303.5V303.6C269.1 304.3 268.5 304.4 267.7 303.9C266.6 303.3 265.9 301.9 265.9 300.4C265.9 299.2 266.5 298.3 267.7 299C269 299.7 269.4 301.2 269.4 302.4V302.5ZM266.7 300.3L268.6 301.4C268.6 300.8 268.3 300 267.7 299.6C267.1 299.3 266.8 299.8 266.7 300.3Z" fill="#100F0D"/>
<path d="M271.4 301.1C272.2 301.6 272.7 302.2 272.9 303.1V303.2C272.9 303.2 272.8 303.3 272.8 303.2L272.5 303.1C272.4 303.1 272.3 303 272.3 302.9C272.2 302.5 271.9 302.1 271.5 301.8C271.4 301.7 270.8 301.4 270.8 302C270.8 302.4 271 302.7 271.4 303L272 303.4C272.3 303.6 272.6 303.9 272.8 304.2C273.1 304.6 273.3 305.1 273.3 305.6C273.3 306.7 272.4 306.6 271.7 306.1C270.8 305.6 270.2 304.8 270 303.9V303.8C270 303.8 270.1 303.7 270.1 303.8L270.5 303.9C270.6 303.9 270.7 304.1 270.7 304.2C270.8 304.8 271.3 305.2 271.7 305.5C271.9 305.6 272.5 305.9 272.5 305.3C272.5 304.9 272.2 304.5 271.8 304.3L271.2 303.8C270.4 303.2 270.1 302.5 270.1 301.8C269.9 300.6 270.6 300.7 271.4 301.1Z" fill="#100F0D"/>
<path d="M260.7 284.7C260.8 284.8 260.9 284.9 260.9 285.1V286C260.9 286.1 260.8 286.3 260.6 286.5L258.5 288.7C258.6 288.7 258.6 288.8 258.7 288.8C259.4 289.2 260.2 289.8 260.9 290.6C261.1 290.8 261.1 291 261.1 291.1V292.2C261.1 292.3 261 292.4 260.9 292.3C260.9 292.3 260.8 292.3 260.8 292.2C260.2 291.4 259.4 290.8 258.7 290.4C258 290 257.2 289.7 256.6 289.8H256.5C256.4 289.7 256.3 289.5 256.3 289.4V288.3C256.3 288.1 256.3 287.8 256.5 287.7L259 285.1L256.9 283.9C256.8 283.8 256.7 283.7 256.7 283.5V282.5C256.7 282.3 256.8 282.3 256.9 282.4L260.7 284.7Z" fill="#100F0D"/>
<path d="M264.4 286.7C266.2 287.8 267.2 290.1 267.2 292.4C267.2 294.6 266.1 295.8 264.4 294.8C262.6 293.8 261.6 291.4 261.6 289.1C261.6 286.9 262.6 285.7 264.4 286.7ZM264.4 293.3C265.4 293.9 265.4 292.3 265.4 291.4C265.4 290.8 265.4 290 265.2 289.4C265.1 288.8 264.8 288.4 264.4 288.2C263.5 287.7 263.4 289.1 263.4 290C263.4 290.8 263.4 292.7 264.4 293.3Z" fill="#100F0D"/>
<path d="M271.5 290.8C272.1 291.1 272.6 291.7 272.9 292.5C273.2 293.3 273.2 294.2 273.2 295V299.6C273.2 299.7 273.1 299.8 273 299.7L271.8 299C271.7 298.9 271.6 298.8 271.6 298.6V294.6C271.6 293.8 271.7 292.7 270.8 292.2C270.5 292 270.2 292.1 270.1 292.4C269.9 292.7 269.9 293.2 269.9 293.7V297.6C269.9 297.7 269.8 297.8 269.7 297.7L268.5 297C268.4 296.9 268.3 296.7 268.3 296.6V289.3C268.3 289.2 268.4 289.1 268.5 289.2L269.7 289.9C269.8 290 269.9 290.1 269.9 290.2V291.3C270.1 290.5 270.6 290.3 271.5 290.8Z" fill="#100F0D"/>
<path d="M268.2 117.3C275.3 121.4 274.8 125 274.7 125.1C274.7 125.2 274.7 127.8 274.7 131.8C274.7 135.7 271.3 133.9 271.1 133.7C271.1 133.7 268.5 132.2 264.7 130C260.9 127.8 261 132 261 132.2V135.9L258.7 134.6C258.2 134.3 254.9 132.2 254.9 124.8C254.9 117.9 258.2 119.4 259.1 119.9C259.2 120 259.3 120 259.3 120L268.3 125.2V124.2L261.8 120.5V117C261.8 116.8 261.4 113.4 268.2 117.3ZM264.6 120.2C265.2 120.6 265.8 120.3 265.8 119.5C265.8 118.8 265.3 117.9 264.6 117.5C264 117.1 263.4 117.4 263.4 118.2C263.5 119 264 119.9 264.6 120.2Z" fill="#45719E"/>
<path d="M277.9 130.6C278.4 130.9 281.7 133 281.7 140.4C281.7 147.3 278.4 145.8 277.5 145.3C277.4 145.2 277.3 145.2 277.3 145.2L268.3 140V141.1L274.8 144.8V148.3C274.8 148.5 275.2 151.9 268.4 148C261.3 143.9 261.8 140.3 261.9 140.1C261.9 140 261.9 137.4 261.9 133.4C261.9 129.5 265.3 131.3 265.5 131.5C265.5 131.5 268.1 133 271.9 135.2C275.7 137.4 275.6 133.2 275.6 133V129.4L277.9 130.6ZM271.9 145C271.3 144.6 270.7 144.9 270.7 145.7C270.7 146.4 271.2 147.3 271.9 147.7C272.5 148.1 273.1 147.8 273.1 147C273.1 146.2 272.6 145.3 271.9 145Z" fill="#F8D05C"/>
<path d="M340.5 135.3C342.3 134.6 343.1 134.4 343.1 135.9C343.1 137.3 342.1 138.8 340.3 139.8C337.8 141.3 337.3 140.2 337.2 139.1C337.2 139 337.3 138.9 337.4 138.8L338.1 138.4C338.2 138.3 338.3 138.4 338.3 138.5C338.4 139.3 338.7 139.5 340.3 138.7C341.5 138 342 137.4 342 136.7C342 136.3 341.8 136 340 136.9C338.4 137.6 337.4 137.8 337.4 136.4C337.4 135.1 338.4 133.7 340 132.8C341.8 131.7 342.8 131.9 342.9 133.5V133.7L342.8 133.8L342.1 134.2C342 134.2 342 134.2 341.9 134.1C341.7 133.3 341.3 133.3 340.1 133.9C338.8 134.7 338.6 135.3 338.6 135.7C338.6 136 338.7 136 340.5 135.3Z" fill="#689F63"/>
<path d="M347.6 127.5C347.8 127.4 347.8 127.5 347.8 127.7C347.8 127.8 347.8 128 347.9 128L347.6 128.1V127.7C347.6 127.6 347.6 127.6 347.5 127.6L347.3 127.7V128.3L347.1 128.4V127L347.5 126.8C347.7 126.7 347.9 126.6 347.9 126.9C347.9 127.3 347.7 127.5 347.6 127.5ZM347.4 127.6C347.6 127.5 347.6 127.4 347.6 127.3C347.6 127.1 347.5 127.2 347.4 127.2L347.2 127.3V127.7L347.4 127.6Z" fill="#689F63"/>
<path d="M353.5 94.8998C353.7 94.8998 353.9 95.0998 353.9 95.3998L354 115.5C354 115.8 353.9 116.2 353.6 116.4L347.5 124C347.4 124.1 347.3 124.2 347.1 124.3C347 124.4 346.8 124.4 346.7 124.4L340.6 123.9C340.4 123.9 340.2 123.7 340.2 123.4V115.3C340.2 115 340.3 114.6 340.6 114.4L346.7 106.8C346.8 106.7 346.9 106.5 347.1 106.5C347.2 106.4 347.4 106.4 347.5 106.4L349 106.5H349.1L349.2 106.4C349.3 106.3 349.3 106.2 349.3 106.1V95.3998C349.3 95.1998 349.4 95.0998 349.5 94.8998C349.6 94.7998 349.6 94.7999 349.7 94.6999C349.8 94.6999 349.8 94.5999 349.9 94.5999L353.5 94.8998ZM349.3 115.8C349.4 115.7 349.4 115.6 349.4 115.6V112.8C349.4 112.7 349.4 112.7 349.3 112.7L347.2 112.5L347 112.6L344.9 115.2C344.8 115.3 344.8 115.4 344.8 115.4V118.2C344.8 118.3 344.8 118.3 344.9 118.3L347 118.5L347.2 118.4L349.3 115.8Z" fill="#333333"/>
<path d="M338.5 128C338.7 127.9 338.9 127.8 339.1 127.8L344.9 128.3C345.3 128.3 345.5 128.7 345.5 129.2V136.8C345.5 137.3 345.3 137.9 344.9 138.3L339.2 145.4C339 145.6 338.8 145.8 338.6 145.9C338.4 146 338.2 146.1 338 146.1L336.1 145.9C335.8 145.9 335.9 145.7 336 145.7C336.4 145.3 336.5 145.2 336.9 144.7L337 144.6L338.5 144.7L338.7 144.6L344.4 137.5L344.5 137.3V129.7C344.5 129.6 344.5 129.6 344.4 129.6L338.7 129.1L338.5 129.2L332.8 136.3C332.8 136.4 332.7 136.5 332.7 136.5V144.1C332.7 144.2 332.7 144.2 332.8 144.2L334.4 144.3C334.6 144.3 334.8 144.2 335 144.1C335.5 143.8 335.8 143.2 335.8 142.8V135.3C335.8 135.2 335.9 135.1 336 135L336.7 134.6C336.8 134.6 336.9 134.6 336.9 134.7V142.2C336.9 143.5 336.3 144.6 335.2 145.2C334.9 145.4 334.6 145.5 333.9 145.6L332.4 145.5C332 145.5 331.8 145.1 331.8 144.6V137C331.8 136.5 332 135.9 332.4 135.5L338.1 128.4C338 128.3 338.2 128.1 338.5 128Z" fill="#689F63"/>
<path d="M336.9 126C337 125.8 337.2 125.6 337.2 125.4C337.2 125.6 337.1 125.8 336.9 126Z" fill="#58A448"/>
<path d="M336.9 116.5C337.1 116.5 337.3 116.7 337.3 117V125C337.3 125.1 337.3 125.1 337.3 125.2L335 122.1L337 116.6L336.9 116.5L332.9 116.2L331.2 116L336.9 116.5Z" fill="#58A448"/>
<path d="M330.7 133.7L330.8 133.6L330.7 133.7Z" fill="#58A448"/>
<path d="M330.4 116.1C330.5 116.1 330.5 116 330.5 116L330.4 116.1Z" fill="#58A448"/>
<path d="M330.3 116.2C330.2 116.3 330.1 116.4 330 116.4C330.2 116.3 330.2 116.2 330.3 116.2Z" fill="#58A448"/>
<path d="M330.4 133.9C330.3 133.9 330.2 133.9 330.2 133.9C330.2 134 330.3 134 330.4 133.9Z" fill="#58A448"/>
<path d="M336.9 116.5C337 116.5 337 116.5 337.1 116.6L335.1 122.1L330.7 116C330.8 116 330.8 115.9 330.9 115.9H331.2L332.9 116.1L336.9 116.5Z" fill="#4E9643"/>
<path d="M330.4 116.1L330.5 116L334.9 122.1L337.2 125.2V125.3C337.1 125.6 337 125.8 336.9 126L330.8 133.5C330.7 133.6 330.7 133.6 330.6 133.7L330.5 133.8L326.1 127.2L323.9 123.9L329.9 116.4C330 116.3 330.1 116.2 330.2 116.2L330.4 116.1Z" fill="#79B261"/>
<path d="M323.7 124.9C323.7 124.6 323.8 124.2 324.1 124L330.2 116.5L324.2 124L326.4 127.3L324 133.4C324.1 133.5 324.1 133.5 324.2 133.5C324 133.5 323.8 133.3 323.8 133L323.7 124.9Z" fill="#58A448"/>
<path d="M326.2 127.2L330.6 133.8C330.6 133.8 330.7 133.8 330.7 133.7L330.6 133.8C330.6 133.8 330.5 133.8 330.5 133.9C330.4 133.9 330.3 134 330.2 134L329.3 133.9L324.1 133.5C324 133.5 323.9 133.5 323.9 133.4L326.2 127.2Z" fill="#4E9643"/>
<path d="M347.4 126.4C348 126 348.5 126.3 348.5 127C348.5 127.7 348 128.6 347.4 128.9C346.8 129.2 346.3 129 346.3 128.3C346.3 127.6 346.8 126.7 347.4 126.4ZM347.4 128.7C347.9 128.4 348.3 127.7 348.3 127.1C348.3 126.5 347.9 126.3 347.4 126.6C346.9 126.9 346.5 127.6 346.5 128.2C346.5 128.8 346.9 129 347.4 128.7Z" fill="#689F63"/>
<path d="M370.2 97.1999C370.4 97.1999 370.6 97.3999 370.6 97.6999V99.6999C370.6 99.9999 370.5 100.4 370.2 100.6L366.6 105.1C366.5 105.2 366.5 105.2 366.4 105.3C366.3 105.3 366.3 105.4 366.2 105.3C366.1 105.3 366 105.2 366 105V103C366 102.8 365.9 102.7 365.8 102.7L363.9 102.5C363.8 102.5 363.8 102.5 363.7 102.6C363.6 102.7 363.6 102.7 363.5 102.8L361.6 105.2C361.5 105.4 361.4 105.5 361.4 105.7V108.2C361.4 108.4 361.5 108.5 361.6 108.5L367.7 109C367.8 109 367.9 109.1 367.9 109.3C367.9 109.5 367.8 109.6 367.7 109.8L364.1 114.2C364 114.3 363.9 114.5 363.7 114.5C363.6 114.6 363.5 114.6 363.3 114.6L357.2 114.1C357 114.1 356.8 113.9 356.8 113.6V105.5C356.8 105.2 356.9 104.8 357.2 104.6L363.3 96.9999C363.4 96.8999 363.5 96.7999 363.7 96.6999C363.8 96.5999 364 96.5999 364.1 96.5999L370.2 97.1999Z" fill="#333333"/>
<path d="M320.3 126C320.5 126 320.7 126.2 320.7 126.5V137.4C320.7 137.5 320.6 137.7 320.5 137.9C320.4 138 320.4 138 320.3 138.1C320.2 138.1 320.2 138.2 320.1 138.2L316.5 137.9C316.3 137.9 316.1 137.7 316.1 137.4V132.3C316.1 132 316 131.8 315.7 131.8L314.2 131.7C314.1 131.7 314 131.7 313.8 131.8C313.7 131.9 313.5 132 313.4 132.1L311.9 134C311.7 134.3 311.5 134.7 311.5 134.9V140C311.5 140.3 311.4 140.7 311.1 140.9L307.5 145.4C307.4 145.5 307.4 145.5 307.3 145.6C307.2 145.6 307.2 145.7 307.1 145.6C307 145.6 306.9 145.5 306.9 145.3V134.5C306.9 134.2 307 133.8 307.3 133.6L313.4 126.1C313.5 126 313.6 125.9 313.7 125.8H313.8C313.9 125.7 314 125.7 314.1 125.7L320.3 126Z" fill="#333333"/>
<path d="M363.9 104L365 104.1L365.1 104.2V105.7L365 105.9L363.9 107.4H363.7L362.6 107.3L362.5 107.2V105.7L362.6 105.5L363.7 104H363.9Z" fill="#689F63"/>
<path d="M273.4 47.2L285.4 50.4L283.5 51.5L281.1 50.7999L277.9 52.6L279.1 54L277.2 55.1L271.7 48.1L273.4 47.2ZM276.9 51.5L279.1 50.2L274.7 48.9L276.9 51.5Z" fill="#43435C"/>
<path d="M272.4 53.4998C273 53.4998 273.5 53.6998 274 53.9998C274.8 54.4998 275.2 54.9998 275.1 55.5998C275 56.1998 274.4 56.6998 273.5 57.2998L270.1 59.2998L261.4 54.1998L264.5 52.3998C265.6 51.7998 266.6 51.3998 267.5 51.3998C268.4 51.2998 269.3 51.4998 270.1 51.9998C270.5 52.2998 270.8 52.4998 270.9 52.8998C271 53.1998 270.9 53.4998 270.7 53.8998C271.2 53.4998 271.8 53.4998 272.4 53.4998ZM272.7 55.6998C272.7 55.3998 272.6 55.1998 272.2 54.9998C271.4 54.4998 270.6 54.4998 269.7 54.9998L268 55.9998L270.4 57.3998L271.9 56.4998C272.4 56.1998 272.6 55.9998 272.7 55.6998ZM264.6 53.9998L266.8 55.2998L268.1 54.4998C269 53.9998 269.1 53.4998 268.4 53.0998C268 52.8998 267.6 52.7998 267.2 52.7998C266.8 52.7998 266.3 52.9998 265.8 53.2998L264.6 53.9998Z" fill="#43435C"/>
<path d="M280.7 42.7999C281.7 42.1999 282.8 41.8999 283.9 41.8999C285.1 41.8999 286.2 42.0999 287.2 42.5999L285.4 43.5999C284.8 43.2999 284.2 43.0999 283.7 43.1999C283.2 43.1999 282.6 43.3999 282.1 43.6999C281.5 43.9999 281.3 44.3999 281.4 44.8999C281.5 45.2999 282 45.7999 282.9 46.2999L283.6 46.6999C284.5 47.2999 285.4 47.5999 286.1 47.6999C286.8 47.7999 287.5 47.6999 288.1 47.2999C288.7 46.9999 288.9 46.6999 289 46.3999C289 46.0999 288.8 45.7999 288.3 45.3999L290.1 44.3999C291 44.9999 291.4 45.5999 291.3 46.2999C291.2 46.9999 290.7 47.5999 289.6 48.1999C288.5 48.7999 287.2 49.0999 285.8 49.0999C284.4 48.9999 283.1 48.5999 281.7 47.7999L281.2 47.4999C280.4 46.9999 279.8 46.4999 279.4 45.8999C279.1 45.3999 279 44.7999 279.2 44.2999C279.5 43.6999 280 43.2999 280.7 42.7999Z" fill="#43435C"/>
<path d="M320.1 22.5998C321.1 22.7998 322 23.0998 322.8 23.5998L323.2 23.7998C324 24.2998 324.6 24.7998 324.9 25.3998C325.2 25.9998 325.2 26.4998 325 27.0998C324.7 27.6998 324.2 28.1998 323.5 28.5998L320.8 30.1998L312.1 25.0998L314.8 23.5998C315.6 23.1998 316.4 22.8998 317.4 22.6998C318.2 22.3998 319.1 22.3998 320.1 22.5998ZM321.4 24.8998L320.9 24.5998C320 24.0998 319.2 23.7998 318.3 23.6998C317.5 23.5998 316.7 23.7998 316 24.1998L315.1 24.6998L321 28.1998L321.9 27.6998C322.6 27.2998 322.9 26.7998 322.8 26.3998C322.7 25.8998 322.3 25.3998 321.4 24.8998Z" fill="#43435C"/>
<path d="M310.4 25.8999L319.1 30.9999L317.3 31.9999L308.1 30.6999L313.8 34.0999L312 35.0999L303.3 29.9999L305.1 28.8999L314.3 30.2999L308.6 26.8999L310.4 25.8999Z" fill="#43435C"/>
<path d="M302.2 30.5999L303.7 31.3999L299.6 33.7999L301.7 34.9999L305.1 32.9999L306.6 33.7999L303.1 35.7999L305.4 37.1999L309.5 34.8999L310.9 35.6999L305.1 39.0999L296.4 33.9999L302.2 30.5999Z" fill="#43435C"/>
<path d="M292.5 36.2L293.3 40.2L301.3 41.2L299.2 42.5L293.5 41.7V42.7999L296 44.2999L294.2 45.2999L285.5 40.2L287.3 39.2L291.2 41.5L291 40.4L290.3 37.4L292.5 36.2Z" fill="#43435C"/>
</g>
<path d="M164.4 41.5001C166.775 41.5001 168.7 39.575 168.7 37.2001C168.7 34.8253 166.775 32.9001 164.4 32.9001C162.025 32.9001 160.1 34.8253 160.1 37.2001C160.1 39.575 162.025 41.5001 164.4 41.5001Z" fill="#723680"/>
<path d="M394.5 26.2C395.66 26.2 396.6 25.2598 396.6 24.1C396.6 22.9402 395.66 22 394.5 22C393.34 22 392.4 22.9402 392.4 24.1C392.4 25.2598 393.34 26.2 394.5 26.2Z" fill="#CF1A21"/>
<path d="M438.2 63.2C441.845 63.2 444.8 60.2451 444.8 56.6C444.8 52.9549 441.845 50 438.2 50C434.555 50 431.6 52.9549 431.6 56.6C431.6 60.2451 434.555 63.2 438.2 63.2Z" fill="#FDB314"/>
<path d="M428.3 224.2C431.061 224.2 433.3 221.961 433.3 219.2C433.3 216.439 431.061 214.2 428.3 214.2C425.539 214.2 423.3 216.439 423.3 219.2C423.3 221.961 425.539 224.2 428.3 224.2Z" fill="#F68320"/>
<path d="M125.5 111.2C126.881 111.2 128 110.081 128 108.7C128 107.319 126.881 106.2 125.5 106.2C124.119 106.2 123 107.319 123 108.7C123 110.081 124.119 111.2 125.5 111.2Z" fill="#FC8B06"/>
<defs>
<clipPath id="clip0">
<rect width="297.9" height="381.6" fill="white" transform="translate(145 1.19995)"/>
</clipPath>
</defs>
</svg>
