<svg width="690" height="467" viewBox="0 0 690 467" fill="none" xmlns="http://www.w3.org/2000/svg">
<path d="M558.191 155.943C540.716 155.943 524.14 159.737 509.162 166.627C483 94.8311 413.101 43.5055 330.92 43.5055C232.862 43.5055 152.279 116.6 142.593 210.264C130.211 204.672 116.631 201.576 102.252 201.576C46.1331 201.576 0.599129 249.307 0.599129 308.222C0.599129 367.136 46.1331 414.867 102.252 414.867C141.894 414.867 518.449 414.867 558.191 414.867C626.392 414.867 681.612 356.951 681.612 285.455C681.612 213.859 626.292 155.943 558.191 155.943Z" fill="url(#paint0_linear)"/>
<path d="M566.08 162.833C548.605 162.833 532.029 166.627 517.051 173.517C490.789 101.721 420.89 50.2957 338.709 50.2957C240.651 50.2957 160.068 123.39 150.382 217.054C138 211.462 124.42 208.367 110.041 208.367C53.9219 208.367 8.38785 256.197 8.38785 315.012C8.38785 373.927 53.9219 421.657 110.041 421.657C149.683 421.657 526.237 421.657 565.98 421.657C634.181 421.657 689.401 363.741 689.401 292.245C689.501 220.749 634.281 162.833 566.08 162.833Z" fill="url(#paint1_linear)"/>
<path d="M260.922 263.686L190.025 264.086C188.327 264.086 186.929 262.588 187.029 260.89L200.809 66.0728C200.909 64.575 202.107 63.3767 203.605 63.2769L270.408 57.8847C272.205 57.7848 273.703 59.1828 273.603 60.9802L263.917 260.791C263.818 262.388 262.52 263.587 260.922 263.686Z" stroke="#F68320" stroke-width="0.998553" stroke-miterlimit="10"/>
<path d="M125.718 418.362L129.612 370.731C129.712 369.134 131.01 367.935 132.608 367.935L224.375 365.738C226.172 365.738 227.67 367.236 227.57 369.034L224.075 417.464C223.975 419.061 222.677 420.259 221.08 420.359L128.913 421.757C127.016 421.757 125.518 420.16 125.718 418.362Z" stroke="#9C72A6" stroke-width="0.998553" stroke-miterlimit="10"/>
<path d="M610.915 41.9078L605.323 140.665C605.223 142.562 603.625 144.16 601.728 144.16L459.035 145.757C456.838 145.857 455.04 143.96 455.24 141.763L461.731 48.2985C461.831 46.4013 463.328 44.9035 465.226 44.8036L607.02 37.9136C609.117 37.8137 611.014 39.711 610.915 41.9078Z" stroke="#FDB314" stroke-width="0.998553" stroke-miterlimit="10"/>
<path d="M402.317 432.042L400.42 339.976C400.32 337.38 400.22 334.783 400.02 332.387C399.821 329.99 399.521 327.793 399.221 325.896C398.922 323.999 398.522 322.401 398.023 321.203C397.624 320.005 397.124 319.306 396.725 319.106L392.831 317.708L303.46 317.309L308.952 318.707C309.651 318.906 310.25 319.605 310.849 320.704C311.449 321.802 312.048 323.4 312.547 325.297C313.046 327.194 313.446 329.291 313.845 331.688C314.145 333.985 314.444 336.581 314.544 339.177L317.939 429.846C317.939 430.944 318.039 432.042 317.939 433.141C317.939 434.239 317.939 435.238 317.839 436.236C317.739 437.235 317.74 438.134 317.54 439.132C317.44 440.031 317.34 440.93 317.14 441.629C316.941 442.427 316.841 443.126 316.641 443.725C316.441 444.325 316.242 444.924 316.042 445.323C315.842 445.723 315.543 446.122 315.343 446.422C315.043 446.721 314.844 446.821 314.544 446.921L290.978 451.914L383.245 454.71L399.821 449.417C400.02 449.317 400.22 449.218 400.42 448.918C400.619 448.618 400.819 448.319 400.919 447.82C401.119 447.32 401.219 446.821 401.418 446.222C401.518 445.623 401.718 444.824 401.818 444.025C401.918 443.226 402.017 442.328 402.117 441.429C402.217 440.53 402.217 439.532 402.317 438.533C402.317 437.534 402.417 436.436 402.417 435.438C402.417 434.339 402.417 433.241 402.317 432.042Z" fill="#43435C"/>
<path d="M317.14 406.879L314.544 339.277C314.444 336.681 314.245 334.184 313.845 331.788C313.546 329.391 313.046 327.294 312.547 325.397C312.048 323.6 311.449 322.002 310.849 320.903L393.13 318.008L396.625 319.206C397.124 319.406 397.524 320.105 397.923 321.303C398.323 322.501 398.722 324.099 399.122 325.996C399.421 327.893 399.721 330.09 399.92 332.487C400.12 334.883 400.32 337.479 400.32 340.076L402.117 428.947L317.14 406.879Z" fill="#141433"/>
<path d="M383.145 466.093L290.779 463.097L290.978 451.814L383.245 454.61L383.145 466.093Z" fill="#141433"/>
<path d="M396.925 308.422C397.624 308.721 398.223 309.72 398.822 311.417C399.421 313.115 400.02 315.312 400.42 318.008C400.919 320.704 401.318 323.799 401.618 327.194C401.918 330.589 402.117 334.284 402.217 338.079L404.114 429.346C404.114 431.244 404.114 433.141 404.114 434.938C404.114 436.736 404.014 438.533 403.915 440.33C403.815 442.128 403.715 443.725 403.515 445.423C403.415 447.021 403.216 448.618 403.016 450.016C402.816 451.514 402.616 452.812 402.317 453.911C402.117 455.109 401.818 456.108 401.518 456.906C401.219 457.705 400.919 458.404 400.619 458.903C400.32 459.403 400.02 459.702 399.621 459.802L383.045 465.993L383.245 454.51L399.821 449.218C400.02 449.118 400.22 449.018 400.42 448.718C400.619 448.419 400.819 448.119 400.919 447.62C401.119 447.121 401.219 446.621 401.418 446.022C401.518 445.423 401.718 444.624 401.818 443.825C401.917 443.027 402.017 442.128 402.117 441.229C402.217 440.33 402.217 439.332 402.317 438.333C402.317 437.335 402.417 436.236 402.417 435.238C402.417 434.139 402.417 433.041 402.417 431.943L400.52 339.876C400.42 337.28 400.32 334.683 400.12 332.287C399.92 329.89 399.621 327.694 399.321 325.796C399.022 323.899 398.622 322.301 398.123 321.103C397.724 319.905 397.224 319.206 396.825 319.006L392.931 317.608L393.13 306.524L396.925 308.422Z" fill="#141433"/>
<path opacity="0.5" d="M463.029 70.067L330.122 82.5489L519.148 393.099L544.012 392.999C545.909 392.999 547.706 392.5 549.404 391.701C551.101 390.902 552.599 389.704 553.897 388.206C555.195 386.708 556.294 385.011 557.093 383.113C557.891 381.216 558.391 379.019 558.491 376.822L560.388 341.474L565.88 239.022L463.029 70.067Z" fill="url(#paint2_linear)"/>
<path opacity="0.5" d="M211.294 394.297L351.491 393.698L171.152 97.4274L167.457 97.7269C165.959 97.8268 164.561 98.4259 163.164 99.2248C161.865 100.024 160.567 101.122 159.569 102.52C158.47 103.818 157.572 105.416 156.973 107.113C156.274 108.811 155.874 110.608 155.674 112.605L142.394 281.061L211.294 394.297Z" fill="url(#paint3_linear)"/>
<path d="M586.65 75.4592C586.35 74.0612 585.851 72.7631 585.152 71.5648C584.453 70.3666 583.654 69.368 582.755 68.5692C581.857 67.6705 580.758 67.0714 579.56 66.5721C575.466 64.8745 571.372 63.177 567.178 61.5793C568.376 62.0786 569.375 62.7776 570.373 63.5764C571.272 64.4751 572.171 65.4737 572.77 66.6719C573.469 67.8702 573.968 69.1683 574.268 70.5663C574.567 71.9643 574.667 73.4621 574.667 75.1596L560.388 341.673L572.97 344.769L586.949 80.1524C587.149 78.4549 586.949 76.957 586.65 75.4592Z" fill="#141433"/>
<path d="M562.185 60.8803C564.083 60.6806 565.78 60.9802 567.378 61.5793C568.975 62.1784 570.373 63.177 571.472 64.4751C572.57 65.7732 573.569 67.3709 574.068 69.1683C574.667 70.9657 574.967 72.9628 574.767 75.0598L560.488 341.574L137.101 349.163L155.774 112.605C155.874 110.708 156.373 108.811 157.072 107.113C157.771 105.416 158.67 103.818 159.669 102.52C160.767 101.222 161.965 100.024 163.263 99.2247C164.562 98.4259 166.059 97.9266 167.557 97.7269L562.185 60.8803Z" fill="#2C2C47"/>
<path d="M560.388 341.574L558.491 376.922C558.391 379.119 557.891 381.216 557.093 383.213C556.294 385.11 555.195 386.908 553.897 388.306C552.599 389.804 551.001 390.902 549.404 391.801C547.706 392.6 545.909 393.099 544.012 393.099L144.291 394.697L158.271 397.093L556.793 395.795C558.69 395.795 560.488 395.296 562.185 394.497C563.883 393.698 565.381 392.5 566.679 391.102C567.977 389.604 569.075 387.906 569.874 386.009C570.673 384.112 571.172 382.015 571.272 379.818L573.169 344.769L560.388 341.574Z" fill="#141433"/>
<path d="M560.388 341.574L558.491 376.922C558.391 379.119 557.892 381.216 557.093 383.213C556.294 385.11 555.195 386.908 553.897 388.306C552.599 389.804 551.001 390.902 549.404 391.801C547.706 392.6 545.909 393.099 544.012 393.099L144.291 394.697C142.793 394.697 141.395 394.297 140.197 393.598C138.999 392.899 137.9 391.801 137.001 390.602C136.103 389.304 135.504 387.806 135.004 386.109C134.605 384.411 134.405 382.514 134.605 380.617L137.101 349.362L560.388 341.574Z" fill="#43435C"/>
<path opacity="0.1" d="M170.952 190.892L168.156 191.092L173.748 120.294L176.544 120.094L170.952 190.892Z" fill="#B9B9C2"/>
<path opacity="0.1" d="M361.376 262.388L358.58 262.488L362.075 212.76L364.871 212.56L361.376 262.388Z" fill="#B9B9C2"/>
<path opacity="0.1" d="M344.7 323.6H342.204L356.384 122.99L358.88 122.791L344.7 323.6Z" fill="#B9B9C2"/>
<path opacity="0.1" d="M214.789 134.374L198.313 135.772L198.712 131.178L215.088 129.78L214.789 134.374Z" fill="#B9B9C2"/>
<path opacity="0.1" d="M212.891 157.84L196.315 159.038L196.715 154.345L213.191 153.147L212.891 157.84Z" fill="#B9B9C2"/>
<path opacity="0.1" d="M210.894 181.306L194.318 182.404L194.718 177.711L211.294 176.712L210.894 181.306Z" fill="#B9B9C2"/>
<path opacity="0.1" d="M311.948 175.115L274.802 177.411L275.201 172.718L312.247 170.521L311.948 175.115Z" fill="#B9B9C2"/>
<path opacity="0.1" d="M267.512 177.811L217.485 180.906L217.884 176.313L267.912 173.218L267.512 177.811Z" fill="#B9B9C2"/>
<path opacity="0.1" d="M412.103 143.66L394.129 144.859L394.428 140.265L412.402 138.967L412.103 143.66Z" fill="#B9B9C2"/>
<path opacity="0.1" d="M443.457 166.827L392.331 170.022L392.631 165.429L443.757 162.233L443.457 166.827Z" fill="#B9B9C2"/>
<path opacity="0.1" d="M527.735 214.757L429.178 219.051L429.478 214.458L528.035 210.164L527.735 214.757Z" fill="#B9B9C2"/>
<path opacity="0.1" d="M524.74 268.479L425.084 270.976L425.384 266.382L525.039 263.886L524.74 268.479Z" fill="#B9B9C2"/>
<path opacity="0.1" d="M418.394 219.451L388.936 220.749L389.336 216.155L418.693 214.857L418.394 219.451Z" fill="#B9B9C2"/>
<path opacity="0.1" d="M492.686 242.717L465.925 243.615L466.224 239.022L492.886 238.123L492.686 242.717Z" fill="#B9B9C2"/>
<path opacity="0.1" d="M415.098 271.176L385.641 271.875L385.941 267.181L415.398 266.582L415.098 271.176Z" fill="#B9B9C2"/>
<path opacity="0.1" d="M503.87 163.232L452.744 166.328L453.043 161.734L504.169 158.539L503.87 163.232Z" fill="#B9B9C2"/>
<path opacity="0.1" d="M530.132 135.173L491.987 137.869L492.287 133.275L530.431 130.579L530.132 135.173Z" fill="#B9B9C2"/>
<path opacity="0.1" d="M484.298 138.468L420.89 142.961L421.289 138.368L484.498 133.875L484.298 138.468Z" fill="#B9B9C2"/>
<path opacity="0.1" d="M450.048 244.215L387.339 246.212L387.638 241.618L450.347 239.621L450.048 244.215Z" fill="#B9B9C2"/>
<path opacity="0.1" d="M446.653 296.738L383.944 297.637L384.243 293.044L447.052 292.145L446.653 296.738Z" fill="#B9B9C2"/>
<path opacity="0.1" d="M548.006 240.82L502.871 242.417L503.271 237.724L548.206 236.226L548.006 240.82Z" fill="#B9B9C2"/>
<path opacity="0.1" d="M200.909 300.333L184.333 300.533L184.732 295.94L201.308 295.74L200.909 300.333Z" fill="#B9B9C2"/>
<path opacity="0.1" d="M280.493 299.035L263.917 299.335L264.317 294.642L280.893 294.442L280.493 299.035Z" fill="#B9B9C2"/>
<path opacity="0.1" d="M257.227 299.435L207.499 300.233L207.899 295.64L257.627 294.841L257.227 299.435Z" fill="#B9B9C2"/>
<path opacity="0.1" d="M232.064 324.199L182.336 324.498L182.635 319.805L232.463 319.605L232.064 324.199Z" fill="#B9B9C2"/>
<path opacity="0.1" d="M206.9 228.637L190.324 229.336L190.724 224.743L207.3 224.044L206.9 228.637Z" fill="#B9B9C2"/>
<path opacity="0.1" d="M306.456 249.108L289.98 249.507L290.379 244.914L306.855 244.414L306.456 249.108Z" fill="#B9B9C2"/>
<path opacity="0.1" d="M306.955 224.244L270.109 225.941L270.508 221.248L307.355 219.65L306.955 224.244Z" fill="#B9B9C2"/>
<path opacity="0.1" d="M263.917 226.141L213.99 228.338L214.389 223.644L264.317 221.547L263.917 226.141Z" fill="#B9B9C2"/>
<path opacity="0.1" d="M240.651 251.204L188.327 253.002L188.726 248.409L241.051 246.611L240.651 251.204Z" fill="#B9B9C2"/>
<path opacity="0.1" d="M284.488 249.707L246.243 251.005L246.643 246.411L284.787 245.113L284.488 249.707Z" fill="#B9B9C2"/>
<path opacity="0.1" d="M291.877 274.071L253.732 275.07L254.132 270.477L292.276 269.478L291.877 274.071Z" fill="#B9B9C2"/>
<path opacity="0.1" d="M236.957 203.474L192.321 205.77L192.721 201.177L237.356 198.88L236.957 203.474Z" fill="#B9B9C2"/>
<path opacity="0.1" d="M300.864 200.178L248.54 202.875L248.939 198.281L301.164 195.585L300.864 200.178Z" fill="#B9B9C2"/>
<path opacity="0.1" d="M245.844 275.17L186.33 276.767L186.729 272.174L246.243 270.576L245.844 275.17Z" fill="#B9B9C2"/>
<path opacity="0.3" d="M537.321 230.035C537.621 224.244 532.928 219.351 527.136 219.351H526.836C521.544 219.351 517.051 223.445 516.651 228.737C516.252 234.629 520.845 239.721 526.836 239.721H527.136C532.528 239.821 537.022 235.527 537.321 230.035Z" stroke="#B9B9C2" stroke-width="0.249638" stroke-miterlimit="10"/>
<path opacity="0.3" d="M530.731 229.736C530.831 227.639 529.133 225.841 526.936 225.841H526.836C524.839 225.841 523.242 227.339 523.142 229.336C522.942 231.533 524.739 233.33 526.836 233.33H526.936C529.033 233.33 530.731 231.733 530.731 229.736Z" fill="#B9B9C2"/>
<path opacity="0.3" d="M492.686 204.372L523.941 227.339" stroke="#B9B9C2" stroke-width="0.249638" stroke-miterlimit="10"/>
<path d="M496.48 204.472C496.58 202.375 494.883 200.578 492.686 200.578H492.586C490.589 200.578 488.991 202.076 488.891 204.073C488.692 206.27 490.489 208.067 492.586 208.067H492.686C494.783 208.067 496.381 206.469 496.48 204.472Z" fill="#FDB314"/>
<path d="M503.071 204.772C503.37 198.98 498.677 194.087 492.886 194.087H492.586C487.294 194.087 482.8 198.181 482.401 203.474C482.001 209.365 486.595 214.458 492.586 214.458H492.886C498.278 214.558 502.771 210.264 503.071 204.772Z" stroke="#FDB314" stroke-width="0.249638" stroke-miterlimit="10"/>
<path opacity="0.3" d="M301.763 154.744C302.062 148.953 297.369 144.06 291.577 144.06H291.278C285.986 144.06 281.492 148.154 281.093 153.446C280.693 159.338 285.287 164.43 291.278 164.43H291.577C297.069 164.53 301.563 160.236 301.763 154.744Z" stroke="#B9B9C2" stroke-width="0.249638" stroke-miterlimit="10"/>
<path opacity="0.3" d="M295.272 154.545C295.372 152.448 293.674 150.65 291.478 150.65H291.378C289.381 150.65 287.783 152.148 287.683 154.145C287.483 156.342 289.281 158.139 291.378 158.139H291.478C293.475 158.04 295.172 156.542 295.272 154.545Z" fill="#B9B9C2"/>
<path opacity="0.3" d="M257.227 129.081L288.382 152.048" stroke="#B9B9C2" stroke-width="0.249638" stroke-miterlimit="10"/>
<path d="M261.022 129.281C261.122 127.184 259.424 125.387 257.227 125.387H257.127C255.13 125.387 253.533 126.885 253.433 128.882C253.233 131.079 255.03 132.876 257.127 132.876H257.227C259.224 132.776 260.922 131.278 261.022 129.281Z" fill="#EF530B"/>
<path d="M267.512 129.481C267.812 123.689 263.119 118.796 257.327 118.796H257.027C251.735 118.796 247.242 122.89 246.842 128.183C246.443 134.074 251.036 139.167 257.027 139.167H257.327C262.819 139.267 267.313 134.973 267.512 129.481Z" stroke="#EF530B" stroke-width="0.249638" stroke-miterlimit="10"/>
<path d="M278.796 191.89L118.129 201.576C115.932 201.576 114.135 199.679 114.334 197.482L120.326 124.987C120.525 123.09 122.023 121.692 123.92 121.592L282.491 110.808C284.687 110.708 286.485 112.505 286.385 114.702L282.491 188.396C282.391 190.393 280.693 191.89 278.796 191.89Z" stroke="#EF530B" stroke-width="0.249638" stroke-miterlimit="10"/>
<path opacity="0.4" d="M273.204 186.299L112.537 195.985C110.341 195.985 108.543 194.087 108.743 191.891L114.734 119.396C114.934 117.498 116.432 116.1 118.329 116.001L276.899 105.216C279.096 105.116 280.893 106.914 280.794 109.111L276.899 182.804C276.699 184.801 275.102 186.299 273.204 186.299Z" fill="white"/>
<path opacity="0.5" d="M278.696 105.116L276.799 105.216C278.996 105.116 280.793 106.914 280.693 109.11L276.799 182.804C276.699 184.801 275.101 186.299 273.104 186.299L112.437 195.985C110.24 195.985 108.543 194.187 108.643 191.99L108.443 193.788C108.243 195.985 110.041 197.882 112.237 197.882L275.001 188.196C276.999 188.196 278.596 186.598 278.696 184.701L282.59 109.011C282.79 106.814 280.893 105.016 278.696 105.116Z" fill="#EF530B"/>
<path d="M122.023 188.196L126.017 144.06C130.511 144.16 134.904 146.057 138 149.851L139.897 152.248L153.478 167.925C157.971 173.018 165.161 174.715 171.452 172.119C176.045 170.222 181.337 170.521 185.631 173.118L202.007 182.903" fill="url(#paint4_linear)"/>
<path d="M122.023 188.196L148.585 158.039C154.576 151.249 165.061 151.349 170.952 158.239L174.447 162.433C178.541 167.226 185.232 168.924 191.123 166.627C195.317 164.93 200.01 165.329 203.904 167.526L217.884 175.414C223.776 178.71 231.065 177.711 235.758 172.818L240.851 167.626C250.637 157.54 267.612 164.93 267.013 178.909" fill="url(#paint5_linear)"/>
<path d="M525.139 192.889L519.547 291.646C519.447 293.543 517.85 295.141 515.952 295.141L373.259 296.739C371.062 296.838 369.265 294.941 369.465 292.744L375.955 199.28C376.055 197.382 377.553 195.885 379.45 195.785L521.245 188.895C523.441 188.795 525.239 190.592 525.139 192.889Z" stroke="#FDB314" stroke-width="0.249638" stroke-miterlimit="10"/>
<path opacity="0.36" d="M513.955 181.605L508.363 280.362C508.263 282.259 506.666 283.857 504.768 283.857L362.075 287.352C359.878 287.452 358.081 285.555 358.281 283.358L364.771 189.893C364.871 187.996 366.369 186.498 368.266 186.398L510.061 177.711C512.258 177.611 514.055 179.409 513.955 181.605Z" fill="white"/>
<path opacity="0.7" d="M511.858 177.611L510.061 177.711C512.258 177.611 514.155 179.409 513.955 181.605L508.363 280.362C508.263 282.259 506.666 283.857 504.768 283.857L362.075 287.352C359.878 287.452 358.081 285.555 358.281 283.358L364.771 189.893L358.181 285.255C357.981 287.452 359.779 289.349 361.975 289.249L506.666 285.854C508.563 285.854 510.161 284.257 510.261 282.359L515.852 181.605C515.952 179.309 514.055 177.511 511.858 177.611Z" fill="#FDB314"/>
<path opacity="0.2" d="M385.641 279.264L404.713 278.864L409.007 212.76L389.935 213.759L385.641 279.264Z" fill="#B9B9C2"/>
<path opacity="0.2" d="M410.405 278.765L429.478 278.265L433.671 211.862L414.599 212.66L410.405 278.765Z" fill="#B9B9C2"/>
<path opacity="0.2" d="M434.87 278.165L454.042 277.666L458.136 210.663L438.964 211.562L434.87 278.165Z" fill="#B9B9C2"/>
<path opacity="0.2" d="M459.434 277.566L478.506 277.067L482.8 209.565L463.728 210.364L459.434 277.566Z" fill="#B9B9C2"/>
<path d="M386.54 264.885L385.641 279.264L404.713 278.864L405.712 264.485L386.54 264.885Z" fill="url(#paint6_linear)"/>
<path d="M410.405 278.765L429.478 278.265L432.773 226.341L413.601 227.239L410.405 278.765Z" fill="url(#paint7_linear)"/>
<path opacity="0.3" d="M255.43 310.519C255.729 304.727 251.036 299.834 245.245 299.834H244.945C239.653 299.834 235.159 303.928 234.76 309.22C234.36 315.112 238.954 320.204 244.945 320.204H245.245C250.637 320.304 255.13 316.011 255.43 310.519Z" stroke="#B9B9C2" stroke-width="0.249638" stroke-miterlimit="10"/>
<path opacity="0.3" d="M248.839 310.219C248.939 308.122 247.242 306.325 245.045 306.325H244.945C242.948 306.325 241.35 307.822 241.25 309.82C241.051 312.016 242.848 313.814 244.945 313.814H245.045C247.142 313.814 248.74 312.216 248.839 310.219Z" fill="#B9B9C2"/>
<path opacity="0.3" d="M210.795 284.756L242.049 307.822" stroke="#B9B9C2" stroke-width="0.249638" stroke-miterlimit="10"/>
<path d="M214.589 284.956C214.689 282.859 212.991 281.061 210.795 281.061H210.695C208.698 281.061 207.1 282.559 207 284.556C206.8 286.753 208.598 288.55 210.695 288.55H210.795C212.891 288.55 214.489 286.953 214.589 284.956Z" fill="#5F296D"/>
<path d="M221.08 285.255C221.379 279.464 216.686 274.571 210.894 274.571H210.695C205.402 274.571 200.909 278.665 200.509 283.957C200.11 289.848 204.703 294.941 210.695 294.941H210.994C216.386 295.041 220.88 290.747 221.08 285.255Z" stroke="#5F296D" stroke-width="0.249638" stroke-miterlimit="10"/>
<path d="M437.466 236.825L434.87 278.165L454.042 277.666L456.538 235.827L437.466 236.825Z" fill="url(#paint8_linear)"/>
<path d="M461.132 251.204L459.434 277.566L478.506 277.067L480.204 250.605L461.132 251.204Z" fill="url(#paint9_linear)"/>
<path opacity="0.6" d="M244.446 252.003L131.709 254.699L242.548 252.003C244.745 251.903 246.543 253.801 246.343 255.998L242.049 314.513C241.949 316.41 240.352 317.908 238.355 318.008L127.016 319.805C124.819 319.805 123.022 318.008 123.221 315.811L128.014 258.194L123.122 317.608C122.922 319.805 124.719 321.702 126.916 321.602L240.252 319.805C242.149 319.805 243.747 318.307 243.946 316.31L248.24 255.998C248.34 253.801 246.643 252.003 244.446 252.003Z" fill="#723680"/>
<path d="M127.016 319.505L131.809 261.889C132.009 259.992 133.507 258.494 135.404 258.494L246.243 255.798C248.44 255.698 250.237 257.595 250.038 259.792L245.744 318.307C245.644 320.204 244.046 321.702 242.049 321.802L130.81 323.5C128.614 323.6 126.916 321.702 127.016 319.505Z" stroke="#723680" stroke-width="0.249638" stroke-miterlimit="10"/>
<path opacity="0.36" d="M123.322 315.711L128.115 258.094C128.314 256.197 129.812 254.699 131.709 254.699L242.549 252.003C244.746 251.903 246.543 253.801 246.343 255.998L242.049 314.513C241.95 316.41 240.352 317.908 238.355 318.008L127.016 319.805C124.919 319.805 123.122 317.908 123.322 315.711Z" fill="white"/>
<path d="M212.792 286.553L212.991 267.381C218.583 266.882 223.876 268.779 227.47 272.574C234.36 279.863 233.362 292.145 225.373 299.734C217.285 307.423 205.003 307.723 198.113 300.433C194.917 297.038 193.32 292.445 193.52 287.652L212.792 286.553Z" fill="#421650"/>
<path d="M163.263 305.825C166.858 304.927 170.153 303.029 172.85 300.433C180.838 292.844 181.836 280.562 174.946 273.372C171.352 269.578 166.259 267.78 160.767 268.18L160.667 271.176C152.279 271.875 144.99 278.765 144.091 287.252C143.192 296.139 149.683 303.429 158.57 303.429C159.669 303.429 161.266 303.129 162.365 302.93L163.263 305.825Z" fill="#421650"/>
<path d="M169.068 296.597C175.909 290.106 176.715 279.85 170.87 273.689C165.024 267.529 154.74 267.796 147.899 274.287C141.058 280.778 140.251 291.035 146.097 297.195C151.943 303.356 162.227 303.088 169.068 296.597Z" fill="#D5C3D9"/>
<path d="M221.449 295.843C228.29 289.352 229.097 279.095 223.251 272.935C217.406 266.774 207.121 267.042 200.281 273.533C193.44 280.024 192.633 290.28 198.479 296.44C204.324 302.601 214.609 302.334 221.449 295.843Z" fill="#D5C3D9"/>
<path d="M210.894 284.656L211.094 265.484C216.686 264.985 221.978 266.882 225.573 270.676C232.463 277.966 231.465 290.248 223.476 297.837C215.388 305.526 203.106 305.825 196.216 298.536C193.02 295.141 191.423 290.547 191.622 285.754L210.894 284.656Z" fill="#5F296D"/>
<path d="M158.47 285.455L158.87 266.382C164.362 265.883 169.554 267.78 173.049 271.575C179.939 278.765 178.941 291.047 170.952 298.636C169.055 300.433 166.758 301.931 164.262 303.029L158.47 285.455Z" fill="#5F296D"/>
<path d="M29.2576 309.62C34.1107 309.62 38.0449 305.686 38.0449 300.833C38.0449 295.979 34.1107 292.045 29.2576 292.045C24.4045 292.045 20.4703 295.979 20.4703 300.833C20.4703 305.686 24.4045 309.62 29.2576 309.62Z" fill="#5F296D"/>
<path d="M360.777 9.25513C363.204 9.25513 365.171 7.28803 365.171 4.8615C365.171 2.43496 363.204 0.467865 360.777 0.467865C358.351 0.467865 356.383 2.43496 356.383 4.8615C356.383 7.28803 358.351 9.25513 360.777 9.25513Z" fill="#CF1A21"/>
<path d="M398.622 52.6922C406.067 52.6922 412.103 46.6568 412.103 39.2117C412.103 31.7667 406.067 25.7313 398.622 25.7313C391.177 25.7313 385.142 31.7667 385.142 39.2117C385.142 46.6568 391.177 52.6922 398.622 52.6922Z" fill="#FDB314"/>
<path d="M659.245 376.123C664.925 376.123 669.53 371.519 669.53 365.838C669.53 360.158 664.925 355.553 659.245 355.553C653.564 355.553 648.96 360.158 648.96 365.838C648.96 371.519 653.564 376.123 659.245 376.123Z" fill="#F68320"/>
<path d="M54.1216 338.378C56.9893 338.378 59.314 336.053 59.314 333.186C59.314 330.318 56.9893 327.993 54.1216 327.993C51.2538 327.993 48.9291 330.318 48.9291 333.186C48.9291 336.053 51.2538 338.378 54.1216 338.378Z" fill="#F68320"/>
<defs>
<linearGradient id="paint0_linear" x1="626.072" y1="642.452" x2="164.439" y2="75.7057" gradientUnits="userSpaceOnUse">
<stop stop-color="#D0D0D6" stop-opacity="0.8"/>
<stop offset="1" stop-color="#141433" stop-opacity="0.9"/>
</linearGradient>
<linearGradient id="paint1_linear" x1="599.061" y1="664.123" x2="185.225" y2="61.5903" gradientUnits="userSpaceOnUse">
<stop stop-color="#D0D0D6" stop-opacity="0.5"/>
<stop offset="1" stop-color="#141433" stop-opacity="0"/>
</linearGradient>
<linearGradient id="paint2_linear" x1="518.876" y1="251.434" x2="222.237" y2="39.8764" gradientUnits="userSpaceOnUse">
<stop stop-color="white" stop-opacity="0"/>
<stop offset="1" stop-color="#CED0D4"/>
</linearGradient>
<linearGradient id="paint3_linear" x1="287.755" y1="314.743" x2="19.5019" y2="123.43" gradientUnits="userSpaceOnUse">
<stop stop-color="white" stop-opacity="0"/>
<stop offset="1" stop-color="#CED0D4"/>
</linearGradient>
<linearGradient id="paint4_linear" x1="168.432" y1="74.6079" x2="161.942" y2="186.647" gradientUnits="userSpaceOnUse">
<stop offset="0.6929" stop-color="#FCA30E"/>
<stop offset="0.736" stop-color="#F9A113" stop-opacity="0.8596"/>
<stop offset="0.787" stop-color="#F09D21" stop-opacity="0.6934"/>
<stop offset="0.8421" stop-color="#E19539" stop-opacity="0.5139"/>
<stop offset="0.9001" stop-color="#CC8A5B" stop-opacity="0.3253"/>
<stop offset="0.9597" stop-color="#B17D85" stop-opacity="0.1313"/>
<stop offset="1" stop-color="#9C72A6" stop-opacity="0"/>
</linearGradient>
<linearGradient id="paint5_linear" x1="199.652" y1="94.885" x2="194.193" y2="189.124" gradientUnits="userSpaceOnUse">
<stop offset="0.5305" stop-color="#EF530B"/>
<stop offset="1" stop-color="#EF530B" stop-opacity="0"/>
</linearGradient>
<linearGradient id="paint6_linear" x1="393.256" y1="313.399" x2="399.422" y2="205.724" gradientUnits="userSpaceOnUse">
<stop offset="0.3152" stop-color="#FCA30E"/>
<stop offset="0.3347" stop-color="#F6A017" stop-opacity="0.9605"/>
<stop offset="0.451" stop-color="#D6904A" stop-opacity="0.7255"/>
<stop offset="0.5606" stop-color="#BD8372" stop-opacity="0.5042"/>
<stop offset="0.6602" stop-color="#AB7A8E" stop-opacity="0.3029"/>
<stop offset="0.7466" stop-color="#A074A0" stop-opacity="0.1283"/>
<stop offset="0.8102" stop-color="#9C72A6" stop-opacity="0"/>
</linearGradient>
<linearGradient id="paint7_linear" x1="417.998" y1="314.816" x2="424.164" y2="207.141" gradientUnits="userSpaceOnUse">
<stop offset="0.3378" stop-color="#FCA30E"/>
<stop offset="0.4242" stop-color="#F59F19" stop-opacity="0.8696"/>
<stop offset="0.5781" stop-color="#E29538" stop-opacity="0.6372"/>
<stop offset="0.7816" stop-color="#C28669" stop-opacity="0.3298"/>
<stop offset="1" stop-color="#9C72A6" stop-opacity="0"/>
</linearGradient>
<linearGradient id="paint8_linear" x1="442.346" y1="316.211" x2="448.512" y2="208.536" gradientUnits="userSpaceOnUse">
<stop offset="0.3603" stop-color="#FCA30E"/>
<stop offset="0.4572" stop-color="#F29E1E" stop-opacity="0.8485"/>
<stop offset="0.6475" stop-color="#D79049" stop-opacity="0.551"/>
<stop offset="0.9105" stop-color="#AC7A8D" stop-opacity="0.1399"/>
<stop offset="1" stop-color="#9C72A6" stop-opacity="0"/>
</linearGradient>
<linearGradient id="paint9_linear" x1="466.737" y1="317.607" x2="472.903" y2="209.933" gradientUnits="userSpaceOnUse">
<stop offset="0.3586" stop-color="#FCA30E"/>
<stop offset="0.4672" stop-color="#EB9A2A" stop-opacity="0.8307"/>
<stop offset="0.8339" stop-color="#B27D83" stop-opacity="0.259"/>
<stop offset="1" stop-color="#9C72A6" stop-opacity="0"/>
</linearGradient>
</defs>
</svg>
