<svg width="64" height="56" viewBox="0 0 64 56" fill="none" xmlns="http://www.w3.org/2000/svg">
<path d="M11.7313 34.6361C12.2546 34.9567 12.664 35.4324 12.9335 35.9856C13.2133 36.5544 13.8092 36.9525 14.4828 36.937C14.488 36.937 14.4932 36.937 14.4984 36.937C14.9803 36.9215 15.4311 37.1697 15.6591 37.5937L16.1825 38.5657C16.2913 38.7622 16.3327 38.9897 16.3172 39.212C16.3172 39.2534 16.312 39.2999 16.3172 39.3413C16.3172 39.362 16.3224 39.3827 16.3224 39.4085C16.3949 40.1324 17.1307 40.5926 17.8251 40.3909C18.535 40.1841 20.1258 39.9152 21.3229 41.1044C22.5458 42.3247 26.6757 43.4829 28.4893 43.9431C28.7018 43.9999 28.8417 43.7259 28.6759 43.5863L16.3327 33.2194C11.1924 28.9072 8.12991 22.5888 8.04181 15.8879C8.04181 15.7896 8.04181 15.6862 8.04181 15.588C8.04181 13.0131 8.46154 10.5416 9.23882 8.23033C9.29064 8.07522 9.09891 7.9563 8.97973 8.07005L6.1919 10.8621C5.98981 11.0845 5.86544 11.374 5.86544 11.6997C5.86544 11.86 5.89654 12.0151 5.95354 12.1548C6.00535 12.2788 6.02608 12.4133 6.00535 12.5477C5.97426 12.7856 5.82917 12.9872 5.6219 13.1061C5.25399 13.3233 5.00526 13.7214 5.00526 14.1764C5.00526 14.4143 5.07262 14.6418 5.19181 14.8279C5.5079 15.3346 5.6219 15.9396 5.48717 16.5238L5.46126 16.6479C5.34726 17.1495 5.06226 17.5993 4.6529 17.9147C4.25389 18.2146 3.99998 18.6954 3.99998 19.2332C3.99998 19.6934 4.18653 20.1122 4.49226 20.4121C5.26953 21.1876 5.67372 22.2528 5.66853 23.3489V23.3541C5.66853 24.109 5.44053 24.838 5.05708 25.4843C4.91199 25.7325 4.8239 26.0221 4.8239 26.3323C4.8239 27.051 5.2799 27.6611 5.91208 27.899C6.37845 28.0696 6.80336 28.3384 7.13499 28.7056L9.14036 30.9082C9.67409 31.4925 9.94355 32.2629 9.93837 33.0488C9.93837 33.054 9.93837 33.054 9.93837 33.0591C9.93837 33.6382 10.3322 34.1191 10.8711 34.2587C11.1768 34.3362 11.4618 34.4707 11.7313 34.6361Z" fill="#141433"/>
<path d="M29.08 41.7923L29.0749 41.7716C28.9712 40.9702 28.7432 40.1894 28.4012 39.4552L28.308 39.2588C28.251 39.1347 28.137 39.0519 28.0022 39.0313C26.9918 38.8761 26.1627 38.1316 25.9088 37.144C25.8518 36.9217 25.7844 36.7407 25.7015 36.5908V36.5856C25.6289 36.4563 25.5512 36.3426 25.4683 36.2444C24.3128 34.9155 23.6754 33.2144 23.6754 31.4513C23.6754 31.0738 23.7065 30.6912 23.7635 30.3241C23.7946 30.1276 23.8101 29.9312 23.8205 29.7399C23.8464 28.8195 23.1676 28.0077 22.2452 27.9302C22.2193 27.9302 22.1934 27.925 22.1675 27.925C22.1571 27.925 22.1519 27.925 22.1416 27.925C21.442 27.9043 20.8617 27.3718 20.8047 26.6737C20.7736 26.2808 20.872 25.8827 21.0793 25.5466C21.3228 25.1536 21.4628 24.6883 21.4628 24.1919C21.4628 23.5456 21.2244 22.9613 20.8357 22.5063C19.9911 21.5343 19.5144 20.3037 19.5144 19.0214C19.5144 18.2096 19.732 17.3978 20.188 16.7257C20.3227 16.5292 20.4005 16.2914 20.4005 16.0328C20.4005 15.8157 20.3435 15.614 20.245 15.4382C20.1258 15.2211 20.0481 14.9832 20.0377 14.735C20.0326 14.5386 20.0585 14.3421 20.1258 14.1611C20.1777 14.0267 20.2036 13.8767 20.2036 13.7216C20.2036 13.2976 19.9859 12.9202 19.6595 12.6979C19.4107 12.5272 19.2138 12.2946 19.1102 12.0102L19.0532 11.8551C18.8718 11.3535 19.0066 10.7951 19.39 10.4228C19.4211 10.3918 19.4574 10.3608 19.4885 10.3246L21.2244 8.4994C21.7478 7.98752 22.468 7.66695 23.2557 7.66695C23.9759 7.66695 24.634 7.93065 25.1419 8.36497C25.1315 8.33395 25.1159 8.30809 25.1056 8.28224C24.5978 7.2016 23.3645 6.6587 22.2089 6.96893L20.5818 7.40842C19.5921 7.67729 18.5661 7.77553 17.5401 7.77036C17.5349 7.77036 17.5349 7.77036 17.5297 7.77036C16.939 7.77036 16.4312 8.12713 16.2136 8.63901C15.9596 9.23878 15.5917 9.78169 15.1668 10.2781L15.1098 10.3453C14.6538 10.8778 14.1045 11.3173 13.519 11.6999C13.2081 11.9016 12.9905 12.2429 12.9542 12.6306C12.9335 12.8943 12.9905 13.1425 13.1148 13.3545C13.5035 14.0267 13.6434 14.8178 13.4827 15.5778L13.4724 15.6399C13.3065 16.431 12.8246 17.1186 12.1614 17.584C11.7313 17.889 11.4514 18.3854 11.4514 18.949C11.4514 19.3885 11.6224 19.7866 11.8971 20.0865C12.2546 20.4691 12.4774 20.9603 12.5552 21.4774L12.5707 21.5756C12.6951 22.4339 12.3997 23.3181 11.7468 23.8868C11.7416 23.892 11.7364 23.8972 11.7313 23.9023C11.3893 24.2126 11.3012 24.7089 11.5033 25.1226C12.1199 26.379 12.8609 27.5786 13.7159 28.7006L15.2808 30.5465C15.2808 30.5465 15.2808 30.5465 15.286 30.5516C15.343 30.6085 15.3948 30.6654 15.4518 30.7274C15.4829 30.7584 15.514 30.7895 15.5451 30.8257C15.5866 30.867 15.628 30.9084 15.6695 30.9498C15.7006 30.9808 15.7316 31.0118 15.7627 31.0428C15.8042 31.0842 15.8456 31.1255 15.8871 31.1669C15.9182 31.1979 15.9493 31.229 15.9804 31.26C16.0218 31.3013 16.0685 31.3427 16.1099 31.3841C16.141 31.4151 16.1721 31.441 16.2032 31.472C16.2498 31.5133 16.2913 31.5547 16.3379 31.5961C16.369 31.6219 16.4001 31.6529 16.426 31.6788C16.4726 31.7253 16.5245 31.7667 16.5711 31.8081C16.597 31.8339 16.6281 31.8598 16.654 31.8804C16.711 31.927 16.7628 31.9787 16.8198 32.0252C16.8406 32.0459 16.8613 32.0614 16.8872 32.0821C16.9649 32.1493 17.0426 32.2165 17.1256 32.2837L28.7432 42.0405C28.8935 42.1646 29.1163 42.0353 29.08 41.844C29.0852 41.8182 29.0852 41.8027 29.08 41.7923Z" fill="#141433"/>
<path d="M32.0026 4.125C31.5052 4.125 31.0751 4.41972 30.8834 4.84887C30.7797 5.08154 30.6035 5.27285 30.3963 5.41763L30.3704 5.43831C30.2305 5.53655 30.0698 5.60377 29.904 5.64513C29.5775 5.73303 29.3392 6.03292 29.3392 6.38968C29.3392 6.63787 29.1837 6.8602 28.9557 6.95327C28.5723 7.10838 28.3028 7.48066 28.3028 7.91498C28.3028 8.03908 28.3235 8.15283 28.365 8.26141C28.4324 8.44238 28.4427 8.63886 28.422 8.83534C28.3805 9.16625 28.2147 9.46614 27.9556 9.67296C27.225 10.2676 26.7586 11.1724 26.7586 12.1858C26.7586 12.4547 26.7897 12.7132 26.8519 12.9614C26.8778 13.0752 26.8778 13.1941 26.8415 13.3078C26.7897 13.4733 26.6757 13.6025 26.5306 13.6904C26.1731 13.8973 25.9347 14.2799 25.9347 14.7194C25.9347 14.8693 25.9606 15.0141 26.0124 15.1485C26.2094 15.6656 26.3544 16.1981 26.4477 16.741C26.5565 17.3667 26.4995 18.0078 26.2767 18.6024L26.2456 18.68C26.0902 19.0936 25.8518 19.4659 25.5616 19.7968C25.4062 19.9778 25.3025 20.2001 25.2818 20.4431C25.2611 20.6448 25.2922 20.8361 25.3595 21.0119C25.4943 21.3531 25.4891 21.7409 25.3181 22.0667C24.7377 23.168 24.4061 24.4193 24.4061 25.7481C24.4061 26.3996 24.6237 27.3044 24.8465 28.049C25.0849 28.8504 25.1264 29.688 24.9968 30.5153C24.9502 30.8203 24.9243 31.1357 24.9243 31.4563C24.9243 32.9816 25.4839 34.3725 26.4166 35.4376C26.5669 35.6082 26.6913 35.7996 26.8001 35.996C26.9452 36.2597 27.0436 36.5441 27.1162 36.8337C27.2457 37.3404 27.6706 37.7282 28.194 37.8057C28.3546 37.8316 28.5101 37.8678 28.6604 37.9246L28.8469 37.997C29.4895 38.2504 29.9455 38.8346 30.0387 39.5223L30.3134 41.5905C30.4481 42.4023 31.158 43.0279 32.013 43.0279C32.868 43.0279 33.5779 42.4075 33.7127 41.5905L33.9873 39.5223C34.0806 38.8346 34.5366 38.2504 35.1791 37.997L35.3657 37.9246C35.5159 37.8678 35.6714 37.8316 35.832 37.8057C36.3554 37.7282 36.7803 37.3352 36.9098 36.8337C36.9824 36.5441 37.086 36.2597 37.2259 35.996C37.3348 35.7944 37.4643 35.6082 37.6094 35.4376C38.5369 34.3725 39.1018 32.9816 39.1018 31.4563C39.1018 31.1357 39.0758 30.8255 39.0292 30.5153C38.8997 29.6932 38.9411 28.8504 39.1795 28.049C39.3971 27.3044 39.6199 26.3996 39.6199 25.7481C39.6199 24.4193 39.2935 23.168 38.7079 22.0667C38.5369 21.7409 38.5266 21.3583 38.6665 21.0119C38.7338 20.8413 38.7649 20.6448 38.7442 20.4431C38.7183 20.1949 38.6147 19.9726 38.4644 19.7968C38.1742 19.4659 37.9358 19.0936 37.7804 18.68L37.7493 18.6024C37.5265 18.0078 37.4643 17.3667 37.5783 16.741C37.6768 16.1981 37.8167 15.6656 38.0136 15.1485C38.0654 15.0141 38.0913 14.8693 38.0913 14.7194C38.0913 14.2799 37.8529 13.8973 37.4954 13.6904C37.3451 13.6025 37.2311 13.4733 37.1845 13.3078C37.1482 13.1941 37.1482 13.0752 37.1741 12.9614C37.2363 12.7132 37.2674 12.4547 37.2674 12.1858C37.2674 11.1724 36.801 10.2676 36.0704 9.67296C35.8113 9.46614 35.6455 9.16625 35.604 8.83534C35.5833 8.64403 35.5937 8.44755 35.661 8.26141C35.6973 8.15283 35.7232 8.03391 35.7232 7.91498C35.7232 7.48066 35.4537 7.10838 35.0703 6.95327C34.8371 6.8602 34.6868 6.63787 34.6868 6.38968C34.6868 6.03292 34.4485 5.7382 34.122 5.64513C33.9562 5.5986 33.7956 5.53655 33.6556 5.43831L33.6297 5.41763C33.4225 5.27285 33.2463 5.08154 33.1426 4.84887C32.9302 4.41972 32.5053 4.125 32.0026 4.125Z" fill="#141433"/>
<path d="M52.2791 34.6361C51.7557 34.9567 51.3464 35.4324 51.0769 35.9856C50.7971 36.5544 50.2012 36.9525 49.5275 36.937C49.5224 36.937 49.5172 36.937 49.512 36.937C49.0301 36.9215 48.5793 37.1697 48.3513 37.5937L47.8279 38.5605C47.7191 38.757 47.6776 38.9845 47.6932 39.2069C47.6932 39.2482 47.6983 39.2948 47.6932 39.3361C47.6932 39.3568 47.688 39.3775 47.688 39.4033C47.6154 40.1272 46.8796 40.5874 46.1853 40.3857C45.4753 40.1789 43.8845 39.91 42.6875 41.0993C41.4646 42.3195 37.3347 43.4777 35.521 43.9379C35.3086 43.9948 35.1687 43.7207 35.3345 43.5811L47.6724 33.2194C52.8128 28.902 55.8753 22.5888 55.9582 15.8879C55.9582 15.7896 55.9582 15.6862 55.9582 15.588C55.9582 13.0131 55.5385 10.5416 54.7612 8.23033C54.7094 8.07522 54.9011 7.9563 55.0203 8.07005L57.8081 10.8621C58.0102 11.0845 58.1346 11.374 58.1346 11.6997C58.1346 11.86 58.1035 12.0151 58.0465 12.1548C57.9946 12.2788 57.9739 12.4133 57.9946 12.5477C58.0257 12.7856 58.1708 12.9872 58.3781 13.1061C58.746 13.3233 58.9947 13.7214 58.9947 14.1764C58.9947 14.4143 58.9274 14.6418 58.8082 14.8279C58.4921 15.3346 58.3781 15.9396 58.5128 16.5238L58.5387 16.6479C58.6527 17.1495 58.9377 17.5993 59.3471 17.9147C59.7409 18.2198 60 18.7006 60 19.2383C60 19.6985 59.8135 20.1173 59.5077 20.4172C58.7305 21.1928 58.3263 22.2579 58.3315 23.3541V23.3592C58.3315 24.1141 58.5595 24.8432 58.9429 25.4895C59.088 25.7377 59.1761 26.0272 59.1761 26.3375C59.1761 27.0562 58.7201 27.6663 58.0879 27.9041C57.6216 28.0748 57.1966 28.3436 56.865 28.7107L54.87 30.9082C54.3363 31.4925 54.0668 32.2629 54.072 33.0488C54.072 33.054 54.072 33.054 54.072 33.0591C54.072 33.6382 53.6782 34.1191 53.1393 34.2587C52.8335 34.3362 52.5485 34.4707 52.2791 34.6361Z" fill="#141433"/>
<path d="M34.9303 41.7923L34.9354 41.7716C35.0391 40.9702 35.2671 40.1895 35.6091 39.4553L35.7024 39.2588C35.7594 39.1347 35.8734 39.052 36.0081 39.0313C37.0185 38.8762 37.8476 38.1316 38.1015 37.144C38.1585 36.9217 38.2259 36.7407 38.3088 36.5908V36.5856C38.3814 36.4564 38.4591 36.3426 38.542 36.2444C39.6975 34.9155 40.3349 33.2145 40.3349 31.4513C40.3349 31.0739 40.3038 30.6912 40.2468 30.3241C40.2157 30.1277 40.2002 29.9312 40.1898 29.7399C40.1639 28.8195 40.8427 28.0077 41.7651 27.9302C41.791 27.9302 41.8169 27.925 41.8428 27.925C41.8532 27.925 41.8584 27.925 41.8687 27.925C42.5683 27.9043 43.1486 27.3718 43.2056 26.6738C43.2367 26.2808 43.1383 25.8827 42.931 25.5466C42.6875 25.1536 42.5476 24.6883 42.5476 24.1919C42.5476 23.5456 42.7859 22.9613 43.1746 22.5063C44.0192 21.5343 44.4959 20.3037 44.4959 19.0214C44.4959 18.2096 44.2783 17.3979 43.8223 16.7257C43.6876 16.5292 43.6098 16.2914 43.6098 16.0328C43.6098 15.8157 43.6668 15.614 43.7653 15.4382C43.8845 15.2211 43.9622 14.9832 43.9726 14.735C43.9777 14.5386 43.9518 14.3421 43.8845 14.1611C43.8326 14.0267 43.8067 13.8767 43.8067 13.7216C43.8067 13.2976 44.0244 12.9202 44.3508 12.6979C44.5996 12.5272 44.7965 12.2946 44.9001 12.0102L44.9571 11.8551C45.1385 11.3535 45.0037 10.7951 44.6203 10.4228C44.5892 10.3918 44.5529 10.3608 44.5218 10.3246L42.7859 8.4994C42.2625 7.98752 41.5423 7.66695 40.7546 7.66695C40.0344 7.66695 39.3763 7.93065 38.8685 8.36497C38.8788 8.33395 38.8944 8.30809 38.9047 8.28224C39.4125 7.2016 40.6458 6.6587 41.8014 6.96893L43.4285 7.40842C44.4182 7.67729 45.4442 7.77553 46.4702 7.77036C46.4754 7.77036 46.4754 7.77036 46.4806 7.77036C47.0713 7.77036 47.5791 8.12713 47.7967 8.63901C48.0507 9.23879 48.4186 9.78169 48.8435 10.2781L48.9005 10.3453C49.3565 10.8778 49.9058 11.3173 50.4913 11.6999C50.8022 11.9016 51.0198 12.2429 51.0561 12.6306C51.0768 12.8943 51.0198 13.1425 50.8955 13.3545C50.5068 14.0267 50.3669 14.8178 50.5276 15.5778L50.5379 15.6399C50.7037 16.431 51.1857 17.1186 51.8489 17.584C52.279 17.8891 52.5588 18.3854 52.5588 18.949C52.5588 19.3885 52.3878 19.7866 52.1132 20.0865C51.7557 20.4691 51.5328 20.9603 51.4551 21.4774L51.4396 21.5756C51.3152 22.4339 51.6106 23.3181 52.2635 23.8868C52.2687 23.892 52.2738 23.8972 52.279 23.9024C52.621 24.2126 52.7091 24.709 52.507 25.1226C51.8904 26.379 51.1494 27.5786 50.2944 28.7006L48.7295 30.5465C48.7295 30.5465 48.7295 30.5465 48.7243 30.5516C48.6673 30.6085 48.6155 30.6654 48.5585 30.7274C48.5274 30.7585 48.4963 30.7895 48.4652 30.8257C48.4237 30.867 48.3823 30.9084 48.3408 30.9498C48.3097 30.9808 48.2787 31.0118 48.2476 31.0428C48.2061 31.0842 48.1647 31.1256 48.1232 31.1669C48.0921 31.198 48.061 31.229 48.0299 31.26C47.9885 31.3014 47.9418 31.3427 47.9004 31.3841C47.8693 31.4151 47.8382 31.441 47.8071 31.472C47.7605 31.5134 47.719 31.5547 47.6724 31.5961C47.6413 31.6219 47.6102 31.653 47.5843 31.6788C47.5377 31.7253 47.4858 31.7667 47.4392 31.8081C47.4133 31.8339 47.3822 31.8598 47.3563 31.8805C47.2993 31.927 47.2475 31.9787 47.1905 32.0252C47.1697 32.0459 47.149 32.0614 47.1231 32.0821C47.0454 32.1493 46.9676 32.2165 46.8847 32.2838L35.2567 42.0302C35.1064 42.1543 34.8836 42.025 34.9199 41.8337C34.9251 41.8182 34.9251 41.8027 34.9303 41.7923Z" fill="#141433"/>
<path fill-rule="evenodd" clip-rule="evenodd" d="M25.9195 45.8605C26.3241 45.6156 26.8571 45.7931 27.0268 46.2419C27.1651 46.6076 27.0043 47.0304 26.6327 47.1976C25.2202 47.833 22.9412 48.6496 20.4539 49.1348C17.9764 49.6181 15.2317 49.7846 12.9216 49.0618C12.6621 48.9807 12.5134 48.7088 12.585 48.4465C12.6566 48.1843 12.9228 48.0256 13.1875 48.0875C18.6567 49.366 23.7606 47.1668 25.9195 45.8605Z" fill="#141433"/>
<path fill-rule="evenodd" clip-rule="evenodd" d="M37.9939 45.8605C37.5893 45.6156 37.0563 45.7931 36.8866 46.2419C36.7483 46.6076 36.9091 47.0304 37.2807 47.1976C38.6932 47.833 40.9722 48.6496 43.4595 49.1348C45.937 49.6181 48.6817 49.7846 50.9918 49.0618C51.2513 48.9807 51.4 48.7088 51.3284 48.4465C51.2568 48.1843 50.9906 48.0256 50.7259 48.0875C45.2567 49.366 40.1528 47.1668 37.9939 45.8605Z" fill="#141433"/>
<path fill-rule="evenodd" clip-rule="evenodd" d="M12.1326 44.5993C12.3391 44.7871 12.3542 45.1067 12.1664 45.3131C11.6664 45.8629 11.0425 46.8228 10.8014 47.8848C10.5656 48.9234 10.6959 50.0352 11.6527 51.0119C11.848 51.2113 11.8447 51.5312 11.6453 51.7265C11.4459 51.9218 11.126 51.9185 10.9307 51.7191C9.68328 50.4457 9.52141 48.9579 9.81579 47.6611C10.1049 46.3878 10.8335 45.2766 11.4188 44.6331C11.6066 44.4266 11.9262 44.4115 12.1326 44.5993Z" fill="#141433"/>
<path fill-rule="evenodd" clip-rule="evenodd" d="M51.8046 44.5993C51.5982 44.7871 51.583 45.1067 51.7708 45.3131C52.2709 45.8629 52.8948 46.8228 53.1359 47.8848C53.3717 48.9234 53.2413 50.0352 52.2846 51.0119C52.0893 51.2113 52.0926 51.5312 52.292 51.7265C52.4914 51.9218 52.8113 51.9185 53.0066 51.7191C54.254 50.4457 54.4159 48.9579 54.1215 47.6611C53.8324 46.3878 53.1038 45.2766 52.5185 44.6331C52.3307 44.4266 52.0111 44.4115 51.8046 44.5993Z" fill="#141433"/>
</svg>
