<svg width="320" height="280" viewBox="0 0 320 280" fill="none" xmlns="http://www.w3.org/2000/svg">
<path d="M68.1 263.2C70.751 263.2 72.9 261.051 72.9 258.4C72.9 255.749 70.751 253.6 68.1 253.6C65.449 253.6 63.3 255.749 63.3 258.4C63.3 261.051 65.449 263.2 68.1 263.2Z" fill="#FC8B06"/>
<path d="M182.7 83.7C184.025 83.7 185.1 82.6255 185.1 81.3C185.1 79.9745 184.025 78.9 182.7 78.9C181.375 78.9 180.3 79.9745 180.3 81.3C180.3 82.6255 181.375 83.7 182.7 83.7Z" fill="#FC8B06"/>
<path d="M289.2 140.5C293.287 140.5 296.6 137.187 296.6 133.1C296.6 129.013 293.287 125.7 289.2 125.7C285.113 125.7 281.8 129.013 281.8 133.1C281.8 137.187 285.113 140.5 289.2 140.5Z" fill="#5F296D"/>
<path d="M135.6 59.5C138.693 59.5 141.2 56.9928 141.2 53.9C141.2 50.8072 138.693 48.3 135.6 48.3C132.507 48.3 130 50.8072 130 53.9C130 56.9928 132.507 59.5 135.6 59.5Z" fill="#CF1A21"/>
<path d="M28.1 236.4C29.6464 236.4 30.9 235.146 30.9 233.6C30.9 232.054 29.6464 230.8 28.1 230.8C26.5536 230.8 25.3 232.054 25.3 233.6C25.3 235.146 26.5536 236.4 28.1 236.4Z" fill="#FDB314"/>
<path d="M244.2 65.1V125.2C244.2 126.8 243.4 128.2 242 129L193.6 158.1" stroke="#8A8A99" stroke-width="0.5" stroke-miterlimit="10"/>
<path d="M27.7 117.1C34.5 121 43.4 123.1 52.8 123.1C62.3 123.1 71.1 120.9 78.2 117C85 113.1 88.8 107.7 88.8 102L88.5 54.2C88.1 48.8 84.3 43.9 77.8 40.1C71 36.2 62.1 34.1 52.7 34.1C43.3 34.1 34.4 36.2 27.7 40.1C21.3 43.8 17.6 48.7 17.1 54L17 101.8C17 107.6 20.8 113 27.7 117.1Z" fill="#43435C"/>
<path d="M87.3 92.5V102C87.3 107.1 83.9 112.2 77.2 116.1C63.7 123.9 41.8 123.9 28.3 116.1C21.5 112.2 18.1 107 18.1 101.8V92.3L87.3 92.5Z" fill="#D0D0D6"/>
<path d="M52.8 112.2C43.6 112.2 34.9 110.1 28.4 106.4C22 102.6 18.4 97.7 18.4 92.4C18.4 87.2 21.9 82.2 28.3 78.5C34.8 74.7 43.4 72.7 52.6 72.7C61.8 72.7 70.5 74.8 77 78.5C83.5 82.3 87.1 87.2 87.1 92.5C87.1 97.7 83.6 102.7 77.2 106.4C70.7 110.1 62 112.2 52.8 112.2Z" fill="white"/>
<path d="M52.6 72.4V72.9C61.8 72.9 70.4 75 76.8 78.7C83.2 82.4 86.8 87.3 86.8 92.5C86.8 97.6 83.3 102.5 77 106.2C70.6 109.9 62 112 52.8 112C43.6 112 35 109.9 28.6 106.2C22.2 102.5 18.6 97.6 18.6 92.4C18.6 87.3 22.1 82.4 28.4 78.7C34.8 75 43.4 72.9 52.6 72.9V72.4ZM52.6 72.4C43.7 72.4 34.9 74.4 28.2 78.3C14.7 86.1 14.8 98.8 28.4 106.6C35.2 110.5 44 112.5 52.9 112.5C61.8 112.5 70.6 110.5 77.3 106.6C90.8 98.8 90.7 86.1 77.1 78.3C70.3 74.4 61.5 72.4 52.6 72.4Z" fill="#8A8A99"/>
<path d="M87.3 80.1V89.6C87.3 94.7 83.9 99.8 77.2 103.7C63.7 111.5 41.8 111.5 28.3 103.7C21.5 99.8 18.1 94.6 18.1 89.4V79.9L87.3 80.1Z" fill="#D0D0D6"/>
<path d="M52.8 99.8C43.6 99.8 34.9 97.7 28.4 94C22 90.2 18.4 85.3 18.4 80C18.4 74.8 21.9 69.8 28.3 66.1C34.8 62.3 43.4 60.3 52.6 60.3C61.8 60.3 70.5 62.4 77 66.1C83.5 69.9 87.1 74.8 87.1 80.1C87.1 85.3 83.6 90.3 77.2 94C70.7 97.8 62 99.8 52.8 99.8Z" fill="white"/>
<path d="M52.6 60.5C61.8 60.5 70.4 62.6 76.8 66.3C83.2 70 86.8 74.9 86.8 80.1C86.8 85.2 83.3 90.1 77 93.8C70.6 97.5 62 99.6 52.8 99.6C43.6 99.6 35 97.5 28.6 93.8C22.2 90.1 18.6 85.2 18.6 80C18.6 74.9 22.1 70 28.4 66.3C34.9 62.6 43.5 60.5 52.6 60.5ZM52.6 60C43.7 60 34.9 62 28.2 65.9C14.7 73.7 14.8 86.4 28.4 94.2C35.2 98.1 44 100.1 52.9 100.1C61.8 100.1 70.6 98.1 77.3 94.2C90.8 86.4 90.7 73.7 77.1 65.9C70.3 62 61.5 60 52.6 60Z" fill="#8A8A99"/>
<path d="M87.3 67.7V77.2C87.3 82.3 83.9 87.4 77.2 91.3C63.7 99.1 41.8 99.1 28.3 91.3C21.5 87.4 18.1 82.2 18.1 77V67.5L87.3 67.7Z" fill="#D0D0D6"/>
<path d="M52.8 87.4C43.6 87.4 34.9 85.3 28.4 81.6C22 77.8 18.4 72.9 18.4 67.6C18.4 62.4 21.9 57.4 28.3 53.7C34.8 49.9 43.4 47.9 52.6 47.9C61.8 47.9 70.5 50 77 53.7C83.5 57.5 87.1 62.4 87.1 67.7C87.1 72.9 83.6 77.9 77.2 81.6C70.7 85.4 62 87.4 52.8 87.4Z" fill="white"/>
<path d="M52.6 47.6V48.1C61.8 48.1 70.4 50.2 76.8 53.9C83.2 57.6 86.8 62.5 86.8 67.7C86.8 72.8 83.3 77.7 77 81.4C70.6 85.1 62 87.2 52.8 87.2C43.6 87.2 35 85.1 28.6 81.4C22.2 77.7 18.6 72.8 18.6 67.6C18.6 62.5 22.1 57.6 28.4 53.9C34.8 50.2 43.4 48.1 52.6 48.1V47.6ZM52.6 47.6C43.7 47.6 34.9 49.6 28.2 53.5C14.7 61.3 14.8 74 28.4 81.8C35.2 85.7 44 87.7 52.9 87.7C61.8 87.7 70.6 85.7 77.3 81.8C90.8 74 90.7 61.3 77.1 53.5C70.3 49.6 61.5 47.6 52.6 47.6Z" fill="#8A8A99"/>
<path d="M87.3 55.4V64.9C87.3 70 83.9 75.1 77.2 79C63.7 86.8 41.8 86.8 28.3 79C21.5 75 18.1 69.8 18.1 64.6V55.1C18.1 55.2 74.8 55.4 87.3 55.4Z" fill="#D0D0D6"/>
<path d="M52.8 75C43.7 75 35 73 28.5 69.2C22 65.5 18.4 60.5 18.4 55.2C18.4 50 21.9 45 28.3 41.3C34.8 37.5 43.4 35.5 52.6 35.5C61.8 35.5 70.5 37.6 77 41.3C83.5 45.1 87.1 50 87.1 55.3C87.1 60.5 83.6 65.5 77.2 69.2C70.7 73 62 75 52.8 75Z" fill="white"/>
<path d="M52.6 35.7C61.8 35.7 70.4 37.8 76.8 41.5C83.2 45.2 86.8 50.1 86.8 55.3C86.8 60.4 83.3 65.3 77 69C70.6 72.7 62 74.8 52.8 74.8C43.6 74.8 35 72.7 28.6 69C22.2 65.3 18.6 60.4 18.6 55.2C18.6 50.1 22.1 45.2 28.4 41.5C34.9 37.8 43.5 35.7 52.6 35.7ZM52.6 35.2C43.7 35.2 34.9 37.2 28.2 41.1C14.7 48.9 14.8 61.6 28.4 69.4C35.2 73.3 44 75.3 52.9 75.3C61.8 75.3 70.6 73.3 77.3 69.4C90.8 61.6 90.7 48.9 77.1 41.1C70.3 37.2 61.5 35.2 52.6 35.2Z" fill="#8A8A99"/>
<path d="M73.5 114L104.2 132.8" stroke="#8A8A99" stroke-width="0.5" stroke-miterlimit="10"/>
<path d="M73.5 115C74.0523 115 74.5 114.552 74.5 114C74.5 113.448 74.0523 113 73.5 113C72.9477 113 72.5 113.448 72.5 114C72.5 114.552 72.9477 115 73.5 115Z" fill="#8A8A99"/>
<path d="M300 209.9C302.1 211.1 302.1 213.1 300 214.3L197.6 273.8C195.5 275 192.1 275 190 273.8L32.6 183C30.5 181.8 30.5 179.8 32.6 178.6L135 119.1C137.1 117.9 140.5 117.9 142.6 119.1L300 209.9Z" fill="white" stroke="#43435C" stroke-width="0.5" stroke-miterlimit="10"/>
<path d="M189.262 260.374L189.262 260.374L189.25 260.367L31.8501 169.467L31.8451 169.464C30.361 168.629 29.5 167.276 29.5 166V161.8C29.5 160.505 30.2799 159.16 31.7451 158.336L31.7452 158.336L31.7513 158.332L134.251 98.7322L134.251 98.7324L134.262 98.7258C135.464 97.9861 137.067 97.6 138.8 97.6C140.533 97.6 142.136 97.9861 143.338 98.7258L143.338 98.726L143.35 98.733L300.746 189.631C300.747 189.631 300.748 189.632 300.749 189.632C302.339 190.569 303.1 191.824 303.1 193.1V197.3C303.1 198.59 302.326 199.932 300.766 200.758L300.757 200.763L300.749 200.768L198.349 260.268L198.332 260.278L198.315 260.289C197.124 261.114 195.534 261.5 193.8 261.5C192.067 261.5 190.464 261.114 189.262 260.374Z" fill="#43435C" stroke="#43435C"/>
<path d="M300 195.3L197.6 254.8C195.5 256 192.1 256 190 254.8L32.6 164C31.5 163.4 31 162.6 31 161.8V166C31 166.8 31.5 167.6 32.6 168.2L190 259.1C192.1 260.3 195.5 260.3 197.6 259.1L300 199.5C301 198.9 301.6 198.1 301.6 197.3V193.1C301.6 193.9 301.1 194.7 300 195.3Z" fill="#D0D0D6"/>
<path d="M193.8 255.5C192.4 255.5 191.1 255.2 190.1 254.6L32.7 163.8C31.8 163.3 31.2 162.6 31.2 161.8C31.2 161.1 31.7 160.4 32.6 159.8L135 100.3C136 99.7 137.3 99.4 138.7 99.4C140.1 99.4 141.4 99.7 142.4 100.3L299.8 191.2C300.7 191.7 301.3 192.4 301.3 193.2C301.3 193.9 300.8 194.6 299.9 195.2L197.5 254.7C196.5 255.2 195.2 255.5 193.8 255.5Z" fill="white"/>
<mask id="path-26-inside-1" fill="white">
<path d="M138.8 99.6C140.1 99.6 141.4 99.9 142.3 100.4L299.7 191.3C300.6 191.8 301 192.4 301 193.1C301 193.7 300.5 194.4 299.7 194.9L197.3 254.4C196.4 254.9 195.1 255.2 193.8 255.2C192.5 255.2 191.2 254.9 190.3 254.4L32.9 163.5C32 163 31.6 162.4 31.6 161.7C31.6 161.1 32.1 160.4 32.9 159.9L135.3 100.4C136.2 99.9 137.5 99.6 138.8 99.6ZM138.8 99.1C137.4 99.1 136.1 99.4 135 100L32.6 159.6C30.5 160.8 30.5 162.8 32.6 164L190 254.8C191 255.4 192.4 255.7 193.8 255.7C195.2 255.7 196.5 255.4 197.6 254.8L300 195.3C302.1 194.1 302.1 192.1 300 190.9L142.6 100.1C141.6 99.5 140.2 99.1 138.8 99.1Z"/>
</mask>
<path d="M138.8 99.6C140.1 99.6 141.4 99.9 142.3 100.4L299.7 191.3C300.6 191.8 301 192.4 301 193.1C301 193.7 300.5 194.4 299.7 194.9L197.3 254.4C196.4 254.9 195.1 255.2 193.8 255.2C192.5 255.2 191.2 254.9 190.3 254.4L32.9 163.5C32 163 31.6 162.4 31.6 161.7C31.6 161.1 32.1 160.4 32.9 159.9L135.3 100.4C136.2 99.9 137.5 99.6 138.8 99.6ZM138.8 99.1C137.4 99.1 136.1 99.4 135 100L32.6 159.6C30.5 160.8 30.5 162.8 32.6 164L190 254.8C191 255.4 192.4 255.7 193.8 255.7C195.2 255.7 196.5 255.4 197.6 254.8L300 195.3C302.1 194.1 302.1 192.1 300 190.9L142.6 100.1C141.6 99.5 140.2 99.1 138.8 99.1Z" fill="#43435C"/>
<path d="M142.3 100.4L142.8 99.534L142.793 99.5299L142.786 99.5258L142.3 100.4ZM299.7 191.3L299.2 192.166L299.207 192.17L299.214 192.174L299.7 191.3ZM299.7 194.9L300.202 195.765L300.216 195.757L300.23 195.748L299.7 194.9ZM197.3 254.4L197.786 255.274L197.794 255.269L197.802 255.265L197.3 254.4ZM190.3 254.4L189.8 255.266L189.807 255.27L189.814 255.274L190.3 254.4ZM32.9 163.5L33.4001 162.634L33.3929 162.63L33.3856 162.626L32.9 163.5ZM32.9 159.9L32.3976 159.035L32.3837 159.043L32.37 159.052L32.9 159.9ZM135.3 100.4L134.814 99.5258L134.806 99.5305L134.798 99.5353L135.3 100.4ZM135 100L134.521 99.1221L134.509 99.1287L134.497 99.1357L135 100ZM32.6 159.6L33.0961 160.468L33.103 160.464L32.6 159.6ZM32.6 164L33.0997 163.134L33.0961 163.132L32.6 164ZM190 254.8L190.514 253.942L190.507 253.938L190.5 253.934L190 254.8ZM197.6 254.8L198.079 255.678L198.091 255.671L198.102 255.665L197.6 254.8ZM300 195.3L299.504 194.432L299.498 194.435L300 195.3ZM300 190.9L299.5 191.766L299.504 191.768L300 190.9ZM142.6 100.1L142.085 100.957L142.093 100.962L142.1 100.966L142.6 100.1ZM138.8 100.6C139.971 100.6 141.095 100.875 141.814 101.274L142.786 99.5258C141.705 98.9254 140.229 98.6 138.8 98.6V100.6ZM141.8 101.266L299.2 192.166L300.2 190.434L142.8 99.534L141.8 101.266ZM299.214 192.174C299.919 192.566 300 192.884 300 193.1H302C302 191.916 301.281 191.034 300.186 190.426L299.214 192.174ZM300 193.1C300 193.195 299.846 193.63 299.17 194.052L300.23 195.748C301.154 195.17 302 194.205 302 193.1H300ZM299.198 194.035L196.798 253.535L197.802 255.265L300.202 195.765L299.198 194.035ZM196.814 253.526C196.095 253.925 194.971 254.2 193.8 254.2V256.2C195.229 256.2 196.705 255.875 197.786 255.274L196.814 253.526ZM193.8 254.2C192.629 254.2 191.505 253.925 190.786 253.526L189.814 255.274C190.895 255.875 192.371 256.2 193.8 256.2V254.2ZM190.8 253.534L33.4001 162.634L32.3999 164.366L189.8 255.266L190.8 253.534ZM33.3856 162.626C32.6808 162.234 32.6 161.916 32.6 161.7H30.6C30.6 162.884 31.3191 163.766 32.4144 164.374L33.3856 162.626ZM32.6 161.7C32.6 161.605 32.7541 161.17 33.43 160.748L32.37 159.052C31.4459 159.63 30.6 160.595 30.6 161.7H32.6ZM33.4024 160.765L135.802 101.265L134.798 99.5353L32.3976 159.035L33.4024 160.765ZM135.786 101.274C136.505 100.875 137.629 100.6 138.8 100.6V98.6C137.371 98.6 135.895 98.9254 134.814 99.5258L135.786 101.274ZM138.8 98.1C137.259 98.1 135.79 98.4302 134.521 99.1221L135.479 100.878C136.41 100.37 137.541 100.1 138.8 100.1V98.1ZM134.497 99.1357L32.097 158.736L33.103 160.464L135.503 100.864L134.497 99.1357ZM32.1039 158.732C30.8641 159.44 30.025 160.52 30.025 161.8C30.025 163.08 30.8641 164.16 32.1039 164.868L33.0961 163.132C32.2359 162.64 32.025 162.12 32.025 161.8C32.025 161.48 32.2359 160.96 33.0961 160.468L32.1039 158.732ZM32.1003 164.866L189.5 255.666L190.5 253.934L33.0997 163.134L32.1003 164.866ZM189.486 255.657C190.688 256.379 192.284 256.7 193.8 256.7V254.7C192.516 254.7 191.312 254.421 190.514 253.942L189.486 255.657ZM193.8 256.7C195.341 256.7 196.81 256.37 198.079 255.678L197.121 253.922C196.19 254.43 195.059 254.7 193.8 254.7V256.7ZM198.102 255.665L300.502 196.165L299.498 194.435L197.098 253.935L198.102 255.665ZM300.496 196.168C301.736 195.46 302.575 194.38 302.575 193.1C302.575 191.82 301.736 190.74 300.496 190.032L299.504 191.768C300.364 192.26 300.575 192.78 300.575 193.1C300.575 193.42 300.364 193.94 299.504 194.432L300.496 196.168ZM300.5 190.034L143.1 99.2338L142.1 100.966L299.5 191.766L300.5 190.034ZM143.114 99.2425C141.951 98.5442 140.371 98.1 138.8 98.1V100.1C140.029 100.1 141.249 100.456 142.085 100.957L143.114 99.2425Z" fill="#43435C" mask="url(#path-26-inside-1)"/>
<path d="M148.3 110.7C149 111.1 149.1 111.8 148.4 112.2C147.7 112.6 146.5 112.7 145.8 112.3C145.1 111.9 145 111.2 145.7 110.8C146.4 110.4 147.6 110.3 148.3 110.7Z" fill="#43435C"/>
<path d="M143.6 108.2C144.3 108.6 144.4 109.3 143.7 109.7C143 110.1 141.8 110.2 141.1 109.8C140.4 109.4 140.3 108.7 141 108.3C141.7 107.9 142.8 107.8 143.6 108.2Z" fill="#43435C"/>
<path d="M137.635 107.599C138.684 107.565 139.519 107.046 139.499 106.439C139.48 105.832 138.614 105.367 137.566 105.4C136.517 105.433 135.682 105.952 135.701 106.56C135.721 107.167 136.587 107.632 137.635 107.599Z" fill="#43435C"/>
<path d="M291.4 204.5L291.2 200.4L125.8 106.1L126.9 105.4L292.3 199.8L292.5 203.9L291.4 204.5Z" fill="#A1A1AD"/>
<path d="M113.9 125.6C114.3 125.8 114.3 126.1 113.9 126.3C113.5 126.5 113 126.5 112.6 126.3C112.2 126.1 112.2 125.8 112.6 125.6C113 125.4 113.5 125.4 113.9 125.6Z" fill="#B9B9C2"/>
<path d="M128.1 136.8C128.5 137 128.5 137.3 128.1 137.5C127.7 137.7 127.2 137.7 126.8 137.5L118.8 132.9C118.4 132.7 118.4 132.4 118.8 132.2C119.1 132 119.7 132 120.1 132.2L128.1 136.8Z" fill="#B9B9C2"/>
<path d="M110.5 138.1C110.9 138.3 110.9 138.6 110.5 138.8C110.1 139 109.6 139 109.2 138.8L103.2 135.3C102.8 135.1 102.8 134.8 103.2 134.6C103.6 134.4 104.1 134.4 104.5 134.6L110.5 138.1Z" fill="#B9B9C2"/>
<path d="M115.5 135.2C115.9 135.4 115.9 135.7 115.5 135.9C115.1 136.1 114.6 136.1 114.2 135.9L108.2 132.4C107.8 132.2 107.8 131.9 108.2 131.7C108.5 131.5 109.1 131.5 109.5 131.7L115.5 135.2Z" fill="#B9B9C2"/>
<path d="M119.3 134.6C119.7 134.8 119.7 135.1 119.3 135.3C119 135.5 118.4 135.5 118 135.3L112.7 132.3C112.3 132.1 112.3 131.8 112.7 131.6C113.1 131.4 113.6 131.4 114 131.6L119.3 134.6Z" fill="#B9B9C2"/>
<path d="M127.6 139.3C128 139.5 128 139.8 127.6 140C127.3 140.2 126.7 140.2 126.3 140L120.3 136.5C119.9 136.3 119.9 136 120.3 135.8C120.7 135.6 121.2 135.6 121.6 135.8L127.6 139.3Z" fill="#B9B9C2"/>
<path d="M133.3 136.8C133.7 137 133.7 137.3 133.3 137.5C132.9 137.7 132.4 137.7 132 137.5L126 134C125.6 133.8 125.6 133.5 126 133.3C126.4 133.1 126.9 133.1 127.3 133.3L133.3 136.8Z" fill="#B9B9C2"/>
<path d="M117.9 130.9C118.3 131.1 118.3 131.4 117.9 131.6C117.5 131.8 117 131.8 116.6 131.6L115.2 130.8C114.8 130.6 114.8 130.3 115.2 130.1C115.5 129.9 116.1 129.9 116.5 130.1L117.9 130.9Z" fill="#B9B9C2"/>
<path d="M125 132.1C125.4 132.3 125.4 132.6 125 132.8C124.6 133 124.1 133 123.7 132.8L117.7 129.3C117.3 129.1 117.3 128.8 117.7 128.6C118.1 128.4 118.6 128.4 119 128.6L125 132.1Z" fill="#B9B9C2"/>
<path d="M138.9 145.9C139.3 146.1 139.3 146.4 138.9 146.6C138.6 146.8 138 146.8 137.6 146.6L128.5 141.3C128.1 141.1 128.1 140.8 128.5 140.6C128.9 140.4 129.4 140.4 129.8 140.6L138.9 145.9Z" fill="#B9B9C2"/>
<path d="M136.4 141.5C136.8 141.7 136.8 142 136.4 142.2C136 142.4 135.5 142.4 135.1 142.2L129.1 138.7C128.7 138.5 128.7 138.2 129.1 138C129.5 137.8 130 137.8 130.4 138L136.4 141.5Z" fill="#B9B9C2"/>
<path d="M136.9 139C137.3 139.2 137.3 139.5 136.9 139.7C136.5 139.9 136 139.9 135.6 139.7L134.2 138.9C133.8 138.7 133.8 138.4 134.2 138.2C134.6 138 135.1 138 135.5 138.2L136.9 139Z" fill="#B9B9C2"/>
<path d="M111.4 127.1C111.8 127.3 111.8 127.6 111.4 127.8C111 128 110.5 128 110.1 127.8C109.7 127.6 109.7 127.3 110.1 127.1C110.5 126.9 111 126.9 111.4 127.1Z" fill="#B9B9C2"/>
<path d="M109.123 128.976C109.124 128.7 108.721 128.475 108.224 128.474C107.727 128.472 107.324 128.695 107.323 128.971C107.322 129.247 107.724 129.472 108.222 129.474C108.719 129.475 109.122 129.252 109.123 128.976Z" fill="#B9B9C2"/>
<path d="M106.712 130.34C106.713 130.064 106.31 129.839 105.813 129.838C105.316 129.836 104.913 130.059 104.912 130.335C104.911 130.611 105.313 130.836 105.81 130.838C106.307 130.839 106.711 130.616 106.712 130.34Z" fill="#B9B9C2"/>
<path d="M119.099 123.155C119.1 122.879 118.698 122.654 118.201 122.653C117.704 122.651 117.3 122.874 117.299 123.15C117.298 123.426 117.701 123.651 118.198 123.653C118.695 123.654 119.098 123.432 119.099 123.155Z" fill="#B9B9C2"/>
<path d="M116.4 124.2C116.8 124.4 116.8 124.7 116.4 124.9C116.1 125.1 115.5 125.1 115.1 124.9C114.7 124.7 114.7 124.4 115.1 124.2C115.4 124 116 124 116.4 124.2Z" fill="#B9B9C2"/>
<path d="M130.4 126.5C130.8 126.7 130.8 127 130.4 127.2C130.1 127.4 129.5 127.4 129.1 127.2L123.1 123.7C122.7 123.5 122.7 123.2 123.1 123C123.5 122.8 124 122.8 124.4 123L130.4 126.5Z" fill="#B9B9C2"/>
<path d="M135.4 123.7C135.8 123.9 135.8 124.2 135.4 124.4C135 124.6 134.5 124.6 134.1 124.4L128.1 120.9C127.7 120.7 127.7 120.4 128.1 120.2C128.4 120 129 120 129.4 120.2L135.4 123.7Z" fill="#B9B9C2"/>
<path d="M169.4 146.2C169.8 146.4 169.8 146.7 169.4 146.9C169 147.1 168.5 147.1 168.1 146.9L156.3 140.1C155.9 139.9 155.9 139.6 156.3 139.4C156.7 139.2 157.2 139.2 157.6 139.4L169.4 146.2Z" fill="#B9B9C2"/>
<path d="M155.3 138C155.7 138.2 155.7 138.5 155.3 138.7C154.9 138.9 154.4 138.9 154 138.7L142.2 131.9C141.8 131.7 141.8 131.4 142.2 131.2C142.6 131 143.1 131 143.5 131.2L155.3 138Z" fill="#B9B9C2"/>
<path d="M141.2 129.9C141.6 130.1 141.6 130.4 141.2 130.6C140.8 130.8 140.3 130.8 139.9 130.6L125.6 122.4C125.2 122.2 125.2 121.9 125.6 121.7C126 121.5 126.5 121.5 126.9 121.7L141.2 129.9Z" fill="#B9B9C2"/>
<path d="M125.5 129.4C125.9 129.6 125.9 129.9 125.5 130.1C125.1 130.3 124.6 130.3 124.2 130.1L118.2 126.6C117.8 126.4 117.8 126.1 118.2 125.9C118.6 125.7 119.1 125.7 119.5 125.9L125.5 129.4Z" fill="#B9B9C2"/>
<path d="M124.082 120.244C124.083 119.968 123.681 119.743 123.184 119.741C122.687 119.74 122.283 119.962 122.282 120.239C122.282 120.515 122.684 120.74 123.181 120.741C123.678 120.743 124.082 120.52 124.082 120.244Z" fill="#B9B9C2"/>
<path d="M126.3 118.4C126.7 118.6 126.7 118.9 126.3 119.1C125.9 119.3 125.4 119.3 125 119.1C124.6 118.9 124.6 118.6 125 118.4C125.4 118.2 126 118.2 126.3 118.4Z" fill="#B9B9C2"/>
<path d="M143.7 128.4C144.1 128.6 144.1 128.9 143.7 129.1C143.3 129.3 142.8 129.3 142.4 129.1L136.4 125.6C136 125.4 136 125.1 136.4 124.9C136.7 124.7 137.3 124.7 137.7 124.9L143.7 128.4Z" fill="#B9B9C2"/>
<path d="M147.4 130.6C147.8 130.8 147.8 131.1 147.4 131.3C147 131.5 146.5 131.5 146.1 131.3L144.7 130.5C144.3 130.3 144.3 130 144.7 129.8C145 129.6 145.6 129.6 146 129.8L147.4 130.6Z" fill="#B9B9C2"/>
<path d="M128.8 117C129.2 117.2 129.2 117.5 128.8 117.7C128.5 117.9 127.9 117.9 127.5 117.7C127.1 117.5 127.1 117.2 127.5 117C127.9 116.8 128.5 116.8 128.8 117Z" fill="#B9B9C2"/>
<path d="M137.9 122.2C138.3 122.4 138.3 122.7 137.9 122.9C137.6 123.1 137 123.1 136.6 122.9L130.6 119.4C130.2 119.2 130.2 118.9 130.6 118.7C131 118.5 131.5 118.5 131.9 118.7L137.9 122.2Z" fill="#B9B9C2"/>
<path d="M121.4 121.3C121.8 121.5 121.8 121.8 121.4 122C121 122.2 120.5 122.2 120.1 122C119.7 121.8 119.7 121.5 120.1 121.3C120.4 121.1 121 121.1 121.4 121.3Z" fill="#B9B9C2"/>
<path d="M103.9 131.4C104.3 131.6 104.3 131.9 103.9 132.1C103.5 132.3 103 132.3 102.6 132.1C102.2 131.9 102.2 131.6 102.6 131.4C103 131.2 103.6 131.2 103.9 131.4Z" fill="#B9B9C2"/>
<path d="M98.9 134.3C99.3 134.5 99.3 134.8 98.9 135C98.6 135.2 98 135.2 97.6 135C97.2 134.8 97.2 134.5 97.6 134.3C98 134.1 98.6 134.1 98.9 134.3Z" fill="#B9B9C2"/>
<path d="M101.729 133.252C101.729 132.976 101.327 132.751 100.83 132.749C100.333 132.748 99.9294 132.971 99.9286 133.247C99.9278 133.523 100.33 133.748 100.827 133.749C101.324 133.751 101.728 133.528 101.729 133.252Z" fill="#B9B9C2"/>
<path d="M107.4 139.2C107.8 139.4 107.8 139.7 107.4 139.9C107.1 140.1 106.5 140.1 106.1 139.9L102.7 137.9C102.3 137.7 102.3 137.4 102.7 137.2C103.1 137 103.6 137 104 137.2L107.4 139.2Z" fill="#B9B9C2"/>
<path d="M122.2 147.8C122.6 148 122.6 148.3 122.2 148.5C121.9 148.7 121.3 148.7 120.9 148.5L119.5 147.7C119.1 147.5 119.1 147.2 119.5 147C119.9 146.8 120.4 146.8 120.8 147L122.2 147.8Z" fill="#B9B9C2"/>
<path d="M113.9 145.9C114.3 146.1 114.3 146.4 113.9 146.6C113.5 146.8 113 146.8 112.6 146.6L102.2 140.6C101.8 140.4 101.8 140.1 102.2 139.9C102.5 139.7 103.1 139.7 103.5 139.9L113.9 145.9Z" fill="#B9B9C2"/>
<path d="M118.5 145.7C118.9 145.9 118.9 146.2 118.5 146.4C118.2 146.6 117.6 146.6 117.2 146.4L108.4 141.3C108 141.1 108 140.8 108.4 140.6C108.8 140.4 109.3 140.4 109.7 140.6L118.5 145.7Z" fill="#B9B9C2"/>
<path d="M97.1 150.6C97.5 150.8 97.5 151.1 97.1 151.3C96.7 151.5 96.2 151.5 95.8 151.3L89.8 147.8C89.4 147.6 89.4 147.3 89.8 147.1C90.2 146.9 90.7 146.9 91.1 147.1L97.1 150.6Z" fill="#B9B9C2"/>
<path d="M96.9 147.6C97.3 147.8 97.3 148.1 96.9 148.3C96.5 148.5 96 148.5 95.6 148.3L92.4 146.4C92 146.2 92 145.9 92.4 145.7C92.7 145.5 93.3 145.5 93.7 145.7L96.9 147.6Z" fill="#B9B9C2"/>
<path d="M97.5 145C97.9 145.2 97.9 145.5 97.5 145.7C97.2 145.9 96.6 145.9 96.2 145.7L92.8 143.7C92.4 143.5 92.4 143.2 92.8 143C93.2 142.8 93.7 142.8 94.1 143L97.5 145Z" fill="#B9B9C2"/>
<path d="M105.4 146.7C105.8 146.9 105.8 147.2 105.4 147.4C105 147.6 104.5 147.6 104.1 147.4L95.3 142.3C94.9 142.1 94.9 141.8 95.3 141.6C95.7 141.4 96.2 141.4 96.6 141.6L105.4 146.7Z" fill="#B9B9C2"/>
<path d="M115.9 149.9C116.3 150.1 116.3 150.4 115.9 150.6C115.5 150.8 115 150.8 114.6 150.6L106 145.7C105.6 145.5 105.6 145.2 106 145C106.4 144.8 106.9 144.8 107.3 145L115.9 149.9Z" fill="#B9B9C2"/>
<path d="M123.3 151.3C123.7 151.5 123.7 151.8 123.3 152C122.9 152.2 122.4 152.2 122 152L115 148C114.6 147.8 114.6 147.5 115 147.3C115.3 147.1 115.9 147.1 116.3 147.3L123.3 151.3Z" fill="#B9B9C2"/>
<path d="M113.6 151.5C114 151.7 114 152 113.6 152.2C113.2 152.4 112.7 152.4 112.3 152.2L106.3 148.7C105.9 148.5 105.9 148.2 106.3 148C106.7 147.8 107.2 147.8 107.6 148L113.6 151.5Z" fill="#B9B9C2"/>
<path d="M108.6 151.4C109 151.6 109 151.9 108.6 152.1C108.3 152.3 107.7 152.3 107.3 152.1L98.5 147C98.1 146.8 98.1 146.5 98.5 146.3C98.9 146.1 99.4 146.1 99.8 146.3L108.6 151.4Z" fill="#B9B9C2"/>
<path d="M105.2 152.4C105.6 152.6 105.6 152.9 105.2 153.1C104.8 153.3 104.3 153.3 103.9 153.1L97.9 149.6C97.5 149.4 97.5 149.1 97.9 148.9C98.2 148.7 98.8 148.7 99.2 148.9L105.2 152.4Z" fill="#B9B9C2"/>
<path d="M95.4 152.5C95.8 152.7 95.8 153 95.4 153.2C95 153.4 94.5 153.4 94.1 153.2L85.3 148.1C84.9 147.9 84.9 147.6 85.3 147.4C85.7 147.2 86.2 147.2 86.6 147.4L95.4 152.5Z" fill="#B9B9C2"/>
<path d="M122.2 153.5C122.6 153.7 122.6 154 122.2 154.2C121.8 154.4 121.3 154.4 120.9 154.2L116.9 151.9C116.5 151.7 116.5 151.4 116.9 151.2C117.3 151 117.8 151 118.2 151.2L122.2 153.5Z" fill="#B9B9C2"/>
<path d="M112.3 153.6C112.7 153.8 112.7 154.1 112.3 154.3C112 154.5 111.4 154.5 111 154.3L109.6 153.5C109.2 153.3 109.2 153 109.6 152.8C110 152.6 110.5 152.6 110.9 152.8L112.3 153.6Z" fill="#B9B9C2"/>
<path d="M130.4 155.4C130.8 155.6 130.8 155.9 130.4 156.1C130 156.3 129.5 156.3 129.1 156.1L124.3 153.4C123.9 153.2 123.9 152.9 124.3 152.7C124.6 152.5 125.2 152.5 125.6 152.7L130.4 155.4Z" fill="#B9B9C2"/>
<path d="M105.9 155.7C106.3 155.9 106.3 156.2 105.9 156.4C105.5 156.6 105 156.6 104.6 156.4L98 152.6C97.6 152.4 97.6 152.1 98 151.9C98.4 151.7 98.9 151.7 99.3 151.9L105.9 155.7Z" fill="#B9B9C2"/>
<path d="M117.9 156.9C118.3 157.1 118.3 157.4 117.9 157.6C117.6 157.8 117 157.8 116.6 157.6L113.2 155.6C112.8 155.4 112.8 155.1 113.2 154.9C113.6 154.7 114.1 154.7 114.5 154.9L117.9 156.9Z" fill="#B9B9C2"/>
<path d="M103.6 157.3C104 157.5 104 157.8 103.6 158C103.2 158.2 102.7 158.2 102.3 158L96.3 154.5C95.9 154.3 95.9 154 96.3 153.8C96.7 153.6 97.2 153.6 97.6 153.8L103.6 157.3Z" fill="#B9B9C2"/>
<path d="M113.9 157.4C114.3 157.6 114.3 157.9 113.9 158.1C113.5 158.3 113 158.3 112.6 158.1L106.2 154.4C105.8 154.2 105.8 153.9 106.2 153.7C106.5 153.5 107.1 153.5 107.5 153.7L113.9 157.4Z" fill="#B9B9C2"/>
<path d="M125 158.1C125.4 158.3 125.4 158.6 125 158.8C124.6 159 124.1 159 123.7 158.8L114.8 153.7C114.4 153.5 114.4 153.2 114.8 153C115.2 152.8 115.7 152.8 116.1 153L125 158.1Z" fill="#B9B9C2"/>
<path d="M119.5 160.6C119.9 160.8 119.9 161.1 119.5 161.3C119.1 161.5 118.6 161.5 118.2 161.3L115 159.4C114.6 159.2 114.6 158.9 115 158.7C115.3 158.5 115.9 158.5 116.3 158.7L119.5 160.6Z" fill="#B9B9C2"/>
<path d="M114.8 160.8C115.2 161 115.2 161.3 114.8 161.5C114.4 161.7 113.9 161.7 113.5 161.5L106.9 157.7C106.5 157.5 106.5 157.2 106.9 157C107.3 156.8 107.8 156.8 108.2 157L114.8 160.8Z" fill="#B9B9C2"/>
<path d="M143 162.7C143.4 162.9 143.4 163.2 143 163.4C142.6 163.6 142.1 163.6 141.7 163.4L131.3 157.4C130.9 157.2 130.9 156.9 131.3 156.7C131.6 156.5 132.2 156.5 132.6 156.7L143 162.7Z" fill="#B9B9C2"/>
<path d="M115.1 163.9C115.5 164.1 115.5 164.4 115.1 164.6C114.7 164.8 114.2 164.8 113.8 164.6L104.9 159.5C104.5 159.3 104.5 159 104.9 158.8C105.3 158.6 105.8 158.6 106.2 158.8L115.1 163.9Z" fill="#B9B9C2"/>
<path d="M122.3 165.2C122.7 165.4 122.7 165.7 122.3 165.9C121.9 166.1 121.4 166.1 121 165.9L115.9 162.9C115.5 162.7 115.5 162.4 115.9 162.2C116.3 162 116.8 162 117.2 162.2L122.3 165.2Z" fill="#B9B9C2"/>
<path d="M127.9 151.1C128.3 151.3 128.3 151.6 127.9 151.8C127.6 152 127 152 126.6 151.8L123.2 149.8C122.8 149.6 122.8 149.3 123.2 149.1C123.6 148.9 124.1 148.9 124.5 149.1L127.9 151.1Z" fill="#B9B9C2"/>
<path d="M89.2307 140.534C89.2315 140.258 88.8292 140.032 88.3322 140.031C87.8351 140.03 87.4315 140.252 87.4307 140.528C87.4299 140.805 87.8322 141.03 88.3293 141.031C88.8263 141.032 89.2299 140.81 89.2307 140.534Z" fill="#B9B9C2"/>
<path d="M91.5 138.7C91.9 138.9 91.9 139.2 91.5 139.4C91.1 139.6 90.6 139.6 90.2 139.4C89.8 139.2 89.8 138.9 90.2 138.7C90.5 138.5 91.1 138.5 91.5 138.7Z" fill="#B9B9C2"/>
<path d="M94.2138 137.622C94.2146 137.346 93.8123 137.121 93.3152 137.119C92.8182 137.118 92.4146 137.341 92.4138 137.617C92.413 137.893 92.8153 138.118 93.3123 138.119C93.8094 138.121 94.213 137.898 94.2138 137.622Z" fill="#B9B9C2"/>
<path d="M96.5 135.8C96.9 136 96.9 136.3 96.5 136.5C96.1 136.7 95.6 136.7 95.2 136.5C94.8 136.3 94.8 136 95.2 135.8C95.5 135.6 96.1 135.6 96.5 135.8Z" fill="#B9B9C2"/>
<path d="M105 143.6C105.4 143.8 105.4 144.1 105 144.3C104.6 144.5 104.1 144.5 103.7 144.3L99.7 142C99.3 141.8 99.3 141.5 99.7 141.3C100.1 141.1 100.6 141.1 101 141.3L105 143.6Z" fill="#B9B9C2"/>
<path d="M51.8477 162.182C51.8485 161.906 51.4462 161.681 50.9491 161.679C50.4521 161.678 50.0485 161.9 50.0477 162.177C50.0469 162.453 50.4492 162.678 50.9462 162.679C51.4433 162.681 51.8469 162.458 51.8477 162.182Z" fill="#B9B9C2"/>
<path d="M54.1 160.4C54.5 160.6 54.5 160.9 54.1 161.1C53.7 161.3 53.2 161.3 52.8 161.1C52.4 160.9 52.4 160.6 52.8 160.4C53.2 160.2 53.7 160.2 54.1 160.4Z" fill="#B9B9C2"/>
<path d="M56.8306 159.37C56.8314 159.094 56.4291 158.869 55.932 158.868C55.435 158.866 55.0314 159.089 55.0306 159.365C55.0298 159.641 55.4321 159.866 55.9291 159.868C56.4262 159.869 56.8298 159.646 56.8306 159.37Z" fill="#B9B9C2"/>
<path d="M59.1 157.5C59.5 157.7 59.5 158 59.1 158.2C58.8 158.4 58.2 158.4 57.8 158.2C57.4 158 57.4 157.7 57.8 157.5C58.1 157.3 58.7 157.3 59.1 157.5Z" fill="#B9B9C2"/>
<path d="M61.6 156.1C62 156.3 62 156.6 61.6 156.8C61.2 157 60.7 157 60.3 156.8C59.9 156.6 59.9 156.3 60.3 156.1C60.6 155.8 61.2 155.8 61.6 156.1Z" fill="#B9B9C2"/>
<path d="M64.3454 155C64.3462 154.724 63.9439 154.499 63.4468 154.497C62.9498 154.496 62.5462 154.719 62.5454 154.995C62.5446 155.271 62.9469 155.496 63.4439 155.497C63.941 155.499 64.3446 155.276 64.3454 155Z" fill="#B9B9C2"/>
<path d="M66.7669 153.539C66.7677 153.263 66.3654 153.038 65.8683 153.036C65.3713 153.035 64.9677 153.257 64.9669 153.534C64.9661 153.81 65.3684 154.035 65.8654 154.036C66.3625 154.038 66.7661 153.815 66.7669 153.539Z" fill="#B9B9C2"/>
<path d="M69.3284 152.088C69.3292 151.812 68.9269 151.587 68.4299 151.586C67.9328 151.584 67.5292 151.807 67.5284 152.083C67.5276 152.359 67.9299 152.584 68.427 152.586C68.924 152.587 69.3276 152.365 69.3284 152.088Z" fill="#B9B9C2"/>
<path d="M71.7601 150.63C71.7609 150.354 71.3586 150.129 70.8615 150.127C70.3644 150.126 69.9609 150.348 69.9601 150.625C69.9593 150.901 70.3616 151.126 70.8586 151.127C71.3557 151.129 71.7593 150.906 71.7601 150.63Z" fill="#B9B9C2"/>
<path d="M74 148.8C74.4 149 74.4 149.3 74 149.5C73.6 149.7 73.1 149.7 72.7 149.5C72.3 149.3 72.3 149 72.7 148.8C73.1 148.6 73.7 148.6 74 148.8Z" fill="#B9B9C2"/>
<path d="M76.7432 147.718C76.744 147.442 76.3417 147.217 75.8447 147.215C75.3476 147.214 74.944 147.437 74.9432 147.713C74.9424 147.989 75.3447 148.214 75.8418 148.215C76.3388 148.217 76.7424 147.994 76.7432 147.718Z" fill="#B9B9C2"/>
<path d="M79 145.9C79.4 146.1 79.4 146.4 79 146.6C78.7 146.8 78.1 146.8 77.7 146.6C77.3 146.4 77.3 146.1 77.7 145.9C78.1 145.7 78.6 145.7 79 145.9Z" fill="#B9B9C2"/>
<path d="M81.7162 144.804C81.717 144.528 81.3147 144.303 80.8176 144.301C80.3206 144.3 79.917 144.522 79.9162 144.798C79.9154 145.075 80.3177 145.3 80.8148 145.301C81.3118 145.303 81.7154 145.08 81.7162 144.804Z" fill="#B9B9C2"/>
<path d="M84 143C84.4 143.2 84.4 143.5 84 143.7C83.6 143.9 83.1 143.9 82.7 143.7C82.3 143.5 82.3 143.2 82.7 143C83.1 142.8 83.6 142.8 84 143Z" fill="#B9B9C2"/>
<path d="M86.6991 141.992C86.6999 141.716 86.2976 141.491 85.8005 141.489C85.3035 141.488 84.8999 141.711 84.8991 141.987C84.8983 142.263 85.3006 142.488 85.7976 142.489C86.2947 142.491 86.6983 142.268 86.6991 141.992Z" fill="#B9B9C2"/>
<path d="M88.1 151.2C88.5 151.4 88.5 151.7 88.1 151.9C87.8 152.1 87.2 152.1 86.8 151.9L80.8 148.4C80.4 148.2 80.4 147.9 80.8 147.7C81.2 147.5 81.7 147.5 82.1 147.7L88.1 151.2Z" fill="#B9B9C2"/>
<path d="M85.8 161.4C86.2 161.6 86.2 161.9 85.8 162.1C85.4 162.3 84.9 162.3 84.5 162.1L76.5 157.5C76.1 157.3 76.1 157 76.5 156.8C76.9 156.6 77.4 156.6 77.8 156.8L85.8 161.4Z" fill="#B9B9C2"/>
<path d="M90.9 161.4C91.3 161.6 91.3 161.9 90.9 162.1C90.5 162.3 90 162.3 89.6 162.1L83.6 158.6C83.2 158.4 83.2 158.1 83.6 157.9C84 157.7 84.5 157.7 84.9 157.9L90.9 161.4Z" fill="#B9B9C2"/>
<path d="M94.6 163.6C95 163.8 95 164.1 94.6 164.3C94.2 164.5 93.7 164.5 93.3 164.3L91.9 163.5C91.5 163.3 91.5 163 91.9 162.8C92.3 162.6 92.8 162.6 93.2 162.8L94.6 163.6Z" fill="#B9B9C2"/>
<path d="M85.2 163.9C85.6 164.1 85.6 164.4 85.2 164.6C84.8 164.8 84.3 164.8 83.9 164.6L77.9 161.1C77.5 160.9 77.5 160.6 77.9 160.4C78.3 160.2 78.8 160.2 79.2 160.4L85.2 163.9Z" fill="#B9B9C2"/>
<path d="M94.1 166.2C94.5 166.4 94.5 166.7 94.1 166.9C93.7 167.1 93.2 167.1 92.8 166.9L86.8 163.4C86.4 163.2 86.4 162.9 86.8 162.7C87.2 162.5 87.7 162.5 88.1 162.7L94.1 166.2Z" fill="#B9B9C2"/>
<path d="M96.6 170.5C97 170.7 97 171 96.6 171.2C96.2 171.4 95.7 171.4 95.3 171.2L86.2 165.9C85.8 165.7 85.8 165.4 86.2 165.2C86.5 165 87.1 165 87.5 165.2L96.6 170.5Z" fill="#B9B9C2"/>
<path d="M83.1 154.1C83.5 154.3 83.5 154.6 83.1 154.8C82.7 155 82.2 155 81.8 154.8L75.8 151.3C75.4 151.1 75.4 150.8 75.8 150.6C76.2 150.4 76.7 150.4 77.1 150.6L83.1 154.1Z" fill="#B9B9C2"/>
<path d="M75.6 155.5C76 155.7 76 156 75.6 156.2C75.2 156.4 74.7 156.4 74.3 156.2L72.9 155.4C72.5 155.2 72.5 154.9 72.9 154.7C73.3 154.5 73.8 154.5 74.2 154.7L75.6 155.5Z" fill="#B9B9C2"/>
<path d="M82.6 156.7C83 156.9 83 157.2 82.6 157.4C82.2 157.6 81.7 157.6 81.3 157.4L75.3 153.9C74.9 153.7 74.9 153.4 75.3 153.2C75.7 153 76.2 153 76.6 153.2L82.6 156.7Z" fill="#B9B9C2"/>
<path d="M76.9 159.2C77.3 159.4 77.3 159.7 76.9 159.9C76.5 160.1 76 160.1 75.6 159.9L70.3 156.9C69.9 156.7 69.9 156.4 70.3 156.2C70.7 156 71.2 156 71.6 156.2L76.9 159.2Z" fill="#B9B9C2"/>
<path d="M73.1 159.8C73.5 160 73.5 160.3 73.1 160.5C72.7 160.7 72.2 160.7 71.8 160.5L65.8 157C65.4 156.8 65.4 156.5 65.8 156.3C66.2 156.1 66.7 156.1 67.1 156.3L73.1 159.8Z" fill="#B9B9C2"/>
<path d="M100.7 187.3C101.1 187.5 101.1 187.8 100.7 188C100.3 188.2 99.8 188.2 99.4 188L89 182C88.6 181.8 88.6 181.5 89 181.3C89.4 181.1 89.9 181.1 90.3 181.3L100.7 187.3Z" fill="#B9B9C2"/>
<path d="M88 180C88.4 180.2 88.4 180.5 88 180.7C87.6 180.9 87.1 180.9 86.7 180.7L82 178C81.6 177.8 81.6 177.5 82 177.3C82.4 177.1 82.9 177.1 83.3 177.3L88 180Z" fill="#B9B9C2"/>
<path d="M71.6 170.5C72 170.7 72 171 71.6 171.2C71.2 171.4 70.7 171.4 70.3 171.2L59.9 165.2C59.5 165 59.5 164.7 59.9 164.5C60.3 164.3 60.8 164.3 61.2 164.5L71.6 170.5Z" fill="#B9B9C2"/>
<path d="M79.9 172.4C80.3 172.6 80.3 172.9 79.9 173.1C79.5 173.3 79 173.3 78.6 173.1L77.2 172.3C76.8 172.1 76.8 171.8 77.2 171.6C77.5 171.4 78.1 171.4 78.5 171.6L79.9 172.4Z" fill="#B9B9C2"/>
<path d="M85.6 175.7C86 175.9 86 176.2 85.6 176.4C85.2 176.6 84.7 176.6 84.3 176.4L80.9 174.4C80.5 174.2 80.5 173.9 80.9 173.7C81.2 173.5 81.8 173.5 82.2 173.7L85.6 175.7Z" fill="#B9B9C2"/>
<path d="M81 175.9C81.4 176.1 81.4 176.4 81 176.6C80.6 176.8 80.1 176.8 79.7 176.6L72.6 172.5C72.2 172.3 72.2 172 72.6 171.8C73 171.6 73.5 171.6 73.9 171.8L81 175.9Z" fill="#B9B9C2"/>
<path d="M65.1 163.9C65.5 164.1 65.5 164.4 65.1 164.6C64.7 164.8 64.2 164.8 63.8 164.6L60.4 162.6C60 162.4 60 162.1 60.4 161.9C60.7 161.7 61.3 161.7 61.7 161.9L65.1 163.9Z" fill="#B9B9C2"/>
<path d="M68.2 162.7C68.6 162.9 68.6 163.2 68.2 163.4C67.9 163.6 67.3 163.6 66.9 163.4L60.9 159.9C60.5 159.7 60.5 159.4 60.9 159.2C61.3 159 61.8 159 62.2 159.2L68.2 162.7Z" fill="#B9B9C2"/>
<path d="M76.2 170.3C76.6 170.5 76.6 170.8 76.2 171C75.8 171.2 75.3 171.2 74.9 171L66.1 165.9C65.7 165.7 65.7 165.4 66.1 165.2C66.4 165 67 165 67.4 165.2L76.2 170.3Z" fill="#B9B9C2"/>
<path d="M62.7 168.2C63.1 168.4 63.1 168.7 62.7 168.9C62.3 169.1 61.8 169.1 61.4 168.9L57.4 166.6C57 166.4 57 166.1 57.4 165.9C57.8 165.7 58.3 165.7 58.7 165.9L62.7 168.2Z" fill="#B9B9C2"/>
<path d="M73.6 174.5C74 174.7 74 175 73.6 175.2C73.2 175.4 72.7 175.4 72.3 175.2L63.7 170.3C63.3 170.1 63.3 169.8 63.7 169.6C64.1 169.4 64.6 169.4 65 169.6L73.6 174.5Z" fill="#B9B9C2"/>
<path d="M79.8 178.1C80.2 178.3 80.2 178.6 79.8 178.8C79.4 179 78.9 179 78.5 178.8L74.5 176.5C74.1 176.3 74.1 176 74.5 175.8C74.9 175.6 75.4 175.6 75.8 175.8L79.8 178.1Z" fill="#B9B9C2"/>
<path d="M186.8 167C187.2 167.2 187.2 167.5 186.8 167.7C186.4 167.9 185.9 167.9 185.5 167.7C185.1 167.5 185.1 167.2 185.5 167C185.8 166.8 186.4 166.8 186.8 167Z" fill="#B9B9C2"/>
<path d="M201 178.1C201.4 178.3 201.4 178.6 201 178.8C200.6 179 200.1 179 199.7 178.8L191.7 174.2C191.3 174 191.3 173.7 191.7 173.5C192 173.3 192.6 173.3 193 173.5L201 178.1Z" fill="#B9B9C2"/>
<path d="M183.4 179.5C183.8 179.7 183.8 180 183.4 180.2C183 180.4 182.5 180.4 182.1 180.2L176.1 176.7C175.7 176.5 175.7 176.2 176.1 176C176.5 175.8 177 175.8 177.4 176L183.4 179.5Z" fill="#B9B9C2"/>
<path d="M188.4 176.6C188.8 176.8 188.8 177.1 188.4 177.3C188 177.5 187.5 177.5 187.1 177.3L181.1 173.8C180.7 173.6 180.7 173.3 181.1 173.1C181.4 172.9 182 172.9 182.4 173.1L188.4 176.6Z" fill="#B9B9C2"/>
<path d="M192.1 175.9C192.5 176.1 192.5 176.4 192.1 176.6C191.8 176.8 191.2 176.8 190.8 176.6L185.5 173.6C185.1 173.4 185.1 173.1 185.5 172.9C185.9 172.7 186.4 172.7 186.8 172.9L192.1 175.9Z" fill="#B9B9C2"/>
<path d="M200.4 180.7C200.8 180.9 200.8 181.2 200.4 181.4C200.1 181.6 199.5 181.6 199.1 181.4L193.1 177.9C192.7 177.7 192.7 177.4 193.1 177.2C193.5 177 194 177 194.4 177.2L200.4 180.7Z" fill="#B9B9C2"/>
<path d="M206.1 178.2C206.5 178.4 206.5 178.7 206.1 178.9C205.7 179.1 205.2 179.1 204.8 178.9L198.8 175.4C198.4 175.2 198.4 174.9 198.8 174.7C199.2 174.5 199.7 174.5 200.1 174.7L206.1 178.2Z" fill="#B9B9C2"/>
<path d="M190.8 172.2C191.2 172.4 191.2 172.7 190.8 172.9C190.4 173.1 189.9 173.1 189.5 172.9L188.1 172.1C187.7 171.9 187.7 171.6 188.1 171.4C188.4 171.2 189 171.2 189.4 171.4L190.8 172.2Z" fill="#B9B9C2"/>
<path d="M197.8 173.4C198.2 173.6 198.2 173.9 197.8 174.1C197.4 174.3 196.9 174.3 196.5 174.1L190.5 170.6C190.1 170.4 190.1 170.1 190.5 169.9C190.9 169.7 191.4 169.7 191.8 169.9L197.8 173.4Z" fill="#B9B9C2"/>
<path d="M211.8 187.2C212.2 187.4 212.2 187.7 211.8 187.9C211.5 188.1 210.9 188.1 210.5 187.9L201.4 182.6C201 182.4 201 182.1 201.4 181.9C201.8 181.7 202.3 181.7 202.7 181.9L211.8 187.2Z" fill="#B9B9C2"/>
<path d="M209.3 182.9C209.7 183.1 209.7 183.4 209.3 183.6C208.9 183.8 208.4 183.8 208 183.6L202 180.1C201.6 179.9 201.6 179.6 202 179.4C202.4 179.2 202.9 179.2 203.3 179.4L209.3 182.9Z" fill="#B9B9C2"/>
<path d="M209.8 180.3C210.2 180.5 210.2 180.8 209.8 181C209.4 181.2 208.9 181.2 208.5 181L207.1 180.2C206.7 180 206.7 179.7 207.1 179.5C207.5 179.3 208 179.3 208.4 179.5L209.8 180.3Z" fill="#B9B9C2"/>
<path d="M184.3 168.4C184.7 168.6 184.7 168.9 184.3 169.1C183.9 169.3 183.4 169.3 183 169.1C182.6 168.9 182.6 168.6 183 168.4C183.3 168.2 183.9 168.2 184.3 168.4Z" fill="#B9B9C2"/>
<path d="M182.061 170.273C182.062 169.997 181.66 169.771 181.163 169.77C180.666 169.769 180.262 169.991 180.261 170.267C180.261 170.544 180.663 170.769 181.16 170.77C181.657 170.771 182.061 170.549 182.061 170.273Z" fill="#B9B9C2"/>
<path d="M179.55 171.736C179.551 171.46 179.148 171.235 178.651 171.234C178.154 171.232 177.751 171.455 177.75 171.731C177.749 172.007 178.151 172.232 178.648 172.234C179.145 172.235 179.549 172.013 179.55 171.736Z" fill="#B9B9C2"/>
<path d="M192.038 164.452C192.039 164.176 191.636 163.951 191.139 163.949C190.642 163.948 190.239 164.171 190.238 164.447C190.237 164.723 190.639 164.948 191.136 164.949C191.633 164.951 192.037 164.728 192.038 164.452Z" fill="#B9B9C2"/>
<path d="M189.2 165.5C189.6 165.7 189.6 166 189.2 166.2C188.9 166.4 188.3 166.4 187.9 166.2C187.5 166 187.5 165.7 187.9 165.5C188.3 165.3 188.9 165.3 189.2 165.5Z" fill="#B9B9C2"/>
<path d="M203.3 167.9C203.7 168.1 203.7 168.4 203.3 168.6C203 168.8 202.4 168.8 202 168.6L196 165.1C195.6 164.9 195.6 164.6 196 164.4C196.4 164.2 196.9 164.2 197.3 164.4L203.3 167.9Z" fill="#B9B9C2"/>
<path d="M208.3 165C208.7 165.2 208.7 165.5 208.3 165.7C207.9 165.9 207.4 165.9 207 165.7L201 162.2C200.6 162 200.6 161.7 201 161.5C201.3 161.3 201.9 161.3 202.3 161.5L208.3 165Z" fill="#B9B9C2"/>
<path d="M242.3 187.5C242.7 187.7 242.7 188 242.3 188.2C241.9 188.4 241.4 188.4 241 188.2L229.2 181.4C228.8 181.2 228.8 180.9 229.2 180.7C229.6 180.5 230.1 180.5 230.5 180.7L242.3 187.5Z" fill="#B9B9C2"/>
<path d="M228.2 179.3C228.6 179.5 228.6 179.8 228.2 180C227.8 180.2 227.3 180.2 226.9 180L215.1 173.2C214.7 173 214.7 172.7 215.1 172.5C215.5 172.3 216 172.3 216.4 172.5L228.2 179.3Z" fill="#B9B9C2"/>
<path d="M214.1 171.2C214.5 171.4 214.5 171.7 214.1 171.9C213.7 172.1 213.2 172.1 212.8 171.9L198.5 163.7C198.1 163.5 198.1 163.2 198.5 163C198.9 162.8 199.4 162.8 199.8 163L214.1 171.2Z" fill="#B9B9C2"/>
<path d="M198.3 170.8C198.7 171 198.7 171.3 198.3 171.5C197.9 171.7 197.4 171.7 197 171.5L191 168C190.6 167.8 190.6 167.5 191 167.3C191.4 167.1 191.9 167.1 192.3 167.3L198.3 170.8Z" fill="#B9B9C2"/>
<path d="M197.021 161.54C197.022 161.264 196.619 161.039 196.122 161.038C195.625 161.036 195.222 161.259 195.221 161.535C195.22 161.811 195.622 162.036 196.119 162.038C196.616 162.039 197.02 161.816 197.021 161.54Z" fill="#B9B9C2"/>
<path d="M199.2 159.7C199.6 159.9 199.6 160.2 199.2 160.4C198.8 160.6 198.3 160.6 197.9 160.4C197.5 160.2 197.5 159.9 197.9 159.7C198.3 159.5 198.9 159.5 199.2 159.7Z" fill="#B9B9C2"/>
<path d="M216.6 169.8C217 170 217 170.3 216.6 170.5C216.2 170.7 215.7 170.7 215.3 170.5L209.3 167C208.9 166.8 208.9 166.5 209.3 166.3C209.6 166.1 210.2 166.1 210.6 166.3L216.6 169.8Z" fill="#B9B9C2"/>
<path d="M220.3 171.9C220.7 172.1 220.7 172.4 220.3 172.6C219.9 172.8 219.4 172.8 219 172.6L217.6 171.8C217.2 171.6 217.2 171.3 217.6 171.1C217.9 170.9 218.5 170.9 218.9 171.1L220.3 171.9Z" fill="#B9B9C2"/>
<path d="M201.7 158.3C202.1 158.5 202.1 158.8 201.7 159C201.4 159.2 200.8 159.2 200.4 159C200 158.8 200 158.5 200.4 158.3C200.8 158.1 201.3 158.1 201.7 158.3Z" fill="#B9B9C2"/>
<path d="M210.8 163.5C211.2 163.7 211.2 164 210.8 164.2C210.5 164.4 209.9 164.4 209.5 164.2L203.5 160.7C203.1 160.5 203.1 160.2 203.5 160C203.9 159.8 204.4 159.8 204.8 160L210.8 163.5Z" fill="#B9B9C2"/>
<path d="M194.2 162.6C194.6 162.8 194.6 163.1 194.2 163.3C193.8 163.5 193.3 163.5 192.9 163.3C192.5 163.1 192.5 162.8 192.9 162.6C193.3 162.4 193.9 162.4 194.2 162.6Z" fill="#B9B9C2"/>
<path d="M176.8 172.8C177.2 173 177.2 173.3 176.8 173.5C176.4 173.7 175.9 173.7 175.5 173.5C175.1 173.3 175.1 173 175.5 172.8C175.9 172.6 176.4 172.6 176.8 172.8Z" fill="#B9B9C2"/>
<path d="M171.8 175.7C172.2 175.9 172.2 176.2 171.8 176.4C171.5 176.6 170.9 176.6 170.5 176.4C170.1 176.2 170.1 175.9 170.5 175.7C170.9 175.5 171.4 175.5 171.8 175.7Z" fill="#B9B9C2"/>
<path d="M174.567 174.548C174.568 174.272 174.166 174.047 173.669 174.046C173.172 174.044 172.768 174.267 172.767 174.543C172.766 174.819 173.169 175.044 173.666 175.046C174.163 175.047 174.566 174.824 174.567 174.548Z" fill="#B9B9C2"/>
<path d="M180.3 180.6C180.7 180.8 180.7 181.1 180.3 181.3C180 181.5 179.4 181.5 179 181.3L175.6 179.3C175.2 179.1 175.2 178.8 175.6 178.6C176 178.4 176.5 178.4 176.9 178.6L180.3 180.6Z" fill="#B9B9C2"/>
<path d="M195.1 189.1C195.5 189.3 195.5 189.6 195.1 189.8C194.8 190 194.2 190 193.8 189.8L192.4 189C192 188.8 192 188.5 192.4 188.3C192.8 188.1 193.3 188.1 193.7 188.3L195.1 189.1Z" fill="#B9B9C2"/>
<path d="M186.8 187.2C187.2 187.4 187.2 187.7 186.8 187.9C186.4 188.1 185.9 188.1 185.5 187.9L175.1 181.9C174.7 181.7 174.7 181.4 175.1 181.2C175.4 181 176 181 176.4 181.2L186.8 187.2Z" fill="#B9B9C2"/>
<path d="M191.4 187C191.8 187.2 191.8 187.5 191.4 187.7C191.1 187.9 190.5 187.9 190.1 187.7L181.3 182.6C180.9 182.4 180.9 182.1 181.3 181.9C181.7 181.7 182.2 181.7 182.6 181.9L191.4 187Z" fill="#B9B9C2"/>
<path d="M170 191.9C170.4 192.1 170.4 192.4 170 192.6C169.6 192.8 169.1 192.8 168.7 192.6L162.7 189.1C162.3 188.9 162.3 188.6 162.7 188.4C163.1 188.2 163.6 188.2 164 188.4L170 191.9Z" fill="#B9B9C2"/>
<path d="M169.7 188.9C170.1 189.1 170.1 189.4 169.7 189.6C169.3 189.8 168.8 189.8 168.4 189.6L165.2 187.7C164.8 187.5 164.8 187.2 165.2 187C165.5 186.8 166.1 186.8 166.5 187L169.7 188.9Z" fill="#B9B9C2"/>
<path d="M170.3 186.4C170.7 186.6 170.7 186.9 170.3 187.1C170 187.3 169.4 187.3 169 187.1L165.6 185.1C165.2 184.9 165.2 184.6 165.6 184.4C166 184.2 166.5 184.2 166.9 184.4L170.3 186.4Z" fill="#B9B9C2"/>
<path d="M178.3 188C178.7 188.2 178.7 188.5 178.3 188.7C177.9 188.9 177.4 188.9 177 188.7L168.2 183.6C167.8 183.4 167.8 183.1 168.2 182.9C168.6 182.7 169.1 182.7 169.5 182.9L178.3 188Z" fill="#B9B9C2"/>
<path d="M188.8 191.2C189.2 191.4 189.2 191.7 188.8 191.9C188.4 192.1 187.9 192.1 187.5 191.9L178.9 187C178.5 186.8 178.5 186.5 178.9 186.3C179.3 186.1 179.8 186.1 180.2 186.3L188.8 191.2Z" fill="#B9B9C2"/>
<path d="M196.2 192.6C196.6 192.8 196.6 193.1 196.2 193.3C195.8 193.5 195.3 193.5 194.9 193.3L187.8 189.2C187.4 189 187.4 188.7 187.8 188.5C188.1 188.3 188.7 188.3 189.1 188.5L196.2 192.6Z" fill="#B9B9C2"/>
<path d="M186.5 192.8C186.9 193 186.9 193.3 186.5 193.5C186.1 193.7 185.6 193.7 185.2 193.5L179.2 190C178.8 189.8 178.8 189.5 179.2 189.3C179.6 189.1 180.1 189.1 180.5 189.3L186.5 192.8Z" fill="#B9B9C2"/>
<path d="M181.4 192.8C181.8 193 181.8 193.3 181.4 193.5C181.1 193.7 180.5 193.7 180.1 193.5L171.3 188.4C170.9 188.2 170.9 187.9 171.3 187.7C171.7 187.5 172.2 187.5 172.6 187.7L181.4 192.8Z" fill="#B9B9C2"/>
<path d="M178.1 193.7C178.5 193.9 178.5 194.2 178.1 194.4C177.7 194.6 177.2 194.6 176.8 194.4L170.8 190.9C170.4 190.7 170.4 190.4 170.8 190.2C171.1 190 171.7 190 172.1 190.2L178.1 193.7Z" fill="#B9B9C2"/>
<path d="M168.3 193.8C168.7 194 168.7 194.3 168.3 194.5C167.9 194.7 167.4 194.7 167 194.5L158.2 189.4C157.8 189.2 157.8 188.9 158.2 188.7C158.6 188.5 159.1 188.5 159.5 188.7L168.3 193.8Z" fill="#B9B9C2"/>
<path d="M195 194.8C195.4 195 195.4 195.3 195 195.5C194.6 195.7 194.1 195.7 193.7 195.5L189.7 193.2C189.3 193 189.3 192.7 189.7 192.5C190.1 192.3 190.6 192.3 191 192.5L195 194.8Z" fill="#B9B9C2"/>
<path d="M185.1 194.9C185.5 195.1 185.5 195.4 185.1 195.6C184.8 195.8 184.2 195.8 183.8 195.6L182.4 194.8C182 194.6 182 194.3 182.4 194.1C182.8 193.9 183.3 193.9 183.7 194.1L185.1 194.9Z" fill="#B9B9C2"/>
<path d="M203.2 196.7C203.6 196.9 203.6 197.2 203.2 197.4C202.8 197.6 202.3 197.6 201.9 197.4L197.1 194.7C196.7 194.5 196.7 194.2 197.1 194C197.4 193.8 198 193.8 198.4 194L203.2 196.7Z" fill="#B9B9C2"/>
<path d="M178.8 197C179.2 197.2 179.2 197.5 178.8 197.7C178.4 197.9 177.9 197.9 177.5 197.7L171 194C170.6 193.8 170.6 193.5 171 193.3C171.4 193.1 171.9 193.1 172.3 193.3L178.8 197Z" fill="#B9B9C2"/>
<path d="M190.8 198.2C191.2 198.4 191.2 198.7 190.8 198.9C190.5 199.1 189.9 199.1 189.5 198.9L186.1 196.9C185.7 196.7 185.7 196.4 186.1 196.2C186.5 196 187 196 187.4 196.2L190.8 198.2Z" fill="#B9B9C2"/>
<path d="M176.5 198.6C176.9 198.8 176.9 199.1 176.5 199.3C176.1 199.5 175.6 199.5 175.2 199.3L169.2 195.8C168.8 195.6 168.8 195.3 169.2 195.1C169.6 194.9 170.1 194.9 170.5 195.1L176.5 198.6Z" fill="#B9B9C2"/>
<path d="M186.8 198.8C187.2 199 187.2 199.3 186.8 199.5C186.4 199.7 185.9 199.7 185.5 199.5L179.1 195.8C178.7 195.6 178.7 195.3 179.1 195.1C179.4 194.9 180 194.9 180.4 195.1L186.8 198.8Z" fill="#B9B9C2"/>
<path d="M197.9 199.4C198.3 199.6 198.3 199.9 197.9 200.1C197.5 200.3 197 200.3 196.6 200.1L187.7 195C187.3 194.8 187.3 194.5 187.7 194.3C188.1 194.1 188.6 194.1 189 194.3L197.9 199.4Z" fill="#B9B9C2"/>
<path d="M192.3 202C192.7 202.2 192.7 202.5 192.3 202.7C191.9 202.9 191.4 202.9 191 202.7L187.8 200.8C187.4 200.6 187.4 200.3 187.8 200.1C188.1 199.9 188.7 199.9 189.1 200.1L192.3 202Z" fill="#B9B9C2"/>
<path d="M187.7 202.1C188.1 202.3 188.1 202.6 187.7 202.8C187.3 203 186.8 203 186.4 202.8L179.8 199C179.4 198.8 179.4 198.5 179.8 198.3C180.2 198.1 180.7 198.1 181.1 198.3L187.7 202.1Z" fill="#B9B9C2"/>
<path d="M215.9 204C216.3 204.2 216.3 204.5 215.9 204.7C215.5 204.9 215 204.9 214.6 204.7L204.2 198.7C203.8 198.5 203.8 198.2 204.2 198C204.5 197.8 205.1 197.8 205.5 198L215.9 204Z" fill="#B9B9C2"/>
<path d="M187.9 205.2C188.3 205.4 188.3 205.7 187.9 205.9C187.5 206.1 187 206.1 186.6 205.9L177.7 200.8C177.3 200.6 177.3 200.3 177.7 200.1C178.1 199.9 178.6 199.9 179 200.1L187.9 205.2Z" fill="#B9B9C2"/>
<path d="M195.2 206.5C195.6 206.7 195.6 207 195.2 207.2C194.8 207.4 194.3 207.4 193.9 207.2L188.8 204.2C188.4 204 188.4 203.7 188.8 203.5C189.2 203.3 189.7 203.3 190.1 203.5L195.2 206.5Z" fill="#B9B9C2"/>
<path d="M200.8 192.4C201.2 192.6 201.2 192.9 200.8 193.1C200.5 193.3 199.9 193.3 199.5 193.1L196.1 191.1C195.7 190.9 195.7 190.6 196.1 190.4C196.5 190.2 197 190.2 197.4 190.4L200.8 192.4Z" fill="#B9B9C2"/>
<path d="M162.069 181.83C162.07 181.554 161.668 181.329 161.171 181.327C160.674 181.326 160.27 181.548 160.269 181.825C160.268 182.101 160.671 182.326 161.168 182.327C161.665 182.329 162.068 182.106 162.069 181.83Z" fill="#B9B9C2"/>
<path d="M164.3 180C164.7 180.2 164.7 180.5 164.3 180.7C163.9 180.9 163.4 180.9 163 180.7C162.6 180.5 162.6 180.2 163 180C163.4 179.8 164 179.8 164.3 180Z" fill="#B9B9C2"/>
<path d="M167.052 178.918C167.053 178.642 166.651 178.417 166.154 178.416C165.657 178.414 165.253 178.637 165.252 178.913C165.252 179.189 165.654 179.414 166.151 179.416C166.648 179.417 167.052 179.194 167.052 178.918Z" fill="#B9B9C2"/>
<path d="M169.3 177.1C169.7 177.3 169.7 177.6 169.3 177.8C168.9 178 168.4 178 168 177.8C167.6 177.6 167.6 177.3 168 177.1C168.4 176.9 169 176.9 169.3 177.1Z" fill="#B9B9C2"/>
<path d="M177.9 185C178.3 185.2 178.3 185.5 177.9 185.7C177.5 185.9 177 185.9 176.6 185.7L172.6 183.4C172.2 183.2 172.2 182.9 172.6 182.7C173 182.5 173.5 182.5 173.9 182.7L177.9 185Z" fill="#B9B9C2"/>
<path d="M124.686 203.578C124.687 203.302 124.284 203.077 123.787 203.075C123.29 203.074 122.887 203.297 122.886 203.573C122.885 203.849 123.287 204.074 123.784 204.075C124.282 204.077 124.685 203.854 124.686 203.578Z" fill="#B9B9C2"/>
<path d="M127 201.7C127.4 201.9 127.4 202.2 127 202.4C126.6 202.6 126.1 202.6 125.7 202.4C125.3 202.2 125.3 201.9 125.7 201.7C126 201.5 126.6 201.5 127 201.7Z" fill="#B9B9C2"/>
<path d="M129.669 200.666C129.67 200.39 129.268 200.165 128.771 200.164C128.273 200.162 127.87 200.385 127.869 200.661C127.868 200.937 128.271 201.162 128.768 201.164C129.265 201.165 129.668 200.942 129.669 200.666Z" fill="#B9B9C2"/>
<path d="M131.9 198.8C132.3 199 132.3 199.3 131.9 199.5C131.6 199.7 131 199.7 130.6 199.5C130.2 199.3 130.2 199 130.6 198.8C131 198.6 131.6 198.6 131.9 198.8Z" fill="#B9B9C2"/>
<path d="M134.4 197.4C134.8 197.6 134.8 197.9 134.4 198.1C134 198.3 133.5 198.3 133.1 198.1C132.7 197.9 132.7 197.6 133.1 197.4C133.5 197.2 134.1 197.2 134.4 197.4Z" fill="#B9B9C2"/>
<path d="M137.184 196.296C137.185 196.02 136.782 195.795 136.285 195.794C135.788 195.792 135.385 196.015 135.384 196.291C135.383 196.567 135.785 196.792 136.282 196.794C136.779 196.795 137.183 196.572 137.184 196.296Z" fill="#B9B9C2"/>
<path d="M139.705 194.835C139.706 194.559 139.304 194.334 138.807 194.333C138.31 194.331 137.906 194.554 137.905 194.83C137.905 195.106 138.307 195.331 138.804 195.333C139.301 195.334 139.705 195.111 139.705 194.835Z" fill="#B9B9C2"/>
<path d="M142.167 193.385C142.168 193.108 141.765 192.883 141.268 192.882C140.771 192.881 140.368 193.103 140.367 193.379C140.366 193.656 140.768 193.881 141.266 193.882C141.763 193.883 142.166 193.661 142.167 193.385Z" fill="#B9B9C2"/>
<path d="M144.699 191.926C144.699 191.65 144.297 191.425 143.8 191.424C143.303 191.422 142.899 191.645 142.899 191.921C142.898 192.197 143.3 192.422 143.797 192.424C144.294 192.425 144.698 192.202 144.699 191.926Z" fill="#B9B9C2"/>
<path d="M146.9 190.1C147.3 190.3 147.3 190.6 146.9 190.8C146.5 191 146 191 145.6 190.8C145.2 190.6 145.2 190.3 145.6 190.1C146 189.9 146.5 189.9 146.9 190.1Z" fill="#B9B9C2"/>
<path d="M149.681 189.115C149.682 188.838 149.28 188.613 148.783 188.612C148.286 188.611 147.882 188.833 147.881 189.109C147.881 189.386 148.283 189.611 148.78 189.612C149.277 189.613 149.681 189.391 149.681 189.115Z" fill="#B9B9C2"/>
<path d="M151.9 187.2C152.3 187.4 152.3 187.7 151.9 187.9C151.6 188.1 151 188.1 150.6 187.9C150.2 187.7 150.2 187.4 150.6 187.2C150.9 187 151.5 187 151.9 187.2Z" fill="#B9B9C2"/>
<path d="M154.654 186.2C154.655 185.924 154.253 185.699 153.756 185.698C153.259 185.696 152.855 185.919 152.854 186.195C152.854 186.471 153.256 186.696 153.753 186.698C154.25 186.699 154.654 186.476 154.654 186.2Z" fill="#B9B9C2"/>
<path d="M156.9 184.4C157.3 184.6 157.3 184.9 156.9 185.1C156.5 185.3 156 185.3 155.6 185.1C155.2 184.9 155.2 184.6 155.6 184.4C155.9 184.1 156.5 184.1 156.9 184.4Z" fill="#B9B9C2"/>
<path d="M159.638 183.288C159.638 183.012 159.236 182.787 158.739 182.786C158.242 182.784 157.838 183.007 157.838 183.283C157.837 183.559 158.239 183.784 158.736 183.786C159.233 183.787 159.637 183.565 159.638 183.288Z" fill="#B9B9C2"/>
<path d="M161 192.5C161.4 192.7 161.4 193 161 193.2C160.7 193.4 160.1 193.4 159.7 193.2L153.7 189.7C153.3 189.5 153.3 189.2 153.7 189C154.1 188.8 154.6 188.8 155 189L161 192.5Z" fill="#B9B9C2"/>
<path d="M158.7 202.7C159.1 202.9 159.1 203.2 158.7 203.4C158.3 203.6 157.8 203.6 157.4 203.4L149.4 198.8C149 198.6 149 198.3 149.4 198.1C149.8 197.9 150.3 197.9 150.7 198.1L158.7 202.7Z" fill="#B9B9C2"/>
<path d="M163.8 202.8C164.2 203 164.2 203.3 163.8 203.5C163.4 203.7 162.9 203.7 162.5 203.5L156.5 200C156.1 199.8 156.1 199.5 156.5 199.3C156.9 199.1 157.4 199.1 157.8 199.3L163.8 202.8Z" fill="#B9B9C2"/>
<path d="M167.5 204.9C167.9 205.1 167.9 205.4 167.5 205.6C167.1 205.8 166.6 205.8 166.2 205.6L164.8 204.8C164.4 204.6 164.4 204.3 164.8 204.1C165.2 203.9 165.7 203.9 166.1 204.1L167.5 204.9Z" fill="#B9B9C2"/>
<path d="M158.1 205.3C158.5 205.5 158.5 205.8 158.1 206C157.7 206.2 157.2 206.2 156.8 206L150.8 202.5C150.4 202.3 150.4 202 150.8 201.8C151.2 201.6 151.7 201.6 152.1 201.8L158.1 205.3Z" fill="#B9B9C2"/>
<path d="M166.9 207.5C167.3 207.7 167.3 208 166.9 208.2C166.5 208.4 166 208.4 165.6 208.2L159.6 204.7C159.2 204.5 159.2 204.2 159.6 204C160 203.8 160.5 203.8 160.9 204L166.9 207.5Z" fill="#B9B9C2"/>
<path d="M169.4 211.8C169.8 212 169.8 212.3 169.4 212.5C169 212.7 168.5 212.7 168.1 212.5L159 207.2C158.6 207 158.6 206.7 159 206.5C159.3 206.3 159.9 206.3 160.3 206.5L169.4 211.8Z" fill="#B9B9C2"/>
<path d="M156 195.4C156.4 195.6 156.4 195.9 156 196.1C155.6 196.3 155.1 196.3 154.7 196.1L148.7 192.6C148.3 192.4 148.3 192.1 148.7 191.9C149.1 191.7 149.6 191.7 150 191.9L156 195.4Z" fill="#B9B9C2"/>
<path d="M148.4 196.8C148.8 197 148.8 197.3 148.4 197.5C148 197.7 147.5 197.7 147.1 197.5L145.7 196.7C145.3 196.5 145.3 196.2 145.7 196C146.1 195.8 146.6 195.8 147 196L148.4 196.8Z" fill="#B9B9C2"/>
<path d="M155.5 198C155.9 198.2 155.9 198.5 155.5 198.7C155.1 198.9 154.6 198.9 154.2 198.7L148.2 195.2C147.8 195 147.8 194.7 148.2 194.5C148.6 194.3 149.1 194.3 149.5 194.5L155.5 198Z" fill="#B9B9C2"/>
<path d="M149.8 200.5C150.2 200.7 150.2 201 149.8 201.2C149.4 201.4 148.9 201.4 148.5 201.2L143.2 198.2C142.8 198 142.8 197.7 143.2 197.5C143.6 197.3 144.1 197.3 144.5 197.5L149.8 200.5Z" fill="#B9B9C2"/>
<path d="M146 201.2C146.4 201.4 146.4 201.7 146 201.9C145.6 202.1 145.1 202.1 144.7 201.9L138.7 198.4C138.3 198.2 138.3 197.9 138.7 197.7C139.1 197.5 139.6 197.5 140 197.7L146 201.2Z" fill="#B9B9C2"/>
<path d="M173.6 228.6C174 228.8 174 229.1 173.6 229.3C173.2 229.5 172.7 229.5 172.3 229.3L161.9 223.3C161.5 223.1 161.5 222.8 161.9 222.6C162.3 222.4 162.8 222.4 163.2 222.6L173.6 228.6Z" fill="#B9B9C2"/>
<path d="M160.9 221.3C161.3 221.5 161.3 221.8 160.9 222C160.5 222.2 160 222.2 159.6 222L154.8 219.3C154.4 219.1 154.4 218.8 154.8 218.6C155.2 218.4 155.7 218.4 156.1 218.6L160.9 221.3Z" fill="#B9B9C2"/>
<path d="M144.5 211.8C144.9 212 144.9 212.3 144.5 212.5C144.1 212.7 143.6 212.7 143.2 212.5L132.8 206.5C132.4 206.3 132.4 206 132.8 205.8C133.2 205.6 133.7 205.6 134.1 205.8L144.5 211.8Z" fill="#B9B9C2"/>
<path d="M152.8 213.7C153.2 213.9 153.2 214.2 152.8 214.4C152.4 214.6 151.9 214.6 151.5 214.4L150.1 213.6C149.7 213.4 149.7 213.1 150.1 212.9C150.4 212.7 151 212.7 151.4 212.9L152.8 213.7Z" fill="#B9B9C2"/>
<path d="M158.4 217C158.8 217.2 158.8 217.5 158.4 217.7C158 217.9 157.5 217.9 157.1 217.7L153.7 215.7C153.3 215.5 153.3 215.2 153.7 215C154 214.8 154.6 214.8 155 215L158.4 217Z" fill="#B9B9C2"/>
<path d="M153.8 217.2C154.2 217.4 154.2 217.7 153.8 217.9C153.4 218.1 152.9 218.1 152.5 217.9L145.4 213.8C145 213.6 145 213.3 145.4 213.1C145.8 212.9 146.3 212.9 146.7 213.1L153.8 217.2Z" fill="#B9B9C2"/>
<path d="M138 205.2C138.4 205.4 138.4 205.7 138 205.9C137.6 206.1 137.1 206.1 136.7 205.9L133.3 203.9C132.9 203.7 132.9 203.4 133.3 203.2C133.6 203 134.2 203 134.6 203.2L138 205.2Z" fill="#B9B9C2"/>
<path d="M141 204.1C141.4 204.3 141.4 204.6 141 204.8C140.7 205 140.1 205 139.7 204.8L133.7 201.3C133.3 201.1 133.3 200.8 133.7 200.6C134.1 200.4 134.6 200.4 135 200.6L141 204.1Z" fill="#B9B9C2"/>
<path d="M149.1 211.6C149.5 211.8 149.5 212.1 149.1 212.3C148.7 212.5 148.2 212.5 147.8 212.3L139 207.2C138.6 207 138.6 206.7 139 206.5C139.3 206.3 139.9 206.3 140.3 206.5L149.1 211.6Z" fill="#B9B9C2"/>
<path d="M135.6 209.6C136 209.8 136 210.1 135.6 210.3C135.2 210.5 134.7 210.5 134.3 210.3L130.3 208C129.9 207.8 129.9 207.5 130.3 207.3C130.7 207.1 131.2 207.1 131.6 207.3L135.6 209.6Z" fill="#B9B9C2"/>
<path d="M146.4 215.8C146.8 216 146.8 216.3 146.4 216.5C146 216.7 145.5 216.7 145.1 216.5L136.5 211.6C136.1 211.4 136.1 211.1 136.5 210.9C136.9 210.7 137.4 210.7 137.8 210.9L146.4 215.8Z" fill="#B9B9C2"/>
<path d="M152.7 219.5C153.1 219.7 153.1 220 152.7 220.2C152.3 220.4 151.8 220.4 151.4 220.2L147.4 217.9C147 217.7 147 217.4 147.4 217.2C147.8 217 148.3 217 148.7 217.2L152.7 219.5Z" fill="#B9B9C2"/>
<path d="M267.448 91.0659L267.445 91.0639C265.398 89.916 254.803 83.7937 244.2 77.6671L244.185 77.6584C233.599 71.5415 223.01 65.4226 220.948 64.266C218.046 62.5718 215.379 59.5984 213.436 56.1424C211.492 52.686 210.3 48.7949 210.3 45.3C210.3 41.6123 211.655 38.9136 213.852 37.6319L213.852 37.6319L213.855 37.6299L217.055 35.7299L217.055 35.7299L217.057 35.7287C217.977 35.1768 218.988 34.9 220.1 34.9C221.595 34.9 223.208 35.3673 224.846 36.331L224.861 36.3396L224.876 36.3472C224.955 36.3867 225.062 36.4502 225.193 36.5287L225.203 36.5351C225.32 36.6053 225.459 36.6885 225.576 36.7472L226.04 36.9793L226.255 36.5069C227.212 34.4028 228.741 32.7784 230.458 31.7283L233.654 29.831C233.654 29.8308 233.654 29.8306 233.654 29.8304C235.262 28.8851 236.97 28.5 239 28.5C241.789 28.5 244.904 29.4634 248.053 31.2349C256.123 35.8613 263.35 45.6444 266.219 55.7367L266.309 56.0523L266.634 56.0956C268.053 56.2848 269.591 56.8563 271.152 57.7339C274.653 59.7777 277.87 63.3757 280.214 67.557C282.557 71.7384 284 76.4547 284 80.7C284 85.1923 282.442 88.3921 279.843 89.9714C279.842 89.9718 279.841 89.9722 279.841 89.9726L276.645 91.8701L276.629 91.8796L276.613 91.8904C275.724 92.5128 274.536 92.8 273.2 92.8C271.408 92.8 269.493 92.2343 267.448 91.0659Z" fill="#43435C" stroke="#43435C"/>
<path d="M224.6 36.9C221.8 35.3 219.3 35.2 217.4 36.2L214.2 38.1C216.1 37 218.6 37.1 221.4 38.8C222.9 39.6 224.2 40.8 225.5 42.2L228.7 40.3C227.4 38.9 226 37.7 224.6 36.9Z" fill="#D0D0D6"/>
<path d="M271.1 58.4C269.3 57.4 267.6 56.8 266.1 56.8C263.5 46.9 256.3 36.7 248 31.9C242.6 28.8 237.7 28.5 234.1 30.5L230.9 32.4C234.4 30.4 278.9 90.1 276.5 91.5L279.7 89.6C282.1 88.2 283.6 85.2 283.6 80.9C283.6 72.4 278 62.4 271.1 58.4Z" fill="#D0D0D6"/>
<path d="M273.2 92C271.5 92 269.8 91.5 267.9 90.4L221.4 63.6C215.8 60.3 211.2 52.1 211.2 45.3C211.2 40.6 213.4 37.7 216.9 37.7C218.3 37.7 219.7 38.1 221.3 39C222.7 39.8 224.1 40.9 225.3 42.3L225.7 42.7L225.8 42.1C226.5 35.3 230.3 31.2 236 31.2C238.7 31.2 241.6 32.1 244.7 33.9C252.8 38.6 260 48.5 262.7 58.7V58.9H262.9C264.4 59 266.1 59.5 267.8 60.5C274.7 64.5 280.2 74.4 280.2 82.7C280.1 88.4 277.5 92 273.2 92Z" fill="white"/>
<path d="M235.9 31.5C238.5 31.5 241.5 32.4 244.4 34.1C252.4 38.7 259.6 48.6 262.3 58.7L262.4 59.1H262.8C264.3 59.2 265.9 59.7 267.6 60.7C274.4 64.6 279.9 74.5 279.9 82.7C279.9 88.3 277.3 91.8 273.2 91.8C271.6 91.8 269.8 91.3 268 90.2L238.3 73L221.5 63.3C215.9 60.1 211.4 52 211.4 45.3C211.4 40.8 213.5 37.9 216.8 37.9C218.1 37.9 219.5 38.3 221 39.2C222.4 40 223.7 41.1 225 42.5L225.8 43.3L225.9 42.2C226.6 35.5 230.3 31.5 235.9 31.5ZM235.9 31C230.2 31 226.1 35 225.4 42.1C224.1 40.7 222.8 39.5 221.3 38.7C219.7 37.8 218.2 37.3 216.8 37.3C213.3 37.3 210.9 40.2 210.9 45.2C210.9 52.1 215.5 60.4 221.2 63.7C225.2 66 263.6 88.2 267.7 90.5C269.6 91.6 271.5 92.2 273.1 92.2C277.3 92.2 280.3 88.7 280.3 82.6C280.3 74.2 274.7 64.2 267.8 60.2C266 59.2 264.3 58.6 262.8 58.6C260.2 48.7 253 38.5 244.7 33.7C241.5 31.9 238.6 31 235.9 31Z" fill="#8A8A99"/>
<path d="M237.3 55.1C237.4 55.4 237.5 55.7 237.6 56.1C237.6 56.2 237.7 56.3 237.7 56.4C237.7 56.5 237.6 56.6 237.5 56.6L236.9 56.7C236.8 56.7 236.7 56.7 236.7 56.7C236.6 56.6 236.5 56.5 236.4 56.4C236.3 56.2 236.1 55.9 236.1 55.7C236 55.5 235.9 55.2 235.8 54.9C235 55.5 234.1 55.4 233 54.8C232.2 54.3 231.5 53.7 231.1 52.9C230.6 52.1 230.4 51.3 230.4 50.4C230.4 49.5 230.7 48.9 231.3 48.6C231.9 48.4 232.7 48.5 233.7 49.1C234 49.3 234.4 49.5 234.7 49.8C235.1 50.1 235.4 50.4 235.8 50.7V49.9C235.8 49.1 235.7 48.4 235.4 47.9C235.1 47.4 234.6 46.9 233.8 46.5C233.5 46.3 233.1 46.1 232.8 46C232.4 45.9 232.1 45.8 231.8 45.8C231.6 45.8 231.5 45.8 231.5 45.8C231.4 45.8 231.4 45.8 231.3 45.7C231.2 45.6 231.1 45.5 231.1 45.2V44.7C231.1 44.5 231.1 44.4 231.2 44.3C231.2 44.3 231.3 44.2 231.5 44.2C231.8 44.2 232.2 44.3 232.7 44.4C233.2 44.5 233.7 44.8 234.2 45.1C235.3 45.8 236.2 46.5 236.7 47.4C237.2 48.3 237.5 49.4 237.5 50.6V54.2C237.2 54.4 237.2 54.8 237.3 55.1ZM235.6 52.2V51.7C235.3 51.5 235 51.2 234.7 51C234.4 50.8 234.1 50.6 233.8 50.4C233.2 50 232.7 49.9 232.4 50C232.1 50.1 231.9 50.4 231.9 51C231.9 51.5 232 52 232.3 52.4C232.5 52.8 232.9 53.1 233.3 53.4C233.6 53.6 233.9 53.7 234.3 53.8C234.6 53.9 235 53.8 235.2 53.6C235.3 53.5 235.5 53.3 235.5 53.1C235.6 52.9 235.6 52.6 235.6 52.2Z" fill="#43435C"/>
<path d="M255.9 70C256.9 70.6 257.6 71.2 257.8 71.6C258.1 72.3 257.7 75.5 256 76.1C255.9 76.1 255.8 76.1 255.7 76.1C255.6 76 255.5 75.8 255.6 75.7C256 74.8 256.9 72.9 256.4 72C256.2 71.6 255.7 71.2 255 70.8C254.2 70.3 253.2 69.9 252.7 69.7C252.7 69.7 252.7 69.7 252.6 69.7C252.3 69.6 252.3 69.3 252.6 69.2C253.6 69 254.9 69.4 255.9 70Z" fill="#43435C"/>
<path d="M229.3 55.3C229.4 55.3 229.4 55.4 229.5 55.5C233.6 60.6 238.6 65.1 243.8 68.1C247.3 70.1 251.2 71.5 254.7 71.8C254.8 71.8 254.9 71.8 254.9 71.9C255.3 72.1 255.5 72.8 255.1 72.9C251.9 73.8 247.3 72.5 243.4 70.2C237.9 67 232.9 61.8 229.1 55.7C228.9 55.4 229 55.2 229.3 55.3Z" fill="#43435C"/>
<path d="M256.3 63.6C256.6 64.2 256.7 64.8 256.7 65.4C256.7 65.9 256.6 66.3 256.4 66.5C256.2 66.8 256 67 255.7 67.1C255.4 67.2 255 67.2 254.6 67.1C254.2 67 253.7 66.8 253.2 66.5C252.7 66.2 252.2 65.9 251.7 65.4C251.2 65 250.8 64.6 250.6 64.3C250.4 64.1 250.3 63.9 250.3 63.8C250.3 63.7 250.2 63.6 250.2 63.5V62.9C250.2 62.7 250.3 62.6 250.4 62.7C250.5 62.7 250.5 62.8 250.6 62.8C250.7 62.9 250.7 62.9 250.8 63.1C251.1 63.4 251.5 63.8 251.9 64.1C252.3 64.4 252.7 64.7 253 64.9C253.6 65.2 254.1 65.4 254.4 65.3C254.7 65.2 254.9 65 254.9 64.5C254.9 64.2 254.8 63.9 254.6 63.6C254.4 63.3 254.1 62.9 253.6 62.5L252.2 61.2C251.5 60.5 251 59.9 250.7 59.2C250.4 58.5 250.2 57.9 250.2 57.3C250.2 56.8 250.3 56.5 250.5 56.2C250.7 55.9 250.9 55.8 251.2 55.7C251.5 55.6 251.8 55.6 252.2 55.7C252.6 55.8 253 56 253.4 56.2C253.6 56.3 253.8 56.5 254 56.6C254.2 56.8 254.4 56.9 254.6 57.1C254.8 57.3 255 57.4 255.1 57.6C255.3 57.8 255.4 57.9 255.5 58C255.6 58.2 255.7 58.3 255.8 58.4C255.9 58.5 255.9 58.7 255.9 58.8V59.3C255.9 59.5 255.8 59.6 255.7 59.5C255.6 59.5 255.5 59.3 255.3 59.2C254.8 58.6 254.1 58.1 253.5 57.7C252.9 57.4 252.5 57.2 252.2 57.3C251.9 57.3 251.7 57.6 251.7 58C251.7 58.3 251.8 58.6 252 58.9C252.2 59.2 252.5 59.6 253.1 60.1L254.5 61.4C255.5 62.3 256 63 256.3 63.6Z" fill="#43435C"/>
<path d="M248.6 53.7L249.5 54.2C249.7 54.3 249.7 54.4 249.7 54.6C249.7 54.7 249.7 54.7 249.7 54.8C249.7 54.9 249.7 54.9 249.6 55L247.3 62.2C247.2 62.4 247.2 62.5 247.1 62.5C247 62.5 246.9 62.5 246.7 62.4L245.9 61.9C245.7 61.8 245.6 61.7 245.5 61.6C245.4 61.5 245.4 61.3 245.3 61.1L243.8 53.1L242.3 59.4C242.2 59.6 242.2 59.7 242.1 59.7C242 59.7 241.9 59.7 241.7 59.6L240.9 59.1C240.7 59 240.6 58.9 240.5 58.8C240.4 58.7 240.4 58.5 240.3 58.3L238.1 48.4C238 48.1 238 48 238 47.9C238 47.7 238.1 47.7 238.2 47.8L239.1 48.3C239.3 48.4 239.4 48.5 239.5 48.6C239.6 48.7 239.6 48.9 239.7 49.1L241.3 57.4L243 51C243 50.8 243.1 50.7 243.2 50.7C243.3 50.7 243.4 50.7 243.6 50.8L244.4 51.2C244.6 51.3 244.7 51.4 244.8 51.5C244.9 51.6 244.9 51.8 245 52L246.5 60.3L248.2 53.8C248.3 53.6 248.3 53.5 248.4 53.5C248.3 53.6 248.4 53.6 248.6 53.7Z" fill="#43435C"/>
<path opacity="0.5" d="M162.3 141.3C164.3 142.5 164.3 144.4 162.3 145.5L90.8 186C88.8 187.2 85.5 187.2 83.5 186L51.6 167.6C49.6 166.4 49.6 164.5 51.6 163.4L123.1 122.9C125.1 121.7 128.4 121.7 130.4 122.9L162.3 141.3Z" fill="#D0D0D6"/>
<path d="M87.2 177.7C85.9 177.7 84.6 177.4 83.7 176.9L51.8 158.5C50.9 158 50.4 157.3 50.4 156.6C50.4 155.9 50.9 155.2 51.8 154.7L123.3 114.2C124.2 113.7 125.5 113.4 126.8 113.4C128.1 113.4 129.4 113.7 130.3 114.2L162.2 132.6C163.1 133.1 163.6 133.8 163.6 134.5C163.6 135.2 163.1 135.9 162.2 136.4L90.7 176.9C89.7 177.4 88.5 177.7 87.2 177.7Z" fill="white"/>
<mask id="path-254-inside-2" fill="white">
<path d="M126.7 113.5C128 113.5 129.2 113.8 130.1 114.3L162 132.7C162.8 133.2 163.3 133.8 163.3 134.4C163.3 135 162.9 135.6 162.1 136.1L90.6 176.6C89.7 177.1 88.5 177.4 87.2 177.4C85.9 177.4 84.7 177.1 83.8 176.6L51.9 158.2C51.1 157.7 50.6 157.1 50.6 156.5C50.6 155.9 51 155.3 51.8 154.8L123.3 114.3C124.2 113.8 125.5 113.5 126.7 113.5ZM126.7 113C125.4 113 124.1 113.3 123.1 113.9L51.6 154.4C49.6 155.6 49.6 157.5 51.6 158.6L83.5 177C84.5 177.6 85.8 177.9 87.2 177.9C88.5 177.9 89.8 177.6 90.8 177L162.3 136.5C164.3 135.3 164.3 133.4 162.3 132.3L130.4 113.9C129.4 113.3 128.1 113 126.7 113Z"/>
</mask>
<path d="M126.7 113.5C128 113.5 129.2 113.8 130.1 114.3L162 132.7C162.8 133.2 163.3 133.8 163.3 134.4C163.3 135 162.9 135.6 162.1 136.1L90.6 176.6C89.7 177.1 88.5 177.4 87.2 177.4C85.9 177.4 84.7 177.1 83.8 176.6L51.9 158.2C51.1 157.7 50.6 157.1 50.6 156.5C50.6 155.9 51 155.3 51.8 154.8L123.3 114.3C124.2 113.8 125.5 113.5 126.7 113.5ZM126.7 113C125.4 113 124.1 113.3 123.1 113.9L51.6 154.4C49.6 155.6 49.6 157.5 51.6 158.6L83.5 177C84.5 177.6 85.8 177.9 87.2 177.9C88.5 177.9 89.8 177.6 90.8 177L162.3 136.5C164.3 135.3 164.3 133.4 162.3 132.3L130.4 113.9C129.4 113.3 128.1 113 126.7 113Z" fill="#43435C"/>
<path d="M130.1 114.3L130.6 113.434L130.593 113.43L130.586 113.426L130.1 114.3ZM162 132.7L162.53 131.852L162.515 131.843L162.5 131.834L162 132.7ZM162.1 136.1L162.593 136.97L162.612 136.959L162.63 136.948L162.1 136.1ZM90.6 176.6L91.0857 177.474L91.0929 177.47L90.6 176.6ZM83.8 176.6L83.3004 177.466L83.3073 177.47L83.3144 177.474L83.8 176.6ZM51.9 158.2L51.37 159.048L51.385 159.057L51.4004 159.066L51.9 158.2ZM51.8 154.8L51.3071 153.93L51.2883 153.941L51.27 153.952L51.8 154.8ZM123.3 114.3L122.814 113.426L122.807 113.43L123.3 114.3ZM123.1 113.9L123.593 114.77L123.604 114.764L123.614 114.757L123.1 113.9ZM51.6 154.4L51.1071 153.53L51.0962 153.536L51.0855 153.543L51.6 154.4ZM51.6 158.6L52.0996 157.734L52.0908 157.729L52.0819 157.724L51.6 158.6ZM83.5 177L84.0145 176.143L84.0071 176.138L83.9996 176.134L83.5 177ZM90.8 177L90.3071 176.13L90.2962 176.136L90.2855 176.143L90.8 177ZM162.3 136.5L162.793 137.37L162.804 137.364L162.814 137.357L162.3 136.5ZM162.3 132.3L161.8 133.166L161.809 133.171L161.818 133.176L162.3 132.3ZM130.4 113.9L129.886 114.757L129.893 114.762L129.9 114.766L130.4 113.9ZM126.7 114.5C127.857 114.5 128.885 114.769 129.614 115.174L130.586 113.426C129.515 112.831 128.143 112.5 126.7 112.5V114.5ZM129.6 115.166L161.5 133.566L162.5 131.834L130.6 113.434L129.6 115.166ZM161.47 133.548C162.21 134.01 162.3 134.35 162.3 134.4H164.3C164.3 133.25 163.39 132.39 162.53 131.852L161.47 133.548ZM162.3 134.4C162.3 134.515 162.221 134.845 161.57 135.252L162.63 136.948C163.579 136.355 164.3 135.485 164.3 134.4H162.3ZM161.607 135.23L90.1071 175.73L91.0929 177.47L162.593 136.97L161.607 135.23ZM90.1144 175.726C89.3848 176.131 88.3569 176.4 87.2 176.4V178.4C88.6431 178.4 90.0152 178.069 91.0856 177.474L90.1144 175.726ZM87.2 176.4C86.0431 176.4 85.0152 176.131 84.2856 175.726L83.3144 177.474C84.3848 178.069 85.7569 178.4 87.2 178.4V176.4ZM84.2996 175.734L52.3996 157.334L51.4004 159.066L83.3004 177.466L84.2996 175.734ZM52.43 157.352C51.69 156.89 51.6 156.55 51.6 156.5H49.6C49.6 157.65 50.51 158.51 51.37 159.048L52.43 157.352ZM51.6 156.5C51.6 156.385 51.6791 156.055 52.33 155.648L51.27 153.952C50.3209 154.545 49.6 155.415 49.6 156.5H51.6ZM52.2929 155.67L123.793 115.17L122.807 113.43L51.3071 153.93L52.2929 155.67ZM123.786 115.174C124.51 114.772 125.636 114.5 126.7 114.5V112.5C125.364 112.5 123.89 112.828 122.814 113.426L123.786 115.174ZM126.7 112C125.263 112 123.775 112.329 122.586 113.043L123.614 114.757C124.425 114.271 125.537 114 126.7 114V112ZM122.607 113.03L51.1071 153.53L52.0929 155.27L123.593 114.77L122.607 113.03ZM51.0855 153.543C49.9066 154.25 49.1 155.301 49.1 156.538C49.1 157.786 49.9208 158.818 51.1181 159.476L52.0819 157.724C51.2792 157.282 51.1 156.814 51.1 156.538C51.1 156.249 51.2934 155.75 52.1145 155.257L51.0855 153.543ZM51.1004 159.466L83.0004 177.866L83.9996 176.134L52.0996 157.734L51.1004 159.466ZM82.9855 177.857C84.1795 178.574 85.6697 178.9 87.2 178.9V176.9C85.9303 176.9 84.8205 176.626 84.0145 176.143L82.9855 177.857ZM87.2 178.9C88.6374 178.9 90.1254 178.571 91.3145 177.857L90.2855 176.143C89.4746 176.629 88.3626 176.9 87.2 176.9V178.9ZM91.2929 177.87L162.793 137.37L161.807 135.63L90.3071 176.13L91.2929 177.87ZM162.814 137.357C163.993 136.65 164.8 135.599 164.8 134.363C164.8 133.114 163.979 132.082 162.782 131.424L161.818 133.176C162.621 133.618 162.8 134.086 162.8 134.363C162.8 134.651 162.607 135.15 161.786 135.643L162.814 137.357ZM162.8 131.434L130.9 113.034L129.9 114.766L161.8 133.166L162.8 131.434ZM130.914 113.043C129.721 112.326 128.23 112 126.7 112V114C127.97 114 129.079 114.274 129.886 114.757L130.914 113.043Z" fill="#43435C" mask="url(#path-254-inside-2)"/>
<path d="M162.535 136.941C162.823 136.796 163.079 136.627 163.3 136.437V137.2C163.3 137.75 162.969 138.314 162.048 138.868L90.5536 179.365L90.5535 179.365L90.5428 179.371C89.6391 179.913 88.409 180.2 87.15 180.2C85.891 180.2 84.6609 179.913 83.7572 179.371L83.7573 179.371L83.7498 179.367L51.8537 160.969C50.9317 160.415 50.6 159.851 50.6 159.3V158.48C50.8171 158.678 51.0659 158.863 51.3428 159.029L51.3427 159.029L51.3502 159.033L83.2466 177.431C84.3425 178.087 85.7606 178.4 87.15 178.4C88.5387 178.4 89.9561 178.088 91.0517 177.432L162.535 136.941Z" fill="#43435C" stroke="#43435C"/>
<path opacity="0.5" d="M260.3 196.8C262 197.8 262 199.4 260.3 200.4L220.8 223.3C219.1 224.3 216.3 224.3 214.6 223.3L135.8 177.8C134.1 176.8 134.1 175.2 135.8 174.2L175.3 151.3C177 150.3 179.8 150.3 181.5 151.3L260.3 196.8Z" fill="#D0D0D6"/>
<path d="M139.45 160.867L139.45 160.867L139.443 160.863C138.64 160.417 138.4 159.958 138.4 159.5V157.778C138.622 157.832 138.897 157.894 139.22 157.965C140.157 158.17 141.526 158.449 143.265 158.791C146.743 159.475 151.71 160.413 157.668 161.517C169.586 163.723 185.474 166.592 201.362 169.417C217.251 172.242 233.139 175.024 245.057 177.055C251.015 178.071 255.982 178.9 259.46 179.452C261.199 179.729 262.568 179.937 263.505 180.065C263.919 180.121 264.254 180.163 264.5 180.188V182.1C264.5 182.558 264.26 183.017 263.457 183.463L263.457 183.463L263.449 183.467L223.949 206.367L223.946 206.369C223.192 206.813 222.16 207.05 221.1 207.05C220.04 207.05 219.008 206.813 218.254 206.369L218.25 206.367L139.45 160.867ZM264.649 179.7C264.604 179.696 264.554 179.691 264.5 179.685C264.5 179.69 264.5 179.695 264.5 179.7H264.649Z" fill="#43435C" stroke="#43435C"/>
<path d="M221.1 204.9C220 204.9 218.9 204.6 218.1 204.2L139.3 158.7C138.5 158.3 138.1 157.7 138.1 157.1C138.1 156.5 138.5 155.9 139.3 155.5L178.8 132.6C179.6 132.1 180.7 131.9 181.8 131.9C182.9 131.9 184 132.2 184.8 132.6L263.6 178.1C264.4 178.5 264.8 179.1 264.8 179.7C264.8 180.3 264.4 180.9 263.6 181.3L224.1 204.2C223.3 204.7 222.2 204.9 221.1 204.9Z" fill="white"/>
<mask id="path-260-inside-3" fill="white">
<path d="M181.8 131.7V132.2C182.9 132.2 183.9 132.4 184.7 132.9L263.5 178.4C264.2 178.8 264.6 179.3 264.6 179.8C264.6 180.3 264.2 180.8 263.6 181.2L224 204C223.2 204.4 222.2 204.7 221.1 204.7C220 204.7 219 204.5 218.2 204L139.4 158.5C138.7 158.1 138.3 157.6 138.3 157.1C138.3 156.6 138.7 156.1 139.3 155.7L178.8 132.8C179.6 132.4 180.6 132.1 181.7 132.1V131.7H181.8ZM181.8 131.7C180.7 131.7 179.5 131.9 178.7 132.4L139.2 155.3C137.5 156.3 137.5 157.9 139.2 158.9L218 204.4C218.9 204.9 220 205.1 221.1 205.1C222.2 205.1 223.4 204.9 224.2 204.4L263.7 181.5C265.4 180.5 265.4 178.9 263.7 177.9L184.9 132.4C184 131.9 182.9 131.7 181.8 131.7Z"/>
</mask>
<path d="M181.8 131.7V132.2C182.9 132.2 183.9 132.4 184.7 132.9L263.5 178.4C264.2 178.8 264.6 179.3 264.6 179.8C264.6 180.3 264.2 180.8 263.6 181.2L224 204C223.2 204.4 222.2 204.7 221.1 204.7C220 204.7 219 204.5 218.2 204L139.4 158.5C138.7 158.1 138.3 157.6 138.3 157.1C138.3 156.6 138.7 156.1 139.3 155.7L178.8 132.8C179.6 132.4 180.6 132.1 181.7 132.1V131.7H181.8ZM181.8 131.7C180.7 131.7 179.5 131.9 178.7 132.4L139.2 155.3C137.5 156.3 137.5 157.9 139.2 158.9L218 204.4C218.9 204.9 220 205.1 221.1 205.1C222.2 205.1 223.4 204.9 224.2 204.4L263.7 181.5C265.4 180.5 265.4 178.9 263.7 177.9L184.9 132.4C184 131.9 182.9 131.7 181.8 131.7Z" fill="#43435C"/>
<path d="M181.8 131.7H182.8V130.7H181.8V131.7ZM181.8 132.2H180.8V133.2H181.8V132.2ZM184.7 132.9L184.17 133.748L184.185 133.757L184.2 133.766L184.7 132.9ZM263.5 178.4L263 179.266L263.004 179.268L263.5 178.4ZM263.6 181.2L264.099 182.067L264.127 182.05L264.155 182.032L263.6 181.2ZM224 204L224.447 204.894L224.473 204.881L224.499 204.867L224 204ZM218.2 204L218.73 203.152L218.715 203.143L218.7 203.134L218.2 204ZM139.4 158.5L139.9 157.634L139.896 157.632L139.4 158.5ZM139.3 155.7L138.798 154.835L138.771 154.851L138.745 154.868L139.3 155.7ZM178.8 132.8L178.353 131.906L178.325 131.919L178.298 131.935L178.8 132.8ZM181.7 132.1V133.1H182.7V132.1H181.7ZM181.7 131.7V130.7H180.7V131.7H181.7ZM178.7 132.4L179.202 133.265L179.216 133.257L179.23 133.248L178.7 132.4ZM139.2 155.3L138.698 154.435L138.693 154.438L139.2 155.3ZM139.2 158.9L138.693 159.762L138.7 159.766L139.2 158.9ZM218 204.4L217.5 205.266L217.507 205.27L217.514 205.274L218 204.4ZM224.2 204.4L223.698 203.535L223.684 203.543L223.67 203.552L224.2 204.4ZM263.7 181.5L264.202 182.365L264.207 182.362L263.7 181.5ZM263.7 177.9L264.207 177.038L264.2 177.034L263.7 177.9ZM184.9 132.4L185.4 131.534L185.393 131.53L185.386 131.526L184.9 132.4ZM180.8 131.7V132.2H182.8V131.7H180.8ZM181.8 133.2C182.792 133.2 183.585 133.382 184.17 133.748L185.23 132.052C184.215 131.418 183.008 131.2 181.8 131.2V133.2ZM184.2 133.766L263 179.266L264 177.534L185.2 132.034L184.2 133.766ZM263.004 179.268C263.276 179.424 263.44 179.571 263.528 179.682C263.613 179.79 263.6 179.828 263.6 179.8H265.6C265.6 178.749 264.794 177.988 263.996 177.532L263.004 179.268ZM263.6 179.8C263.6 179.777 263.609 179.824 263.52 179.944C263.431 180.064 263.277 180.214 263.045 180.368L264.155 182.032C264.829 181.583 265.6 180.822 265.6 179.8H263.6ZM263.101 180.333L223.501 203.133L224.499 204.867L264.099 182.067L263.101 180.333ZM223.553 203.106C222.867 203.448 222.02 203.7 221.1 203.7V205.7C222.38 205.7 223.533 205.352 224.447 204.894L223.553 203.106ZM221.1 203.7C220.108 203.7 219.315 203.518 218.73 203.152L217.67 204.848C218.685 205.482 219.892 205.7 221.1 205.7V203.7ZM218.7 203.134L139.9 157.634L138.9 159.366L217.7 204.866L218.7 203.134ZM139.896 157.632C139.624 157.476 139.46 157.329 139.372 157.218C139.287 157.11 139.3 157.072 139.3 157.1H137.3C137.3 158.151 138.106 158.912 138.904 159.368L139.896 157.632ZM139.3 157.1C139.3 157.123 139.291 157.076 139.38 156.956C139.469 156.836 139.623 156.686 139.855 156.532L138.745 154.868C138.071 155.317 137.3 156.078 137.3 157.1H139.3ZM139.802 156.565L179.302 133.665L178.298 131.935L138.798 154.835L139.802 156.565ZM179.247 133.694C179.933 133.352 180.78 133.1 181.7 133.1V131.1C180.42 131.1 179.267 131.448 178.353 131.906L179.247 133.694ZM182.7 132.1V131.7H180.7V132.1H182.7ZM181.7 132.7H181.8V130.7H181.7V132.7ZM181.8 130.7C180.627 130.7 179.204 130.906 178.17 131.552L179.23 133.248C179.796 132.894 180.773 132.7 181.8 132.7V130.7ZM178.198 131.535L138.698 154.435L139.702 156.165L179.202 133.265L178.198 131.535ZM138.693 154.438C137.661 155.045 136.925 155.972 136.925 157.1C136.925 158.228 137.661 159.155 138.693 159.762L139.707 158.038C139.039 157.645 138.925 157.272 138.925 157.1C138.925 156.928 139.039 156.555 139.707 156.162L138.693 154.438ZM138.7 159.766L217.5 205.266L218.5 203.534L139.7 158.034L138.7 159.766ZM217.514 205.274C218.61 205.883 219.893 206.1 221.1 206.1V204.1C220.107 204.1 219.19 203.917 218.486 203.526L217.514 205.274ZM221.1 206.1C222.273 206.1 223.696 205.894 224.73 205.248L223.67 203.552C223.104 203.906 222.127 204.1 221.1 204.1V206.1ZM224.702 205.265L264.202 182.365L263.198 180.635L223.698 203.535L224.702 205.265ZM264.207 182.362C265.239 181.755 265.975 180.828 265.975 179.7C265.975 178.572 265.239 177.645 264.207 177.038L263.193 178.762C263.861 179.155 263.975 179.528 263.975 179.7C263.975 179.872 263.861 180.245 263.193 180.638L264.207 182.362ZM264.2 177.034L185.4 131.534L184.4 133.266L263.2 178.766L264.2 177.034ZM185.386 131.526C184.29 130.917 183.007 130.7 181.8 130.7V132.7C182.793 132.7 183.71 132.883 184.414 133.274L185.386 131.526Z" fill="#43435C" mask="url(#path-260-inside-3)"/>
<path d="M102.1 133.4C102.4 133.6 102.4 133.9 102.1 134L99.7 135.4C99.4 135.6 98.9 135.6 98.6 135.4L96.2 134C95.9 133.8 95.9 133.5 96.2 133.4L98.6 132C98.9 131.8 99.4 131.8 99.7 132L102.1 133.4Z" fill="#D0D0D6"/>
<path d="M107.1 130.6C107.4 130.8 107.4 131.1 107.1 131.2L104.7 132.6C104.4 132.8 103.9 132.8 103.6 132.6L101.2 131.2C100.9 131 100.9 130.7 101.2 130.6L103.6 129.2C103.9 129 104.4 129 104.7 129.2L107.1 130.6Z" fill="#D0D0D6"/>
<path d="M92.2 139.2C92.5 139.4 92.5 139.7 92.2 139.8L89.8 141.2C89.5 141.4 89 141.4 88.7 141.2L86.3 139.8C86 139.6 86 139.3 86.3 139.2L88.7 137.8C89 137.6 89.5 137.6 89.8 137.8L92.2 139.2Z" fill="#D0D0D6"/>
<path d="M97.2 136.3C97.5 136.5 97.5 136.8 97.2 136.9L94.8 138.3C94.5 138.5 94 138.5 93.7 138.3L91.3 136.9C91 136.7 91 136.4 91.3 136.3L93.7 134.9C94 134.7 94.5 134.7 94.8 134.9L97.2 136.3Z" fill="#D0D0D6"/>
<path d="M121.8 122C122.1 122.2 122.1 122.5 121.8 122.6L119.4 124C119.1 124.2 118.6 124.2 118.3 124L115.9 122.6C115.6 122.4 115.6 122.1 115.9 122L118.3 120.6C118.6 120.4 119.1 120.4 119.4 120.6L121.8 122Z" fill="#D0D0D6"/>
<path d="M116.9 124.9C117.2 125.1 117.2 125.4 116.9 125.5L114.5 126.9C114.2 127.1 113.7 127.1 113.4 126.9L111 125.5C110.7 125.3 110.7 125 111 124.9L113.4 123.5C113.7 123.3 114.2 123.3 114.5 123.5L116.9 124.9Z" fill="#D0D0D6"/>
<path d="M111.9 127.8C112.2 128 112.2 128.3 111.9 128.4L109.5 129.8C109.2 130 108.7 130 108.4 129.8L106 128.4C105.7 128.2 105.7 127.9 106 127.8L108.4 126.4C108.7 126.2 109.2 126.2 109.5 126.4L111.9 127.8Z" fill="#D0D0D6"/>
<path d="M149.6 132.3C150.5 132.8 150.5 133.7 149.6 134.3L149.5 134.4C148.6 134.9 147.1 134.9 146.1 134.4L128.2 124C127.3 123.5 127.3 122.6 128.2 122.1L128.3 122C129.2 121.5 130.7 121.5 131.7 122L149.6 132.3Z" fill="#A1A1AD"/>
<path d="M139.9 132.5C140.8 133 140.8 133.8 139.9 134.3L139.6 134.5C138.7 135 137.3 135 136.4 134.5L123.1 126.8C122.2 126.3 122.2 125.5 123.1 125L123.4 124.8C124.3 124.3 125.7 124.3 126.6 124.8L139.9 132.5Z" fill="#D0D0D6"/>
<path d="M130.8 132.9C131.8 133.5 131.8 134.4 130.8 134.9C129.8 135.5 128.3 135.5 127.3 134.9L118.3 129.7C117.3 129.1 117.3 128.2 118.3 127.7C119.3 127.1 120.8 127.1 121.8 127.7L130.8 132.9Z" fill="#D0D0D6"/>
<path d="M134.7 140.9C135.7 141.5 135.7 142.4 134.7 142.9C133.7 143.5 132.2 143.5 131.2 142.9L113.4 132.6C112.4 132 112.4 131.1 113.4 130.6C114.4 130 115.9 130 116.9 130.6L134.7 140.9Z" fill="#D0D0D6"/>
<path d="M128.5 142.9C129.3 143.4 129.3 144.1 128.5 144.5L127.9 144.9C127.1 145.4 125.8 145.4 125.1 144.9L108.4 135.2C107.6 134.7 107.6 134 108.4 133.6L109 133.2C109.8 132.7 111.1 132.7 111.8 133.2L128.5 142.9Z" fill="#D0D0D6"/>
<path d="M122 144.9C123 145.5 123 146.4 122 146.9C121 147.5 119.5 147.5 118.5 146.9L103.6 138.3C102.6 137.7 102.6 136.8 103.6 136.3C104.6 135.7 106.1 135.7 107.1 136.3L122 144.9Z" fill="#D0D0D6"/>
<path d="M120.3 149.6C121.2 150.1 121.2 151 120.3 151.5L120.1 151.6C119.2 152.1 117.8 152.1 116.9 151.6L98.7 141.1C97.8 140.6 97.8 139.7 98.7 139.2L98.9 139.1C99.8 138.6 101.2 138.6 102.1 139.1L120.3 149.6Z" fill="#D0D0D6"/>
<path d="M116.5 153.2C117.5 153.8 117.5 154.7 116.5 155.2C115.5 155.8 114 155.8 113 155.2L93.7 144.1C92.7 143.5 92.7 142.6 93.7 142.1C94.7 141.5 96.2 141.5 97.2 142.1L116.5 153.2Z" fill="#D0D0D6"/>
<path d="M126.7 119.1C127 119.3 127 119.6 126.7 119.7L124.3 121.1C124 121.3 123.5 121.3 123.2 121.1L120.8 119.7C120.5 119.5 120.5 119.2 120.8 119.1L123.2 117.7C123.5 117.5 124 117.5 124.3 117.7L126.7 119.1Z" fill="#A1A1AD"/>
<path d="M87.6 168.6C88.7 169.2 88.7 170.2 87.6 170.8C86.5 171.4 84.8 171.4 83.7 170.8L62.3 158.5C61.2 157.9 61.2 156.9 62.3 156.3C63.4 155.7 65.1 155.7 66.2 156.3L87.6 168.6Z" fill="#D0D0D6"/>
<path d="M121.8 115.2C122.1 115.4 122.1 115.7 121.8 115.9L118.7 117.7C118.4 117.9 117.8 117.9 117.5 117.7L121.8 115.2Z" fill="#A1A1AD"/>
<path d="M243.4 172.8C243.5 172.9 243.4 173 243.3 173L241.9 173.5H241.8H241.7H241.6L240.8 172.7C240.7 172.6 240.8 172.5 240.9 172.5C241 172.5 241.1 172.5 241.2 172.5L241.7 173C242 172.5 241.9 172 241.5 171.6C241.4 171.5 241.2 171.4 241 171.3C240.1 170.8 238.7 170.6 237.5 171C237.4 171 237.3 171 237.2 171C237.1 170.9 237.2 170.8 237.3 170.8C238.7 170.3 240.4 170.5 241.4 171.1C241.6 171.2 241.8 171.4 241.9 171.5C242.4 172 242.5 172.5 242.2 173.1L242.9 172.9C243.1 172.7 243.2 172.7 243.4 172.8C243.3 172.8 243.4 172.8 243.4 172.8Z" fill="#43435C"/>
<path d="M240.8 173.9C240.9 174 240.8 174.1 240.7 174.1C239.3 174.6 237.6 174.4 236.6 173.8C236.4 173.7 236.2 173.5 236.1 173.4C235.6 172.9 235.5 172.3 235.8 171.8L235.1 172C235 172 234.9 172 234.8 172C234.7 171.9 234.8 171.8 234.9 171.8L236.3 171.3H236.4H236.5L237.3 172.1C237.4 172.2 237.3 172.3 237.2 172.3C237.1 172.3 237 172.3 236.9 172.3L236.4 171.8C236.1 172.3 236.2 172.8 236.6 173.3C236.7 173.4 236.9 173.5 237.1 173.6C238 174.1 239.5 174.3 240.6 173.9C240.6 173.8 240.7 173.8 240.8 173.9Z" fill="#43435C"/>
<path d="M244 169.5C246.8 171.1 246.8 173.7 244 175.3C241.3 176.9 236.8 176.9 234 175.3C231.3 173.8 231.2 171.3 233.7 169.7L234 169.9L234.6 169.5L234.3 169.3C237.1 167.9 241.3 168 244 169.5ZM234.7 174.9C237.1 176.3 241 176.3 243.4 174.9C245.8 173.5 245.8 171.2 243.4 169.8C241 168.4 237.1 168.4 234.7 169.8C232.2 171.3 232.3 173.5 234.7 174.9Z" fill="#D0D0D6"/>
<path d="M192.5 144.1C192.6 144.1 192.6 144.2 192.6 144.2C192.6 144.3 192.4 144.4 192.2 144.4H188.2C188.1 144.4 188 144.4 187.9 144.3C187.8 144.3 187.8 144.2 187.8 144.1V143.2C187.8 143.1 188 143 188.2 143C188.3 143 188.4 143 188.5 143.1C188.6 143.1 188.6 143.2 188.6 143.3V144H192.2C192.4 144.1 192.5 144.1 192.5 144.1Z" fill="#43435C"/>
<path d="M217.4 155.8C219.4 156.9 219.4 158.8 217.4 159.9C215.5 161 212.3 161 210.3 159.9C208.3 158.8 208.3 156.9 210.3 155.8C212.3 154.7 215.4 154.7 217.4 155.8ZM216.3 158.3C216.5 158.3 216.7 158.2 216.7 158.1C216.7 158 216.7 158 216.6 158C216.5 158 216.4 157.9 216.3 157.9H212.7V157.2C212.7 157.1 212.7 157.1 212.6 157C212.5 157 212.4 156.9 212.3 156.9C212.1 156.9 211.9 157 211.9 157.1V158C211.9 158.1 211.9 158.1 212 158.2C212.1 158.2 212.2 158.3 212.3 158.3H216.3Z" fill="#D0D0D6"/>
<path d="M234.6 169.5L234 169.9L233.7 169.7L217.1 160.1L217.7 159.8L234.3 169.3L234.6 169.5Z" fill="#D0D0D6"/>
<path d="M210.6 155.7L210.3 155.8L210 156L193.1 146.3L193.7 145.9L210.6 155.7Z" fill="#D0D0D6"/>
<path d="M193.4 142C195.4 143.1 195.4 145 193.4 146.1C191.5 147.2 188.3 147.2 186.3 146.1C184.3 145 184.3 143.1 186.3 142C188.3 140.8 191.4 140.8 193.4 142ZM192.3 144.5C192.5 144.5 192.7 144.4 192.7 144.3C192.7 144.2 192.7 144.2 192.6 144.2C192.5 144.2 192.4 144.1 192.3 144.1H188.7V143.4C188.7 143.3 188.7 143.3 188.6 143.2C188.5 143.2 188.4 143.1 188.3 143.1C188.1 143.1 187.9 143.2 187.9 143.3V144.2C187.9 144.3 187.9 144.3 188 144.4C188.1 144.4 188.2 144.5 188.3 144.5H192.3Z" fill="#D0D0D6"/>
<path d="M216.5 158C216.6 158 216.6 158.1 216.6 158.1C216.6 158.2 216.4 158.3 216.2 158.3H212.2C212.1 158.3 212 158.3 211.9 158.2C211.8 158.2 211.8 158.1 211.8 158V157.1C211.8 157 212 156.9 212.2 156.9C212.3 156.9 212.4 156.9 212.5 157C212.6 157 212.6 157.1 212.6 157.2V157.9H216.2C216.4 157.9 216.5 157.9 216.5 158Z" fill="#43435C"/>
<path d="M196.3 157.4C196.6 157.6 196.6 157.8 196.3 158L195 158.8C194.7 159 194.3 159 194 158.8L176 148.4C175.7 148.2 175.7 148 176 147.8L177.3 147C177.6 146.8 178 146.8 178.3 147L196.3 157.4Z" fill="#D0D0D6"/>
<path d="M183 165.2C183.3 165.4 183.3 165.6 183 165.8L181.7 166.6C181.4 166.8 181 166.8 180.7 166.6L162.7 156.2C162.4 156 162.4 155.8 162.7 155.6L164 154.8C164.3 154.6 164.7 154.6 165 154.8L183 165.2Z" fill="#D0D0D6"/>
<path d="M190.3 173.4C190.9 173.7 190.9 174.3 190.3 174.6L185 177.7C184.4 178 183.5 178 182.9 177.7L154.4 161.2C153.8 160.9 153.8 160.3 154.4 160L159.7 156.9C160.3 156.6 161.2 156.6 161.8 156.9L190.3 173.4ZM184.3 177.2L189.6 174.1C189.8 174 189.8 173.8 189.6 173.7L161 157.3C160.8 157.2 160.5 157.2 160.3 157.3L155 160.4C154.8 160.5 154.8 160.7 155 160.8L183.5 177.3C183.8 177.4 184.1 177.4 184.3 177.2Z" fill="#D0D0D6"/>
<path d="M235.3 183.9C236 184.3 236.1 185 235.3 185.5L230.7 188.2C230 188.6 228.7 188.6 228 188.2L168 153.6C167.3 153.2 167.2 152.5 168 152L172.6 149.3C173.3 148.9 174.6 148.9 175.3 149.3L235.3 183.9ZM229.9 187.7L234.5 185C234.9 184.8 234.8 184.5 234.5 184.3L174.6 149.7C174.2 149.5 173.7 149.5 173.3 149.7L168.7 152.4C168.3 152.6 168.3 152.9 168.7 153.1L228.6 187.7C229 187.9 229.6 187.9 229.9 187.7Z" fill="#D0D0D6"/>
<path d="M222.2 191.8C222.8 192.1 222.8 192.7 222.2 193L216.9 196.1C216.3 196.4 215.4 196.4 214.8 196.1L186.3 179.6C185.7 179.3 185.7 178.7 186.3 178.4L191.6 175.3C192.2 175 193.1 175 193.7 175.3L222.2 191.8ZM216.2 195.7L221.5 192.6C221.7 192.5 221.7 192.3 221.5 192.2L193 175.8C192.8 175.7 192.5 175.7 192.3 175.8L187 178.9C186.8 179 186.8 179.2 187 179.3L215.5 195.8C215.8 195.8 216.1 195.8 216.2 195.7Z" fill="#D0D0D6"/>
</svg>
