<svg width="320" height="280" viewBox="0 0 320 280" fill="none" xmlns="http://www.w3.org/2000/svg">
<path d="M231.2 197.3C233 198.3 233 200.9 231.2 202L158.9 244C156.7 245.2 153.3 245.3 151.1 244L29.8 174C27.6 172.8 27.6 170.7 29.8 169.5L104.7 126C105.5 125.5 106.6 125.5 107.4 126L231.2 197.3Z" fill="white"/>
<path d="M155.1 245.1C153.6 245.1 152.2 244.8 151.1 244.1L29.8 174.1C28.7 173.4 28 172.6 28 171.6C28 170.7 28.6 169.8 29.7 169.1L104.6 125.6C105.5 125.1 106.6 125.1 107.6 125.6L231.4 197C232.3 197.5 232.9 198.5 232.9 199.6C232.9 200.7 232.4 201.6 231.4 202.2L159.1 244.2C158 244.8 156.5 245.1 155.1 245.1ZM106.1 125.7C105.7 125.7 105.2 125.8 104.9 126L30 169.6C29 170.2 28.5 170.9 28.5 171.6C28.5 172.4 29 173.1 30 173.7L151.3 243.7C153.4 244.9 156.8 244.9 158.9 243.7L231.2 201.7C232 201.3 232.4 200.5 232.4 199.6C232.4 198.7 231.9 197.9 231.2 197.5L107.4 126C107 125.8 106.6 125.7 106.1 125.7Z" fill="#43435C"/>
<path d="M161.8 235.8L237.1 192C238.3 191.3 239.1 190 239.1 188.6V186.1L241 185C242.2 184.3 243 183 243 181.6L243.3 84.5V84.1C243.1 80.6 241.2 77.4 238.2 75.7L117.2 5.89998L116.6 5.59998C115.3 4.89998 113.6 4.89998 112.3 5.69998L108.4 7.99998C107 8.79998 106.3 10.4 106.2 12.3L105.9 109.6L30.7 153.2C29.1 154.2 28.1 155.6 28.1 157.2V161.7C28.1 163.3 29.1 164.7 30.7 165.7L152 235.7C152 235.7 152.3 235.8 152.6 236C155.5 237.5 159 237.4 161.8 235.8Z" fill="#43435C"/>
<path d="M108.1 110.3L108.4 12.3C108.4 10.6 109.2 9.59998 110.4 9.59998C110.9 9.59998 111.5 9.79998 112.1 10.1L233 79.9C235.2 81.2 237 84.3 237 86.8L236.7 184.5L108.1 110.3Z" fill="white"/>
<path d="M110.4 9.29999V9.79999C110.9 9.79999 111.4 9.99999 112 10.3L232.9 80.1C235 81.3 236.8 84.3 236.8 86.8L236.5 184.1L108.4 110.1L108.7 12.2C108.7 10.7 109.4 9.79999 110.5 9.79999V9.29999H110.4ZM110.4 9.29999C109 9.29999 108.1 10.4 108.1 12.2L107.8 110.4L237 185L237.3 86.8C237.3 84.2 235.5 81 233.2 79.7L112.3 9.89999C111.6 9.49999 111 9.29999 110.4 9.29999Z" fill="#43435C"/>
<path d="M241.2 84.5C241.2 81.7 239.8 79.1 237.4 77.6C237.2 77.5 237 77.4 237 77.4L116.2 7.6C116.2 7.6 115.9 7.5 115.7 7.3C115 6.9 114 6.9 113.3 7.3L109.4 9.6C110.4 9.3 111.4 9.4 112.3 9.9L233.2 79.7C233.2 79.7 233.3 79.8 233.6 79.9C235.9 81.4 237.4 84 237.4 86.8L237 185L239.9 183.3C240.5 183 240.9 182.3 240.9 181.6L241.2 84.5Z" fill="#D0D0D6"/>
<path d="M156.9 230.2C155.5 230.2 154.1 229.9 153.1 229.3L31.8 159.3C30.8 158.7 30.3 158 30.3 157.2C30.3 156.4 30.8 155.7 31.8 155.2L108 110.9L236.6 185.2L160.7 229.3C159.7 229.9 158.3 230.2 156.9 230.2Z" fill="white"/>
<path d="M108 111.2L236.1 185.2L160.6 229.1C159.6 229.7 158.3 230 156.9 230C155.5 230 154.2 229.7 153.2 229.1L31.9 159.1C31 158.6 30.5 157.9 30.5 157.3C30.5 156.6 31 156 31.9 155.5L108 111.2ZM108 110.6L31.7 155C29.5 156.2 29.6 158.3 31.7 159.5L153 229.5C154.1 230.1 155.5 230.4 156.9 230.4C158.3 230.4 159.7 230.1 160.8 229.5L237.1 185.2L108 110.6Z" fill="#43435C"/>
<path d="M160.8 229.5C158.5 230.8 155.7 230.9 153.4 229.7C153.2 229.6 153.1 229.5 153 229.5L31.7 159.5C30.6 158.9 30.1 158 30.1 157.2V161.7C30.1 162.5 30.6 163.3 31.7 164L153 234C153 234 153 234 153.1 234C155.4 235.3 158.2 235.4 160.5 234.1C160.7 234 160.8 233.9 160.8 233.9L236.1 190.1C236.7 189.8 237.1 189.1 237.1 188.4V185L160.8 229.5Z" fill="#D0D0D6"/>
<path d="M138.8 189.5C140.1 190.3 140.1 191.5 138.8 192.3L120.9 202.7C119.6 203.5 117.5 203.5 116.1 202.7L74.6 178.7C73.3 177.9 73.3 176.7 74.6 175.9L92.5 165.5C93.8 164.7 95.9 164.7 97.3 165.5L138.8 189.5Z" fill="#E8E8EB"/>
<path d="M118.5 203.5C117.6 203.5 116.7 203.3 116 202.9L74.5 178.9C73.8 178.5 73.4 177.9 73.4 177.3C73.4 176.7 73.8 176.1 74.5 175.7L92.4 165.3C93.8 164.5 96 164.5 97.4 165.3L138.9 189.3C139.6 189.7 140 190.3 140 190.9C140 191.5 139.6 192.1 138.9 192.5L121 202.9C120.3 203.3 119.4 203.5 118.5 203.5ZM95 165.2C94.2 165.2 93.4 165.4 92.7 165.7L74.8 176.1C74.2 176.4 73.9 176.8 73.9 177.3C73.9 177.7 74.2 178.1 74.8 178.5L116.3 202.5C117.5 203.2 119.6 203.2 120.8 202.5L138.7 192.1C139.3 191.8 139.6 191.4 139.6 190.9C139.6 190.5 139.3 190.1 138.7 189.7L97.2 165.7C96.6 165.4 95.8 165.2 95 165.2Z" fill="#B9B9C2"/>
<path d="M220.1 182.4C221.1 183 221.1 184 220.1 184.6L182.1 206.6C181.1 207.2 179.4 207.2 178.4 206.6L70.2 144.2C69.2 143.6 69.2 142.6 70.2 142L108.2 120C109.2 119.4 110.9 119.4 111.9 120L220.1 182.4Z" fill="#E8E8EB"/>
<path d="M180.2 207.3C179.5 207.3 178.8 207.1 178.2 206.8L70.1 144.4C69.5 144.1 69.2 143.6 69.2 143.1C69.2 142.6 69.5 142.1 70.1 141.8L108.1 119.8C109.2 119.2 111 119.2 112.1 119.8L220.2 182.2C220.8 182.5 221.1 183 221.1 183.5C221.1 184 220.8 184.5 220.2 184.8L182.2 206.8C181.7 207.2 180.9 207.3 180.2 207.3ZM110.1 119.8C109.5 119.8 108.8 119.9 108.4 120.2L70.4 142.2C70 142.4 69.8 142.7 69.8 143.1C69.8 143.4 70 143.7 70.5 144L178.6 206.4C179.6 207 181.1 207 182.1 206.4L220.1 184.4C220.5 184.2 220.7 183.9 220.7 183.5C220.7 183.2 220.5 182.9 220 182.6L111.8 120.2C111.3 119.9 110.7 119.8 110.1 119.8Z" fill="#B9B9C2"/>
<path d="M57.4 71.7C59.7748 71.7 61.7 69.7748 61.7 67.4C61.7 65.0252 59.7748 63.1 57.4 63.1C55.0252 63.1 53.1 65.0252 53.1 67.4C53.1 69.7748 55.0252 71.7 57.4 71.7Z" fill="#5F296D"/>
<path d="M217.5 26.4C218.66 26.4 219.6 25.4597 219.6 24.2999C219.6 23.1402 218.66 22.2 217.5 22.2C216.34 22.2 215.4 23.1402 215.4 24.2999C215.4 25.4597 216.34 26.4 217.5 26.4Z" fill="#CF1A21"/>
<path d="M241.2 43.4C244.845 43.4 247.8 40.445 247.8 36.7999C247.8 33.1549 244.845 30.2 241.2 30.2C237.555 30.2 234.6 33.1549 234.6 36.7999C234.6 40.445 237.555 43.4 241.2 43.4Z" fill="#FDB314"/>
<path d="M271.3 184.4C274.061 184.4 276.3 182.161 276.3 179.4C276.3 176.639 274.061 174.4 271.3 174.4C268.539 174.4 266.3 176.639 266.3 179.4C266.3 182.161 268.539 184.4 271.3 184.4Z" fill="#F68320"/>
<path d="M48.5 101.4C49.8807 101.4 51 100.281 51 98.9C51 97.5193 49.8807 96.4 48.5 96.4C47.1193 96.4 46 97.5193 46 98.9C46 100.281 47.1193 101.4 48.5 101.4Z" fill="#F68320"/>
<path d="M143.9 106.6C144.3 106.8 144.6 107.3 144.5 107.7C144.5 108.1 144.2 108.3 143.8 108.1L134.6 102.8C134.2 102.6 134 102.1 134 101.7C134 101.3 134.3 101.1 134.6 101.3L143.9 106.6Z" fill="#A1A1AD"/>
<path d="M124.9 113C125.3 113.2 125.6 113.7 125.5 114.1C125.5 114.5 125.2 114.7 124.8 114.5L120.8 112.2C120.4 112 120.2 111.5 120.2 111.1C120.2 110.7 120.5 110.5 120.8 110.7L124.9 113Z" fill="#A1A1AD"/>
<path d="M131.3 113.8C131.7 114 131.9 114.5 131.9 114.9C131.9 115.3 131.6 115.5 131.3 115.3L120.9 109.3C120.5 109.1 120.3 108.6 120.3 108.2C120.3 107.8 120.6 107.6 120.9 107.8L131.3 113.8Z" fill="#A1A1AD"/>
<path d="M135.8 119.3C136.2 119.5 136.4 120 136.4 120.4C136.4 120.8 136.1 121 135.8 120.8L127.2 115.8C126.8 115.6 126.5 115.1 126.6 114.7C126.6 114.3 126.9 114.1 127.3 114.3L135.8 119.3Z" fill="#A1A1AD"/>
<path d="M133.5 112.2C133.9 112.4 134.2 112.9 134.1 113.3C134.1 113.7 133.8 113.9 133.4 113.7L124.5 108.6C124.1 108.4 123.8 107.9 123.9 107.5C123.9 107.1 124.2 106.9 124.6 107.1L133.5 112.2Z" fill="#A1A1AD"/>
<path d="M140.8 119.3C141.2 119.5 141.4 120 141.4 120.4C141.4 120.8 141.1 121 140.8 120.8L133.7 116.7C133.3 116.5 133 116 133.1 115.6C133.1 115.2 133.4 115 133.8 115.2L140.8 119.3Z" fill="#A1A1AD"/>
<path d="M142.9 117.6C143.3 117.8 143.5 118.3 143.5 118.7C143.5 119.1 143.2 119.3 142.9 119.1L139.5 117.1C139.1 116.9 138.9 116.4 138.9 116C138.9 115.6 139.2 115.4 139.5 115.6L142.9 117.6Z" fill="#A1A1AD"/>
<path d="M137.2 114.3C137.6 114.5 137.8 115 137.8 115.4C137.8 115.8 137.5 116 137.2 115.8L135.8 115C135.4 114.8 135.2 114.3 135.2 113.9C135.2 113.5 135.5 113.3 135.8 113.5L137.2 114.3Z" fill="#A1A1AD"/>
<path d="M160.6 130.7C161 130.9 161.2 131.4 161.2 131.8C161.2 132.2 160.9 132.4 160.6 132.2L150.2 126.2C149.8 126 149.5 125.5 149.6 125.1C149.6 124.7 149.9 124.5 150.3 124.7L160.6 130.7Z" fill="#A1A1AD"/>
<path d="M142.1 122.9C142.5 123.1 142.7 123.6 142.7 124C142.7 124.4 142.4 124.6 142.1 124.4L138.1 122.1C137.7 121.9 137.5 121.4 137.5 121C137.5 120.6 137.8 120.4 138.1 120.6L142.1 122.9Z" fill="#A1A1AD"/>
<path d="M147.8 123.4C148.2 123.6 148.5 124.1 148.4 124.5C148.4 124.9 148.1 125.1 147.7 124.9L142.9 122.1C142.5 121.9 142.2 121.4 142.3 121C142.4 120.6 142.6 120.4 143 120.6L147.8 123.4Z" fill="#A1A1AD"/>
<path d="M113.7 106.6C114.1 106.8 114.3 107.3 114.3 107.7C114.3 108.1 114 108.3 113.7 108.1C113.3 107.9 113 107.4 113.1 107C113.1 106.5 113.4 106.4 113.7 106.6Z" fill="#A1A1AD"/>
<path d="M114 19.7C114.4 19.9 114.6 20.4 114.6 20.8C114.6 21.2 114.3 21.4 114 21.2C113.6 21 113.3 20.5 113.4 20.1C113.3 19.6 113.6 19.5 114 19.7Z" fill="#A1A1AD"/>
<path d="M123.1 36.5C123.5 36.7 123.8 37.2 123.7 37.6C123.7 38 123.4 38.2 123 38L117 34.5C116.6 34.3 116.3 33.8 116.4 33.4C116.4 33 116.7 32.8 117.1 33L123.1 36.5Z" fill="#A1A1AD"/>
<path d="M125.1 40.6C125.5 40.8 125.8 41.3 125.7 41.7C125.7 42.1 125.4 42.3 125 42.1L119 38.6C118.6 38.4 118.3 37.9 118.4 37.5C118.4 37.1 118.7 36.9 119.1 37.1L125.1 40.6Z" fill="#A1A1AD"/>
<path d="M133.4 45.4C133.8 45.6 134 46.1 134 46.5C134 46.9 133.7 47.1 133.4 46.9L127.4 43.4C127 43.2 126.7 42.7 126.8 42.3C126.8 41.9 127.1 41.7 127.5 41.9L133.4 45.4Z" fill="#A1A1AD"/>
<path d="M137.1 47.5C137.5 47.7 137.7 48.2 137.7 48.6C137.7 49 137.4 49.2 137.1 49L135.7 48.2C135.3 48 135.1 47.5 135.1 47.1C135.1 46.7 135.4 46.5 135.7 46.7L137.1 47.5Z" fill="#A1A1AD"/>
<path d="M132.7 50.8C133.1 51 133.3 51.5 133.3 51.9C133.3 52.3 133 52.5 132.7 52.3L126.7 48.8C126.3 48.6 126.1 48.1 126.1 47.7C126.1 47.3 126.4 47.1 126.7 47.3L132.7 50.8Z" fill="#A1A1AD"/>
<path d="M139.1 51.6C139.5 51.8 139.8 52.3 139.7 52.7C139.7 53.1 139.4 53.3 139 53.1L133 49.6C132.6 49.4 132.3 48.9 132.4 48.5C132.4 48.1 132.7 47.9 133.1 48.1L139.1 51.6Z" fill="#A1A1AD"/>
<path d="M123 48.1C123.4 48.3 123.7 48.8 123.6 49.2C123.6 49.6 123.3 49.8 122.9 49.6L116.9 46.1C116.5 45.9 116.2 45.4 116.3 45C116.3 44.6 116.6 44.4 117 44.6L123 48.1Z" fill="#A1A1AD"/>
<path d="M130.8 46.8C131.2 47 131.4 47.5 131.4 47.9C131.4 48.3 131.1 48.5 130.8 48.3L122.7 43.6C122.3 43.4 122.1 42.9 122.1 42.5C122.1 42.1 122.4 41.9 122.7 42.1L130.8 46.8Z" fill="#A1A1AD"/>
<path d="M124.4 46C124.8 46.2 125 46.7 125 47.1C125 47.5 124.7 47.7 124.4 47.5L119.1 44.4C118.7 44.2 118.4 43.7 118.5 43.3C118.5 42.9 118.8 42.7 119.2 42.9L124.4 46Z" fill="#A1A1AD"/>
<path d="M144.1 57.3C144.5 57.5 144.8 58 144.7 58.4C144.7 58.8 144.4 59 144 58.8L134.8 53.5C134.4 53.3 134.2 52.8 134.2 52.4C134.2 52 134.5 51.8 134.8 52L144.1 57.3Z" fill="#A1A1AD"/>
<path d="M123.1 22C123.5 22.2 123.8 22.7 123.7 23.1C123.7 23.5 123.4 23.7 123 23.5L117 20C116.6 19.8 116.3 19.3 116.4 18.9C116.4 18.5 116.7 18.3 117.1 18.5L123.1 22Z" fill="#A1A1AD"/>
<path d="M143 68.3C143.4 68.5 143.6 69 143.6 69.4C143.6 69.8 143.3 70 143 69.8L139.6 67.8C139.2 67.6 139 67.1 139 66.7C139 66.3 139.3 66.1 139.6 66.3L143 68.3Z" fill="#A1A1AD"/>
<path d="M122.9 80C123.3 80.2 123.6 80.7 123.5 81.1C123.5 81.5 123.2 81.7 122.8 81.5L116.8 78C116.4 77.8 116.1 77.3 116.2 76.9C116.2 76.5 116.5 76.3 116.9 76.5L122.9 80Z" fill="#A1A1AD"/>
<path d="M127.8 79.9C128.2 80.1 128.5 80.6 128.4 81C128.4 81.4 128.1 81.6 127.7 81.4L119 76.3C118.6 76.1 118.3 75.6 118.4 75.2C118.4 74.8 118.7 74.6 119.1 74.8L127.8 79.9Z" fill="#A1A1AD"/>
<path d="M127 76.5C127.4 76.7 127.6 77.2 127.6 77.6C127.6 78 127.3 78.2 127 78L121 74.5C120.6 74.3 120.4 73.8 120.4 73.4C120.4 73 120.7 72.8 121 73L127 76.5Z" fill="#A1A1AD"/>
<path d="M124.3 72C124.7 72.2 124.9 72.7 124.9 73.1C124.9 73.5 124.6 73.7 124.3 73.5L121 71.6C120.6 71.4 120.4 70.9 120.4 70.5C120.4 70.1 120.7 69.9 121 70.1L124.3 72Z" fill="#A1A1AD"/>
<path d="M135.9 81.7C136.3 81.9 136.5 82.4 136.5 82.8C136.5 83.2 136.2 83.4 135.9 83.2L129.3 79.4C128.9 79.2 128.7 78.7 128.7 78.3C128.7 77.9 129 77.7 129.3 77.9L135.9 81.7Z" fill="#A1A1AD"/>
<path d="M132.7 76.9C133.1 77.1 133.3 77.6 133.3 78C133.3 78.4 133 78.6 132.7 78.4L126.7 74.9C126.3 74.7 126.1 74.2 126.1 73.8C126.1 73.4 126.4 73.2 126.7 73.4L132.7 76.9Z" fill="#A1A1AD"/>
<path d="M133.6 74.5C134 74.7 134.3 75.2 134.2 75.6C134.2 76 133.9 76.2 133.5 76L124.6 70.9C124.2 70.7 123.9 70.2 124 69.8C124 69.4 124.3 69.2 124.7 69.4L133.6 74.5Z" fill="#A1A1AD"/>
<path d="M136.1 73.1C136.5 73.3 136.8 73.8 136.7 74.2C136.7 74.6 136.4 74.8 136 74.6L130 71.1C129.6 70.9 129.3 70.4 129.4 70C129.4 69.6 129.7 69.4 130.1 69.6L136.1 73.1Z" fill="#A1A1AD"/>
<path d="M135.9 70.1C136.3 70.3 136.5 70.8 136.5 71.2C136.5 71.6 136.2 71.8 135.9 71.6L127.3 66.6C126.9 66.4 126.6 65.9 126.7 65.5C126.7 65.1 127 64.9 127.4 65.1L135.9 70.1Z" fill="#A1A1AD"/>
<path d="M140.9 70C141.3 70.2 141.5 70.7 141.5 71.1C141.5 71.5 141.2 71.7 140.9 71.5L133.8 67.4C133.4 67.2 133.1 66.7 133.2 66.3C133.2 65.9 133.5 65.7 133.9 65.9L140.9 70Z" fill="#A1A1AD"/>
<path d="M122.4 68C122.8 68.2 123.1 68.7 123 69.1C123 69.5 122.7 69.7 122.3 69.5L118.9 67.5C118.5 67.3 118.2 66.8 118.3 66.4C118.3 66 118.6 65.8 119 66L122.4 68Z" fill="#A1A1AD"/>
<path d="M127.9 68.3C128.3 68.5 128.6 69 128.5 69.4C128.5 69.8 128.2 70 127.8 69.8L119 64.7C118.6 64.5 118.3 64 118.4 63.6C118.4 63.2 118.7 63 119.1 63.2L127.9 68.3Z" fill="#A1A1AD"/>
<path d="M125 63.8C125.4 64 125.7 64.5 125.6 64.9C125.6 65.3 125.3 65.5 124.9 65.3L120.9 63C120.5 62.8 120.3 62.3 120.3 61.9C120.3 61.5 120.6 61.3 120.9 61.5L125 63.8Z" fill="#A1A1AD"/>
<path d="M131.5 64.6C131.9 64.8 132.1 65.3 132.1 65.7C132.1 66.1 131.8 66.3 131.5 66.1L121 60C120.6 59.8 120.4 59.3 120.4 58.9C120.4 58.5 120.7 58.3 121 58.5L131.5 64.6Z" fill="#A1A1AD"/>
<path d="M122.4 56.5C122.8 56.7 123.1 57.2 123 57.6C123 58 122.7 58.2 122.3 58L119 56C118.6 55.8 118.3 55.3 118.4 54.9C118.4 54.5 118.7 54.3 119.1 54.5L122.4 56.5Z" fill="#A1A1AD"/>
<path d="M123 53.9C123.4 54.1 123.7 54.6 123.6 55C123.6 55.4 123.3 55.6 122.9 55.4L116.9 51.9C116.5 51.7 116.2 51.2 116.3 50.8C116.3 50.4 116.6 50.2 117 50.4L123 53.9Z" fill="#A1A1AD"/>
<path d="M133.6 62.9C134 63.1 134.3 63.6 134.2 64C134.2 64.4 133.9 64.6 133.5 64.4L124.6 59.3C124.2 59.1 123.9 58.6 124 58.2C124 57.8 124.3 57.6 124.7 57.8L133.6 62.9Z" fill="#A1A1AD"/>
<path d="M137.3 65C137.7 65.2 137.9 65.7 137.9 66.1C137.9 66.5 137.6 66.7 137.3 66.5L135.9 65.7C135.5 65.5 135.3 65 135.3 64.6C135.3 64.2 135.6 64 135.9 64.2L137.3 65Z" fill="#A1A1AD"/>
<path d="M160.7 81.5C161.1 81.7 161.3 82.2 161.3 82.6C161.3 83 161 83.2 160.7 83L150.3 77C149.9 76.8 149.6 76.3 149.7 75.9C149.7 75.5 150 75.3 150.4 75.5L160.7 81.5Z" fill="#A1A1AD"/>
<path d="M152.4 91.2C152.8 91.4 153.1 91.9 153 92.3C153 92.7 152.7 92.9 152.3 92.7L147.2 89.7C146.8 89.5 146.6 89 146.6 88.6C146.6 88.2 146.9 88 147.2 88.2L152.4 91.2Z" fill="#A1A1AD"/>
<path d="M144.8 86.8C145.2 87 145.5 87.5 145.4 87.9C145.4 88.3 145.1 88.5 144.7 88.3L138.1 84.5C137.7 84.3 137.5 83.8 137.5 83.4C137.5 83 137.8 82.8 138.1 83L144.8 86.8Z" fill="#A1A1AD"/>
<path d="M147.6 91.3C148 91.5 148.3 92 148.2 92.4C148.2 92.8 147.9 93 147.5 92.8L138.6 87.6C138.2 87.4 137.9 86.9 138 86.5C138 86.1 138.3 85.9 138.7 86.1L147.6 91.3Z" fill="#A1A1AD"/>
<path d="M147 85.2C147.4 85.4 147.7 85.9 147.6 86.3C147.6 86.7 147.3 86.9 146.9 86.7L143.6 84.8C143.2 84.6 142.9 84.1 143 83.7C143 83.3 143.3 83.1 143.7 83.3L147 85.2Z" fill="#A1A1AD"/>
<path d="M136.1 84.7C136.5 84.9 136.8 85.4 136.7 85.8C136.7 86.2 136.4 86.4 136 86.2L130 82.7C129.6 82.5 129.3 82 129.4 81.6C129.4 81.2 129.7 81 130.1 81.2L136.1 84.7Z" fill="#A1A1AD"/>
<path d="M137.3 76.6C137.7 76.8 137.9 77.3 137.9 77.7C137.9 78.1 137.6 78.3 137.3 78.1L135.9 77.3C135.5 77.1 135.3 76.6 135.3 76.2C135.3 75.8 135.6 75.6 135.9 75.8L137.3 76.6Z" fill="#A1A1AD"/>
<path d="M141.4 81.9C141.8 82.1 142.1 82.6 142 83C142 83.4 141.7 83.6 141.3 83.4L134.9 79.7C134.5 79.5 134.3 79 134.3 78.6C134.3 78.2 134.6 78 134.9 78.2L141.4 81.9Z" fill="#A1A1AD"/>
<path d="M142.2 73.7C142.6 73.9 142.8 74.4 142.8 74.8C142.8 75.2 142.5 75.4 142.2 75.2L138.2 72.9C137.8 72.7 137.6 72.2 137.6 71.8C137.6 71.4 137.9 71.2 138.2 71.4L142.2 73.7Z" fill="#A1A1AD"/>
<path d="M147.6 79.7C148 79.9 148.3 80.4 148.2 80.8C148.2 81.2 147.9 81.4 147.5 81.2L138.6 76C138.2 75.8 137.9 75.3 138 74.9C138 74.5 138.3 74.3 138.7 74.5L147.6 79.7Z" fill="#A1A1AD"/>
<path d="M148 74.1C148.4 74.3 148.7 74.8 148.6 75.2C148.6 75.6 148.3 75.8 147.9 75.6L143.1 72.8C142.7 72.6 142.4 72.1 142.5 71.7C142.5 71.3 142.8 71.1 143.2 71.3L148 74.1Z" fill="#A1A1AD"/>
<path d="M143 79.9C143.4 80.1 143.6 80.6 143.6 81C143.6 81.4 143.3 81.6 143 81.4L139.6 79.4C139.2 79.2 139 78.7 139 78.3C139 77.9 139.3 77.7 139.6 77.9L143 79.9Z" fill="#A1A1AD"/>
<path d="M120.3 90.1C120.7 90.3 120.9 90.8 120.9 91.2C120.9 91.6 120.6 91.8 120.3 91.6L118.9 90.8C118.5 90.6 118.2 90.1 118.3 89.7C118.3 89.3 118.6 89.1 119 89.3L120.3 90.1Z" fill="#A1A1AD"/>
<path d="M122.9 97.4C123.3 97.6 123.6 98.1 123.5 98.5C123.5 98.9 123.2 99.1 122.8 98.9L116.8 95.4C116.4 95.2 116.1 94.7 116.2 94.3C116.2 93.9 116.5 93.7 116.9 93.9L122.9 97.4Z" fill="#A1A1AD"/>
<path d="M124.2 95.2C124.6 95.4 124.8 95.9 124.8 96.3C124.8 96.7 124.5 96.9 124.2 96.7L118.9 93.6C118.5 93.4 118.2 92.9 118.3 92.5C118.3 92.1 118.6 91.9 119 92.1L124.2 95.2Z" fill="#A1A1AD"/>
<path d="M132.5 100C132.9 100.2 133.1 100.7 133.1 101.1C133.1 101.5 132.8 101.7 132.5 101.5L126.5 98C126.1 97.8 125.9 97.3 125.9 96.9C125.9 96.5 126.2 96.3 126.5 96.5L132.5 100Z" fill="#A1A1AD"/>
<path d="M130.6 96C131 96.2 131.2 96.7 131.2 97.1C131.2 97.5 130.9 97.7 130.6 97.5L122.5 92.8C122.1 92.6 121.9 92.1 121.9 91.7C121.9 91.3 122.2 91.1 122.5 91.3L130.6 96Z" fill="#A1A1AD"/>
<path d="M133.3 94.6C133.7 94.8 133.9 95.3 133.9 95.7C133.9 96.1 133.6 96.3 133.3 96.1L127.3 92.6C126.9 92.4 126.6 91.9 126.7 91.5C126.8 91.1 127 90.9 127.4 91.1L133.3 94.6Z" fill="#A1A1AD"/>
<path d="M124.9 89.8C125.3 90 125.6 90.5 125.5 90.9C125.5 91.3 125.2 91.5 124.8 91.3L118.8 87.8C118.4 87.6 118.1 87.1 118.2 86.7C118.3 86.3 118.5 86.1 118.9 86.3L124.9 89.8Z" fill="#A1A1AD"/>
<path d="M123.1 30.7C123.5 30.9 123.8 31.4 123.7 31.8C123.7 32.2 123.4 32.4 123 32.2L117 28.7C116.6 28.5 116.3 28 116.4 27.6C116.4 27.2 116.7 27 117.1 27.2L123.1 30.7Z" fill="#A1A1AD"/>
<path d="M123.1 24.9C123.5 25.1 123.8 25.6 123.7 26C123.7 26.4 123.4 26.6 123 26.4L117 22.9C116.6 22.7 116.3 22.2 116.4 21.8C116.4 21.4 116.7 21.2 117.1 21.4L123.1 24.9Z" fill="#A1A1AD"/>
<path d="M131.4 32.6C131.8 32.8 132.1 33.3 132 33.7C132 34.1 131.7 34.3 131.3 34.1L117 25.8C116.6 25.6 116.3 25.1 116.4 24.7C116.4 24.3 116.7 24.1 117.1 24.3L131.4 32.6Z" fill="#A1A1AD"/>
<path d="M131.4 29.7C131.8 29.9 132.1 30.4 132 30.8C132 31.2 131.7 31.4 131.3 31.2L125.3 27.7C124.9 27.5 124.6 27 124.7 26.6C124.7 26.2 125 26 125.4 26.2L131.4 29.7Z" fill="#A1A1AD"/>
<path d="M113.9 34.1C114.3 34.3 114.5 34.8 114.5 35.2C114.5 35.6 114.2 35.8 113.9 35.6C113.5 35.4 113.2 34.9 113.3 34.5C113.3 34.1 113.6 33.9 113.9 34.1Z" fill="#A1A1AD"/>
<path d="M113.9 37C114.3 37.2 114.5 37.7 114.5 38.1C114.5 38.5 114.2 38.7 113.9 38.5C113.5 38.3 113.2 37.8 113.3 37.4C113.3 37 113.6 36.8 113.9 37Z" fill="#A1A1AD"/>
<path d="M120.5 40.8C120.9 41 121.1 41.5 121.1 41.9C121.1 42.3 120.8 42.5 120.5 42.3L119.1 41.5C118.7 41.3 118.4 40.8 118.5 40.4C118.5 40 118.8 39.8 119.2 40L120.5 40.8Z" fill="#A1A1AD"/>
<path d="M113.9 40C114.3 40.2 114.5 40.7 114.5 41.1C114.5 41.5 114.2 41.7 113.9 41.5C113.5 41.3 113.2 40.8 113.3 40.4C113.3 39.9 113.6 39.8 113.9 40Z" fill="#A1A1AD"/>
<path d="M113.9 42.8C114.3 43 114.5 43.5 114.5 43.9C114.5 44.3 114.2 44.5 113.9 44.3C113.6 44.1 113.2 43.6 113.3 43.2C113.3 42.8 113.6 42.6 113.9 42.8Z" fill="#A1A1AD"/>
<path d="M113.9 31.3C114.3 31.5 114.5 32 114.5 32.4C114.5 32.8 114.2 33 113.9 32.8C113.5 32.6 113.2 32.1 113.3 31.7C113.3 31.2 113.6 31.1 113.9 31.3Z" fill="#A1A1AD"/>
<path d="M135.1 31.9C135.5 32.1 135.7 32.6 135.7 33C135.7 33.4 135.4 33.6 135.1 33.4L133.7 32.6C133.3 32.4 133 31.9 133.1 31.5C133.1 31.1 133.4 30.9 133.8 31.1L135.1 31.9Z" fill="#A1A1AD"/>
<path d="M114 16.8C114.4 17 114.6 17.5 114.6 17.9C114.6 18.3 114.3 18.5 114 18.3C113.6 18.1 113.3 17.6 113.4 17.2C113.3 16.7 113.6 16.6 114 16.8Z" fill="#A1A1AD"/>
<path d="M114 22.6C114.4 22.8 114.6 23.3 114.6 23.7C114.6 24.1 114.3 24.3 114 24.1C113.6 23.9 113.3 23.4 113.4 23C113.3 22.5 113.6 22.4 114 22.6Z" fill="#A1A1AD"/>
<path d="M145.6 40.8C146 41 146.3 41.5 146.2 41.9C146.2 42.3 145.9 42.5 145.5 42.3L133.6 35.5C133.2 35.3 132.9 34.8 133 34.4C133 34 133.3 33.8 133.7 34L145.6 40.8Z" fill="#A1A1AD"/>
<path d="M159.8 49C160.2 49.2 160.4 49.7 160.4 50.1C160.4 50.5 160.1 50.7 159.8 50.5L147.9 43.6C147.5 43.4 147.3 42.9 147.3 42.5C147.3 42.1 147.6 41.9 147.9 42.1L159.8 49Z" fill="#A1A1AD"/>
<path d="M114 25.5C114.4 25.7 114.6 26.2 114.6 26.6C114.6 27 114.3 27.2 114 27C113.6 26.8 113.3 26.3 113.4 25.9C113.3 25.4 113.6 25.3 114 25.5Z" fill="#A1A1AD"/>
<path d="M114 28.4C114.4 28.6 114.6 29.1 114.6 29.5C114.6 29.9 114.3 30.1 114 29.9C113.6 29.7 113.3 29.2 113.4 28.8C113.3 28.3 113.6 28.1 114 28.4Z" fill="#A1A1AD"/>
<path d="M113.9 45.7C114.3 45.9 114.5 46.4 114.5 46.8C114.5 47.2 114.2 47.4 113.9 47.2C113.6 47 113.2 46.5 113.3 46.1C113.3 45.7 113.5 45.5 113.9 45.7Z" fill="#A1A1AD"/>
<path d="M113.9 48.6C114.3 48.8 114.5 49.3 114.5 49.7C114.5 50.1 114.2 50.3 113.9 50.1C113.6 49.9 113.2 49.4 113.3 49C113.2 48.6 113.5 48.4 113.9 48.6Z" fill="#A1A1AD"/>
<path d="M113.9 51.5C114.3 51.7 114.5 52.2 114.5 52.6C114.5 53 114.2 53.2 113.9 53C113.5 52.8 113.2 52.3 113.3 51.9C113.2 51.5 113.5 51.3 113.9 51.5Z" fill="#A1A1AD"/>
<path d="M113.9 54.4C114.3 54.6 114.5 55.1 114.5 55.5C114.5 55.9 114.2 56.1 113.9 55.9C113.5 55.7 113.2 55.2 113.3 54.8C113.2 54.4 113.5 54.2 113.9 54.4Z" fill="#A1A1AD"/>
<path d="M113.9 57.3C114.3 57.5 114.5 58 114.5 58.4C114.5 58.8 114.2 59 113.9 58.8C113.5 58.6 113.2 58.1 113.3 57.7C113.2 57.3 113.5 57.1 113.9 57.3Z" fill="#A1A1AD"/>
<path d="M113.9 60.2C114.3 60.4 114.5 60.9 114.5 61.3C114.5 61.7 114.2 61.9 113.9 61.7C113.5 61.5 113.2 61 113.3 60.6C113.2 60.2 113.5 60 113.9 60.2Z" fill="#A1A1AD"/>
<path d="M113.8 66C114.2 66.2 114.4 66.7 114.4 67.1C114.4 67.5 114.1 67.7 113.8 67.5C113.4 67.3 113.1 66.8 113.2 66.4C113.2 66 113.5 65.8 113.8 66Z" fill="#A1A1AD"/>
<path d="M113.8 68.9C114.2 69.1 114.4 69.6 114.4 70C114.4 70.4 114.1 70.6 113.8 70.4C113.4 70.2 113.1 69.7 113.2 69.3C113.2 68.9 113.5 68.7 113.8 68.9Z" fill="#A1A1AD"/>
<path d="M113.8 74.7C114.2 74.9 114.4 75.4 114.4 75.8C114.4 76.2 114.1 76.4 113.8 76.2C113.4 76 113.1 75.5 113.2 75.1C113.2 74.7 113.5 74.5 113.8 74.7Z" fill="#A1A1AD"/>
<path d="M113.8 77.6C114.2 77.8 114.4 78.3 114.4 78.7C114.4 79.1 114.1 79.3 113.8 79.1C113.4 78.9 113.1 78.4 113.2 78C113.2 77.6 113.5 77.4 113.8 77.6Z" fill="#A1A1AD"/>
<path d="M113.8 71.8C114.2 72 114.4 72.5 114.4 72.9C114.4 73.3 114.1 73.5 113.8 73.3C113.4 73.1 113.1 72.6 113.2 72.2C113.2 71.8 113.5 71.6 113.8 71.8Z" fill="#A1A1AD"/>
<path d="M113.9 63.1C114.3 63.3 114.5 63.8 114.5 64.2C114.5 64.6 114.2 64.8 113.9 64.6C113.5 64.4 113.2 63.9 113.3 63.5C113.2 63.1 113.5 62.9 113.9 63.1Z" fill="#A1A1AD"/>
<path d="M113.8 83.4C114.2 83.6 114.4 84.1 114.4 84.5C114.4 84.9 114.1 85.1 113.8 84.9C113.4 84.7 113.1 84.2 113.2 83.8C113.1 83.4 113.4 83.2 113.8 83.4Z" fill="#A1A1AD"/>
<path d="M137 96.8C137.4 97 137.6 97.5 137.6 97.9C137.6 98.3 137.3 98.5 137 98.3L135.6 97.5C135.2 97.3 135 96.8 135 96.4C135 96 135.3 95.8 135.6 96L137 96.8Z" fill="#A1A1AD"/>
<path d="M113.8 86.3C114.2 86.5 114.4 87 114.4 87.4C114.4 87.8 114.1 88 113.8 87.8C113.4 87.6 113.1 87.1 113.2 86.7C113.1 86.2 113.4 86.1 113.8 86.3Z" fill="#A1A1AD"/>
<path d="M138.9 100.8C139.3 101 139.6 101.5 139.5 101.9C139.5 102.3 139.2 102.5 138.8 102.3L132.8 98.8C132.4 98.6 132.1 98.1 132.2 97.7C132.2 97.3 132.5 97.1 132.9 97.3L138.9 100.8Z" fill="#A1A1AD"/>
<path d="M113.8 89.2C114.2 89.4 114.4 89.9 114.4 90.3C114.4 90.7 114.1 90.9 113.8 90.7C113.4 90.5 113.1 90 113.2 89.6C113.1 89.2 113.4 89 113.8 89.2Z" fill="#A1A1AD"/>
<path d="M113.8 92.1C114.2 92.3 114.4 92.8 114.4 93.2C114.4 93.6 114.1 93.8 113.8 93.6C113.4 93.4 113.1 92.9 113.2 92.5C113.1 92 113.4 91.9 113.8 92.1Z" fill="#A1A1AD"/>
<path d="M113.8 80.5C114.2 80.7 114.4 81.2 114.4 81.6C114.4 82 114.1 82.2 113.8 82C113.4 81.8 113.1 81.3 113.2 80.9C113.2 80.5 113.4 80.3 113.8 80.5Z" fill="#A1A1AD"/>
<path d="M122.9 85.8C123.3 86 123.6 86.5 123.5 86.9C123.5 87.3 123.2 87.5 122.8 87.3L116.8 83.8C116.4 83.6 116.1 83.1 116.2 82.7C116.2 82.3 116.5 82.1 116.9 82.3L122.9 85.8Z" fill="#A1A1AD"/>
<path d="M113.8 95C114.2 95.2 114.4 95.7 114.4 96.1C114.4 96.5 114.1 96.7 113.8 96.5C113.4 96.3 113.1 95.8 113.2 95.4C113.1 94.9 113.4 94.8 113.8 95Z" fill="#A1A1AD"/>
<path d="M113.8 97.9C114.2 98.1 114.4 98.6 114.4 99C114.4 99.4 114.1 99.6 113.8 99.4C113.4 99.2 113.1 98.7 113.2 98.3C113.1 97.8 113.4 97.7 113.8 97.9Z" fill="#A1A1AD"/>
<path d="M122.3 105.7C122.7 105.9 123 106.4 122.9 106.8C122.9 107.2 122.6 107.4 122.2 107.2L118.8 105.2C118.4 105 118.1 104.5 118.2 104.1C118.2 103.7 118.5 103.5 118.9 103.7L122.3 105.7Z" fill="#A1A1AD"/>
<path d="M122.9 103.1C123.3 103.3 123.6 103.8 123.5 104.2C123.5 104.6 123.2 104.8 122.8 104.6L116.8 101.1C116.4 100.9 116.1 100.4 116.2 100C116.2 99.6 116.5 99.4 116.9 99.6L122.9 103.1Z" fill="#A1A1AD"/>
<path d="M113.7 100.8C114.1 101 114.3 101.5 114.3 101.9C114.3 102.3 114 102.5 113.7 102.3C113.3 102.1 113 101.6 113.1 101.2C113.1 100.7 113.4 100.6 113.7 100.8Z" fill="#A1A1AD"/>
<path d="M113.7 103.7C114.1 103.9 114.3 104.4 114.3 104.8C114.3 105.2 114 105.4 113.7 105.2C113.3 105 113 104.5 113.1 104.1C113.1 103.6 113.4 103.5 113.7 103.7Z" fill="#A1A1AD"/>
<path d="M176 55.7C176.4 55.9 176.6 56.4 176.6 56.8C176.6 57.2 176.3 57.4 176 57.2C175.6 57 175.3 56.5 175.4 56.1C175.3 55.6 175.6 55.5 176 55.7Z" fill="#A1A1AD"/>
<path d="M185.1 72.5C185.5 72.7 185.8 73.2 185.7 73.6C185.7 74 185.4 74.2 185 74L179 70.5C178.6 70.3 178.3 69.8 178.4 69.4C178.4 69 178.7 68.8 179.1 69L185.1 72.5Z" fill="#A1A1AD"/>
<path d="M187.1 76.6C187.5 76.8 187.8 77.3 187.7 77.7C187.7 78.1 187.4 78.3 187 78.1L181 74.6C180.6 74.4 180.3 73.9 180.4 73.5C180.4 73.1 180.7 72.9 181.1 73.1L187.1 76.6Z" fill="#A1A1AD"/>
<path d="M195.4 81.4C195.8 81.6 196 82.1 196 82.5C196 82.9 195.7 83.1 195.4 82.9L189.4 79.4C189 79.2 188.7 78.7 188.8 78.3C188.8 77.9 189.1 77.7 189.5 77.9L195.4 81.4Z" fill="#A1A1AD"/>
<path d="M199.1 83.5C199.5 83.7 199.7 84.2 199.7 84.6C199.7 85 199.4 85.2 199.1 85L197.7 84.2C197.3 84 197.1 83.5 197.1 83.1C197.1 82.7 197.4 82.5 197.7 82.7L199.1 83.5Z" fill="#A1A1AD"/>
<path d="M194.7 86.8C195.1 87 195.3 87.5 195.3 87.9C195.3 88.3 195 88.5 194.7 88.3L188.7 84.8C188.3 84.6 188.1 84.1 188.1 83.7C188.1 83.3 188.4 83.1 188.7 83.3L194.7 86.8Z" fill="#A1A1AD"/>
<path d="M201.1 87.6C201.5 87.8 201.8 88.3 201.7 88.7C201.7 89.1 201.4 89.3 201 89.1L195 85.6C194.6 85.4 194.3 84.9 194.4 84.5C194.4 84.1 194.7 83.9 195.1 84.1L201.1 87.6Z" fill="#A1A1AD"/>
<path d="M185 84.1C185.4 84.3 185.7 84.8 185.6 85.2C185.6 85.6 185.3 85.8 184.9 85.6L178.9 82.1C178.5 81.9 178.2 81.4 178.3 81C178.3 80.6 178.6 80.4 179 80.6L185 84.1Z" fill="#A1A1AD"/>
<path d="M192.8 82.8C193.2 83 193.4 83.5 193.4 83.9C193.4 84.3 193.1 84.5 192.8 84.3L184.7 79.6C184.3 79.4 184.1 78.9 184.1 78.5C184.1 78.1 184.4 77.9 184.7 78.1L192.8 82.8Z" fill="#A1A1AD"/>
<path d="M186.4 82C186.8 82.2 187 82.7 187 83.1C187 83.5 186.7 83.7 186.4 83.5L181.1 80.4C180.7 80.2 180.4 79.7 180.5 79.3C180.5 78.9 180.8 78.7 181.2 78.9L186.4 82Z" fill="#A1A1AD"/>
<path d="M206.1 93.3C206.5 93.5 206.8 94 206.7 94.4C206.7 94.8 206.4 95 206 94.8L196.8 89.5C196.4 89.3 196.2 88.8 196.2 88.4C196.2 88 196.5 87.8 196.8 88L206.1 93.3Z" fill="#A1A1AD"/>
<path d="M185.1 58C185.5 58.2 185.8 58.7 185.7 59.1C185.7 59.5 185.4 59.7 185 59.5L179 56C178.6 55.8 178.3 55.3 178.4 54.9C178.4 54.5 178.7 54.3 179.1 54.5L185.1 58Z" fill="#A1A1AD"/>
<path d="M205 104.3C205.4 104.5 205.6 105 205.6 105.4C205.6 105.8 205.3 106 205 105.8L201.6 103.8C201.2 103.6 201 103.1 201 102.7C201 102.3 201.3 102.1 201.6 102.3L205 104.3Z" fill="#A1A1AD"/>
<path d="M189.8 115.9C190.2 116.1 190.5 116.6 190.4 117C190.4 117.4 190.1 117.6 189.7 117.4L180.9 112.3C180.5 112.1 180.2 111.6 180.3 111.2C180.3 110.8 180.6 110.6 181 110.8L189.8 115.9Z" fill="#A1A1AD"/>
<path d="M189 112.5C189.4 112.7 189.6 113.2 189.6 113.6C189.6 114 189.3 114.2 189 114L183 110.5C182.6 110.3 182.4 109.8 182.4 109.4C182.4 109 182.7 108.8 183 109L189 112.5Z" fill="#A1A1AD"/>
<path d="M186.3 108C186.7 108.2 186.9 108.7 186.9 109.1C186.9 109.5 186.6 109.7 186.3 109.5L183 107.6C182.6 107.4 182.4 106.9 182.4 106.5C182.4 106.1 182.7 105.9 183 106.1L186.3 108Z" fill="#A1A1AD"/>
<path d="M197.9 117.7C198.3 117.9 198.5 118.4 198.5 118.8C198.5 119.2 198.2 119.4 197.9 119.2L191.3 115.4C190.9 115.2 190.7 114.7 190.7 114.3C190.7 113.9 191 113.7 191.3 113.9L197.9 117.7Z" fill="#A1A1AD"/>
<path d="M194.7 112.9C195.1 113.1 195.3 113.6 195.3 114C195.3 114.4 195 114.6 194.7 114.4L188.7 110.9C188.3 110.7 188.1 110.2 188.1 109.8C188.1 109.4 188.4 109.2 188.7 109.4L194.7 112.9Z" fill="#A1A1AD"/>
<path d="M195.6 110.5C196 110.7 196.3 111.2 196.2 111.6C196.2 112 195.9 112.2 195.5 112L186.6 106.9C186.2 106.7 185.9 106.2 186 105.8C186 105.4 186.3 105.2 186.7 105.4L195.6 110.5Z" fill="#A1A1AD"/>
<path d="M198.1 109.1C198.5 109.3 198.8 109.8 198.7 110.2C198.7 110.6 198.4 110.8 198 110.6L192 107.1C191.6 106.9 191.3 106.4 191.4 106C191.4 105.6 191.7 105.4 192.1 105.6L198.1 109.1Z" fill="#A1A1AD"/>
<path d="M197.9 106.1C198.3 106.3 198.5 106.8 198.5 107.2C198.5 107.6 198.2 107.8 197.9 107.6L189.3 102.6C188.9 102.4 188.6 101.9 188.7 101.5C188.7 101.1 189 100.9 189.4 101.1L197.9 106.1Z" fill="#A1A1AD"/>
<path d="M202.9 106C203.3 106.2 203.5 106.7 203.5 107.1C203.5 107.5 203.2 107.7 202.9 107.5L195.8 103.4C195.4 103.2 195.1 102.7 195.2 102.3C195.2 101.9 195.5 101.7 195.9 101.9L202.9 106Z" fill="#A1A1AD"/>
<path d="M184.4 104C184.8 104.2 185.1 104.7 185 105.1C185 105.5 184.7 105.7 184.3 105.5L180.9 103.5C180.5 103.3 180.2 102.8 180.3 102.4C180.3 102 180.6 101.8 181 102L184.4 104Z" fill="#A1A1AD"/>
<path d="M189.9 104.3C190.3 104.5 190.6 105 190.5 105.4C190.5 105.8 190.2 106 189.8 105.8L181 100.7C180.6 100.5 180.3 100 180.4 99.6C180.4 99.2 180.7 99 181.1 99.2L189.9 104.3Z" fill="#A1A1AD"/>
<path d="M187 99.8C187.4 100 187.7 100.5 187.6 100.9C187.6 101.3 187.3 101.5 186.9 101.3L182.9 99C182.5 98.8 182.3 98.3 182.3 97.9C182.3 97.5 182.6 97.3 182.9 97.5L187 99.8Z" fill="#A1A1AD"/>
<path d="M193.5 100.6C193.9 100.8 194.1 101.3 194.1 101.7C194.1 102.1 193.8 102.3 193.5 102.1L183 96C182.6 95.8 182.4 95.3 182.4 94.9C182.4 94.5 182.7 94.3 183 94.5L193.5 100.6Z" fill="#A1A1AD"/>
<path d="M184.4 92.5C184.8 92.7 185.1 93.2 185 93.6C185 94 184.7 94.2 184.3 94L180.9 92C180.5 91.8 180.2 91.3 180.3 90.9C180.3 90.5 180.6 90.3 181 90.5L184.4 92.5Z" fill="#A1A1AD"/>
<path d="M185 89.9C185.4 90.1 185.7 90.6 185.6 91C185.6 91.4 185.3 91.6 184.9 91.4L178.9 87.9C178.5 87.7 178.2 87.2 178.3 86.8C178.3 86.4 178.6 86.2 179 86.4L185 89.9Z" fill="#A1A1AD"/>
<path d="M195.6 98.9C196 99.1 196.3 99.6 196.2 100C196.2 100.4 195.9 100.6 195.5 100.4L186.6 95.3C186.2 95.1 185.9 94.6 186 94.2C186 93.8 186.3 93.6 186.7 93.8L195.6 98.9Z" fill="#A1A1AD"/>
<path d="M199.3 101C199.7 101.2 199.9 101.7 199.9 102.1C199.9 102.5 199.6 102.7 199.3 102.5L197.9 101.7C197.5 101.5 197.3 101 197.3 100.6C197.3 100.2 197.6 100 197.9 100.2L199.3 101Z" fill="#A1A1AD"/>
<path d="M222.7 117.5C223.1 117.7 223.3 118.2 223.3 118.6C223.3 119 223 119.2 222.7 119L212.3 113C211.9 112.8 211.6 112.3 211.7 111.9C211.7 111.5 212 111.3 212.4 111.5L222.7 117.5Z" fill="#A1A1AD"/>
<path d="M199.3 112.6C199.7 112.8 199.9 113.3 199.9 113.7C199.9 114.1 199.6 114.3 199.3 114.1L197.9 113.3C197.5 113.1 197.3 112.6 197.3 112.2C197.3 111.8 197.6 111.6 197.9 111.8L199.3 112.6Z" fill="#A1A1AD"/>
<path d="M203.4 117.9C203.8 118.1 204.1 118.6 204 119C204 119.4 203.7 119.6 203.3 119.4L196.9 115.7C196.5 115.5 196.3 115 196.3 114.6C196.3 114.2 196.6 114 196.9 114.2L203.4 117.9Z" fill="#A1A1AD"/>
<path d="M204.2 109.7C204.6 109.9 204.8 110.4 204.8 110.8C204.8 111.2 204.5 111.4 204.2 111.2L200.2 108.9C199.8 108.7 199.6 108.2 199.6 107.8C199.6 107.4 199.9 107.2 200.2 107.4L204.2 109.7Z" fill="#A1A1AD"/>
<path d="M209.6 115.7C210 115.9 210.3 116.4 210.2 116.8C210.2 117.2 209.9 117.4 209.5 117.2L200.6 112C200.2 111.8 199.9 111.3 200 110.9C200 110.5 200.3 110.3 200.7 110.5L209.6 115.7Z" fill="#A1A1AD"/>
<path d="M210 110.1C210.4 110.3 210.7 110.8 210.6 111.2C210.6 111.6 210.3 111.8 209.9 111.6L205.1 108.8C204.7 108.6 204.4 108.1 204.5 107.7C204.5 107.3 204.8 107.1 205.2 107.3L210 110.1Z" fill="#A1A1AD"/>
<path d="M205 115.9C205.4 116.1 205.6 116.6 205.6 117C205.6 117.4 205.3 117.6 205 117.4L201.6 115.4C201.2 115.2 201 114.7 201 114.3C201 113.9 201.3 113.7 201.6 113.9L205 115.9Z" fill="#A1A1AD"/>
<path d="M185.1 66.7C185.5 66.9 185.8 67.4 185.7 67.8C185.7 68.2 185.4 68.4 185 68.2L179 64.7C178.6 64.5 178.3 64 178.4 63.6C178.4 63.2 178.7 63 179.1 63.2L185.1 66.7Z" fill="#A1A1AD"/>
<path d="M185.1 60.9C185.5 61.1 185.8 61.6 185.7 62C185.7 62.4 185.4 62.6 185 62.4L179 58.9C178.6 58.7 178.3 58.2 178.4 57.8C178.4 57.4 178.7 57.2 179.1 57.4L185.1 60.9Z" fill="#A1A1AD"/>
<path d="M193.4 68.6C193.8 68.8 194.1 69.3 194 69.7C194 70.1 193.7 70.3 193.3 70.1L179 61.8C178.6 61.6 178.3 61.1 178.4 60.7C178.4 60.3 178.7 60.1 179.1 60.3L193.4 68.6Z" fill="#A1A1AD"/>
<path d="M193.4 65.7C193.8 65.9 194.1 66.4 194 66.8C194 67.2 193.7 67.4 193.3 67.2L187.3 63.7C186.9 63.5 186.6 63 186.7 62.6C186.7 62.2 187 62 187.4 62.2L193.4 65.7Z" fill="#A1A1AD"/>
<path d="M175.9 70.1C176.3 70.3 176.5 70.8 176.5 71.2C176.5 71.6 176.2 71.8 175.9 71.6C175.5 71.4 175.2 70.9 175.3 70.5C175.3 70.1 175.6 69.9 175.9 70.1Z" fill="#A1A1AD"/>
<path d="M175.9 73C176.3 73.2 176.5 73.7 176.5 74.1C176.5 74.5 176.2 74.7 175.9 74.5C175.5 74.3 175.2 73.8 175.3 73.4C175.3 73 175.6 72.8 175.9 73Z" fill="#A1A1AD"/>
<path d="M182.5 76.8C182.9 77 183.1 77.5 183.1 77.9C183.1 78.3 182.8 78.5 182.5 78.3L181.1 77.5C180.7 77.3 180.4 76.8 180.5 76.4C180.5 76 180.8 75.8 181.2 76L182.5 76.8Z" fill="#A1A1AD"/>
<path d="M175.9 76C176.3 76.2 176.5 76.7 176.5 77.1C176.5 77.5 176.2 77.7 175.9 77.5C175.5 77.3 175.2 76.8 175.3 76.4C175.3 75.9 175.6 75.8 175.9 76Z" fill="#A1A1AD"/>
<path d="M175.9 78.8C176.3 79 176.5 79.5 176.5 79.9C176.5 80.3 176.2 80.5 175.9 80.3C175.5 80.1 175.2 79.6 175.3 79.2C175.3 78.8 175.6 78.6 175.9 78.8Z" fill="#A1A1AD"/>
<path d="M175.9 67.3C176.3 67.5 176.5 68 176.5 68.4C176.5 68.8 176.2 69 175.9 68.8C175.5 68.6 175.2 68.1 175.3 67.7C175.3 67.2 175.6 67.1 175.9 67.3Z" fill="#A1A1AD"/>
<path d="M197.1 67.9C197.5 68.1 197.7 68.6 197.7 69C197.7 69.4 197.4 69.6 197.1 69.4L195.7 68.6C195.3 68.4 195 67.9 195.1 67.5C195.1 67.1 195.4 66.9 195.8 67.1L197.1 67.9Z" fill="#A1A1AD"/>
<path d="M176 52.8C176.4 53 176.6 53.5 176.6 53.9C176.6 54.3 176.3 54.5 176 54.3C175.6 54.1 175.3 53.6 175.4 53.2C175.3 52.7 175.6 52.6 176 52.8Z" fill="#A1A1AD"/>
<path d="M176 58.6C176.4 58.8 176.6 59.3 176.6 59.7C176.6 60.1 176.3 60.3 176 60.1C175.7 59.9 175.3 59.4 175.4 59C175.3 58.5 175.6 58.4 176 58.6Z" fill="#A1A1AD"/>
<path d="M207.6 76.8C208 77 208.3 77.5 208.2 77.9C208.2 78.3 207.9 78.5 207.5 78.3L195.6 71.5C195.2 71.3 194.9 70.8 195 70.4C195 70 195.3 69.8 195.7 70L207.6 76.8Z" fill="#A1A1AD"/>
<path d="M221.8 85C222.2 85.2 222.4 85.7 222.4 86.1C222.4 86.5 222.1 86.7 221.8 86.5L209.9 79.6C209.5 79.4 209.3 78.9 209.3 78.5C209.3 78.1 209.6 77.9 209.9 78.1L221.8 85Z" fill="#A1A1AD"/>
<path d="M176 61.5C176.4 61.7 176.6 62.2 176.6 62.6C176.6 63 176.3 63.2 176 63C175.6 62.8 175.3 62.3 175.4 61.9C175.3 61.4 175.6 61.3 176 61.5Z" fill="#A1A1AD"/>
<path d="M176 64.4C176.4 64.6 176.6 65.1 176.6 65.5C176.6 65.9 176.3 66.1 176 65.9C175.6 65.7 175.3 65.2 175.4 64.8C175.3 64.3 175.6 64.1 176 64.4Z" fill="#A1A1AD"/>
<path d="M175.9 81.7C176.3 81.9 176.5 82.4 176.5 82.8C176.5 83.2 176.2 83.4 175.9 83.2C175.5 83 175.2 82.5 175.3 82.1C175.3 81.7 175.5 81.5 175.9 81.7Z" fill="#A1A1AD"/>
<path d="M175.9 84.6C176.3 84.8 176.5 85.3 176.5 85.7C176.5 86.1 176.2 86.3 175.9 86.1C175.6 85.9 175.2 85.4 175.3 85C175.2 84.6 175.5 84.4 175.9 84.6Z" fill="#A1A1AD"/>
<path d="M175.9 87.5C176.3 87.7 176.5 88.2 176.5 88.6C176.5 89 176.2 89.2 175.9 89C175.5 88.8 175.2 88.3 175.3 87.9C175.2 87.5 175.5 87.3 175.9 87.5Z" fill="#A1A1AD"/>
<path d="M175.9 90.4C176.3 90.6 176.5 91.1 176.5 91.5C176.5 91.9 176.2 92.1 175.9 91.9C175.6 91.7 175.2 91.2 175.3 90.8C175.2 90.4 175.5 90.2 175.9 90.4Z" fill="#A1A1AD"/>
<path d="M175.9 93.3C176.3 93.5 176.5 94 176.5 94.4C176.5 94.8 176.2 95 175.9 94.8C175.5 94.6 175.2 94.1 175.3 93.7C175.2 93.3 175.5 93.1 175.9 93.3Z" fill="#A1A1AD"/>
<path d="M175.9 96.2C176.3 96.4 176.5 96.9 176.5 97.3C176.5 97.7 176.2 97.9 175.9 97.7C175.5 97.5 175.2 97 175.3 96.6C175.2 96.2 175.5 96 175.9 96.2Z" fill="#A1A1AD"/>
<path d="M175.8 102C176.2 102.2 176.4 102.7 176.4 103.1C176.4 103.5 176.1 103.7 175.8 103.5C175.5 103.3 175.1 102.8 175.2 102.4C175.2 102 175.5 101.8 175.8 102Z" fill="#A1A1AD"/>
<path d="M175.8 104.9C176.2 105.1 176.4 105.6 176.4 106C176.4 106.4 176.1 106.6 175.8 106.4C175.4 106.2 175.1 105.7 175.2 105.3C175.2 104.9 175.5 104.7 175.8 104.9Z" fill="#A1A1AD"/>
<path d="M175.8 107.8C176.2 108 176.4 108.5 176.4 108.9C176.4 109.3 176.1 109.5 175.8 109.3C175.5 109.1 175.1 108.6 175.2 108.2C175.2 107.8 175.5 107.6 175.8 107.8Z" fill="#A1A1AD"/>
<path d="M175.9 99.1C176.3 99.3 176.5 99.8 176.5 100.2C176.5 100.6 176.2 100.8 175.9 100.6C175.5 100.4 175.2 99.9 175.3 99.5C175.2 99.1 175.5 98.9 175.9 99.1Z" fill="#A1A1AD"/>
<path d="M114.4 125.4C114.8 125.6 114.8 126 114.4 126.2L109.9 128.8C109.5 129 108.9 129 108.5 128.8L103.9 126.2C103.5 126 103.5 125.6 103.9 125.4L108.4 122.8C108.8 122.6 109.4 122.6 109.8 122.8L114.4 125.4Z" fill="#A1A1AD"/>
<path d="M121.8 129.7C122.2 129.9 122.2 130.3 121.8 130.5L117.3 133.1C116.9 133.3 116.3 133.3 115.9 133.1L111.3 130.5C110.9 130.3 110.9 129.9 111.3 129.7L115.8 127.1C116.2 126.9 116.8 126.9 117.2 127.1L121.8 129.7Z" fill="#A1A1AD"/>
<path d="M109.7 131C110.2 131.3 110.2 131.7 109.7 132L105.4 134.5C104.9 134.8 104.2 134.8 103.7 134.5L96.8 130.5C96.3 130.2 96.3 129.8 96.8 129.5L101.1 127C101.6 126.7 102.3 126.7 102.8 127L109.7 131Z" fill="#A1A1AD"/>
<path d="M104.7 136.4C105.2 136.7 105.2 137.2 104.7 137.5L100.7 139.9C100.2 140.2 99.3 140.2 98.8 139.9L89.9 134.7C89.4 134.4 89.4 133.9 89.9 133.6L93.9 131.2C94.4 130.9 95.3 130.9 95.8 131.2L104.7 136.4Z" fill="#A1A1AD"/>
<path d="M129.2 134C129.6 134.2 129.6 134.6 129.2 134.8L124.7 137.4C124.3 137.6 123.7 137.6 123.3 137.4L118.7 134.8C118.3 134.6 118.3 134.2 118.7 134L123.2 131.4C123.6 131.2 124.2 131.2 124.6 131.4L129.2 134Z" fill="#A1A1AD"/>
<path d="M117.3 135.4C117.7 135.6 117.7 136 117.3 136.2L112.8 138.8C112.4 139 111.8 139 111.4 138.8L106.8 136.2C106.4 136 106.4 135.6 106.8 135.4L111.3 132.8C111.7 132.6 112.3 132.6 112.7 132.8L117.3 135.4Z" fill="#A1A1AD"/>
<path d="M112.3 140.8C112.7 141 112.7 141.4 112.3 141.6L107.8 144.2C107.4 144.4 106.8 144.4 106.4 144.2L101.8 141.6C101.4 141.4 101.4 141 101.8 140.8L106.3 138.2C106.7 138 107.3 138 107.7 138.2L112.3 140.8Z" fill="#A1A1AD"/>
<path d="M136.6 138.2C137 138.4 137 138.8 136.6 139L132.1 141.6C131.7 141.8 131.1 141.8 130.7 141.6L126.1 139C125.7 138.8 125.7 138.4 126.1 138.2L130.6 135.6C131 135.4 131.6 135.4 132 135.6L136.6 138.2Z" fill="#A1A1AD"/>
<path d="M124.7 139.6C125.1 139.8 125.1 140.2 124.7 140.4L120.2 143C119.8 143.2 119.2 143.2 118.8 143L114.2 140.4C113.8 140.2 113.8 139.8 114.2 139.6L118.7 137C119.1 136.8 119.7 136.8 120.1 137L124.7 139.6Z" fill="#A1A1AD"/>
<path d="M119.7 145.1C120.1 145.3 120.1 145.7 119.7 145.9L115.2 148.5C114.8 148.7 114.2 148.7 113.8 148.5L109.2 145.9C108.8 145.7 108.8 145.3 109.2 145.1L113.7 142.5C114.1 142.3 114.7 142.3 115.1 142.5L119.7 145.1Z" fill="#A1A1AD"/>
<path d="M144 142.5C144.4 142.7 144.4 143.1 144 143.3L139.5 145.9C139.1 146.1 138.5 146.1 138.1 145.9L133.5 143.3C133.1 143.1 133.1 142.7 133.5 142.5L138 139.9C138.4 139.7 139 139.7 139.4 139.9L144 142.5Z" fill="#A1A1AD"/>
<path d="M132.1 143.9C132.5 144.1 132.5 144.5 132.1 144.7L127.6 147.3C127.2 147.5 126.6 147.5 126.2 147.3L121.6 144.7C121.2 144.5 121.2 144.1 121.6 143.9L126.1 141.3C126.5 141.1 127.1 141.1 127.5 141.3L132.1 143.9Z" fill="#A1A1AD"/>
<path d="M127.1 149.3C127.5 149.5 127.5 149.9 127.1 150.1L122.6 152.7C122.2 152.9 121.6 152.9 121.2 152.7L116.6 150.1C116.2 149.9 116.2 149.5 116.6 149.3L121.1 146.7C121.5 146.5 122.1 146.5 122.5 146.7L127.1 149.3Z" fill="#A1A1AD"/>
<path d="M151.4 146.8C151.8 147 151.8 147.4 151.4 147.6L146.9 150.2C146.5 150.4 145.9 150.4 145.5 150.2L140.9 147.6C140.5 147.4 140.5 147 140.9 146.8L145.4 144.2C145.8 144 146.4 144 146.8 144.2L151.4 146.8Z" fill="#A1A1AD"/>
<path d="M139.5 148.2C139.9 148.4 139.9 148.8 139.5 149L135 151.6C134.6 151.8 134 151.8 133.6 151.6L129 149C128.6 148.8 128.6 148.4 129 148.2L133.5 145.6C133.9 145.4 134.5 145.4 134.9 145.6L139.5 148.2Z" fill="#A1A1AD"/>
<path d="M134.5 153.6C134.9 153.8 134.9 154.2 134.5 154.4L130 157C129.6 157.2 129 157.2 128.6 157L124 154.4C123.6 154.2 123.6 153.8 124 153.6L128.5 151C128.9 150.8 129.5 150.8 129.9 151L134.5 153.6Z" fill="#A1A1AD"/>
<path d="M158.8 151C159.2 151.2 159.2 151.6 158.8 151.8L154.3 154.4C153.9 154.6 153.3 154.6 152.9 154.4L148.3 151.8C147.9 151.6 147.9 151.2 148.3 151L152.8 148.4C153.2 148.2 153.8 148.2 154.2 148.4L158.8 151Z" fill="#A1A1AD"/>
<path d="M146.9 152.4C147.3 152.6 147.3 153 146.9 153.2L142.4 155.8C142 156 141.4 156 141 155.8L136.4 153.2C136 153 136 152.6 136.4 152.4L140.9 149.8C141.3 149.6 141.9 149.6 142.3 149.8L146.9 152.4Z" fill="#A1A1AD"/>
<path d="M141.9 157.9C142.3 158.1 142.3 158.5 141.9 158.7L137.4 161.3C137 161.5 136.4 161.5 136 161.3L131.4 158.7C131 158.5 131 158.1 131.4 157.9L135.9 155.3C136.3 155.1 136.9 155.1 137.3 155.3L141.9 157.9Z" fill="#A1A1AD"/>
<path d="M166.2 155.3C166.6 155.5 166.6 155.9 166.2 156.1L161.7 158.7C161.3 158.9 160.7 158.9 160.3 158.7L155.7 156.1C155.3 155.9 155.3 155.5 155.7 155.3L160.2 152.7C160.6 152.5 161.2 152.5 161.6 152.7L166.2 155.3Z" fill="#A1A1AD"/>
<path d="M154.2 156.7C154.6 156.9 154.6 157.3 154.2 157.5L149.7 160.1C149.3 160.3 148.7 160.3 148.3 160.1L143.7 157.5C143.3 157.3 143.3 156.9 143.7 156.7L148.2 154.1C148.6 153.9 149.2 153.9 149.6 154.1L154.2 156.7Z" fill="#A1A1AD"/>
<path d="M149.3 162.2C149.7 162.4 149.7 162.8 149.3 163L144.8 165.6C144.4 165.8 143.8 165.8 143.4 165.6L138.8 163C138.4 162.8 138.4 162.4 138.8 162.2L143.3 159.6C143.7 159.4 144.3 159.4 144.7 159.6L149.3 162.2Z" fill="#A1A1AD"/>
<path d="M173.5 159.6C173.9 159.8 173.9 160.2 173.5 160.4L169 163C168.6 163.2 168 163.2 167.6 163L163 160.4C162.6 160.2 162.6 159.8 163 159.6L167.5 157C167.9 156.8 168.5 156.8 168.9 157L173.5 159.6Z" fill="#A1A1AD"/>
<path d="M161.6 161C162 161.2 162 161.6 161.6 161.8L157.1 164.4C156.7 164.6 156.1 164.6 155.7 164.4L151.1 161.8C150.7 161.6 150.7 161.2 151.1 161L155.6 158.4C156 158.2 156.6 158.2 157 158.4L161.6 161Z" fill="#A1A1AD"/>
<path d="M156.7 166.4C157.1 166.6 157.1 167 156.7 167.2L152.2 169.8C151.8 170 151.2 170 150.8 169.8L146.2 167.2C145.8 167 145.8 166.6 146.2 166.4L150.7 163.8C151.1 163.6 151.7 163.6 152.1 163.8L156.7 166.4Z" fill="#A1A1AD"/>
<path d="M180.9 163.8C181.3 164 181.3 164.4 180.9 164.6L176.4 167.2C176 167.4 175.4 167.4 175 167.2L170.4 164.6C170 164.4 170 164 170.4 163.8L174.9 161.2C175.3 161 175.9 161 176.3 161.2L180.9 163.8Z" fill="#A1A1AD"/>
<path d="M169 165.2C169.4 165.4 169.4 165.8 169 166L164.5 168.6C164.1 168.8 163.5 168.8 163.1 168.6L158.5 166C158.1 165.8 158.1 165.4 158.5 165.2L163 162.6C163.4 162.4 164 162.4 164.4 162.6L169 165.2Z" fill="#A1A1AD"/>
<path d="M164.1 170.7C164.5 170.9 164.5 171.3 164.1 171.5L159.6 174.1C159.2 174.3 158.6 174.3 158.2 174.1L153.6 171.5C153.2 171.3 153.2 170.9 153.6 170.7L158.1 168.1C158.5 167.9 159.1 167.9 159.5 168.1L164.1 170.7Z" fill="#A1A1AD"/>
<path d="M188.3 168.1C188.7 168.3 188.7 168.7 188.3 168.9L183.8 171.5C183.4 171.7 182.8 171.7 182.4 171.5L177.8 168.9C177.4 168.7 177.4 168.3 177.8 168.1L182.3 165.5C182.7 165.3 183.3 165.3 183.7 165.5L188.3 168.1Z" fill="#A1A1AD"/>
<path d="M176.4 169.5C176.8 169.7 176.8 170.1 176.4 170.3L171.9 172.9C171.5 173.1 170.9 173.1 170.5 172.9L165.9 170.3C165.5 170.1 165.5 169.7 165.9 169.5L170.4 166.9C170.8 166.7 171.4 166.7 171.8 166.9L176.4 169.5Z" fill="#A1A1AD"/>
<path d="M171.5 175C171.9 175.2 171.9 175.6 171.5 175.8L167 178.4C166.6 178.6 166 178.6 165.6 178.4L161 175.8C160.6 175.6 160.6 175.2 161 175L165.5 172.4C165.9 172.2 166.5 172.2 166.9 172.4L171.5 175Z" fill="#A1A1AD"/>
<path d="M195.7 172.4C196.1 172.6 196.1 173 195.7 173.2L191.2 175.8C190.8 176 190.2 176 189.8 175.8L185.2 173.2C184.8 173 184.8 172.6 185.2 172.4L189.7 169.8C190.1 169.6 190.7 169.6 191.1 169.8L195.7 172.4Z" fill="#A1A1AD"/>
<path d="M183.8 173.8C184.2 174 184.2 174.4 183.8 174.6L179.3 177.2C178.9 177.4 178.3 177.4 177.9 177.2L173.3 174.6C172.9 174.4 172.9 174 173.3 173.8L177.8 171.2C178.2 171 178.8 171 179.2 171.2L183.8 173.8Z" fill="#A1A1AD"/>
<path d="M178.9 179.2C179.3 179.4 179.3 179.8 178.9 180L174.4 182.6C174 182.8 173.4 182.8 173 182.6L168.4 180C168 179.8 168 179.4 168.4 179.2L172.9 176.6C173.3 176.4 173.9 176.4 174.3 176.6L178.9 179.2Z" fill="#A1A1AD"/>
<path d="M203.1 176.6C203.5 176.8 203.5 177.2 203.1 177.4L198.6 180C198.2 180.2 197.6 180.2 197.2 180L192.6 177.4C192.2 177.2 192.2 176.8 192.6 176.6L197.1 174C197.5 173.8 198.1 173.8 198.5 174L203.1 176.6Z" fill="#A1A1AD"/>
<path d="M191.2 178C191.6 178.2 191.6 178.6 191.2 178.8L186.7 181.4C186.3 181.6 185.7 181.6 185.3 181.4L180.7 178.8C180.3 178.6 180.3 178.2 180.7 178L185.2 175.4C185.6 175.2 186.2 175.2 186.6 175.4L191.2 178Z" fill="#A1A1AD"/>
<path d="M186.3 183.5C186.7 183.7 186.7 184.1 186.3 184.3L181.8 186.9C181.4 187.1 180.8 187.1 180.4 186.9L175.8 184.3C175.4 184.1 175.4 183.7 175.8 183.5L180.3 180.9C180.7 180.7 181.3 180.7 181.7 180.9L186.3 183.5Z" fill="#A1A1AD"/>
<path d="M215.3 183.7C215.8 184 215.9 184.5 215.3 184.8L211.3 187.1C210.8 187.4 209.9 187.4 209.3 187.1L199.9 181.7C199.3 181.4 199.3 180.9 199.9 180.6L203.9 178.3C204.4 178 205.3 178 205.9 178.3L215.3 183.7Z" fill="#A1A1AD"/>
<path d="M198.6 182.3C199 182.5 199 182.9 198.6 183.1L194.1 185.7C193.7 185.9 193.1 185.9 192.7 185.7L188.1 183.1C187.7 182.9 187.7 182.5 188.1 182.3L192.6 179.7C193 179.5 193.6 179.5 194 179.7L198.6 182.3Z" fill="#A1A1AD"/>
<path d="M208.3 187.9C208.8 188.2 208.8 188.6 208.3 188.9L204 191.4C203.5 191.7 202.8 191.7 202.3 191.4L195.6 187.5C195.1 187.2 195.1 186.8 195.6 186.5L199.9 184C200.4 183.7 201.1 183.7 201.6 184L208.3 187.9Z" fill="#A1A1AD"/>
<path d="M200.9 191.9C201.5 192.2 201.5 192.8 200.9 193.1L197.1 195.3C196.5 195.6 195.5 195.7 194.9 195.3L183.4 188.7C182.8 188.4 182.8 187.8 183.4 187.4L187.2 185.2C187.8 184.9 188.8 184.9 189.4 185.2L200.9 191.9Z" fill="#A1A1AD"/>
<path d="M99.3 141.6C99.9 141.9 99.9 142.5 99.3 142.8L95.4 145.1C94.8 145.4 93.9 145.4 93.3 145.1L82.7 139C82.1 138.7 82.1 138.1 82.7 137.8L86.6 135.5C87.2 135.2 88.1 135.2 88.7 135.5L99.3 141.6Z" fill="#A1A1AD"/>
<path d="M88.4 143.6C88.9 143.9 88.9 144.3 88.4 144.6L84.2 147.1C83.7 147.4 83 147.4 82.5 147.1L75.5 143C75 142.7 75 142.3 75.5 142L79.7 139.5C80.2 139.2 81 139.2 81.4 139.5L88.4 143.6Z" fill="#A1A1AD"/>
<path d="M107 146C107.4 146.2 107.4 146.6 107 146.8L102.5 149.4C102.1 149.6 101.5 149.6 101.1 149.4L96.5 146.8C96.1 146.6 96.1 146.2 96.5 146L101 143.4C101.4 143.2 102 143.2 102.4 143.4L107 146Z" fill="#A1A1AD"/>
<path d="M95.9 147.9C96.3 148.1 96.3 148.5 95.9 148.7L91.4 151.3C91 151.5 90.4 151.5 90 151.3L85.4 148.7C85 148.5 85 148.1 85.4 147.9L89.9 145.3C90.3 145.1 90.9 145.1 91.3 145.3L95.9 147.9Z" fill="#A1A1AD"/>
<path d="M114.4 150.3C114.8 150.5 114.8 150.9 114.4 151.1L109.9 153.7C109.5 153.9 108.9 153.9 108.5 153.7L103.9 151.1C103.5 150.9 103.5 150.5 103.9 150.3L108.4 147.7C108.8 147.5 109.4 147.5 109.8 147.7L114.4 150.3Z" fill="#A1A1AD"/>
<path d="M105.7 153.6C106.2 153.9 106.2 154.3 105.7 154.6L101.4 157.1C100.9 157.4 100.2 157.4 99.7 157.1L92.8 153.1C92.3 152.8 92.3 152.4 92.8 152.1L97.1 149.6C97.6 149.3 98.3 149.3 98.8 149.6L105.7 153.6Z" fill="#A1A1AD"/>
<path d="M121.8 154.6C122.2 154.8 122.2 155.2 121.8 155.4L117.3 158C116.9 158.2 116.3 158.2 115.9 158L111.3 155.4C110.9 155.2 110.9 154.8 111.3 154.6L115.8 152C116.2 151.8 116.8 151.8 117.2 152L121.8 154.6Z" fill="#A1A1AD"/>
<path d="M129.2 158.9C129.6 159.1 129.6 159.5 129.2 159.7L124.7 162.3C124.3 162.5 123.7 162.5 123.3 162.3L118.7 159.7C118.3 159.5 118.3 159.1 118.7 158.9L123.2 156.3C123.6 156.1 124.2 156.1 124.6 156.3L129.2 158.9Z" fill="#A1A1AD"/>
<path d="M136.6 163.1C137 163.3 137 163.7 136.6 163.9L132.1 166.5C131.7 166.7 131.1 166.7 130.7 166.5L126.1 163.9C125.7 163.7 125.7 163.3 126.1 163.1L130.6 160.5C131 160.3 131.6 160.3 132 160.5L136.6 163.1Z" fill="#A1A1AD"/>
<path d="M144 167.4C144.4 167.6 144.4 168 144 168.2L139.5 170.8C139.1 171 138.5 171 138.1 170.8L133.5 168.2C133.1 168 133.1 167.6 133.5 167.4L138 164.8C138.4 164.6 139 164.6 139.4 164.8L144 167.4Z" fill="#A1A1AD"/>
<path d="M151.4 171.7C151.8 171.9 151.8 172.3 151.4 172.5L146.9 175.1C146.5 175.3 145.9 175.3 145.5 175.1L140.9 172.5C140.5 172.3 140.5 171.9 140.9 171.7L145.4 169.1C145.8 168.9 146.4 168.9 146.8 169.1L151.4 171.7Z" fill="#A1A1AD"/>
<path d="M158.8 175.9C159.2 176.1 159.2 176.5 158.8 176.7L154.3 179.3C153.9 179.5 153.3 179.5 152.9 179.3L148.3 176.7C147.9 176.5 147.9 176.1 148.3 175.9L152.8 173.3C153.2 173.1 153.8 173.1 154.2 173.3L158.8 175.9Z" fill="#A1A1AD"/>
<path d="M166.2 180.2C166.6 180.4 166.6 180.8 166.2 181L161.7 183.6C161.3 183.8 160.7 183.8 160.3 183.6L155.7 181C155.3 180.8 155.3 180.4 155.7 180.2L160.2 177.6C160.6 177.4 161.2 177.4 161.6 177.6L166.2 180.2Z" fill="#A1A1AD"/>
<path d="M155.2 182.1C155.7 182.4 155.7 182.9 155.2 183.2L151.2 185.5C150.7 185.8 149.8 185.8 149.2 185.5L103 158.9C102.5 158.6 102.5 158.1 103 157.8L107 155.5C107.5 155.2 108.4 155.2 109 155.5L155.2 182.1Z" fill="#A1A1AD"/>
<path d="M173.6 184.5C174 184.7 174 185.1 173.6 185.3L169.1 187.9C168.7 188.1 168.1 188.1 167.7 187.9L163.1 185.3C162.7 185.1 162.7 184.7 163.1 184.5L167.6 181.9C168 181.7 168.6 181.7 169 181.9L173.6 184.5Z" fill="#A1A1AD"/>
<path d="M162.8 186.5C163.2 186.7 163.2 187.1 162.8 187.3L158.3 189.9C157.9 190.1 157.3 190.1 156.9 189.9L152.3 187.3C151.9 187.1 151.9 186.7 152.3 186.5L156.8 183.9C157.2 183.7 157.8 183.7 158.2 183.9L162.8 186.5Z" fill="#A1A1AD"/>
<path d="M193.5 196C194.2 196.4 194.2 197.1 193.5 197.5L190.1 199.5C189.4 199.9 188.3 199.9 187.5 199.5L170.9 189.9C170.2 189.5 170.2 188.8 170.9 188.4L174.3 186.4C175 186 176.1 186 176.9 186.4L193.5 196Z" fill="#A1A1AD"/>
<path d="M170.1 190.7C170.5 190.9 170.5 191.3 170.1 191.5L165.6 194.1C165.2 194.3 164.6 194.3 164.2 194.1L159.6 191.5C159.2 191.3 159.2 190.9 159.6 190.7L164.1 188.1C164.5 187.9 165.1 187.9 165.5 188.1L170.1 190.7Z" fill="#A1A1AD"/>
<path d="M179.7 196.3C180.2 196.6 180.2 197 179.7 197.3L175.5 199.8C175 200.1 174.3 200.1 173.8 199.8L166.8 195.8C166.3 195.5 166.3 195.1 166.8 194.8L171 192.3C171.5 192 172.2 192 172.7 192.3L179.7 196.3Z" fill="#A1A1AD"/>
<path d="M187 200.5C187.4 200.7 187.4 201.1 187 201.3L182.5 203.9C182.1 204.1 181.5 204.1 181.1 203.9L176.5 201.3C176.1 201.1 176.1 200.7 176.5 200.5L181 197.9C181.4 197.7 182 197.7 182.4 197.9L187 200.5Z" fill="#A1A1AD"/>
<path d="M211.1 265.9C209.9 265.9 208.8 265.6 208 265.2L175.7 246.6C175 246.2 174.6 245.6 174.6 245.1C174.6 244.6 175 244 175.7 243.6L252.9 198.7C253.7 198.2 254.8 198 256 198C257.2 198 258.3 198.3 259.1 198.7L291.4 217.3C292.1 217.7 292.5 218.3 292.5 218.8C292.5 219.3 292.1 219.9 291.4 220.3L214.2 265.2C213.4 265.7 212.3 265.9 211.1 265.9Z" fill="white"/>
<path d="M256 198.5C257.1 198.5 258.1 198.7 258.8 199.2L291.1 217.8C291.7 218.1 292 218.5 292 218.9C292 219.2 291.7 219.6 291.1 219.9L213.9 264.8C213.2 265.2 212.2 265.5 211.1 265.5C210 265.5 209 265.3 208.3 264.8L176 246.1C175.4 245.8 175.1 245.4 175.1 245C175.1 244.7 175.4 244.3 176 244L253.2 199.1C253.9 198.8 254.9 198.5 256 198.5ZM256 197.5C254.8 197.5 253.6 197.8 252.7 198.3L175.5 243.2C173.7 244.3 173.7 246 175.5 247L207.8 265.6C208.7 266.1 209.9 266.4 211.1 266.4C212.3 266.4 213.5 266.1 214.4 265.6L291.6 220.7C293.4 219.6 293.4 217.9 291.6 216.9L259.3 198.3C258.4 197.8 257.2 197.5 256 197.5Z" fill="#43435C"/>
<path d="M292.9 219.1C292.7 219.7 292.3 220.3 291.8 220.7C291.7 220.8 291.7 220.8 291.7 220.8L214.5 265.7C214.5 265.7 214.5 265.7 214.4 265.7C212.4 266.6 210.1 266.6 208.1 265.8C208 265.7 207.9 265.7 207.8 265.7L175.5 247C174.6 246.5 174.1 245.8 174.1 245.1V248.4C174.1 249.1 174.6 249.8 175.5 250.3L207.8 268.9C207.8 268.9 207.8 268.9 207.9 268.9C209.9 269.8 212.2 269.8 214.2 269C214.3 268.9 214.4 268.9 214.5 268.9L291.7 224C292.3 223.6 292.7 222.9 293 222.3C293 222.2 293 222.2 293 222.2V218.9C293 218.9 293 219 292.9 219.1Z" fill="#43435C"/>
<path d="M286.1 213.9C284.3 214.9 281.5 214.9 279.7 213.9L264.1 204.9C262.3 203.9 262.3 202.2 264.1 201.2L286.1 213.9Z" fill="#43435C"/>
<path d="M192.5 257.3C192.8 257.5 193.1 257.9 193.1 258.3C193.1 258.7 192.8 258.8 192.5 258.6L190.3 257.3C190 257.1 189.7 256.7 189.7 256.3C189.7 255.9 190 255.8 190.3 256L192.5 257.3Z" fill="white"/>
<path d="M161.7 274.7C161.3 274.7 160.9 274.6 160.6 274.4L108.7 244.9C108 244.5 107.6 243.8 107.6 243C107.6 242.2 108 241.5 108.7 241L127.3 230L127.6 230.4L109 241.4C108.5 241.7 108.1 242.3 108.1 242.9C108.1 243.5 108.4 244.1 109 244.4L160.9 273.9C161.4 274.2 162.1 274.2 162.6 273.9L188.1 259.1V258.8L189.7 258L189.9 258.5L188.5 259.1V259.4L162.8 274.4C162.5 274.6 162.1 274.7 161.7 274.7Z" fill="#43435C"/>
<path d="M192.9 257.9L192.6 258.1L192.7 258.2L192.3 258.5C191.9 258.8 191.3 258.9 190.7 259L188.7 259.3L188 258.9L188.4 257.7C188.5 257.3 188.8 257 189.3 256.8L189.7 256.5L189.8 256.6L190.1 256.4L192.9 257.9Z" fill="#43435C"/>
<path d="M192.9 257.9L192.6 258.1V258.3L192.3 258.5C191.9 258.8 191.3 258.9 190.7 259L188.7 259.3L188 258.9V259.2L188.7 259.6L190.7 259.3C191.3 259.2 191.9 259 192.3 258.8L192.7 258.5V258.3L192.8 258.2L192.9 257.9Z" fill="#2C2C47"/>
<path d="M228.4 251C228.8 251.2 228.8 251.6 228.4 251.9L228.3 252C227.9 252.2 227.2 252.2 226.8 252L204.6 239.2C204.2 239 204.2 238.6 204.6 238.3L204.7 238.2C205.1 238 205.8 238 206.2 238.2L228.4 251Z" fill="#D0D0D6"/>
<path d="M225.3 253.1C225.6 253.3 225.6 253.5 225.3 253.7C225 253.9 224.5 253.9 224.2 253.7L201.5 240.6C201.2 240.4 201.2 240.2 201.5 240C201.8 239.8 202.3 239.8 202.6 240L225.3 253.1Z" fill="#D0D0D6"/>
<path d="M202.9 234.5C204.2 235.3 204.2 236.5 202.9 237.2C201.6 238 199.5 238 198.2 237.2C196.9 236.4 196.9 235.2 198.2 234.5C199.5 233.7 201.6 233.7 202.9 234.5Z" fill="#D0D0D6"/>
<path d="M211.7 261C212 261.2 212 261.4 211.7 261.6C211.4 261.8 210.9 261.8 210.6 261.6L188 248.5C187.7 248.3 187.7 248.1 188 247.9C188.3 247.7 188.8 247.7 189.1 247.9L211.7 261Z" fill="#D0D0D6"/>
<path d="M192.2 240.7C193.5 241.5 193.5 242.7 192.2 243.4C190.9 244.2 188.8 244.2 187.5 243.4C186.2 242.6 186.2 241.4 187.5 240.7C188.8 239.9 190.9 239.9 192.2 240.7Z" fill="#D0D0D6"/>
<path d="M278.9 220.5C280 221.2 280 222.2 278.9 222.9C277.8 223.6 275.9 223.6 274.8 222.9L247.7 207.3C246.6 206.6 246.6 205.6 247.7 204.9C248.8 204.2 250.7 204.2 251.8 204.9L278.9 220.5Z" fill="#D0D0D6"/>
<path d="M274.5 224.5C274.9 224.8 274.9 225.2 274.5 225.4C274.1 225.7 273.4 225.6 272.9 225.4L243.3 208.3C242.9 208 242.9 207.6 243.3 207.4C243.7 207.1 244.4 207.1 244.9 207.4L274.5 224.5Z" fill="#D0D0D6"/>
<path d="M272.6 225.6C273 225.9 273 226.3 272.6 226.5C272.2 226.8 271.5 226.8 271 226.5L241.4 209.4C241 209.1 241 208.7 241.4 208.5C241.8 208.2 242.5 208.2 243 208.5L272.6 225.6Z" fill="#D0D0D6"/>
<path d="M248.8 226.5C249 226.6 249 226.7 248.8 226.8C247.1 227.8 245.4 228.7 243.8 229.7H243.7C243.7 229.5 243.7 229.2 243.7 229C243.7 228.4 243.8 227.9 243.8 227.3C243.8 227.2 243.8 227.1 243.7 227.1C243.6 227.1 243.5 227 243.4 227C243.2 227 243 227 242.7 227C242.5 227 242.4 227 242.3 226.9C242.2 226.8 242.2 226.8 242.2 226.7C242.2 226.3 242.2 225.8 242.3 225.4C242.3 225.3 242.2 225.2 242.1 225.1C242 225 241.8 225 241.5 225C239.8 225.1 238 225.2 236.3 225.3H236.1L236.2 225.2C237.8 224.2 239.5 223.3 241.2 222.3C241.4 222.2 241.6 222.2 241.8 222.3C244.1 223.8 246.5 225.1 248.8 226.5ZM245 227.2C245.5 227.5 246.4 227.5 246.9 227.2C247.4 226.9 247.4 226.4 246.9 226.1C246.4 225.8 245.5 225.8 245 226.1C244.5 226.4 244.5 226.9 245 227.2Z" fill="#F2F2F2"/>
<path d="M238.5 211.2L268.2 228.3L245.7 241.4L216 224.3L238.5 211.2ZM243.2 230.8C245.4 229.5 247.7 228.2 249.9 226.9C250.1 226.7 250.1 226.5 249.9 226.4C247.2 224.9 244.6 223.3 241.9 221.8C241.6 221.7 241.3 221.7 241 221.8L240.8 221.9C238.7 223.1 236.5 224.4 234.4 225.6C234 225.8 234 226.1 234.4 226.3C236.9 227.8 239.5 229.2 242 230.7C242.5 230.9 242.7 230.9 243.2 230.8Z" fill="#F2F2F2"/>
<path d="M249.9 226.4C250.1 226.6 250.1 226.8 249.9 226.9C247.7 228.2 245.4 229.5 243.2 230.8C242.7 230.9 242.5 230.9 242.1 230.7C239.6 229.2 237 227.8 234.5 226.3C234.1 226.1 234.1 225.8 234.5 225.6C236.6 224.4 238.8 223.1 240.9 221.9L241.1 221.8C241.4 221.7 241.7 221.7 242 221.8C244.6 223.3 247.3 224.9 249.9 226.4ZM243.8 229.7C245.5 228.7 247.2 227.7 248.8 226.8C249 226.7 249 226.6 248.8 226.5C246.5 225.1 244.1 223.8 241.8 222.4C241.6 222.3 241.4 222.3 241.2 222.4C239.6 223.4 237.9 224.3 236.2 225.3L236.1 225.4H236.3C238 225.3 239.8 225.2 241.5 225.1C241.7 225.1 241.9 225.1 242.1 225.2C242.2 225.3 242.3 225.4 242.3 225.5C242.3 225.9 242.2 226.4 242.2 226.8C242.2 226.9 242.2 227 242.3 227C242.4 227 242.5 227.1 242.7 227.1C242.9 227.1 243.1 227.1 243.4 227.1C243.6 227.1 243.7 227.1 243.7 227.2C243.8 227.3 243.8 227.3 243.8 227.4C243.8 228 243.7 228.5 243.7 229.1C243.8 229.3 243.7 229.5 243.8 229.7Z" fill="#D0D0D6"/>
<path d="M246.9 226.1C247.4 226.4 247.4 226.9 246.9 227.2C246.4 227.5 245.5 227.5 245 227.2C244.5 226.9 244.5 226.4 245 226.1C245.5 225.8 246.4 225.8 246.9 226.1Z" fill="#D0D0D6"/>
<path d="M240.2 244C241 244.5 241 245.2 240.2 245.6C239.4 246 238.2 246 237.4 245.6L209 229.2C208.2 228.7 208.2 228 209 227.6C209.8 227.1 211 227.1 211.8 227.6L240.2 244Z" fill="#D0D0D6"/>
<path d="M236.6 246C237.4 246.5 237.4 247.2 236.6 247.6C235.8 248.1 234.6 248 233.8 247.6L205.5 231.2C204.7 230.7 204.7 230 205.5 229.6C206.3 229.1 207.5 229.1 208.3 229.6L236.6 246Z" fill="#D0D0D6"/>
<path d="M223.8 253.9C224.1 254.1 224.1 254.3 223.8 254.5C223.5 254.7 223 254.7 222.7 254.5L200 241.4C199.7 241.2 199.7 241 200 240.8C200.3 240.6 200.8 240.6 201.1 240.8L223.8 253.9Z" fill="#D0D0D6"/>
<path d="M222.4 254.8C222.7 255 222.7 255.2 222.4 255.4C222.1 255.6 221.6 255.6 221.3 255.4L198.6 242.3C198.3 242.1 198.3 241.9 198.6 241.7C198.9 241.5 199.4 241.5 199.7 241.7L222.4 254.8Z" fill="#D0D0D6"/>
<path d="M217.8 257.2C218.2 257.4 218.2 257.8 217.8 258.1L217.7 258.2C217.3 258.4 216.6 258.4 216.2 258.2L194 245.4C193.6 245.2 193.6 244.8 194 244.5L194.1 244.4C194.5 244.2 195.2 244.2 195.6 244.4L217.8 257.2Z" fill="#D0D0D6"/>
<path d="M214.6 259.3C214.9 259.5 214.9 259.7 214.6 259.9C214.3 260.1 213.8 260.1 213.5 259.9L190.8 246.8C190.5 246.6 190.5 246.4 190.8 246.2C191.1 246 191.6 246 191.9 246.2L214.6 259.3Z" fill="#D0D0D6"/>
<path d="M213.2 260.1C213.5 260.3 213.5 260.5 213.2 260.7C212.9 260.9 212.4 260.9 212.1 260.7L189.4 247.6C189.1 247.4 189.1 247.2 189.4 247C189.7 246.8 190.2 246.8 190.5 247L213.2 260.1Z" fill="#D0D0D6"/>
<g opacity="0.5">
<g opacity="0.5">
<g opacity="0.5">
<path opacity="0.5" d="M227.6 87.1C228.2 87.5 228.7 88.3 228.7 89V94.2C228.7 94.9 228.2 95.2 227.6 94.8L117.6 31.3C117 30.9 116.5 30.1 116.5 29.4V24.2C116.5 23.5 117 23.2 117.6 23.6L227.6 87.1Z" fill="#D0D0D6"/>
</g>
</g>
</g>
<path d="M223.1 97.8C223 97.8 222.9 97.8 222.7 97.7L112.7 34.2C112.2 33.9 111.7 33.1 111.7 32.5V27.3C111.7 27.1 111.7 26.8 112.1 26.8C112.2 26.8 112.3 26.8 112.5 26.9L222.5 90.4C223 90.7 223.5 91.5 223.5 92.1V97.3C223.5 97.4 223.4 97.8 223.1 97.8Z" fill="white"/>
<path d="M112.1 26.9C112.1 26.9 112.2 26.9 112.4 27L222.4 90.5C222.9 90.8 223.3 91.5 223.3 92V97.2C223.3 97.3 223.3 97.5 223.2 97.5C223.2 97.5 223.1 97.5 222.9 97.4L112.9 33.9C112.4 33.6 112 32.9 112 32.4V27.2C112 27.1 112 26.9 112.1 26.9ZM112.1 26.4C111.7 26.4 111.5 26.7 111.5 27.2V32.4C111.5 33.1 112 34 112.6 34.3L222.6 97.8C222.8 97.9 223 98 223.1 98C223.5 98 223.7 97.7 223.7 97.2V92C223.7 91.3 223.2 90.4 222.6 90.1L112.6 26.6C112.4 26.4 112.2 26.4 112.1 26.4Z" fill="#43435C"/>
<path d="M225 88.7L115 25.2C114.7 25 114.4 25 114.2 25.1L111.8 26.5C112 26.4 112.3 26.4 112.6 26.6L222.6 90.1C223.2 90.5 223.7 91.3 223.7 92V97.2C223.7 97.6 223.6 97.8 223.4 97.9L225.8 96.5C226 96.4 226.1 96.1 226.1 95.8V90.6C226.1 89.9 225.6 89.1 225 88.7Z" fill="#43435C"/>
<path d="M131.1 39.5C131.9 39.9 132.5 41 132.5 41.9C132.5 42.8 131.9 43.2 131.1 42.7L115.4 33.6C114.6 33.2 114 32.1 114 31.2C114 30.3 114.6 30 115.4 30.4L131.1 39.5Z" fill="#A1A1AD"/>
<path d="M199.8 80.1999C200.1 80.3999 200.3 80.7999 200.3 81.0999C200.3 81.3999 200.1 81.5999 199.8 81.3999L193.4 77.6999C193.1 77.4999 192.9 77.0999 192.9 76.7999C192.9 76.4999 193.1 76.2999 193.4 76.4999L199.8 80.1999Z" fill="#A1A1AD"/>
<path d="M190 74.5C190.3 74.7 190.5 75.1 190.5 75.4C190.5 75.7 190.3 75.9 190 75.7L183.6 72C183.3 71.8 183.1 71.4 183.1 71.1C183.1 70.8 183.3 70.6 183.6 70.8L190 74.5Z" fill="#A1A1AD"/>
<path d="M209.5 85.8C209.8 86 210 86.4 210 86.7C210 87 209.8 87.2 209.5 87L203.1 83.3C202.8 83.1 202.6 82.7 202.6 82.4C202.6 82.1 202.8 81.9 203.1 82.1L209.5 85.8Z" fill="#A1A1AD"/>
<path d="M219.3 91.4C219.6 91.6 219.8 92 219.8 92.3C219.8 92.6 219.6 92.8 219.3 92.6L212.9 88.9C212.6 88.7 212.4 88.3 212.4 88C212.4 87.7 212.6 87.5 212.9 87.7L219.3 91.4Z" fill="#A1A1AD"/>
<g opacity="0.5">
<g opacity="0.5">
<g opacity="0.5">
<path opacity="0.5" d="M226 109C227.6 109.9 228.9 112.2 228.9 114L228.8 160.4C228.8 162.2 227.5 163 225.9 162.1L120.7 101.4C119.1 100.5 117.8 98.2 117.8 96.4L117.9 50C117.9 48.2 119.2 47.4 120.8 48.3L226 109Z" fill="#D0D0D6"/>
</g>
</g>
</g>
<path d="M220.2 168.3C219.8 168.3 219.4 168.2 219 167.9L113.8 107.2C112.3 106.3 111 104.2 111 102.4L111.1 56C111.1 54.9 111.6 54.2 112.5 54.2C112.9 54.2 113.3 54.2999 113.7 54.5999L218.9 115.3C220.4 116.2 221.7 118.3 221.7 120.1L221.6 166.5C221.5 167.6 221 168.3 220.2 168.3Z" fill="white"/>
<path d="M112.5 54.4C112.8 54.4 113.2 54.5 113.6 54.7L218.8 115.4C220.2 116.2 221.4 118.3 221.4 120L221.3 166.4C221.3 167.4 220.9 168 220.2 168C219.9 168 219.5 167.9 219.2 167.7L113.9 107C112.5 106.2 111.3 104.1 111.3 102.4L111.4 56C111.4 55 111.8 54.4 112.5 54.4ZM112.5 53.9C111.5 53.9 110.9 54.7 110.9 56L110.8 102.4C110.8 104.2 112.1 106.5 113.7 107.4L218.9 168.1C219.4 168.4 219.8 168.5 220.2 168.5C221.2 168.5 221.8 167.7 221.8 166.4L221.9 120C221.9 118.2 220.6 115.9 219 115L113.8 54.3C113.4 54 112.9 53.9 112.5 53.9Z" fill="#43435C"/>
<path d="M221.9 113.3L116.8 52.6C116 52.1 115.3 52.1 114.7 52.4L111.8 54.1C112.3 53.8 113.1 53.8 113.9 54.3L219 115C220.6 115.9 221.9 118.2 221.9 120L221.8 166.4C221.8 167.3 221.5 168 220.9 168.3L223.8 166.6C224.3 166.3 224.6 165.6 224.7 164.7L224.8 118.3C224.8 116.5 223.6 114.2 221.9 113.3Z" fill="#43435C"/>
<path d="M159.9 110.4C160.5 110.8 161 111.6 161 112.4C161 113.1 160.5 113.4 159.9 113L117.3 88.5C116.7 88.1 116.2 87.3 116.2 86.5C116.2 85.8 116.7 85.5 117.3 85.9L159.9 110.4Z" fill="#A1A1AD"/>
<path d="M159.8 113.5C160.4 113.9 160.9 114.7 160.9 115.5C160.9 116.2 160.4 116.5 159.8 116.1L117.3 91.6C116.7 91.2 116.2 90.4 116.2 89.6C116.2 88.9 116.7 88.6 117.3 89L159.8 113.5Z" fill="#A1A1AD"/>
<path d="M158.1 99.9C159.7 100.8 161.1 103.1 161 105C161 106.9 159.7 107.6 158 106.7L119.2 84.3C117.6 83.4 116.2 81.1 116.3 79.2C116.3 77.3 117.6 76.6 119.3 77.5L158.1 99.9Z" fill="#A1A1AD"/>
<path d="M170.7 96.1L213.3 120.7L213.2 158.1L170.6 133.5L170.7 96.1Z" fill="#F2F2F2"/>
<path d="M195.2 124.7C196 125.2 196.6 126.2 196.6 127.1C196.6 128 196 128.3 195.2 127.9C194.4 127.5 193.8 126.4 193.8 125.5C193.8 124.7 194.4 124.3 195.2 124.7Z" fill="#D0D0D6"/>
<path d="M197.7 124.1C198 124.4 198.3 124.8 198.4 125.2C198.4 128.9 198.4 132.6 198.4 136.3C198.2 136.8 198 136.8 197.4 136.5C193.8 134.4 190.1 132.3 186.5 130.2C186 129.9 185.7 129.3 185.7 128.7C185.7 125.2 185.7 121.6 185.7 118.1C185.7 118 185.7 117.9 185.7 117.9C185.8 117.5 186 117.4 186.3 117.5C190 119.7 193.9 121.9 197.7 124.1ZM197.4 133.9V133.8C197.4 131 197.4 128.2 197.4 125.4C197.4 125.1 197.3 124.9 197 124.7C193.6 122.8 190.3 120.8 186.9 118.9C186.6 118.7 186.5 118.8 186.5 119.2C186.5 121.9 186.5 124.7 186.5 127.4C186.5 127.5 186.5 127.5 186.5 127.6C186.6 127.6 186.6 127.5 186.7 127.5C187.8 126.6 189 125.7 190.1 124.8C190.3 124.7 190.4 124.7 190.6 124.8C190.8 124.9 191 125.1 191.1 125.4C191.6 126.3 192.1 127.3 192.6 128.2C192.7 128.4 192.9 128.6 193 128.7C193.1 128.8 193.2 128.8 193.4 128.7C193.6 128.6 193.7 128.6 193.9 128.5C194 128.5 194.1 128.5 194.3 128.5C194.4 128.6 194.6 128.7 194.7 129C195.4 130.2 196 131.4 196.7 132.6C196.9 132.9 197.1 133.4 197.4 133.9Z" fill="#D0D0D6"/>
</svg>
