<svg width="78" height="111" viewBox="0 0 78 111" fill="none" xmlns="http://www.w3.org/2000/svg">
<path d="M7.09825 101.254L0 21.6368H78L70.8937 101.242L38.9519 110.097L7.09825 101.254Z" fill="#E44D26"/>
<path d="M39 103.329L64.8103 96.1727L70.883 28.1465H39V103.329Z" fill="#F16529"/>
<path d="M39.0002 57.6758H26.0789L25.1865 47.6766H39.0002V37.9116H38.9665H14.5146L14.7485 40.5314L17.1486 67.4405H39.0002V57.6758Z" fill="#EBEBEB"/>
<path d="M38.9996 83.0359L38.9569 83.0475L28.0818 80.1109L27.3865 72.3231H22.102H17.584L18.9521 87.6551L38.9547 93.2081L38.9996 93.1953V83.0359Z" fill="#EBEBEB"/>
<path d="M7.25684 0H12.2193V4.90271H16.7586V0H21.7212V14.8468H16.7587V9.87527H12.2195V14.8468H7.25717V0H7.25684Z" fill="black"/>
<path d="M28.2473 4.92341H23.8789V0H37.581V4.92341H33.2103V14.8467H28.2478V4.92341H28.2473Z" fill="black"/>
<path d="M39.7549 0H44.929L48.1122 5.21667L51.2919 0H56.4683V14.8468H51.5262V7.48781L48.1124 12.7666H48.0267L44.6105 7.48781V14.8467H39.7551V0H39.7549Z" fill="black"/>
<path d="M58.9385 0H63.9023V9.93941H70.8805V14.8468H58.9385V0Z" fill="black"/>
<path d="M38.9658 57.6758V67.4405H50.9898L49.8564 80.1049L38.9658 83.0443V93.2034L58.9839 87.6551L59.1308 86.0057L61.4257 60.2979L61.6641 57.6758H59.0325H38.9658Z" fill="white"/>
<path d="M38.9658 37.9116V43.9764V47.6526V47.6766H62.5211H62.5521L62.7479 45.4818L63.193 40.5314L63.4266 37.9116H38.9658Z" fill="white"/>
</svg>
