<svg width="148" height="80" viewBox="0 0 148 80" fill="none" xmlns="http://www.w3.org/2000/svg">
<path fill-rule="evenodd" clip-rule="evenodd" d="M96.554 58.7294C96.5332 59.28 95.2364 60.0155 94.812 60.2849C92.8569 61.5209 90.0508 62.3415 88.2185 60.5092C86.4461 58.7384 86.9448 55.4296 88.8571 54.2585C89.818 53.6752 91.0647 53.4035 92.3722 53.293C93.4177 53.2057 95.5548 53.0163 96.5337 53.129L96.554 58.7294ZM83.339 41.647L84.1043 44.6617C85.3927 44.3489 86.1688 43.8935 88.1103 43.5108C89.6224 43.2189 91.267 43.0515 92.8851 43.2589C94.5161 43.468 95.4257 44.0789 95.9859 45.2889C96.27 45.8993 96.4233 46.6196 96.5033 47.372L96.4842 49.8106C96.3776 49.867 91.6074 50.1685 90.9238 50.2547C86.1637 50.8651 81.3715 53.4525 82.1171 59.4339C82.5793 63.1558 84.5856 64.8511 88.3459 65.3054C90.4075 65.5545 91.7692 65.3178 93.4746 64.5941C94.1954 64.2892 94.8655 63.9392 95.4725 63.5543C96.2863 63.0493 96.9993 62.3195 97.1622 62.2271L97.6666 64.7841H101.529C101.601 64.0024 101.544 54.436 101.544 53.3736C101.544 51.4648 101.544 49.5621 101.544 47.6532C101.544 45.8058 101.404 44.3478 100.539 42.9765C97.9219 38.8094 92.2319 39.0072 87.531 40.1406C86.4787 40.3936 83.982 41.0823 83.339 41.647Z" fill="#ED2124"/>
<path fill-rule="evenodd" clip-rule="evenodd" d="M142.989 59.0449C142.656 59.2331 142.306 59.5702 141.924 59.8475C140.836 60.6325 139.482 61.359 138.048 61.5365C133.79 62.0624 132.789 57.6743 134.157 55.4109C135.619 52.9948 140.254 53.1283 143.003 53.1165L142.989 59.0449ZM129.798 41.6469C129.826 42.1175 130.407 44.3065 130.599 44.6503C131.316 44.5049 132.893 43.8404 134.618 43.5028C137.124 43.0063 141.239 42.5915 142.444 45.2916C142.936 46.3957 143.291 49.4481 142.944 49.7975C142.728 49.9559 140.637 49.9711 140.157 50.0033C137.393 50.178 135.107 50.3865 132.71 51.6495C130.167 52.9813 128.051 55.3213 128.575 59.4501C129.052 63.1997 131.057 64.838 134.807 65.3053C137.562 65.6502 139.728 64.9378 141.935 63.5519C142.896 62.9472 143.302 62.4225 143.63 62.2072L144.115 64.7772L148 64.7817V47.6531C148 45.7228 147.849 44.3775 146.97 42.9358C144.439 38.789 138.594 39.0657 134.001 40.1387C132.924 40.3879 130.47 41.0732 129.798 41.6469Z" fill="#ED2124"/>
<path fill-rule="evenodd" clip-rule="evenodd" d="M112.318 64.8314L118.511 64.8331C118.716 64.7835 119.152 63.7842 119.272 63.5447C119.505 63.064 119.69 62.6277 119.908 62.1493C120.326 61.2424 120.709 60.2308 121.072 59.2631C122.568 55.2588 123.776 50.8888 124.807 46.7109C125.059 45.6823 126.25 40.7137 126.25 40.0036L121.621 39.9997C120.61 39.9884 121.019 39.8604 120.749 41.9221C120.469 44.0603 120.02 46.1986 119.504 48.2134C119.126 49.6844 116.502 59.0371 115.979 59.6402L114.657 54.631C114.16 52.9639 113.706 51.3588 113.185 49.7227L110.9 42.4569C110.64 41.6391 110.391 40.7633 110.09 40.0143L104.617 40.0008C104.64 40.4849 108.212 51.6502 108.454 52.4381C109.108 54.5639 109.742 56.5156 110.386 58.6054C111.014 60.6636 111.749 62.7906 112.318 64.8314Z" fill="#ED2124"/>
<path fill-rule="evenodd" clip-rule="evenodd" d="M72.967 39.4755L72.9703 60.9708C72.9703 64.9672 71.6656 69.5232 67.6562 70.833C67.8901 71.3194 69.6181 73.0908 70.0769 73.7766C71.4351 73.536 73.4314 72.2922 74.1832 71.5792C75.3312 70.4943 76.0391 69.6501 76.8884 67.9125C78.5871 64.4509 78.316 60.7831 78.316 56.6317C78.316 48.1486 78.3599 39.6564 78.3143 31.1733C77.6893 31.0606 74.0197 31.1338 72.9658 31.1361L72.967 39.4755Z" fill="#ED2124"/>
<path fill-rule="evenodd" clip-rule="evenodd" d="M29.1885 43.1828L27.5045 40.7362C26.9521 39.9325 26.4111 39.0393 25.8965 38.1471C24.9525 36.5048 23.8197 34.4201 23.3006 32.35C22.3504 28.5587 24.6927 26.2075 26.7599 23.7226C27.0722 23.3444 27.4374 22.9905 27.7761 22.6354C29.9386 20.3563 32.9036 17.6279 35.2098 15.3815C37.5566 13.0871 38.969 10.5504 39.2434 6.83746C39.3905 4.89872 39.0169 0.747883 37.6474 0C38.0537 2.90925 38.149 4.88519 36.9711 7.80965C35.6066 11.2047 33.3849 13.2348 30.8071 15.2423C28.7004 16.8829 25.2518 19.8406 23.4353 21.5533C22.2586 22.6687 20.2691 24.6649 19.4457 26.6121C18.2278 29.4921 19.4361 31.3767 20.7408 33.3898C21.3625 34.3496 21.9937 35.1691 22.6581 36.028C23.432 37.0312 24.1195 37.7216 24.7395 38.5078C25.3921 39.3385 26.1997 40.1033 26.9127 40.894C27.3568 41.3838 28.7494 42.875 29.1885 43.1828Z" fill="#ED2124"/>
<path fill-rule="evenodd" clip-rule="evenodd" d="M54.1782 68.148C55.0044 69.4798 54.1878 70.0439 53.0601 70.572C48.0452 72.9199 31.0897 73.3595 25.7948 73.4362C20.3956 73.5157 14.9564 73.3009 9.74261 72.3868C8.89723 72.2419 5.18205 71.649 5.00903 70.6633C4.89462 70.0422 5.55177 69.5767 5.89105 69.3659C7.09093 68.6198 9.28836 68.1058 10.7993 67.8307C11.2361 67.7535 12.2934 67.6391 12.6197 67.5055C10.0943 67.133 2.08964 68.4862 0.338006 70.9756C-0.766064 72.5423 1.08363 73.2694 2.31564 73.6723C6.92918 75.1782 16.5316 75.4826 21.5966 75.557C29.1661 75.659 47.3836 75.5846 54.0587 70.997C54.4482 70.7321 55.2141 70.1736 55.2924 69.6314C55.3888 68.9557 54.5885 68.321 54.1782 68.148Z" fill="#038BC8"/>
<path fill-rule="evenodd" clip-rule="evenodd" d="M32.3337 46.2662C33.1385 45.9906 35.5135 44.0428 36.1531 43.3902C36.9918 42.5195 38.421 40.9082 38.5439 39.0444C38.6527 37.3536 37.4872 35.1505 36.7742 34.0713C34.5221 30.657 32.722 28.7019 35.771 24.9158C36.7923 23.6544 37.8969 22.667 39.1886 21.5996C40.7357 20.3203 43.2685 18.5731 45.0821 17.4352L47.1476 16.1074C46.0543 16.2523 43.1574 17.411 42.015 17.8365C40.4798 18.4148 38.7102 19.2956 37.3688 20.0678C32.7671 22.7285 28.2404 26.8923 30.0917 32.6482C31.344 36.5426 34.9927 38.8759 34.7301 41.7947C34.5695 43.583 32.8522 45.3712 32.3337 46.2662Z" fill="#ED2124"/>
<path fill-rule="evenodd" clip-rule="evenodd" d="M41.9413 65.3109C40.5283 64.7749 39.4643 64.1544 38.199 63.4032C37.4664 62.9647 37.7482 63.0002 36.8098 63.2335C32.9819 64.1764 26.7728 64.1888 22.7528 64.0665C21.7191 64.0349 18.8121 63.9442 18.2243 62.9709C17.8512 62.3571 18.3596 61.9102 18.5574 61.5608C15.9232 62.0917 13.2399 64.2801 16.9044 66.1027C21.027 68.148 29.6928 68.1705 34.2038 67.3686C35.4893 67.1397 41.327 65.8091 41.9413 65.3109Z" fill="#038BC8"/>
<path fill-rule="evenodd" clip-rule="evenodd" d="M43.1622 56.7128C42.0716 56.4395 41.0944 55.7581 40.4259 55.1731C39.8432 54.6738 40.0427 54.7978 38.7899 55.0068C34.2828 55.7581 20.8655 57.0707 17.0246 55.487C16.5264 55.2813 15.9521 54.973 15.916 54.3858C15.8749 53.6903 16.4655 53.3144 16.7129 52.934C13.6239 53.3172 10.6589 56.2952 14.7956 57.7166C19.4604 59.3149 29.5216 59.3685 34.4823 58.7429C36.1179 58.5338 41.9116 57.406 43.1622 56.7128Z" fill="#038BC8"/>
<path fill-rule="evenodd" clip-rule="evenodd" d="M46.2642 46.5868C45.6764 46.6116 44.8913 46.7942 44.2979 46.8895C43.6097 46.9915 42.9548 47.0929 42.2673 47.1836C38.1373 47.7619 33.5587 48.2285 29.4248 48.4703C26.1976 48.6591 14.023 49.0621 12.206 47.3668C12.0724 46.6054 12.9448 46.1269 13.4797 45.8344C15.5667 44.7151 17.7872 44.337 19.8426 43.6933C17.0027 43.4273 9.85976 45.4703 7.2774 47.0845C4.48481 48.8259 9.13949 49.5192 10.881 49.7621C21.0724 51.1817 30.6021 50.4209 40.6802 48.9883C42.3236 48.7555 42.6747 48.8496 43.794 48.1389C44.5673 47.6458 45.58 47.129 46.2642 46.5868Z" fill="#038BC8"/>
<path fill-rule="evenodd" clip-rule="evenodd" d="M11.043 77.277C13.8885 78.4713 20.0858 79.2 23.3022 79.461C27.8227 79.8324 32.7868 79.7439 37.3068 79.4255C43.1568 79.0101 50.0963 78.3405 55.2441 75.7266C56.4682 75.1016 58.6747 73.6115 58.8872 72.1788C58.5186 72.3462 58.2007 72.6816 57.8564 72.9121C48.7764 79.1628 28.025 78.5671 17.3129 77.804L11.043 77.277Z" fill="#038BC8"/>
<path fill-rule="evenodd" clip-rule="evenodd" d="M48.3217 44.1487C50.5468 43.4533 53.0767 43.9154 54.4857 45.1688C56.0085 46.5265 56.0271 49.101 54.9275 51.0955C53.4588 53.7551 50.3749 56.1289 47.8201 57.7318C47.3828 58.0074 46.959 58.2159 46.5791 58.4977C48.2265 58.323 52.1321 56.5584 53.6183 55.6414C55.5148 54.4697 57.6316 52.7598 58.5052 50.5438C59.7519 47.3984 57.9377 44.9975 56.0063 43.8619C54.8954 43.212 53.5546 42.8226 51.9935 42.888C50.7981 42.9359 48.8616 43.4116 48.3217 44.1487Z" fill="#038BC8"/>
</svg>
