<svg width="218" height="56" viewBox="0 0 218 56" fill="none" xmlns="http://www.w3.org/2000/svg">
<g clip-path="url(#clip0)">
<path d="M0 30.309V0.00585938L26.244 15.1574V25.2584L8.74801 15.1574V35.3595L0 30.309Z" fill="#00B0FF"/>
<path d="M26.2441 15.1574L52.4882 0.00585938V30.309L34.9922 40.41L26.2441 35.3595L43.7402 25.2584V15.1574L26.2441 25.2584V15.1574Z" fill="#0081CB"/>
<path d="M26.2441 35.3596V45.4607L43.7402 55.5617V45.4607L26.2441 35.3596Z" fill="#00B0FF"/>
<path d="M43.7402 55.5616L69.9843 40.41V20.2079L61.2362 25.2584V35.3595L43.7402 45.4605V55.5616ZM61.2362 15.1574V5.05638L69.9843 0.00585938V10.1069L61.2362 15.1574Z" fill="#0081CB"/>
</g>
<path d="M82.6333 18.9814L88.2237 32.9338L93.814 18.9814H96.7384V36.0814H94.4835V29.4223L94.6949 22.2347L89.081 36.0814H87.3546L81.7525 22.2699L81.9756 29.4223V36.0814H79.7207V18.9814H82.6333Z" fill="#0081CB"/>
<path d="M110.374 31.6185H103.21L101.601 36.0814H99.2752L105.805 18.9814H107.778L114.32 36.0814H112.006L110.374 31.6185ZM103.891 29.7628H109.704L106.792 21.7649L103.891 29.7628Z" fill="#0081CB"/>
<path d="M126.91 20.8371H121.413V36.0814H119.17V20.8371H113.686V18.9814H126.91V20.8371Z" fill="#0081CB"/>
<path d="M139.112 28.1773H131.702V34.2375H140.31V36.0814H129.447V18.9814H140.193V20.8371H131.702V26.3335H139.112V28.1773Z" fill="#0081CB"/>
<path d="M149.389 29.1639H145.372V36.0814H143.105V18.9814H148.766C150.692 18.9814 152.172 19.4199 153.206 20.2968C154.247 21.1737 154.768 22.45 154.768 24.1255C154.768 25.1903 154.478 26.1182 153.899 26.9089C153.327 27.6997 152.528 28.2909 151.503 28.6824L155.519 35.9404V36.0814H153.1L149.389 29.1639ZM145.372 27.32H148.837C149.956 27.32 150.845 27.0303 151.503 26.4509C152.168 25.8715 152.501 25.0964 152.501 24.1255C152.501 23.0685 152.184 22.2581 151.55 21.6944C150.923 21.1307 150.015 20.8449 148.825 20.8371H145.372V27.32Z" fill="#0081CB"/>
<path d="M160.358 36.0814H158.103V18.9814H160.358V36.0814Z" fill="#0081CB"/>
<path d="M174.146 31.6185H166.982L165.373 36.0814H163.048L169.577 18.9814H171.551L178.092 36.0814H175.779L174.146 31.6185ZM167.663 29.7628H173.477L170.564 21.7649L167.663 29.7628Z" fill="#0081CB"/>
<path d="M182.661 34.2375H190.764V36.0814H180.394V18.9814H182.661V34.2375Z" fill="#0081CB"/>
<path d="M197.517 29.7041H191.786V27.9307H197.517V29.7041Z" fill="#0081CB"/>
<path d="M212.022 18.9814V30.6084C212.014 32.2214 211.505 33.5406 210.495 34.5663C209.493 35.592 208.131 36.1675 206.408 36.2928L205.809 36.3162C203.938 36.3162 202.446 35.8112 201.334 34.8012C200.223 33.7912 199.659 32.4014 199.643 30.6319V18.9814H201.875V30.5615C201.875 31.7986 202.215 32.7616 202.896 33.4506C203.578 34.1318 204.548 34.4724 205.809 34.4724C207.085 34.4724 208.06 34.1318 208.733 33.4506C209.415 32.7694 209.755 31.8103 209.755 30.5732V18.9814H212.022Z" fill="#0081CB"/>
<path d="M218 36.0814H215.745V18.9814H218V36.0814Z" fill="#0081CB"/>
<defs>
<clipPath id="clip0">
<rect width="69.9841" height="55.5674" fill="white"/>
</clipPath>
</defs>
</svg>
