<svg width="148" height="77" viewBox="0 0 148 77" fill="none" xmlns="http://www.w3.org/2000/svg">
<path fill-rule="evenodd" clip-rule="evenodd" d="M0.000368178 70.0079H4.88464V50.6573L12.5119 67.5278C13.3765 69.5564 14.6163 70.3081 17.0204 70.3081C19.4256 70.3081 20.59 69.556 21.4915 67.5278L29.0815 50.6573V70.0079H34.0034V50.6573C34.0034 48.7793 33.2514 47.877 31.6736 47.3886C27.9537 46.2625 25.4743 47.2394 24.3471 49.7565L16.8701 66.4387L9.65631 49.7565C8.56686 47.2394 6.0494 46.2625 2.29188 47.3886C0.75165 47.877 0 48.7796 0 50.6573V70.0079H0.000368178Z" fill="#00678F"/>
<path fill-rule="evenodd" clip-rule="evenodd" d="M38.0615 54.2648H42.9834V64.8983C42.9458 65.4997 43.1714 66.852 45.8387 66.8897C47.229 66.927 56.4342 66.8897 56.5099 66.8897V54.1898H61.4322C61.4322 54.1898 61.4322 71.5111 61.4322 71.5868C61.4322 75.8696 56.1344 76.8085 53.6543 76.8465H38.1745V73.5777C38.2118 73.5777 53.6543 73.5777 53.6919 73.5777C56.8481 73.2399 56.4722 71.6613 56.4722 71.1349V69.8582H46.0646C41.2177 69.8202 38.0992 67.679 38.0619 65.2361C38.0615 65.0113 38.1741 54.3404 38.0615 54.2648Z" fill="#00678F"/>
<path fill-rule="evenodd" clip-rule="evenodd" d="M143.64 41.9411C140.636 41.8661 138.305 42.167 136.351 42.9936C135.789 43.2188 134.886 43.2188 134.812 43.9328C135.112 44.2341 135.149 44.7225 135.412 45.1352C135.863 45.8873 136.652 46.9003 137.366 47.4275C138.156 48.0281 138.945 48.6292 139.771 49.1556C141.236 50.0575 142.889 50.5836 144.317 51.4848C145.144 52.0112 145.97 52.6879 146.797 53.2513C147.21 53.5511 147.473 54.0403 148 54.2282C148 54.1901 148 54.1525 148 54.1159C147.736 53.7767 147.66 53.2882 147.399 52.9128C147.022 52.5373 146.647 52.1981 146.271 51.8226C145.182 50.358 143.828 49.0807 142.363 48.0281C141.161 47.2019 138.531 46.0744 138.043 44.6841C138.043 44.6841 138.004 44.6468 137.968 44.6099C138.795 44.5342 139.771 44.2344 140.56 44.0081C141.838 43.6703 143.002 43.7453 144.317 43.4078C144.919 43.2561 145.519 43.0686 146.121 42.8814C146.121 42.768 146.121 42.6562 146.121 42.5428C145.446 41.8665 144.957 40.9653 144.243 40.3266C142.327 38.6731 140.222 37.0579 138.043 35.7052C136.878 34.9532 135.375 34.4651 134.136 33.8261C133.683 33.6002 132.932 33.4876 132.671 33.1125C131.993 32.2855 131.617 31.1964 131.129 30.2192C130.04 28.1525 128.988 25.8606 128.048 23.6817C127.372 22.2161 126.958 20.7508 126.133 19.3981C122.262 13.0106 118.053 9.14116 111.591 5.34598C110.201 4.5574 108.548 4.21887 106.782 3.80575C105.843 3.76773 104.904 3.69315 103.965 3.65513C103.363 3.39227 102.762 2.67864 102.236 2.3401C100.095 0.987789 94.5718 -1.94277 92.9931 1.92699C91.9779 4.36949 94.4961 6.7736 95.3596 8.01368C95.9994 8.8783 96.8256 9.85442 97.2775 10.832C97.5389 11.4703 97.6146 12.147 97.8781 12.8226C98.4788 14.4762 99.0429 16.3169 99.8319 17.8575C100.245 18.6468 100.696 19.4734 101.222 20.1871C101.523 20.6009 102.05 20.7885 102.161 21.4644C101.635 22.2157 101.598 23.3432 101.298 24.2824C99.9441 28.528 100.47 33.7881 102.387 36.9066C102.988 37.8458 104.416 39.9128 106.332 39.1231C108.023 38.4468 107.646 36.3055 108.135 34.4268C108.248 33.976 108.173 33.6751 108.398 33.3742C108.398 33.4123 108.398 33.4499 108.398 33.4499C108.924 34.5017 109.451 35.5166 109.939 36.568C111.104 38.4091 113.133 40.3256 114.824 41.6026C115.726 42.2796 116.439 43.4433 117.566 43.8575C117.566 43.8199 117.566 43.7818 117.566 43.7445C117.528 43.7445 117.528 43.7445 117.492 43.7445C117.265 43.4071 116.928 43.2554 116.627 42.9933C115.951 42.3169 115.199 41.4903 114.673 40.7387C113.095 38.6343 111.706 36.3052 110.465 33.9C109.864 32.7359 109.337 31.4582 108.849 30.293C108.623 29.8426 108.623 29.1659 108.248 28.9404C107.684 29.767 106.858 30.4813 106.444 31.4958C105.73 33.1114 105.656 35.1024 105.393 37.1691C105.241 37.2071 105.317 37.169 105.241 37.2444C104.04 36.9438 103.626 35.7041 103.176 34.6516C102.05 31.9839 101.861 27.7007 102.837 24.6198C103.1 23.8309 104.228 21.3511 103.778 20.6002C103.551 19.8858 102.801 19.4727 102.387 18.909C101.897 18.1946 101.372 17.2931 101.034 16.5038C100.133 14.4002 99.6805 12.0706 98.7051 9.96666C98.2532 8.98944 97.4654 7.9753 96.8256 7.07339C96.1116 6.05888 95.3241 5.34452 94.76 4.14246C94.5721 3.72934 94.3089 3.05301 94.6101 2.60223C94.6836 2.30172 94.8357 2.18912 95.1348 2.11381C95.6232 1.70069 97.015 2.22641 97.5034 2.45161C98.893 3.01535 100.057 3.54106 101.222 4.33037C101.748 4.7062 102.312 5.41983 102.988 5.60811C103.252 5.60811 103.514 5.60811 103.778 5.60811C104.98 5.87133 106.332 5.68305 107.458 6.02122C109.451 6.65954 111.253 7.5991 112.869 8.61361C117.791 11.7321 121.848 16.1663 124.592 21.4637C125.042 22.3276 125.23 23.1169 125.644 24.0181C126.432 25.8596 127.411 27.7383 128.199 29.5418C128.988 31.3076 129.74 33.1114 130.867 34.5767C131.431 35.3649 133.684 35.7784 134.699 36.1922C135.45 36.5304 136.615 36.8305 137.291 37.244C138.569 38.0329 139.846 38.9345 141.049 39.7991C141.649 40.2506 143.529 41.1898 143.64 41.9411Z" fill="#00678F"/>
<path fill-rule="evenodd" clip-rule="evenodd" d="M105.316 9.29065C104.678 9.29065 104.227 9.36596 103.776 9.47856C103.776 9.47856 103.776 9.51585 103.776 9.55387C103.813 9.55387 103.813 9.55387 103.851 9.55387C104.151 10.1545 104.678 10.568 105.053 11.0941C105.354 11.6951 105.617 12.2962 105.918 12.8979C105.954 12.8603 105.992 12.8222 105.992 12.8222C106.518 12.4471 106.782 11.8454 106.782 10.9438C106.556 10.6806 106.518 10.4178 106.33 10.1545C106.106 9.77907 105.617 9.59116 105.316 9.29065Z" fill="#00678F"/>
<path fill-rule="evenodd" clip-rule="evenodd" d="M65.1892 70.008H79.3167C80.9699 70.008 82.5485 69.6702 83.8244 69.0685C85.9656 68.0924 86.9805 66.7777 86.9805 65.0485V61.4419C86.9805 60.0509 85.8165 58.7366 83.4873 57.8354C82.2849 57.385 80.782 57.1214 79.3167 57.1214H73.3799C71.3889 57.1214 70.4489 56.5196 70.1861 55.2042C70.1484 55.0551 70.1484 54.9045 70.1484 54.7535V52.5373C70.1484 52.4243 70.1484 52.2744 70.1861 52.1238C70.4493 51.11 70.975 50.8464 72.7039 50.6578C72.8542 50.6578 73.0421 50.6578 73.1543 50.6578H87.1681V47.389H73.4172C71.4258 47.389 70.3736 47.502 69.4344 47.8033C66.5412 48.7044 65.2634 50.1324 65.2634 52.6502V55.5059C65.2634 57.7228 67.7432 59.6008 71.9515 60.0516C72.4023 60.09 72.8911 60.09 73.3795 60.09H78.4524C78.6403 60.09 78.8279 60.09 78.977 60.1273C80.518 60.2772 81.1943 60.54 81.6447 61.1041C81.946 61.4046 82.0209 61.6675 82.0209 62.006V64.8613C82.0209 65.1998 81.7961 65.6509 81.3453 66.0268C80.8935 66.4022 80.1791 66.6658 79.2403 66.7024C79.0524 66.7024 78.9405 66.74 78.7511 66.74H65.1885V70.008H65.1892Z" fill="#E38D1A"/>
<path fill-rule="evenodd" clip-rule="evenodd" d="M117.565 64.3348C117.565 67.6789 120.083 69.5565 125.117 69.9327C125.606 69.9707 126.056 70.0077 126.545 70.0077H139.319V66.7389H126.431C123.576 66.7389 122.487 66.0257 122.487 64.2968V47.3883H117.564V64.3348H117.565Z" fill="#E38D1A"/>
<path fill-rule="evenodd" clip-rule="evenodd" d="M90.0996 64.484V52.8375C90.0996 49.8693 92.2032 48.0654 96.3004 47.5013C96.7508 47.464 97.2015 47.4271 97.6143 47.4271H106.932C107.421 47.4271 107.835 47.4644 108.324 47.5013C112.419 48.0654 114.485 49.8693 114.485 52.8375V64.484C114.485 66.8896 113.621 68.167 111.592 69.0312L116.401 73.3898H110.728L106.82 69.8582L102.875 70.083H97.6143C96.7511 70.083 95.7743 69.9708 94.7594 69.7076C91.6406 68.8433 90.0996 67.1905 90.0996 64.484ZM95.3974 64.2219C95.3974 64.3718 95.473 64.5224 95.5111 64.7103C95.7747 66.0627 97.0506 66.814 99.0043 66.814H103.439L99.3812 63.1325H105.054L108.623 66.3635C109.301 65.9881 109.713 65.4609 109.864 64.7857C109.901 64.635 109.901 64.4471 109.901 64.2972V53.1384C109.901 52.9885 109.901 52.8378 109.864 52.688C109.6 51.4099 108.324 50.6966 106.408 50.6966H99.0046C96.8261 50.6966 95.3981 51.6354 95.3981 53.1387V64.2219H95.3974Z" fill="#E38D1A"/>
<path fill-rule="evenodd" clip-rule="evenodd" d="M141.575 70.0449H142.289V67.303H143.227V66.7389H140.598V67.303H141.575V70.0449ZM147.022 70.0449H147.699V66.7389H146.684L145.858 68.9931L144.956 66.7389H143.979V70.0449H144.618V67.5278H144.655L145.595 70.0449H146.083L147.022 67.5278V70.0449H147.022Z" fill="#E38D1A"/>
</svg>
