<svg width="148" height="90" viewBox="0 0 148 90" fill="none" xmlns="http://www.w3.org/2000/svg">
<g clip-path="url(#clip0)">
<path d="M53.7749 20.7641L39.6725 28.8211C39.1456 29.1195 38.8193 29.6914 38.8193 30.2883V46.4271C38.8193 47.0239 39.1456 47.5959 39.6725 47.8943L53.7749 55.9513C54.3019 56.2497 54.9543 56.2497 55.4813 55.9513L69.5837 47.8943C70.1106 47.5959 70.4369 47.0239 70.4369 46.4271V30.2883C70.4369 29.6914 70.1106 29.1195 69.5837 28.8211L55.4813 20.7641C55.2052 20.6149 54.9292 20.5403 54.6281 20.5403C54.327 20.5403 54.0259 20.59 53.7749 20.7641Z" fill="url(#paint0_linear)"/>
<path d="M39.1709 47.4467C39.2964 47.6208 39.472 47.77 39.6728 47.8943L51.7677 54.8074L53.7752 55.9513C54.0763 56.1254 54.4276 56.2 54.7538 56.1751C54.8542 56.1751 54.9796 56.1503 55.08 56.1254L69.9352 29.1444C69.8098 29.0201 69.6843 28.9206 69.5337 28.8211L60.2994 23.5493L55.4564 20.7393C55.3059 20.6647 55.1553 20.6149 55.0047 20.5652L39.1709 47.4467Z" fill="url(#paint1_linear)"/>
<path d="M54.4524 20.5403C54.2266 20.5652 53.9756 20.6398 53.7749 20.7641L39.7227 28.7962L54.879 56.1502C55.0797 56.1254 55.3056 56.0508 55.4812 55.9513L69.5837 47.8943C70.0102 47.6456 70.3114 47.2229 70.4117 46.7504L54.9543 20.5652C54.8288 20.5403 54.7284 20.5403 54.603 20.5403C54.5528 20.5403 54.5026 20.5403 54.4524 20.5403Z" fill="url(#paint2_linear)"/>
<path d="M73.1471 89.8206C72.6703 89.8206 72.1684 89.6963 71.7419 89.4476L67.2753 86.8366C66.5977 86.4636 66.9239 86.3392 67.1498 86.2646C68.0281 85.9662 68.2288 85.8916 69.1572 85.3445C69.2576 85.2948 69.3831 85.3196 69.4835 85.3694L72.9212 87.3836C73.0467 87.4582 73.2224 87.4582 73.3478 87.3836L86.7225 79.7494C86.848 79.6748 86.9233 79.5256 86.9233 79.4012V64.1078C86.9233 63.9586 86.848 63.8094 86.7225 63.7348L73.3729 56.1006C73.2474 56.026 73.0969 56.026 72.9714 56.1006L59.6218 63.7348C59.4963 63.8094 59.4211 63.9586 59.4211 64.1078V79.4012C59.4211 79.5504 59.4963 79.6748 59.6218 79.7494L63.2854 81.8382C65.2678 82.8329 66.4974 81.6642 66.4974 80.4954V65.4009C66.4974 65.1771 66.673 65.0279 66.8738 65.0279H68.555C68.7558 65.0279 68.9314 65.202 68.9314 65.4009V80.4954C68.9314 83.1313 67.476 84.6234 64.9667 84.6234C64.1888 84.6234 63.5865 84.6234 61.8802 83.8027L58.3671 81.7885C57.4889 81.2911 56.9619 80.3711 56.9619 79.3764V64.083C56.9619 63.0883 57.4889 62.1682 58.3671 61.6708L71.7419 54.0117C72.595 53.5392 73.7242 53.5392 74.5523 54.0117L87.927 61.6708C88.7802 62.1682 89.3322 63.0883 89.3322 64.083V79.3764C89.3322 80.3711 88.8053 81.2911 87.927 81.7885L74.5523 89.4476C74.1257 89.6963 73.6489 89.8206 73.1471 89.8206Z" fill="#689F63"/>
<path d="M77.2872 79.3018C71.4405 79.3018 70.2109 76.641 70.2109 74.403C70.2109 74.1792 70.3866 74.03 70.5873 74.03H72.3188C72.5195 74.03 72.6701 74.1792 72.6952 74.3532C72.9461 76.0939 73.724 76.9643 77.2621 76.9643C80.0726 76.9643 81.2771 76.3426 81.2771 74.8506C81.2771 74.0051 80.9258 73.3585 76.5595 72.9358C72.8959 72.5877 70.6375 71.767 70.6375 68.8824C70.6375 66.2216 72.921 64.6301 76.7352 64.6301C81.0261 64.6301 83.134 66.0973 83.41 69.2554C83.41 69.3549 83.3849 69.4792 83.3096 69.5539C83.2343 69.6285 83.134 69.6782 83.0336 69.6782H81.3022C81.1265 69.6782 80.9759 69.5538 80.9258 69.3798C80.4992 67.5396 79.4954 66.9676 76.7603 66.9676C73.6738 66.9676 73.3225 68.0369 73.3225 68.8327C73.3225 69.8025 73.7491 70.0761 77.8895 70.6231C82.0048 71.1702 83.937 71.9162 83.937 74.776C83.937 77.6606 81.5029 79.3018 77.2872 79.3018ZM93.5477 63.1132H93.9993C94.3757 63.1132 94.4259 62.8645 94.4259 62.7153C94.4259 62.3175 94.1499 62.3175 93.9993 62.3175H93.5477V63.1132ZM92.9956 61.845H93.9993C94.3507 61.845 95.0031 61.845 95.0031 62.591C95.0031 63.1132 94.6518 63.2376 94.451 63.2873C94.8525 63.3122 94.8776 63.5608 94.9278 63.9338C94.9529 64.1576 95.0031 64.5555 95.0784 64.6799H94.4761C94.451 64.5555 94.3757 63.8095 94.3757 63.7846C94.3256 63.6106 94.2754 63.536 94.0746 63.536H93.5728V64.6799H93.0207V61.845H92.9956ZM91.8162 63.2873C91.8162 64.4809 92.7949 65.4259 93.9743 65.4259C95.1787 65.4259 96.1323 64.456 96.1323 63.2873C96.1323 62.0937 95.1536 61.1487 93.9743 61.1487C92.7949 61.1487 91.7911 62.0688 91.8162 63.2873ZM96.5338 63.2873C96.5338 64.7047 95.3795 65.8486 93.9492 65.8486C92.5439 65.8486 91.3646 64.7047 91.3646 63.2873C91.3646 61.845 92.569 60.726 93.9492 60.726C95.3544 60.726 96.5338 61.845 96.5338 63.2873Z" fill="#689F63"/>
<path fill-rule="evenodd" clip-rule="evenodd" d="M31.7681 30.0138C31.7681 29.3921 31.4418 28.8451 30.9149 28.5467L16.7372 20.4648C16.4863 20.3156 16.2353 20.241 15.9593 20.241H15.8087C15.5327 20.241 15.2567 20.3156 15.0309 20.4648L0.853171 28.5467C0.326212 28.8451 0 29.417 0 30.0138L0.0250933 51.7727C0.0250933 52.0711 0.175653 52.3447 0.451679 52.4939C0.702611 52.6431 1.02882 52.6431 1.30485 52.4939L9.73618 47.7442C10.2631 47.4209 10.5894 46.8739 10.5894 46.277V36.1063C10.5894 35.5095 10.9156 34.9376 11.4425 34.6391L15.0309 32.6C15.3069 32.4508 15.5829 32.3762 15.884 32.3762C16.1851 32.3762 16.4863 32.4508 16.7372 32.6L20.3255 34.6391C20.8525 34.9376 21.1787 35.5095 21.1787 36.1063V46.277C21.1787 46.8739 21.5049 47.4458 22.0319 47.7442L30.4632 52.5187C30.7392 52.6679 31.0654 52.6679 31.3164 52.5187C31.5673 52.3695 31.743 52.096 31.743 51.7976L31.7681 30.0138ZM98.6416 41.3533C98.6416 41.5025 98.5663 41.6517 98.4157 41.7263L93.5476 44.5115C93.4222 44.5861 93.2465 44.5861 93.1211 44.5115L88.253 41.7263C88.1275 41.6517 88.0271 41.5025 88.0271 41.3533V35.783C88.0271 35.6338 88.1024 35.4846 88.2279 35.41L93.096 32.6249C93.2214 32.5503 93.3971 32.5503 93.5226 32.6249L98.3906 35.41C98.5161 35.4846 98.6165 35.6338 98.6165 35.783L98.6416 41.3533ZM99.9464 0.0984751C99.6704 -0.0507287 99.3693 -0.0507287 99.0932 0.0984751C98.8423 0.247679 98.6667 0.521219 98.6667 0.819627V22.3796C98.6667 22.6034 98.5412 22.7774 98.3655 22.9018C98.1899 23.0013 97.9641 23.0013 97.7633 22.9018L94.2252 20.8875C93.6982 20.5891 93.0458 20.5891 92.5188 20.8875L78.3411 28.9943C77.8142 29.2927 77.488 29.8646 77.488 30.4614V46.6749C77.488 47.2717 77.8142 47.8437 78.3411 48.1421L92.5188 56.2488C93.0458 56.5472 93.6982 56.5472 94.2252 56.2488L108.403 48.1421C108.93 47.8437 109.256 47.2717 109.256 46.6749V6.26556C109.256 5.64388 108.93 5.07193 108.378 4.77353L99.9464 0.0984751ZM147.147 35.6338C147.674 35.3354 148 34.7635 148 34.1667V30.2376C148 29.6408 147.674 29.0689 147.147 28.7705L133.07 20.6637C132.543 20.3653 131.89 20.3653 131.363 20.6637L117.185 28.7705C116.659 29.0689 116.332 29.6408 116.332 30.2376V46.4511C116.332 47.0728 116.659 47.6199 117.185 47.9183L131.263 55.8758C131.79 56.1742 132.417 56.1742 132.944 55.8758L141.451 51.1759C141.727 51.0267 141.877 50.7532 141.877 50.4299C141.877 50.1315 141.702 49.8331 141.451 49.6839L127.223 41.6269C126.947 41.4777 126.796 41.2041 126.796 40.9057V35.8079C126.796 35.5095 126.947 35.236 127.223 35.0619L131.664 32.5254C131.94 32.3762 132.241 32.3762 132.517 32.5254L136.959 35.0619C137.235 35.2111 137.386 35.4846 137.386 35.783V39.7867C137.386 40.0851 137.561 40.3586 137.812 40.5327C138.088 40.6819 138.414 40.6819 138.665 40.5327L147.147 35.6338Z" fill="#333333"/>
<path fill-rule="evenodd" clip-rule="evenodd" d="M132.016 34.8887C132.116 34.839 132.241 34.839 132.342 34.8887L135.052 36.4554C135.152 36.5051 135.228 36.6295 135.228 36.7289V39.8373C135.228 39.9617 135.177 40.0611 135.052 40.1109L132.342 41.6775C132.241 41.7272 132.116 41.7272 132.016 41.6775L129.306 40.1109C129.205 40.0611 129.13 39.9368 129.13 39.8373V36.7289C129.13 36.6046 129.18 36.5051 129.306 36.4554L132.016 34.8887Z" fill="#689F63"/>
</g>
<defs>
<linearGradient id="paint0_linear" x1="39.5472" y1="32.764" x2="69.0786" y2="43.8977" gradientUnits="userSpaceOnUse">
<stop stop-color="#56974D"/>
<stop offset="0.2" stop-color="#5AAD45"/>
<stop offset="0.5353" stop-color="#55934F"/>
<stop offset="0.7" stop-color="#3E863D"/>
<stop offset="1" stop-color="#58A448"/>
</linearGradient>
<linearGradient id="paint1_linear" x1="39.1767" y1="38.3706" x2="69.9671" y2="38.3706" gradientUnits="userSpaceOnUse">
<stop offset="0.2258" stop-color="#3E863D"/>
<stop offset="0.72" stop-color="#619857"/>
<stop offset="1" stop-color="#76AC64"/>
</linearGradient>
<linearGradient id="paint2_linear" x1="39.7194" y1="38.3392" x2="70.4001" y2="38.3392" gradientUnits="userSpaceOnUse">
<stop offset="0.16" stop-color="#6BBF47"/>
<stop offset="0.38" stop-color="#79B461"/>
<stop offset="0.47" stop-color="#75AC64"/>
<stop offset="0.7" stop-color="#659E5A"/>
<stop offset="0.9" stop-color="#3E863D"/>
</linearGradient>
<clipPath id="clip0">
<rect width="148" height="89.8207" fill="white"/>
</clipPath>
</defs>
</svg>
