<svg width="218" height="74" viewBox="0 0 218 74" fill="none" xmlns="http://www.w3.org/2000/svg">
<g clip-path="url(#clip0)">
<path d="M175.396 34.4728C172.732 33.3211 169.915 32.5606 167.034 32.2151C165.604 32.044 164.239 31.5195 163.062 30.689C162.731 30.2505 162.501 29.7445 162.387 29.207C162.274 28.6694 162.28 28.1135 162.406 27.5788C162.532 27.044 162.774 26.5435 163.115 26.1127C163.456 25.682 163.887 25.3316 164.379 25.0864C166.929 24.1676 169.73 24.2271 172.239 25.2536C172.934 25.6767 173.515 26.2639 173.931 26.9637C174.346 27.6635 174.584 28.4545 174.622 29.2674H176.713C176.756 28.4388 176.628 27.6103 176.336 26.8334C176.045 26.0565 175.597 25.348 175.02 24.7519C173.098 23.284 170.698 22.5835 168.288 22.7868C166.115 22.6524 163.946 23.1151 162.017 24.1247C159.236 25.9226 159.32 31.6715 162.435 32.9886C165.55 34.3056 169.271 34.4519 172.636 35.4972C173.081 35.605 173.497 35.8062 173.857 36.0873C174.218 36.3685 174.514 36.7232 174.727 37.1278C175.169 38.0902 175.229 39.1844 174.895 40.1893C174.561 41.1943 173.859 42.0352 172.929 42.5423C170.155 43.5659 167.094 43.4835 164.379 42.3123C163.54 41.8134 162.847 41.1026 162.37 40.2513C161.893 39.4 161.649 38.4381 161.661 37.4623C160.909 37.4623 160.156 37.4623 159.424 37.4623C159.34 39.354 159.991 41.2049 161.243 42.6259C163.37 44.2841 166.038 45.0892 168.727 44.8837C171.156 45.0689 173.577 44.436 175.605 43.0858C178.051 41.1625 178.155 36.0616 175.396 34.4728Z" fill="#316192"/>
<path d="M200.398 37.2949C200.891 35.4905 200.985 33.6004 200.675 31.7558C200.364 29.9111 199.656 28.1561 198.6 26.6124C197.722 25.5138 196.626 24.6088 195.381 23.954C194.136 23.2992 192.77 22.9089 191.367 22.8076C188.493 22.4065 185.565 22.9261 183.005 24.2919C181.868 24.9761 180.883 25.8853 180.11 26.9637C179.337 28.0422 178.793 29.2671 178.51 30.5635C177.785 33.5584 178.117 36.7121 179.451 39.49C180.127 40.7514 181.068 41.8524 182.207 42.7182C183.347 43.5839 184.66 44.1941 186.057 44.5073C188.481 45.0406 190.992 45.0406 193.416 44.5073C194.273 44.3609 195.067 43.7547 195.945 43.7547C197.074 44.4864 198.036 45.4689 199.165 46.2842C199.645 45.8034 200.126 45.3017 200.586 44.779C199.562 43.901 198.496 43.0857 197.45 42.2286C198.867 40.8855 199.887 39.1787 200.398 37.2949ZM196.928 39.72C196.023 40.7754 194.901 41.6226 193.638 42.2034C192.375 42.7842 191.001 43.085 189.611 43.085C188.221 43.085 186.847 42.7842 185.584 42.2034C184.321 41.6226 183.199 40.7754 182.294 39.72C181.371 38.3491 180.765 36.7891 180.523 35.1541C180.281 33.5191 180.407 31.8505 180.893 30.2708C181.28 28.9282 182.003 27.7068 182.995 26.7226C183.987 25.7383 185.213 25.024 186.559 24.6473C188.139 24.1554 189.818 24.0699 191.441 24.3988C193.063 24.7276 194.576 25.4602 195.841 26.5287C199.165 29.6436 199.457 35.957 196.928 39.72Z" fill="#316192"/>
<path d="M204.454 42.563C204.454 36.1033 204.454 29.6436 204.454 23.1838H202.363V44.34C207.59 44.34 212.816 44.34 218.063 44.34C218.063 43.7755 218.063 43.1902 218.063 42.6257C213.485 42.5212 209.053 42.6466 204.454 42.563Z" fill="#316192"/>
<path d="M101.265 42.3959C101.032 42.5935 100.78 42.7685 100.513 42.9185C100.78 42.7685 101.032 42.5935 101.265 42.3959Z" fill="#1A1A1A"/>
<path d="M93.9072 43.5455C93.6797 43.4747 93.4563 43.3909 93.2383 43.2947C93.4563 43.3909 93.6797 43.4747 93.9072 43.5455Z" fill="#1A1A1A"/>
<path d="M92.2972 42.7302C91.9858 42.5182 91.7045 42.265 91.4609 41.9777C91.7045 42.265 91.9858 42.5182 92.2972 42.7302Z" fill="#1A1A1A"/>
<path d="M93.2379 43.2948C93.0152 43.1889 92.7989 43.0703 92.5898 42.9395C92.7989 43.0703 93.0152 43.1889 93.2379 43.2948Z" fill="#1A1A1A"/>
<path d="M90.1651 39.2809C90.1651 39.03 90.1651 38.7792 90.0605 38.5283C90.0815 38.7792 90.1233 39.03 90.1651 39.2809Z" fill="#1A1A1A"/>
<path d="M94.5971 43.7337C94.3671 43.7337 94.1372 43.6292 93.9072 43.5455C94.0745 43.6292 94.3671 43.671 94.5971 43.7337Z" fill="#1A1A1A"/>
<path d="M90.165 39.281C90.2741 39.7681 90.428 40.244 90.6249 40.7026C90.7897 41.0517 90.993 41.3813 91.2312 41.6851C90.993 41.3813 90.7897 41.0517 90.6249 40.7026C90.428 40.244 90.2741 39.7681 90.165 39.281Z" fill="#1A1A1A"/>
<path d="M101.266 42.3958C101.509 42.1793 101.733 41.9414 101.935 41.685C102.713 40.5381 103.129 39.183 103.126 37.7966C103.129 39.183 102.713 40.5381 101.935 41.685C101.733 41.9414 101.509 42.1793 101.266 42.3958Z" fill="#1A1A1A"/>
<path d="M89.0779 27.1767C88.562 26.7041 87.9541 26.3432 87.2922 26.1166C86.6303 25.8899 85.9287 25.8025 85.2314 25.8597C82.3046 25.8597 79.3779 25.8597 76.4512 25.8597V43.4828H78.0191C78.0191 40.9951 78.0191 38.4864 78.0191 35.9987C80.5277 35.9987 83.0363 35.9987 85.5241 35.9987C86.5195 36.0114 87.4954 35.7227 88.3237 35.1705C89.152 34.6183 89.7939 33.8285 90.165 32.9047C90.5023 31.9385 90.5794 30.9006 90.3885 29.8951C90.1977 28.8897 89.7457 27.9522 89.0779 27.1767ZM88.2835 32.6121C88.0103 33.259 87.545 33.8064 86.9505 34.1803C86.356 34.5542 85.6611 34.7365 84.9596 34.7026C82.6391 34.7026 80.3396 34.7026 78.04 34.7026C78.04 32.2358 78.04 29.7898 78.04 27.3439H84.7087C85.2976 27.2915 85.8905 27.3755 86.4416 27.5894C86.9927 27.8034 87.4871 28.1414 87.8863 28.5773C88.2415 29.1729 88.4613 29.8395 88.5299 30.5295C88.5985 31.2196 88.5144 31.9163 88.2835 32.5702V32.6121Z" fill="#1A1A1A"/>
<path d="M122.485 33.1139C122.485 32.7167 122.485 32.2986 122.485 31.9014H119.704V28.1176H118.094C118.094 29.3719 118.094 30.6262 118.094 31.8805C117.405 31.8805 116.736 31.8805 116.004 31.8805V33.0721H118.094C118.094 35.748 118.094 38.4029 118.094 41.0788C118.041 41.4719 118.092 41.872 118.243 42.239C118.393 42.606 118.638 42.9269 118.952 43.1693C120.054 43.6617 121.285 43.7863 122.464 43.5247V42.354C121.693 42.5016 120.896 42.4291 120.164 42.145C119.662 41.8105 119.704 41.0788 119.704 40.5144C119.704 38.0475 119.704 35.5807 119.704 33.093L122.485 33.1139Z" fill="#1A1A1A"/>
<path d="M91.085 33.9292C91.2127 33.746 91.3524 33.5714 91.5031 33.4066C91.3524 33.5714 91.2127 33.746 91.085 33.9292Z" fill="#1A1A1A"/>
<path d="M91.0843 33.9292C90.8779 34.2164 90.7027 34.5247 90.5617 34.849C90.2903 35.5179 90.1143 36.2216 90.0391 36.9396C90.1143 36.2216 90.2903 35.5179 90.5617 34.849C90.7027 34.5247 90.8779 34.2164 91.0843 33.9292Z" fill="#1A1A1A"/>
<path d="M101.83 33.6156C101.956 33.7828 102.06 33.9501 102.165 34.1173C102.06 33.9501 101.956 33.7828 101.83 33.6156Z" fill="#1A1A1A"/>
<path d="M103.126 37.7967C103.126 37.5668 103.126 37.3577 103.126 37.1487C103.106 37.3577 103.126 37.6295 103.126 37.7967Z" fill="#1A1A1A"/>
<path d="M102.437 34.6609C102.794 35.4468 103.013 36.2883 103.085 37.1486C103.013 36.2883 102.794 35.4468 102.437 34.6609Z" fill="#1A1A1A"/>
<path d="M102.436 34.6609C102.355 34.4713 102.257 34.2894 102.144 34.1173C102.144 33.9501 101.935 33.7829 101.809 33.6156C101.495 33.2175 101.112 32.8779 100.68 32.6122C98.8433 31.5646 96.6827 31.2368 94.6177 31.6923C93.4174 31.9175 92.3194 32.5177 91.4819 33.4066C91.3312 33.5714 91.1915 33.746 91.0638 33.9292C90.8574 34.2164 90.6822 34.5247 90.5412 34.849C90.2698 35.5179 90.0938 36.2216 90.0186 36.9395C90.0186 37.1904 90.0186 37.4413 90.0186 37.6921V38.0684C90.0186 38.1939 90.0186 38.3402 90.0186 38.4447C90.0186 38.5492 90.0186 38.9464 90.1231 39.1973C90.2321 39.6844 90.3861 40.1603 90.583 40.6189C90.7477 40.968 90.9511 41.2976 91.1892 41.6014C91.2542 41.7076 91.3313 41.8059 91.4192 41.8941C91.6628 42.1815 91.944 42.4346 92.2554 42.6467L92.5481 42.8557C92.7571 42.9865 92.9735 43.1052 93.1962 43.2111C93.4142 43.3074 93.6375 43.3911 93.8651 43.462C94.0951 43.462 94.325 43.5874 94.555 43.6501H95.2449C97.0382 43.912 98.8684 43.5972 100.471 42.7512C100.738 42.6012 100.99 42.4262 101.224 42.2286C101.468 42.0121 101.691 41.7742 101.893 41.5178C102.672 40.3709 103.087 39.0158 103.084 37.6294C103.084 37.3995 103.084 37.1904 103.084 36.9814C102.994 36.1781 102.776 35.3945 102.436 34.6609ZM100.346 41.1415C99.9038 41.6199 99.3669 42.0009 98.7694 42.2601C98.1718 42.5193 97.5268 42.6509 96.8755 42.6467C96.164 42.7284 95.4433 42.6569 94.7618 42.4369C94.0803 42.217 93.4538 41.8537 92.9244 41.3715C92.3119 40.5988 91.9046 39.684 91.7401 38.7118C91.5757 37.7397 91.6594 36.7418 91.9836 35.8107C92.2154 35.0365 92.6665 34.3461 93.2823 33.823C93.8982 33.2999 94.6525 32.9665 95.4539 32.863C96.961 32.5923 98.5151 32.8823 99.8231 33.6783C100.312 34.0692 100.711 34.5611 100.992 35.1203C101.274 35.6796 101.431 36.293 101.454 36.9186C101.56 37.6608 101.517 38.4168 101.326 39.142C101.136 39.8672 100.803 40.547 100.346 41.1415Z" fill="#1A1A1A"/>
<path d="M113.014 37.3995C111.049 36.9187 109.042 36.9814 107.098 36.4379C106.734 36.3516 106.41 36.1423 106.181 35.8453C105.953 35.5484 105.834 35.1818 105.844 34.8073C105.881 34.2786 106.117 33.7837 106.506 33.4228C106.894 33.0618 107.404 32.8618 107.934 32.8631C109.416 32.5222 110.968 32.6613 112.366 33.2603C112.717 33.489 113.008 33.798 113.215 34.1615C113.422 34.5251 113.54 34.9327 113.558 35.3508H115.251C115.242 34.8326 115.126 34.3218 114.91 33.8505C114.694 33.3793 114.383 32.9577 113.997 32.6122C112.468 31.6856 110.668 31.3094 108.896 31.546C107.63 31.5352 106.385 31.8753 105.3 32.5286C104.948 32.8335 104.671 33.2155 104.49 33.645C104.309 34.0745 104.23 34.5399 104.258 35.005C104.286 35.4702 104.422 35.9225 104.653 36.3269C104.885 36.7313 105.206 37.0769 105.593 37.3368C107.955 38.3194 110.589 38.0685 112.993 38.842C113.266 39.0009 113.495 39.2253 113.659 39.4947C113.824 39.7642 113.919 40.0704 113.935 40.3856C113.952 40.7009 113.89 41.0153 113.755 41.3005C113.619 41.5858 113.415 41.8329 113.161 42.0196C111.503 42.7749 109.635 42.9373 107.872 42.4795C107.242 42.3893 106.665 42.0759 106.247 41.5962C105.829 41.1166 105.597 40.5027 105.593 39.8663H103.837C103.892 40.9357 104.339 41.9475 105.091 42.7095C106.464 43.57 108.074 43.9726 109.69 43.8592C111.337 44.001 112.988 43.6518 114.436 42.8558C115.018 42.4062 115.427 41.7699 115.594 41.0541C115.762 40.3383 115.677 39.5866 115.356 38.9256C115.091 38.5245 114.746 38.1821 114.343 37.9196C113.941 37.6571 113.488 37.4801 113.014 37.3995Z" fill="#1A1A1A"/>
<path d="M136.24 31.9222H134.693V33.7828C134.078 33.0067 133.29 32.3841 132.393 31.9641C130.743 31.4726 128.985 31.4726 127.334 31.9641C126.448 32.1649 125.632 32.604 124.977 33.2339C124.321 33.8639 123.849 34.6608 123.613 35.5389C123.368 36.4923 123.317 37.4854 123.464 38.4589C123.611 39.4324 123.954 40.3661 124.47 41.2042C124.922 41.7957 125.491 42.2869 126.143 42.6468C126.794 43.0067 127.513 43.2273 128.254 43.2947C129.401 43.5372 130.591 43.4862 131.713 43.1463C132.835 42.8065 133.853 42.1888 134.672 41.3505C134.882 42.8165 134.664 44.3118 134.045 45.657C133.612 46.2103 133.05 46.6498 132.409 46.9376C131.768 47.2253 131.067 47.3526 130.366 47.3085C129.156 47.4025 127.942 47.1942 126.833 46.7023C126.101 46.3051 125.85 45.3643 125.516 44.6117H123.948C123.991 45.1886 124.16 45.7491 124.441 46.2544C124.723 46.7597 125.111 47.1979 125.578 47.5385C126.982 48.2196 128.537 48.5291 130.094 48.4374C130.99 48.507 131.891 48.3988 132.744 48.119C133.598 47.8391 134.388 47.3932 135.069 46.8068C135.544 46.2277 135.897 45.5593 136.109 44.8411C136.321 44.123 136.387 43.3697 136.303 42.6257C136.261 39.0509 136.386 35.5389 136.24 31.9222ZM133.794 40.4516C133.17 41.1308 132.376 41.6306 131.494 41.899C130.611 42.1674 129.673 42.1945 128.777 41.9777C128.045 41.9178 127.345 41.6553 126.754 41.2196C126.163 40.7839 125.705 40.1922 125.432 39.5109C125.161 38.7671 125.043 37.9761 125.086 37.1856C125.129 36.3951 125.332 35.6215 125.683 34.9117C126 34.382 126.431 33.9292 126.944 33.5858C127.458 33.2424 128.041 33.017 128.651 32.9257C129.422 32.7547 130.218 32.7406 130.994 32.8843C131.77 33.0279 132.509 33.3264 133.167 33.7619C134.041 34.6253 134.583 35.7692 134.698 36.9926C134.813 38.216 134.493 39.4407 133.794 40.4516Z" fill="#1A1A1A"/>
<path d="M144.895 31.5668C143.636 31.4243 142.361 31.5819 141.174 32.0267C140.491 32.4896 139.96 33.1442 139.648 33.9082C139.648 33.2602 139.648 32.5912 139.648 31.9222H137.976C137.976 35.7688 137.976 39.6363 137.976 43.4828H139.543C139.543 41.3923 139.543 39.4899 139.543 37.483C139.499 36.7871 139.606 36.0897 139.859 35.4397C140.112 34.7897 140.504 34.2028 141.007 33.7201C142.142 33.0366 143.488 32.7913 144.791 33.0302L144.895 31.5668Z" fill="#1A1A1A"/>
<path d="M157.731 38.0267C157.773 36.3759 157.249 34.7603 156.246 33.4484C155.505 32.7097 154.6 32.1549 153.606 31.8282C152.611 31.5015 151.554 31.412 150.518 31.5669C149.492 31.555 148.48 31.8133 147.584 32.316C146.689 32.8187 145.942 33.5481 145.417 34.4309C144.744 35.7275 144.506 37.2066 144.74 38.6489C144.973 40.0912 145.665 41.4198 146.714 42.4377C147.718 43.1554 148.876 43.6292 150.095 43.8215C151.314 44.0138 152.561 43.9194 153.738 43.5456C154.648 43.2996 155.477 42.8155 156.138 42.1431C156.799 41.4708 157.27 40.6344 157.501 39.72H155.766C155.569 40.3505 155.226 40.9254 154.765 41.3978C154.303 41.8702 153.736 42.2265 153.111 42.4377C152.158 42.7486 151.14 42.8022 150.159 42.5929C149.179 42.3836 148.272 41.919 147.529 41.2461C146.784 40.3522 146.363 39.232 146.337 38.0685C150.121 38.0057 153.926 38.0685 157.731 38.0267ZM146.337 36.9605C146.418 36.2608 146.647 35.5862 147.007 34.9809C147.367 34.3756 147.851 33.8534 148.428 33.4484C149.516 32.7575 150.821 32.4947 152.092 32.711C153.362 32.9272 154.508 33.6071 155.306 34.6191C155.797 35.2984 156.087 36.1028 156.142 36.9396C152.818 36.9814 149.578 36.9814 146.337 36.9605Z" fill="#1A1A1A"/>
<path d="M42.3127 1.23336C39.2206 0.70048 36.0601 0.70048 32.968 1.23336C31.1935 1.61691 29.478 2.23559 27.8671 3.07302C22.7774 1.20528 17.302 0.637611 11.9373 1.42151C10.0415 1.77074 8.23833 2.50813 6.64103 3.58738C5.04373 4.66664 3.68679 6.06446 2.65541 7.69308C0.396132 11.841 -0.489499 16.5985 0.125873 21.2815C0.850446 26.4737 1.96861 31.6033 3.47071 36.626C4.65783 41.0107 6.40009 45.2258 8.65522 49.1691C9.85262 51.5655 11.9147 53.4184 14.4251 54.3536C15.4334 54.6011 16.4866 54.6011 17.4949 54.3535C18.5032 54.106 19.4367 53.6183 20.2158 52.9321C21.0203 53.7425 21.99 54.37 23.0589 54.7717C26.1704 55.8462 29.5615 55.787 32.6335 54.6045C32.4696 58.8416 32.992 63.0773 34.1805 67.1476C34.7655 69.066 35.9809 70.7307 37.6299 71.8722C39.5442 73.0412 41.8369 73.4233 44.0269 72.9384C46.0218 72.6785 47.9505 72.0474 49.7131 71.0778C51.5017 69.9377 52.9128 68.2938 53.7688 66.3532C55.3806 61.9645 56.1604 57.3138 56.0683 52.6394C60.6268 53.0822 65.1767 51.7157 68.7369 48.8346C69.5187 48.3008 70.1246 47.5471 70.4781 46.669C70.8315 45.7908 70.9168 44.8276 70.7229 43.901C70.4637 43.1069 69.9463 42.4223 69.253 41.9563C68.5597 41.4904 67.7304 41.2697 66.8973 41.3296C65.1621 41.4551 63.4897 41.9986 61.7546 41.9986C65.7556 35.301 68.5837 27.9694 70.1167 20.3199C70.8168 17.1244 70.8168 13.8153 70.1167 10.6198C69.4656 8.83087 68.3553 7.24472 66.8973 6.02066C63.8708 3.09303 60.0309 1.14754 55.8802 0.43896C51.3551 -0.31356 46.719 -0.0421048 42.3127 1.23336Z" fill="white"/>
<path d="M42.2914 3.30304C47.1082 1.71837 52.274 1.52275 57.1969 2.7386C61.1386 3.79815 64.6213 6.12728 67.106 9.36556C67.9846 10.7661 68.4284 12.3957 68.3812 14.0483C68.4102 16.932 68.0587 19.8069 67.3359 22.5986C65.4874 30.0169 62.4291 37.0799 58.284 43.5038C60.6243 44.1944 63.1142 44.1944 65.4545 43.5038C66.437 43.3157 67.7122 43.0648 68.4439 43.922C69.1756 44.7791 68.4439 46.0125 67.7331 46.7442C65.9592 48.2922 63.8502 49.4076 61.5721 50.0025C59.2941 50.5974 56.909 50.6556 54.6046 50.1726C54.1238 54.2491 53.643 58.3466 53.0158 62.4022C52.8174 64.7658 51.7965 66.9851 50.1309 68.6738C48.3797 69.9933 46.3089 70.8231 44.1311 71.0779C43.0451 71.3074 41.9222 71.2992 40.8397 71.0538C39.7571 70.8084 38.7405 70.3317 37.8595 69.6563C36.0646 67.9859 34.9607 65.7035 34.7655 63.2593C34.3715 59.1674 34.2179 55.056 34.3056 50.9461C32.3304 52.6349 29.7688 53.4762 27.1769 53.2875C25.292 53.3151 23.4546 52.6953 21.9715 51.5315C21.7927 51.3598 21.6527 51.1518 21.5609 50.9215C21.4692 50.6912 21.4279 50.444 21.4398 50.1964C21.4517 49.9487 21.5165 49.7066 21.6299 49.4861C21.7432 49.2656 21.9025 49.072 22.097 48.9183C23.6973 48.1283 25.4001 47.5654 27.156 47.2459C28.3894 46.8905 29.0375 45.6989 29.811 44.7791C28.3567 44.6964 26.9343 44.3195 25.63 43.6711C23.6649 45.7616 21.7625 47.9567 19.9019 50.1517C19.4007 50.8366 18.7371 51.3863 17.9708 51.7512C17.2045 52.1161 16.3595 52.2848 15.5118 52.2422C14.5739 52.0281 13.6897 51.6246 12.9132 51.0567C12.1368 50.4887 11.4844 49.7682 10.9963 48.9392C8.95454 45.7824 7.36428 42.3556 6.27169 38.7584C4.37689 33.0641 2.978 27.2168 2.09063 21.2816C1.40746 16.7331 2.31575 12.0882 4.66198 8.13215C5.74125 6.65901 7.12918 5.4393 8.72879 4.55825C10.3284 3.67721 12.1011 3.15608 13.923 3.03127C18.7719 2.65489 23.6436 3.36921 28.1804 5.1218C30.1003 3.95493 32.2318 3.1788 34.4525 2.83799C36.6731 2.49717 38.9393 2.59838 41.1207 3.1358C41.4994 3.2543 41.8947 3.31078 42.2914 3.30304ZM45.8453 4.53645C46.7652 5.18451 47.8313 5.64443 48.7721 6.29249C52.6281 8.92505 55.664 12.5913 57.5314 16.8705C58.1735 18.0597 58.5178 19.3867 58.5348 20.738C58.5348 23.5184 57.615 26.2361 57.8868 29.1001C58.4538 32.0441 58.5103 35.0636 58.054 38.0267C57.7617 39.0326 57.3841 40.0117 56.9251 40.9534C56.9251 41.0997 56.9251 41.3924 57.0296 41.5178C57.385 41.0579 57.6986 40.5771 58.0122 40.0754C61.028 34.9861 63.3682 29.5257 64.9736 23.832C65.8737 20.7613 66.352 17.5824 66.3952 14.3828C66.4564 12.9909 66.0759 11.6153 65.3081 10.4526C63.4748 8.14876 61.056 6.37983 58.3049 5.33085C54.3132 3.8797 49.989 3.604 45.8453 4.53645ZM34.4102 4.93365C32.8774 5.13464 31.4001 5.63939 30.0647 6.41833C28.7294 7.19728 27.5629 8.23477 26.6334 9.47009C24.2445 12.8997 22.8813 16.9385 22.7032 21.1143C25.1733 19.6646 28.0652 19.104 30.8981 19.5255C31.7993 19.7732 32.6144 20.2656 33.2528 20.9483C33.8912 21.631 34.3279 22.4772 34.5147 23.393C35.4875 27.0274 35.6517 30.8308 34.9955 34.5355C34.3684 37.504 32.5496 40.0754 31.9433 43.0648C32.7239 43.0621 33.4952 43.2335 34.2011 43.5666C34.8844 43.9741 35.4414 44.5629 35.8104 45.2677C36.1794 45.9725 36.346 46.7658 36.2916 47.5595C36.1871 51.6151 36.1871 55.6707 36.4171 59.7263C36.4617 61.414 36.6646 63.0938 37.0233 64.7436C37.2602 65.7749 37.7752 66.7216 38.5123 67.4808C39.2494 68.2401 40.1805 68.7828 41.2044 69.0501C43.4826 69.2987 45.7822 68.8388 47.7895 67.733C48.6927 67.1529 49.4495 66.3717 50.0008 65.4506C50.552 64.5294 50.8827 63.4933 50.9671 62.4231C51.6779 58.1166 52.1587 53.7474 52.6604 49.3991C52.5884 47.8081 52.8519 46.2197 53.4339 44.7373C54.0179 43.9276 54.8346 43.3151 55.7753 42.9812C54.9995 42.0794 54.3002 41.1144 53.6848 40.0963C51.5943 35.6435 48.6048 31.4206 47.7059 26.487C47.4209 25.4337 47.4157 24.3244 47.6906 23.2685C47.9656 22.2126 48.5113 21.2467 49.2738 20.4663C51.3075 19.1283 53.7708 18.6058 56.1725 19.0029C54.7276 14.9896 52.1764 11.4673 48.8139 8.84293C46.7894 7.27365 44.4746 6.12035 42.0025 5.44942C39.5305 4.7785 36.9502 4.60321 34.4102 4.93365ZM12.8777 5.26813C11.4557 5.49801 10.1004 6.03392 8.90573 6.83881C7.71102 7.64371 6.70532 8.6984 5.95811 9.93C4.24834 13.3627 3.62834 17.2358 4.18116 21.0307C4.89052 25.9834 5.97372 30.8752 7.42148 35.6644C8.52232 39.7444 10.1454 43.6652 12.2506 47.3295C12.9886 48.6078 14.1275 49.6071 15.4909 50.1726C16.7661 50.4444 17.7905 49.3782 18.5222 48.5002C20.2364 46.4097 22.0761 44.4655 23.8321 42.4168C22.5479 41.2499 21.5611 39.7931 20.9538 38.1676C20.3465 36.5422 20.1364 34.7952 20.3409 33.0721C20.7017 30.4263 20.7928 27.7506 20.6127 25.0863C20.3675 21.2863 20.8573 17.4747 22.0552 13.8602C22.9064 11.1614 24.3329 8.67931 26.2362 6.58516C21.9556 5.07167 17.3715 4.61973 12.8777 5.26813ZM50.6954 21.9923C50.158 22.5631 49.7849 23.2686 49.6156 24.034C49.4463 24.7995 49.4871 25.5965 49.7337 26.3406C50.6745 30.9607 53.3712 34.9118 55.4408 39.051C57.0087 35.9361 56.0471 32.3823 55.7962 29.1001C55.8415 26.434 56.058 23.7736 56.4443 21.1352C54.4938 20.727 52.4621 21.0077 50.6954 21.9296V21.9923ZM22.6196 23.6857C22.6196 25.9016 22.8286 28.1385 22.6196 30.3544C22.2892 32.3016 22.2189 34.284 22.4105 36.2497C22.7213 38.0095 23.6209 39.6115 24.9618 40.7928C26.3026 41.9741 28.0052 42.6647 29.7901 42.7513C30.3372 41.0016 31.0007 39.2906 31.7761 37.6295C33.6517 33.2249 33.8963 28.2961 32.466 23.7275C32.2982 23.0974 31.9343 22.537 31.4269 22.1273C30.9196 21.7177 30.2951 21.4801 29.6438 21.4488C27.1346 21.4345 24.6819 22.1936 22.6196 23.6229V23.6857ZM55.4199 45.4898C55.1516 45.84 54.9575 46.2412 54.8497 46.669C54.7418 47.0968 54.7225 47.5421 54.7928 47.9776C56.3073 48.4129 57.8998 48.5058 59.4547 48.2493C61.8434 48.0847 64.1091 47.1284 65.8935 45.5317C63.0713 45.8661 59.9982 46.556 57.3432 45.1554C56.737 44.7164 55.9635 45.0926 55.4199 45.4898ZM28.7448 48.7302C27.076 49.3677 25.3731 49.9121 23.644 50.3608C25.3256 51.2067 27.2434 51.4606 29.0872 51.0812C30.931 50.7018 32.5929 49.7114 33.8039 48.2702C34.0468 47.9882 34.2026 47.6416 34.2524 47.2727C34.3022 46.9038 34.2439 46.5284 34.0846 46.192C33.9252 45.8556 33.6717 45.5727 33.3547 45.3775C33.0377 45.1824 32.6709 45.0834 32.2987 45.0926C30.8772 46.117 30.2709 47.9149 28.7448 48.7302Z" fill="white"/>
<path d="M51.3015 22.5358C51.7824 22.2179 52.3373 22.0297 52.9123 21.9894C53.4874 21.9491 54.0631 22.0581 54.5836 22.3059C54.5624 22.6196 54.4638 22.9231 54.2966 23.1894C54.1294 23.4556 53.8987 23.6763 53.6254 23.8316C53.352 23.987 53.0444 24.0721 52.7301 24.0795C52.4157 24.0868 52.1045 24.0161 51.8241 23.8738C51.3642 23.6647 50.758 22.9957 51.3015 22.5358Z" fill="white"/>
<path d="M28.4524 22.6194C28.9536 22.4681 29.4833 22.4366 29.9989 22.5273C30.5144 22.6181 31.0015 22.8287 31.4209 23.142C31.9854 23.6019 31.4209 24.3545 30.9819 24.6263C30.7008 24.7965 30.3835 24.8981 30.0558 24.9228C29.7281 24.9475 29.3991 24.8945 29.0957 24.7683C28.7923 24.642 28.5229 24.446 28.3094 24.1961C28.0959 23.9463 27.9444 23.6496 27.867 23.3301C27.8043 22.9957 28.1388 22.7239 28.4524 22.6194Z" fill="white"/>
<path d="M45.8457 4.53641C50.01 3.56744 54.3655 3.82151 58.3889 5.2681C61.1169 6.34753 63.5061 8.13768 65.3085 10.4526C66.0573 11.6143 66.4228 12.9815 66.3538 14.3619C66.3105 17.5615 65.8323 20.7404 64.9322 23.8111C63.3268 29.5048 60.9866 34.9652 57.9707 40.0544C57.6572 40.5562 57.3436 41.037 56.9882 41.4969C56.9882 41.3715 56.9882 41.0788 56.8837 40.9325C57.3426 39.9908 57.7203 39.0117 58.0126 38.0057C58.4689 35.0426 58.4123 32.0231 57.8453 29.0792C57.5735 26.2988 58.5143 23.5811 58.4934 20.7171C58.4892 19.3693 58.1593 18.0424 57.5317 16.8496C55.6643 12.5703 52.6285 8.90411 48.7724 6.27155C47.8317 5.64439 46.7655 5.18447 45.8457 4.53641Z" fill="#316192"/>
<path d="M34.4105 4.93364C36.9472 4.60604 39.5236 4.78274 41.9918 5.45361C44.46 6.12448 46.7714 7.2763 48.7933 8.84293C52.1558 11.4672 54.707 14.9896 56.1519 19.0029C53.7501 18.6058 51.2869 19.1283 49.2532 20.4662C48.4907 21.2467 47.945 22.2126 47.67 23.2685C47.3951 24.3244 47.4003 25.4337 47.6853 26.487C48.5842 31.4206 51.511 35.6435 53.6642 40.0963C54.2796 41.1144 54.9789 42.0794 55.7547 42.9812C54.814 43.3151 53.9973 43.9276 53.4133 44.7372C52.8313 46.2197 52.5678 47.8081 52.6398 49.3991C52.1381 53.7474 51.6573 58.1166 50.9465 62.4231C50.8621 63.4933 50.5314 64.5294 49.9802 65.4505C49.4289 66.3717 48.6721 67.1529 47.7689 67.733C45.7615 68.8388 43.462 69.2987 41.1838 69.0501C40.1599 68.7828 39.2288 68.24 38.4917 67.4808C37.7546 66.7216 37.2396 65.7749 37.0027 64.7436C36.644 63.0938 36.441 61.414 36.3965 59.7263C36.1665 55.6707 36.1665 51.6151 36.271 47.5595C36.3254 46.7658 36.1588 45.9725 35.7898 45.2677C35.4208 44.5629 34.8638 43.9741 34.1805 43.5666C33.4746 43.2335 32.7033 43.0621 31.9227 43.0648C32.529 40.0754 34.3477 37.504 34.9749 34.5355C35.6311 30.8308 35.4669 27.0273 34.4941 23.393C34.3073 22.4772 33.8705 21.631 33.2322 20.9483C32.5938 20.2656 31.7787 19.7732 30.8775 19.5255C28.0446 19.104 25.1527 19.6646 22.6826 21.1143C22.8607 16.9385 24.2239 12.8997 26.6128 9.47008C27.5446 8.23243 28.7145 7.19355 30.0536 6.41451C31.3927 5.63547 32.874 5.13198 34.4105 4.93364Z" fill="#316192"/>
<path d="M12.8781 5.26798C17.4026 4.61916 22.0171 5.08563 26.3202 6.62683C24.4168 8.72097 22.9903 11.203 22.1391 13.9019C20.9182 17.4977 20.4001 21.2947 20.613 25.0862C20.7945 27.7574 20.7035 30.4401 20.3413 33.0929C20.1367 34.8159 20.3469 36.5629 20.9541 38.1884C21.5614 39.8138 22.5482 41.2706 23.8324 42.4375C22.0764 44.528 20.2367 46.4304 18.5225 48.521C17.7908 49.399 16.7665 50.4651 15.4912 50.1934C14.0942 49.5889 12.9442 48.5273 12.23 47.183C10.1265 43.5253 8.50344 39.6116 7.4009 35.5388C5.95314 30.7496 4.86994 25.8578 4.16059 20.9051C3.61421 17.1081 4.24152 13.2349 5.95844 9.80442C6.7189 8.59615 7.73045 7.56565 8.92441 6.78291C10.1184 6.00016 11.4668 5.48349 12.8781 5.26798Z" fill="#316192"/>
<path d="M50.696 21.9296C52.4627 21.0077 54.4944 20.727 56.4449 21.1352C56.0613 23.7528 55.8448 26.3922 55.7969 29.0374C56.0477 32.3195 57.0094 35.8734 55.4415 38.9883C53.351 34.8072 50.6751 30.8979 49.7344 26.2779C49.4878 25.5337 49.447 24.7367 49.6163 23.9713C49.7855 23.2058 50.1586 22.5004 50.696 21.9296ZM51.3022 22.5358C50.7587 22.9958 51.3022 23.6647 51.8249 23.8738C52.1052 24.0162 52.4165 24.0868 52.7308 24.0795C53.0451 24.0721 53.3527 23.987 53.6261 23.8317C53.8995 23.6763 54.1301 23.4557 54.2973 23.1894C54.4645 22.9232 54.5632 22.6196 54.5844 22.3059C54.0639 22.0581 53.4881 21.9491 52.9131 21.9894C52.338 22.0297 51.7831 22.2179 51.3022 22.5358Z" fill="#316192"/>
<path d="M22.6197 23.6229C24.6722 22.1639 27.1257 21.3753 29.6439 21.3651C30.2952 21.3964 30.9197 21.634 31.427 22.0436C31.9344 22.4533 32.2983 23.0137 32.4661 23.6438C33.9171 28.238 33.6723 33.2003 31.7762 37.6294C31.0213 39.2989 30.3787 41.0169 29.8529 42.7721C28.068 42.6856 26.3655 41.995 25.0246 40.8137C23.6837 39.6323 22.7841 38.0304 22.4734 36.2706C22.2818 34.3049 22.3521 32.3224 22.6824 30.3753C22.8288 28.0757 22.6615 25.8388 22.6197 23.6229ZM28.4523 22.6194C28.1387 22.6194 27.8042 22.9539 27.8669 23.3302C27.9443 23.6496 28.0958 23.9463 28.3093 24.1962C28.5228 24.4461 28.7922 24.6421 29.0956 24.7683C29.3991 24.8946 29.728 24.9475 30.0557 24.9229C30.3834 24.8982 30.7007 24.7966 30.9818 24.6263C31.4626 24.3546 31.9853 23.602 31.4208 23.1421C31.0014 22.8287 30.5144 22.6182 29.9988 22.5274C29.4832 22.4366 28.9535 22.4682 28.4523 22.6194Z" fill="#316192"/>
<path d="M55.4198 45.4898C55.9634 45.0926 56.7369 44.7163 57.3431 45.1553C59.9981 46.5559 63.0712 45.8661 65.8934 45.5316C64.109 47.1283 61.8433 48.0846 59.4545 48.2492C57.9074 48.5397 56.315 48.4826 54.7927 48.082C54.7073 47.6302 54.7191 47.1653 54.8272 46.7184C54.9353 46.2714 55.1373 45.8526 55.4198 45.4898Z" fill="#316192"/>
<path d="M28.7454 48.7301C30.2715 47.9148 30.8359 46.117 32.2993 45.1763C32.6714 45.167 33.0383 45.266 33.3552 45.4611C33.6722 45.6563 33.9258 45.9392 34.0852 46.2756C34.2445 46.612 34.3028 46.9875 34.253 47.3563C34.2032 47.7252 34.0474 48.0718 33.8045 48.3538C32.5935 49.795 30.9316 50.7854 29.0878 51.1648C27.244 51.5442 25.3262 51.2903 23.6445 50.4444C25.3754 49.9683 27.0783 49.396 28.7454 48.7301Z" fill="#316192"/>
<path d="M42.3127 1.23336C46.719 -0.0421048 51.3551 -0.31356 55.8802 0.43896C60.0309 1.14754 63.8708 3.09303 66.8973 6.02066C68.3247 7.25493 69.4055 8.84016 70.033 10.6198C70.7332 13.8153 70.7332 17.1244 70.033 20.3199C68.5 27.9694 65.672 35.301 61.6709 41.9986C63.4061 41.9986 65.0785 41.4551 66.8136 41.3296C67.6605 41.2502 68.5091 41.4615 69.2197 41.9289C69.9304 42.3964 70.4605 43.0919 70.7229 43.901C70.8779 44.799 70.7733 45.7225 70.4215 46.5632C70.0697 47.4038 69.4853 48.1265 68.7369 48.6465C65.1767 51.5276 60.6268 52.894 56.0683 52.4512C56.1604 57.1257 55.3806 61.7764 53.7688 66.1651C52.9445 68.175 51.5305 69.8878 49.7131 71.0778C47.9515 72.0864 46.0151 72.7531 44.006 73.0429C41.8092 73.4912 39.5241 73.0717 37.6299 71.8722C35.9658 70.6955 34.7556 68.9836 34.2014 67.0222C33.0129 62.9519 32.4905 58.7162 32.6544 54.479C29.5824 55.6615 26.1913 55.7208 23.0798 54.6463C22.0109 54.2445 21.0412 53.6171 20.2367 52.8066C19.4671 53.518 18.5354 54.0307 17.5226 54.3003C16.5098 54.5699 15.4465 54.5882 14.4251 54.3536C11.9399 53.454 9.88156 51.6567 8.65522 49.3155C6.40009 45.3722 4.65783 41.157 3.47071 36.7723C1.96861 31.7496 0.850446 26.62 0.125873 21.4278C-0.489499 16.7448 0.396132 11.9873 2.65541 7.83942C3.68679 6.2108 5.04373 4.81298 6.64103 3.73372C8.23833 2.65446 10.0415 1.91707 11.9373 1.56784C17.295 0.757235 22.7703 1.29614 27.8671 3.13574C29.4705 2.24763 31.1862 1.57962 32.968 1.14974C36.0649 0.644507 39.2254 0.672788 42.3127 1.23336ZM42.3127 3.32389C41.9171 3.3384 41.5218 3.28898 41.142 3.17755C38.9537 2.65552 36.6838 2.57148 34.463 2.93027C32.2421 3.28905 30.1142 4.08356 28.2016 5.26807C23.6649 3.51549 18.7932 2.80117 13.9442 3.17755C12.1306 3.28197 10.3613 3.77909 8.75867 4.63455C7.15605 5.49 5.75838 6.68336 4.66231 8.13209C2.31609 12.0882 1.40779 16.733 2.09097 21.2815C2.97833 27.2167 4.37723 33.0641 6.27202 38.7583C7.35262 42.3762 8.93597 45.8244 10.9757 49.0019C11.4658 49.8208 12.1167 50.532 12.8892 51.0925C13.6617 51.653 14.5397 52.0512 15.4703 52.2631C16.318 52.3057 17.163 52.1369 17.9293 51.772C18.6956 51.4071 19.3592 50.8575 19.8604 50.1726C21.721 48.082 23.6234 45.8034 25.5885 43.6919C26.8929 44.3403 28.3152 44.7172 29.7695 44.7999C28.996 45.7197 28.348 46.8904 27.1146 47.2667C25.3586 47.5863 23.6559 48.1491 22.0555 48.9392C21.861 49.0929 21.7017 49.2865 21.5884 49.5069C21.475 49.7274 21.4102 49.9696 21.3983 50.2172C21.3864 50.4648 21.4277 50.7121 21.5195 50.9424C21.6112 51.1727 21.7512 51.3807 21.9301 51.5523C23.4131 52.7161 25.2505 53.3359 27.1355 53.3084C29.7443 53.5026 32.3234 52.6529 34.306 50.9461C34.2183 55.0559 34.3718 59.1674 34.7659 63.2593C34.961 65.7035 36.0649 67.9858 37.8599 69.6563C38.7408 70.3316 39.7574 70.8084 40.84 71.0538C41.9226 71.2991 43.0454 71.3074 44.1314 71.0778C46.3362 70.7935 48.4234 69.9196 50.173 68.5483C51.8387 66.8596 52.8595 64.6403 53.058 62.2767C53.6851 58.2211 54.166 54.1237 54.6468 50.0471C56.9512 50.5301 59.3362 50.4719 61.6143 49.877C63.8923 49.2821 66.0013 48.1667 67.7753 46.6187C68.507 45.9288 69.1968 44.7372 68.4861 43.7965C67.7753 42.8557 66.3955 43.1902 65.4966 43.3784C63.1563 44.0689 60.6664 44.0689 58.3261 43.3784C62.4712 36.9544 65.5295 29.8914 67.3781 22.4731C68.1009 19.6814 68.4523 16.8065 68.4233 13.9229C68.4706 12.2702 68.0268 10.6406 67.1481 9.24007C64.6635 6.00179 61.1808 3.67266 57.239 2.61311C52.2912 1.42968 47.1096 1.66883 42.2918 3.30298L42.3127 3.32389Z" fill="black"/>
</g>
<defs>
<clipPath id="clip0">
<rect width="218" height="73.1057" fill="white"/>
</clipPath>
</defs>
</svg>
