<svg width="218" height="52" viewBox="0 0 218 52" fill="none" xmlns="http://www.w3.org/2000/svg">
<g clip-path="url(#clip0)">
<path d="M82.134 27.5522C82.134 21.0736 80.2866 17.7475 76.592 17.5654C75.1219 17.496 73.6865 17.7301 72.2902 18.2722C71.1757 18.6712 70.4255 19.0658 70.0309 19.4647V34.9285C72.3943 36.4116 74.4931 37.1011 76.3231 36.9927C80.1956 36.7368 82.134 33.5929 82.134 27.5522ZM86.6916 27.8211C86.6916 31.1125 85.9197 33.8444 84.3673 36.017C82.637 38.4758 80.2389 39.742 77.1731 39.8114C74.8617 39.8851 72.481 39.1609 70.0309 37.6432V51.6976L66.0674 50.2839V19.0875C66.7179 18.2895 67.5548 17.6044 68.5695 17.0233C70.9286 15.6486 73.795 14.9418 77.1687 14.9071L77.2251 14.9635C80.3083 14.9244 82.6847 16.1907 84.3542 18.7579C85.911 21.1126 86.6916 24.1308 86.6916 27.8211Z" fill="#646464"/>
<path d="M110.915 37.0447C110.915 41.4593 110.473 44.5165 109.588 46.2164C108.699 47.9162 107.008 49.2736 104.51 50.284C102.485 51.0819 100.295 51.5155 97.9445 51.5892L97.2897 49.0914C99.6791 48.7662 101.362 48.441 102.337 48.1157C104.258 47.4653 105.577 46.4679 106.301 45.1322C106.882 44.0438 107.168 41.9666 107.168 38.8921V37.86C104.458 39.0915 101.617 39.703 98.647 39.703C96.6956 39.703 94.974 39.0915 93.491 37.86C91.8258 36.52 90.9932 34.8201 90.9932 32.7603V16.2644L94.9567 14.9071V31.5114C94.9567 33.285 95.5291 34.651 96.6739 35.6094C97.8188 36.5677 99.3018 37.0274 101.119 36.9927C102.936 36.9537 104.883 36.2512 106.951 34.8765V15.5055H110.915V37.0447Z" fill="#646464"/>
<path d="M126.387 39.5945C125.914 39.6336 125.481 39.6509 125.082 39.6509C122.84 39.6509 121.092 39.1175 119.843 38.0464C118.599 36.9753 117.974 35.4966 117.974 33.6102V17.999H115.26V15.5055H117.974V8.88372L121.934 7.47437V15.5055H126.387V17.999H121.934V33.5018C121.934 34.9892 122.333 36.043 123.13 36.6587C123.816 37.1661 124.904 37.4567 126.387 37.5304V39.5945Z" fill="#646464"/>
<path d="M150.386 39.2693H146.422V23.9703C146.422 22.4135 146.058 21.0735 145.334 19.9547C144.497 18.6885 143.335 18.0554 141.843 18.0554C140.026 18.0554 137.754 19.0137 135.026 20.9304V39.2693H131.062V2.69995L135.026 1.45105V18.1074C137.559 16.2644 140.325 15.3407 143.33 15.3407C145.429 15.3407 147.129 16.0476 148.43 17.4569C149.735 18.8663 150.386 20.6225 150.386 22.7214V39.2693Z" fill="#646464"/>
<path d="M171.452 26.9278C171.452 24.4386 170.98 22.3832 170.039 20.757C168.92 18.7752 167.181 17.7301 164.83 17.6217C160.485 17.8732 158.317 20.9868 158.317 26.9538C158.317 29.6901 158.768 31.9754 159.679 33.8097C160.841 36.1471 162.584 37.3006 164.908 37.2616C169.271 37.2269 171.452 33.7837 171.452 26.9278ZM175.793 26.9538C175.793 30.4967 174.887 33.4455 173.078 35.8002C171.088 38.4367 168.339 39.7594 164.83 39.7594C161.353 39.7594 158.642 38.4367 156.687 35.8002C154.913 33.4455 154.028 30.4967 154.028 26.9538C154.028 23.6234 154.987 20.822 156.903 18.5411C158.929 16.1213 161.591 14.9071 164.882 14.9071C168.174 14.9071 170.854 16.1213 172.918 18.5411C174.835 20.822 175.793 23.6234 175.793 26.9538Z" fill="#646464"/>
<path d="M198.515 39.2693H194.552V23.103C194.552 21.3294 194.018 19.9461 192.952 18.9487C191.885 17.9556 190.463 17.4743 188.689 17.5133C186.807 17.548 185.016 18.1638 183.316 19.3563V39.2693H179.353V18.8663C181.634 17.2054 183.732 16.1213 185.649 15.6139C187.457 15.1413 189.053 14.9071 190.428 14.9071C191.369 14.9071 192.254 14.9982 193.086 15.1803C194.643 15.5402 195.909 16.208 196.885 17.1881C197.973 18.2722 198.515 19.5731 198.515 21.0952V39.2693Z" fill="#646464"/>
<path d="M26.9206 2.84636C24.8813 2.85583 22.9339 3.02975 21.2203 3.33296C16.1724 4.22476 15.2559 6.09138 15.2559 9.53373V14.08H27.1847V15.5955H15.2559H10.7791C7.31226 15.5955 4.27659 17.6792 3.32707 21.6433C2.23181 26.187 2.18323 29.0224 3.32707 33.7668C4.17501 37.2983 6.20001 39.8146 9.66686 39.8146H13.7683V34.3646C13.7683 30.4273 17.1749 26.9543 21.2203 26.9543H33.1352C36.4519 26.9543 39.0997 24.2234 39.0996 20.8925V9.53373C39.0996 6.30095 36.3724 3.8725 33.1352 3.33296C31.086 2.99185 28.9598 2.83688 26.9206 2.84636ZM20.4695 6.50286C21.7017 6.50286 22.7079 7.52552 22.7079 8.78296C22.7079 10.0359 21.7017 11.0492 20.4695 11.0492C19.233 11.0492 18.2311 10.0359 18.2311 8.78296C18.2311 7.52552 19.233 6.50286 20.4695 6.50286Z" fill="url(#paint0_linear)"/>
<path d="M40.5872 15.5955V20.8925C40.5872 24.9993 37.1055 28.4558 33.1352 28.4558H21.2203C17.9566 28.4558 15.2559 31.2491 15.2559 34.5175V45.8763C15.2559 49.1091 18.067 51.0106 21.2203 51.9381C24.9963 53.0484 28.6172 53.249 33.1352 51.9381C36.1383 51.0686 39.0996 49.3187 39.0996 45.8763V41.33H27.1847V39.8146H39.0996H45.064C48.5309 39.8146 49.8228 37.3964 51.0284 33.7668C52.2738 30.0301 52.2209 26.4367 51.0284 21.6433C50.1716 18.192 48.5353 15.5955 45.064 15.5955H40.5872ZM33.886 44.3609C35.1225 44.3609 36.1244 45.3741 36.1244 46.6271C36.1243 47.8845 35.1225 48.9072 33.886 48.9072C32.6538 48.9072 31.6476 47.8845 31.6476 46.6271C31.6476 45.3741 32.6538 44.3609 33.886 44.3609Z" fill="url(#paint1_linear)"/>
<path d="M206.234 11.9718H206.929V7.61348H208.575V7.09399H204.588V7.61348H206.234V11.9718ZM209.191 11.9718H209.785V7.9913L211.074 11.9713H211.735L213.077 8.00479V11.9718H213.725V7.09399H212.868L211.401 11.2729L210.149 7.09399H209.191V11.9718Z" fill="#646464"/>
</g>
<defs>
<linearGradient id="paint0_linear" x1="2.4873" y1="2.84595" x2="29.9939" y2="26.2854" gradientUnits="userSpaceOnUse">
<stop stop-color="#5A9FD4"/>
<stop offset="1" stop-color="#306998"/>
</linearGradient>
<linearGradient id="paint1_linear" x1="33.5993" y1="46.2449" x2="23.731" y2="32.4164" gradientUnits="userSpaceOnUse">
<stop stop-color="#FFD43B"/>
<stop offset="1" stop-color="#FFE873"/>
</linearGradient>
<clipPath id="clip0">
<rect width="218" height="51.1633" fill="white"/>
</clipPath>
</defs>
</svg>
