<svg width="218" height="69" viewBox="0 0 218 69" fill="none" xmlns="http://www.w3.org/2000/svg">
<g clip-path="url(#clip0)">
<path d="M44.6614 35.4298C45.2583 31.74 42.751 28.265 39.0613 27.6681C35.3715 27.0712 31.8964 29.5785 31.2995 33.2683C30.7026 36.9581 33.2099 40.4331 36.8997 41.03C40.5895 41.6269 44.0645 39.1196 44.6614 35.4298Z" fill="#00D8FF"/>
<path fill-rule="evenodd" clip-rule="evenodd" d="M37.9788 22.2086C28.9388 22.2086 20.4769 23.5238 14.2988 25.6776L13.7659 24.149L14.2988 25.6776C10.6465 26.951 7.82622 28.5166 5.95205 30.1201C4.04139 31.7548 3.32258 33.237 3.32258 34.3497C3.32258 35.5091 4.1056 37.1026 6.15129 38.8544C8.15126 40.5672 11.1458 42.2364 14.9905 43.5506L14.4669 45.0824L14.9905 43.5506C21.0523 45.6225 29.2302 46.6256 37.9788 46.6256C46.4921 46.6256 54.501 45.5604 60.5132 43.5684C64.5014 42.2469 67.6152 40.5844 69.6972 38.8704C71.8276 37.1166 72.635 35.5228 72.635 34.3497C72.635 33.2446 71.8886 31.75 69.9008 30.0912C67.9576 28.4699 65.0532 26.8923 61.3438 25.6153L61.8707 24.0846L61.3437 25.6153C55.1849 23.495 46.9284 22.2086 37.9788 22.2086ZM13.233 22.6204C19.8314 20.3201 28.6685 18.9709 37.9788 18.9709C47.2019 18.9709 55.8275 20.2921 62.3976 22.554C66.3566 23.9169 69.6437 25.6601 71.975 27.6054C74.2616 29.5133 75.8726 31.8313 75.8726 34.3497C75.8726 36.9526 74.1816 39.3723 71.7549 41.37C69.2798 43.4076 65.7778 45.2348 61.5314 46.6417C55.0923 48.7752 46.7163 49.8633 37.9788 49.8633C29.0408 49.8633 20.4704 48.8451 13.9433 46.6142L13.9433 46.6142C9.82263 45.2057 6.4356 43.3605 4.04535 41.3135C1.70082 39.3057 0.0849609 36.8942 0.0849609 34.3497C0.0849609 31.8683 1.61698 29.5681 3.84728 27.66C6.11405 25.7206 9.32488 23.983 13.233 22.6204L13.233 22.6204Z" fill="#00D8FF"/>
<path fill-rule="evenodd" clip-rule="evenodd" d="M50.1791 4.603C47.8038 5.47631 44.9863 7.20419 42.0269 9.77959C37.1134 14.0557 31.8742 20.5653 27.4033 28.3181C22.8871 36.1492 19.7991 44.1364 18.5785 50.5643C17.8569 54.3644 17.8043 57.5896 18.257 60.0142C18.7186 62.4858 19.6434 63.849 20.6073 64.405C21.6117 64.9842 23.3833 65.1019 25.9228 64.205C28.4056 63.3281 31.3476 61.568 34.4067 58.8939L35.4721 60.1128L34.4067 58.8939C39.2302 54.6777 44.1846 48.0948 48.5551 40.5161C52.8082 33.1412 55.8863 25.6713 57.1643 19.4679C58.012 15.3528 58.1273 11.8249 57.6826 9.16511C57.2276 6.4434 56.2503 4.94775 55.234 4.36172L56.0427 2.95938L55.234 4.36172C54.2768 3.80968 52.6091 3.70959 50.1791 4.603ZM49.0619 1.56424C51.857 0.536596 54.6698 0.298966 56.8514 1.55703C59.1063 2.85733 60.3576 5.53106 60.8759 8.63124C61.4046 11.7933 61.2379 15.7398 60.3353 20.1211C58.9665 26.7651 55.7248 34.5644 51.3598 42.1335C46.8946 49.8763 41.7312 56.7917 36.5375 61.3316C33.2588 64.1975 29.9683 66.2098 27.001 67.2578C24.0904 68.2858 21.1942 68.4808 18.9899 67.2097L18.9898 67.2096C16.8404 65.9699 15.6132 63.4938 15.0744 60.6085C14.5268 57.676 14.6256 54.0265 15.3977 49.9603L16.9881 50.2623L15.3977 49.9603C16.7014 43.095 19.9474 34.7659 24.5986 26.7006L25.9665 27.4895L24.5986 26.7006C29.2062 18.711 34.6599 11.8989 39.9015 7.3373L40.9642 8.55844L39.9015 7.33729C43.0599 4.58869 46.2121 2.61199 49.0619 1.56424Z" fill="#00D8FF"/>
<path fill-rule="evenodd" clip-rule="evenodd" d="M25.9417 4.73541C23.3565 3.77038 21.5726 3.87017 20.5574 4.45791L20.5573 4.45793C19.601 5.01157 18.6814 6.40633 18.2418 8.95779C17.8121 11.4518 17.902 14.7558 18.6553 18.6059L17.0666 18.9167L18.6553 18.6059C19.9061 24.9982 22.9293 32.7883 27.4132 40.5336C31.9425 48.3572 37.3201 55.0215 42.2794 59.2891C45.2113 61.8121 47.9793 63.4685 50.3059 64.2871C52.6779 65.1217 54.3208 65.0011 55.2838 64.4436L56.0948 65.8446L55.2838 64.4436C56.2872 63.8627 57.2739 62.3868 57.7652 59.7387C58.2454 57.1498 58.1898 53.7219 57.4009 49.7361C56.1569 43.4515 52.9279 35.8717 48.5447 28.3003L49.9456 27.4893L48.5447 28.3003C44.2793 20.9324 39.345 14.5352 34.6087 10.3299L34.6087 10.3299C31.467 7.54028 28.4681 5.67849 25.9417 4.73541ZM36.7583 7.90887C33.4133 4.93875 30.0775 2.8234 27.0739 1.70222C24.1292 0.602998 21.1879 0.351856 18.9352 1.65596C16.7557 2.91767 15.5568 5.47328 15.0512 8.40811C14.5357 11.4003 14.674 15.1186 15.4779 19.2276C16.8122 26.0466 19.9903 34.1737 24.6112 42.1557L26.0122 41.3447L24.6112 42.1557C29.2759 50.2132 34.8709 57.1852 40.1676 61.7432C43.3048 64.4428 46.4173 66.3511 49.2314 67.3412C52.0002 68.3154 54.7584 68.4888 56.9059 67.2456C59.108 65.9708 60.3855 63.3642 60.9485 60.3292C61.5225 57.2351 61.4224 53.3794 60.5769 49.1074L58.9889 49.4217L60.5769 49.1074C59.2375 42.3405 55.8247 34.4135 51.3466 26.6782C46.9689 19.1163 41.831 12.4128 36.7583 7.90887Z" fill="#00D8FF"/>
<path d="M120.812 47.2156L111.585 33.2722C116.25 32.8621 120.453 29.4788 120.453 23.3273C120.453 17.022 115.993 13.0236 109.739 13.0236H96.001V47.2156H100.256V33.631H107.074L115.788 47.2156H120.812ZM109.227 29.8889H100.256V16.817H109.227C113.277 16.817 116.045 19.4826 116.045 23.3273C116.045 27.172 113.276 29.8889 109.227 29.8889ZM136.652 47.8309C140.702 47.8309 144.034 46.4979 146.494 44.0373L144.649 41.5256C142.701 43.5248 139.83 44.6526 137.011 44.6526C131.68 44.6526 128.399 40.7566 128.091 36.0918H148.135V35.1178C148.135 27.6846 143.726 21.8408 136.242 21.8408C129.168 21.8408 124.041 27.6335 124.041 34.8102C124.041 42.5507 129.322 47.8309 136.652 47.8309ZM144.341 33.2722H128.091C128.296 29.4788 130.911 25.019 136.191 25.019C141.83 25.019 144.29 29.5813 144.341 33.2722ZM173.663 47.2156V30.1965C173.663 24.1988 169.306 21.8407 164.078 21.8407C160.028 21.8407 156.85 23.1735 154.184 25.9417L155.978 28.6073C158.182 26.2493 160.592 25.1727 163.565 25.1727C167.153 25.1727 169.819 27.0695 169.819 30.4015V34.8613C167.82 32.5545 165 31.478 161.617 31.478C157.413 31.478 152.953 34.0924 152.953 39.6287C152.953 45.0113 157.413 47.8309 161.617 47.8309C164.949 47.8309 167.768 46.6518 169.819 44.3961V47.2156H173.663ZM163.001 45.0625C159.413 45.0625 156.901 42.807 156.901 39.6801C156.901 36.5019 159.413 34.2462 163.001 34.2462C165.718 34.2462 168.332 35.2716 169.819 37.3221V41.9869C168.332 44.0373 165.718 45.0625 163.001 45.0625ZM192.272 47.8309C196.783 47.8309 199.448 45.9853 201.345 43.5248L198.782 41.1667C197.142 43.371 195.04 44.3961 192.477 44.3961C187.197 44.3961 183.916 40.2953 183.916 34.8101C183.916 29.325 187.197 25.2753 192.477 25.2753C195.04 25.2753 197.142 26.2493 198.782 28.5048L201.345 26.1467C199.448 23.6861 196.783 21.8407 192.272 21.8407C184.89 21.8407 179.917 27.4796 179.917 34.8101C179.917 42.1919 184.89 47.8309 192.272 47.8309ZM212.982 47.8309C215.237 47.8309 216.621 47.1644 217.595 46.2416L216.468 43.371C215.955 43.9349 214.93 44.3963 213.853 44.3963C212.162 44.3963 211.341 43.0636 211.341 41.218V25.8393H216.365V22.456H211.341V15.6892H207.497V22.4558H203.396V25.8392H207.497V42.0381C207.497 45.729 209.342 47.8309 212.982 47.8309Z" fill="#00D8FF"/>
</g>
<defs>
<clipPath id="clip0">
<rect width="218" height="68.2599" fill="white"/>
</clipPath>
</defs>
</svg>
