<svg width="220" height="76" viewBox="0 0 220 76" fill="none" xmlns="http://www.w3.org/2000/svg">
<g clip-path="url(#clip0)">
<path d="M219.016 56.3945L213.855 57.0791C213.855 57.0791 213.513 55.0167 211.793 53.6389C210.073 52.2611 204.228 52.6033 204.228 56.0435C204.228 59.1414 206.633 58.7904 211.451 59.8259C215.918 60.8615 219.7 62.2306 219.7 68.4264C219.7 71.8666 217.296 75.9913 209.731 75.9913C197.348 75.9913 198.383 66.7063 198.383 66.7063H203.886C203.886 66.7063 204.228 69.8042 206.291 70.4888C208.695 71.5243 212.829 71.1733 213.513 69.1109C214.198 67.0486 214.198 64.644 207.668 63.9507C201.13 62.9151 198.383 60.1682 198.383 55.7012C198.726 51.5765 201.13 48.1363 209.731 48.1363C218.322 48.4874 219.016 56.3945 219.016 56.3945ZM195.286 56.3945L190.125 57.0791C190.125 57.0791 189.783 55.0167 188.063 53.6389C186.343 52.2611 180.498 52.6033 180.498 56.0435C180.498 59.1414 182.903 58.7904 187.721 59.8259C192.188 60.8615 195.97 62.2306 195.97 68.4264C195.97 71.8666 193.565 75.9913 186.001 75.9913C173.618 75.9913 174.653 66.7063 174.653 66.7063H180.498C180.498 66.7063 180.84 69.8042 182.903 70.4888C185.307 71.5243 189.441 71.1733 190.125 69.1109C190.81 67.0486 190.81 64.644 184.28 63.9507C178.436 63.2661 175.338 60.8527 175.338 57.0703V55.6925C175.68 51.5677 178.085 48.1276 186.343 48.1276C194.25 48.4874 195.286 56.3945 195.286 56.3945ZM166.053 66.0306H171.898V66.3728C171.555 68.4352 170.52 75.6578 160.55 75.6578C151.607 75.6578 148.518 68.7775 148.518 61.5548C148.518 53.9899 152.985 48.4874 161.244 48.4874C170.529 48.4874 171.213 57.4301 171.213 57.4301L165.71 58.1146C165.71 58.1146 165.368 53.2966 160.55 53.2966C155.732 53.2966 154.012 57.0791 154.012 61.546C154.012 66.013 155.39 71.1733 160.199 71.1733C165.026 71.1821 166.053 66.0306 166.053 66.0306ZM136.82 49.1719V75.3068H132.002V72.9022C132.002 72.9022 130.282 76.0001 126.157 76.0001C121.69 76.0001 118.592 73.9377 118.25 66.0306C118.25 57.7811 123.41 55.71 126.85 55.71C129.948 55.71 132.011 58.1146 132.011 58.1146V49.1719H136.82ZM132.011 65.6795C132.011 62.9326 131.668 59.8347 127.544 59.8347C123.419 59.8347 123.419 64.6527 123.419 66.0218C123.419 67.7419 123.761 71.5243 127.544 71.5243C131.326 71.5243 132.011 68.4352 132.011 65.6795ZM114.468 62.2393V74.9645H109.307V62.5904C109.307 60.8703 108.272 59.4925 106.209 59.4925C104.147 59.4925 102.085 61.2125 102.085 62.9326V74.9645H96.9243V55.71H102.085V58.4569C102.085 58.4569 103.805 55.0167 108.965 55.359C114.819 56.0523 114.468 61.5548 114.468 62.2393ZM87.6481 56.0523H92.8084V75.3068H87.6481V56.0523ZM87.6481 49.1719H92.8084V53.6389H87.6481V49.1719ZM85.5858 56.0523L80.0832 75.3068H74.923L71.4828 62.5816L68.0426 75.3068H63.2246L57.722 56.0523H63.2246L65.9715 68.4352L69.7539 56.0523H74.2209L77.3188 68.7774L80.0657 56.0523H85.5858ZM50.1659 48.8296H55.3262V74.9645H50.1659V48.8296ZM40.8809 56.0523H46.0412V75.3068H40.8809V56.0523ZM40.8809 49.1719H46.0412V53.6389H40.8809V49.1719ZM36.7562 62.9326V74.9645H31.9382V72.5599C31.9382 72.5599 30.5604 74.28 28.498 74.9645C25.4001 76.0001 20.9331 75.3068 19.5553 71.8666C18.5197 69.1197 19.5553 66.0218 22.3022 64.644C25.7511 62.9326 31.5959 63.2749 31.5959 63.2749C31.5959 63.2749 31.9382 61.8971 31.2537 60.8703C30.9114 59.8347 29.8758 59.4925 28.5068 59.4925C25.0666 59.4925 25.0666 61.8971 25.0666 61.8971L20.2486 61.5548C20.2486 61.5548 20.2486 59.1502 22.6532 57.4301C24.031 56.3945 25.7511 56.0523 28.8403 56.0523C32.6227 56.0523 36.7562 57.4301 36.7562 62.9326ZM28.8403 71.5243C32.2805 70.8398 31.9382 66.7063 31.9382 66.7063H30.5604C29.5248 66.7063 28.1557 66.7063 27.1202 67.0486C25.4001 67.3908 24.7156 68.0841 24.3733 68.7687C24.031 69.8042 24.3733 70.831 25.4089 71.5156C26.0934 71.8754 27.1202 71.8754 28.8403 71.5243ZM21.6176 48.8296V53.9899H13.7105V75.3068H7.86568V53.6477H0.300781V48.8296H21.6176Z" fill="#252A2F"/>
<path d="M148.517 7.90716C148.517 7.90716 143.699 15.1298 135.45 13.752C127.192 12.3829 125.823 0 111.035 0C92.8075 0 90.7451 15.4721 90.7451 15.4721C90.7451 15.4721 95.9054 7.90716 103.813 9.28499C111.72 10.6628 114.818 23.037 130.983 23.037C147.148 23.037 148.517 7.90716 148.517 7.90716Z" fill="#45A9B3"/>
<path d="M129.255 30.9528C129.255 30.9528 124.437 38.1754 116.187 36.7976C107.938 35.4198 106.56 23.0457 91.7725 23.0457C73.5448 23.0457 71.4824 38.5177 71.4824 38.5177C71.4824 38.5177 76.6427 30.9528 84.5499 32.3306C92.1148 33.7085 95.5549 46.0826 111.72 46.0826C127.886 46.0826 129.255 30.9528 129.255 30.9528Z" fill="#45A9B3"/>
</g>
<defs>
<clipPath id="clip0">
<rect width="219.4" height="76" fill="white" transform="translate(0.300781)"/>
</clipPath>
</defs>
</svg>
